<svg width="195" height="486" viewBox="0 0 195 486" fill="none" xmlns="http://www.w3.org/2000/svg">
<path d="M146.634 107.247C145.438 107.855 146.07 109.05 144.129 114.237C143.137 116.898 142.64 118.228 141.625 119.649C141.084 120.415 140.587 120.934 140.745 121.114C141.061 121.543 143.994 119.964 146.115 118.453C148.055 117.078 149.386 115.747 150.334 114.62C152.003 112.636 152.86 111.666 152.703 110.539C152.409 108.261 148.574 106.254 146.634 107.247Z" fill="#FC3824"/>
<path d="M88.3354 44.7856C89.2605 43.4101 88.6964 42.5307 89.0348 37.7503C89.4635 32.0454 90.3885 31.8875 92.1934 22.2816C93.344 16.1483 94.3142 9.27079 94.3142 9.27079C95.1264 3.40803 94.9459 3.31783 95.4197 2.70901C98.6234 -1.53023 106.633 2.7541 123.802 1.91979C127.254 1.76194 128.494 1.51391 131.585 1.6492C135.443 1.82959 137.542 2.41587 147.423 5.07666C158.907 8.16589 161.163 8.72962 165.247 10.3532C168.27 11.5483 170.707 12.6983 172.376 13.51C171.699 20.7934 170.752 26.5885 170.007 30.5346C169.015 35.7885 168.541 41.1327 167.368 46.3641C166.42 50.6259 165.63 53.1965 166.849 54.1435C168.27 55.2484 171.79 53.6925 177.001 51.37C177.001 51.37 179.302 50.3553 183.476 49.9268C184.153 49.8592 185.01 49.7915 185.597 50.3327C186.635 51.2798 186.026 53.4219 185.868 54.0308C184.988 57.1651 182.19 59.2396 178.468 61.4269C173.391 64.4259 170.819 65.9141 165.924 67.3573C159.832 69.1387 154.575 69.5445 146.927 69.5896C138.354 69.6573 129.623 69.7024 117.507 68.0112C109.927 66.9514 100.067 65.5759 88.3354 61.4269C75.7011 56.9621 71.0761 52.8808 64.3077 52.7229C63.3827 52.7004 60.0887 52.7004 59.2991 51.0092C58.5771 49.4758 60.3369 47.3562 60.4948 47.1758C62.6833 44.6052 66.451 45.0111 66.9699 45.0562C81.6347 48.9121 86.6433 47.266 88.3354 44.7856Z" fill="#2B5ADC"/>
<path d="M96.3446 7.10657C97.2245 9.83501 101.24 10.8497 106.204 12.0223C115.025 14.1419 119.425 15.1791 120.508 15.337C125.291 15.9684 125.832 15.7654 143.34 16.2615C147.604 16.3742 151.913 15.9684 156.132 16.5321C160.734 17.1409 165.337 18.3135 169.06 15.8782C170.233 15.1115 170.391 14.5929 170.391 14.2997C170.391 12.7889 166.803 11.7968 159.561 9.67717C147.356 6.13696 148.01 6.2046 144.919 5.46048C139.053 4.03989 136.12 3.31832 133.052 2.95753C129.126 2.484 124.636 2.68694 115.634 3.09283C110.874 3.29577 106.114 4.33303 101.376 3.74675C100.338 3.61146 97.5403 3.22812 96.5251 4.64871C95.8934 5.55068 96.2544 6.81343 96.3446 7.10657Z" fill="#FC3824"/>
<path d="M91.2007 37.7943C94.0435 36.1933 97.3374 39.1247 103.203 41.6277C107.535 43.4767 113.401 44.1306 125.11 45.461C137.632 46.8591 143.904 47.5806 149.003 46.6561C154.011 45.7542 163.532 43.2061 165.111 45.7316C165.179 45.8443 165.608 46.5885 165.856 47.6483C166.172 49.0689 165.901 49.9708 165.766 51.3914C165.495 54.3228 166.285 54.6836 165.901 56.014C165.721 56.6228 164.999 58.4268 160.486 59.9601C155.027 61.8091 150.108 61.2228 148.213 61.0199C138.286 59.915 141.76 61.4709 128.81 60.2307C113.762 58.7875 117.62 57.5022 103.203 55.8787C99.2325 55.4277 93.0508 54.864 89.8696 50.6022C89.5086 50.1287 88.6964 48.911 88.2903 47.1747C87.5007 43.6571 88.6739 39.2149 91.2007 37.7943Z" fill="#FC3824"/>
<path d="M165.766 68.6636C159.562 72.993 161.434 72.993 156.132 76.443C151.169 79.6901 146.409 81.7421 142.663 83.0274C142.596 83.0725 142.551 83.095 142.483 83.1401C139.618 84.9215 135.173 87.1764 129.33 88.3039C123.599 89.4313 119.583 88.8676 112.431 87.898C106.34 87.0637 104.693 86.1166 103.723 84.7411C102.572 83.0725 103.113 81.8097 101.489 78.2695C100.338 75.7891 99.6616 74.3685 98.1951 73.6469C96.3225 72.745 94.1792 73.4891 90.4115 74.842C88.02 75.6989 87.4108 76.2401 84.9968 76.8264C82.8535 77.345 81.7028 77.6156 80.3717 77.2322C77.5741 76.3979 76.3333 73.2862 76.0174 72.4744C74.8216 69.4979 75.4759 66.792 76.1528 63.9057C76.8522 60.9743 77.2357 59.5086 78.3863 58.6292C80.8681 56.7802 84.6809 59.2381 91.2237 61.6959C99.6616 64.8528 106.926 65.8224 114.281 66.792C117.869 67.2655 120.644 67.4685 126.081 67.8518C132.308 68.3028 133.91 68.2126 141.4 68.7312C149.951 69.3175 149.071 69.4979 151.259 69.4528C160.171 69.2499 166.781 66.4538 167.097 67.3332C167.21 67.6714 166.375 68.2352 165.766 68.6636Z" fill="#FFDB13"/>
<path d="M156.922 71.8219C160.283 69.364 166.217 66.0268 167.458 67.4473C167.886 67.9209 167.571 68.7101 167.119 70.266C166.217 73.265 165.901 76.4219 165.111 79.466C162.697 88.8915 163.713 89.7484 161.953 91.3268C159.945 93.1533 158.343 92.3867 154.056 94.2131C150.469 95.7239 147.942 97.7985 146.386 99.2416C145.957 99.422 145.28 99.6475 144.423 99.67C143.768 99.6926 142.505 99.7377 142.234 99.1739C142.031 98.7455 142.55 98.272 144.129 96.0847C144.919 95.0024 144.603 95.3631 145.37 94.3484C147.198 91.868 147.356 91.9131 148.01 90.9435C148.687 89.9063 149.138 88.5984 150.018 85.9827C150.717 83.9307 150.875 83.0739 150.943 82.4425C151.123 81.0445 151.011 80.1425 150.988 79.6013C150.966 78.9699 151.394 75.8807 156.922 71.8219Z" fill="#FC3824"/>
<path d="M59.2765 115.185C59.0283 114.554 60.0661 113.9 62.0515 110.63C63.2021 108.736 63.9692 107.112 64.4204 106.075C65.729 104.767 66.7217 103.55 67.4662 102.512C72.3169 95.8153 71.076 91.4633 75.5206 86.5476C76.1748 85.8035 77.2804 84.7211 78.431 82.8495C80.1231 80.0985 79.6042 79.4446 80.6646 78.0917C82.3792 75.927 84.2518 76.8966 91.0878 74.6642C94.4495 73.5593 95.3068 72.8828 96.8861 73.3564C98.8038 73.8975 99.9093 75.5436 101.24 77.573C103.835 81.5191 103.068 82.8721 104.67 84.6986C105.211 85.3299 106.836 86.9084 116.424 87.2015C122.29 87.3819 125.246 87.4721 129.352 86.6829C133.571 85.8486 139.82 84.6309 145.979 80.3466C147.897 79.0162 149.589 77.528 150.604 78.1142C151.868 78.8583 151.168 82.4437 150.334 85.5103C150.063 86.9084 149.544 88.9152 148.348 91.0574C146.882 93.7182 145.077 95.4545 143.859 96.4692C143.137 97.5966 142.415 98.9496 142.798 99.378C143.295 99.8967 144.987 98.5212 145.844 99.1074C146.295 99.4231 146.634 100.393 145.709 103.459C146.205 104.497 146.792 106.098 146.769 108.082C146.746 110.179 146.047 111.69 143.61 116.38C141.557 120.326 140.52 122.288 140.317 122.446C136.526 125.174 130.705 119.898 118.951 116.38C112.972 114.599 108.392 114.148 101.601 113.471C96.6153 112.975 89.2378 112.276 80.0103 113.088C68.5491 114.08 59.9533 116.921 59.2765 115.185Z" fill="#2B5ADC"/>
<path d="M50.2515 97.7539C49.9357 97.2352 50.1613 96.4686 50.2515 96.1754C50.6351 94.9352 51.8308 94.3264 52.3723 94.0558C54.7864 92.8607 57.4937 93.5372 62.1413 93.9205C65.5255 94.1911 67.2176 94.349 69.1353 94.0558C71.053 93.7627 73.8957 93.3342 76.6482 91.4176C78.3403 90.245 78.9044 89.2754 81.1379 88.2607C82.4239 87.6744 84.5447 86.9529 84.9282 87.5166C85.0636 87.7195 84.8605 87.9676 83.1684 90.5833C82.6721 91.3499 82.266 92.0038 81.9952 92.9735C81.8147 93.6499 81.6117 94.4166 81.9276 94.6872C82.2885 94.9803 83.0331 94.5068 85.3569 93.244C87.9289 91.846 87.5453 92.1391 88.4026 91.6205C90.9069 90.0872 91.0874 89.4333 92.1929 89.3882C92.757 89.3656 93.5917 89.794 95.2838 90.6284C97.1338 91.5754 98.0589 92.0489 98.8485 92.748C99.9315 93.7176 100.518 94.7097 101.082 95.6568C102.12 97.3705 101.872 97.6637 102.526 98.5656C103.248 99.5578 103.925 99.7607 107.399 101.339C111.866 103.369 110.49 102.918 112.679 103.842C113.852 104.338 115.589 105.037 116.627 106.075C117.552 106.999 118.138 108.104 118.138 108.104C118.229 108.262 118.296 108.42 118.341 108.51C118.387 108.6 118.432 108.69 118.477 108.848C118.748 109.547 118.996 110.877 118.477 111.351C117.823 111.937 116.153 111.013 115.837 110.832C114.326 109.93 114.1 108.893 113.197 108.059C112.43 107.337 111.37 106.954 106.722 107.134C99.9315 107.405 99.1418 108.352 96.9534 107.405C96.818 107.337 96.9759 107.405 92.599 103.977C88.8539 101.046 88.8539 101.091 88.5154 100.685C87.6356 99.648 87.1843 98.7911 86.2819 98.7009C85.8081 98.6558 85.5825 98.8588 84.1611 99.7607C82.0855 101.069 82.6947 100.573 80.3257 102.128C78.9495 103.03 78.9946 103.03 78.7464 103.188C75.7458 104.947 71.5719 103.594 69.9024 103.053C69.3609 102.873 69.3158 102.85 63.698 100.144C61.0133 98.8588 59.6596 98.2274 59.4791 98.1598C54.854 96.8745 51.1314 99.197 50.2515 97.7539Z" fill="#FFDB13"/>
<path d="M92.6451 77.2344L85.7865 86.3217L81.4321 93.1991L81.7029 94.7776L85.1322 94.507L90.9305 90.155L96.097 87.6521L95.6909 85.1491L96.2098 82.6462L92.6451 77.2344Z" fill="#FC3824"/>
<path d="M124.297 75.0013C124.523 74.9562 124.906 74.9111 125.177 75.1366C125.673 75.565 125.403 76.7601 125.042 77.5042C124.207 79.2405 122.244 79.917 120.936 80.368C119.943 80.7062 119.198 80.8189 118.07 80.9993C116.31 81.2699 115.408 81.4052 114.325 81.1346C113.693 80.9768 112.317 80.6386 111.46 79.3984C110.038 77.3238 111.437 74.663 111.708 74.1669C111.934 73.7385 112.543 72.6111 113.197 72.6787C113.784 72.7238 114.122 73.6483 114.325 74.1669C115.115 76.264 114.302 77.5719 115.115 78.2483C115.431 78.5189 115.927 78.5415 116.92 78.564C117.326 78.5866 118.138 78.6091 119.085 78.3385C120.687 77.8876 121.838 76.8277 122.289 76.4219C122.989 75.7228 123.417 75.1366 124.297 75.0013Z" fill="#FC3824"/>
<path d="M90.0724 66.0961C90.3883 65.9609 90.6139 65.8707 90.817 65.9608C91.2231 66.1638 91.2908 67.0432 91.0651 67.6971C90.817 68.3961 90.2304 68.7795 89.5761 69.1854C88.809 69.6589 88.1547 69.8844 87.5907 70.0648C85.1541 70.8314 83.9132 71.2148 82.9657 70.9442C82.6047 70.854 81.3638 70.4932 80.8449 69.456C80.2583 68.2834 81.2736 67.5393 80.8449 65.4648C80.6644 64.5628 80.3035 63.8187 80.5968 63.5932C80.7998 63.4354 81.2059 63.6158 81.4766 63.7285C81.5443 63.751 82.0407 63.954 82.3565 64.3599C83.1011 65.2844 82.1986 66.3216 82.8529 67.8099C82.9882 68.1256 83.259 68.7344 83.8456 68.9824C84.4322 69.2305 85.109 68.8697 86.4627 68.2383C87.8389 67.6069 88.5157 67.2687 89.0798 66.7501C89.1249 66.6599 89.5084 66.3216 90.0724 66.0961Z" fill="#FC3824"/>
<path d="M147.13 108.598C147.851 109.5 148.19 109.951 148.709 110.312C150.22 111.371 152.183 110.988 154.124 110.582C155.68 110.244 158.072 109.522 160.711 107.809C161.14 107.673 165.133 106.253 166.397 102.126C167.277 99.2851 166.307 96.8724 165.991 96.1959C165.607 95.339 164.727 93.3322 162.697 92.4978C161.321 91.9341 160.102 92.1822 158.072 92.6331C157.034 92.8586 154.259 93.5576 150.672 95.79C147.987 97.4586 146.656 98.293 145.798 100.007C145.595 100.413 144.287 103.073 145.279 105.689C145.686 106.771 146.43 107.696 147.13 108.598Z" fill="#FFDB13"/>
<path d="M150.423 101.339C152.115 100.798 152.319 99.7156 153.717 99.2195C154.845 98.8136 155.928 99.0842 156.492 99.2195C157.011 99.3548 157.372 99.445 157.688 99.7381C158.342 100.369 158.455 101.542 158.094 102.376C157.688 103.301 156.966 103.211 156.38 104.361C156.289 104.541 155.793 105.488 156.109 105.804C156.47 106.165 157.733 105.556 158.478 105.015C158.839 104.767 160.192 103.729 160.599 101.858C160.711 101.384 160.959 100.189 160.328 98.9489C159.854 98.0018 159.109 97.5057 158.884 97.3705C157.079 96.2204 154.868 96.8744 153.605 97.2352C153.063 97.393 150.153 98.2499 149.521 100.144C149.453 100.347 149.205 101.046 149.521 101.339C149.724 101.542 150.108 101.452 150.423 101.339Z" fill="#FC3824"/>
<path d="M128.472 390.486C128.991 391.185 128.472 405.617 128.472 405.617L130.592 426.903L133.751 447.648L135.511 455.563L130.592 457.683L124.614 462.08L112.295 463.658L99.7962 462.08L97.856 460.682L93.7949 442.011L88.5156 416.17L87.2747 407.736L86.2144 398.942L96.412 398.762L105.391 398.063L114.89 396.124L128.472 390.486Z" fill="#FFDB13"/>
<path d="M62.8411 460.999L60.0209 448.327L56.3208 425.642L54.7415 413.691L51.9214 396.982L65.6386 398.403L77.2577 399.282H84.8157L86.4176 407.535L89.7567 426.522L92.9152 444.291L96.0964 459.06L89.9372 459.241L84.9962 460.481L79.8974 461.698L62.999 462.24L62.8411 460.999Z" fill="#FFDB13"/>
<path d="M26.9464 482.375C26.9464 482.375 27.5105 482.105 27.5105 482.082C42.1527 474.686 41.4082 475.069 42.2655 474.618C52.1925 469.522 57.156 466.974 58.803 465.464C59.7731 464.584 61.1945 463.231 63.5634 462.307C66.8573 460.999 70.1062 461.314 72.3623 461.788C74.3477 462.081 77.3258 462.307 80.8002 461.608C86.7113 460.435 90.0954 457.414 91.3589 458.609C92.329 459.533 90.3662 461.36 90.479 465.644C90.5918 469.5 92.2388 470.943 91.1784 472.86C90.6595 473.807 89.4186 474.303 86.9594 475.317C83.3722 476.783 81.2966 477.64 79.0404 476.896C77.7093 476.445 76.288 475.43 75.8818 475.137C74.3026 474.01 74.077 473.378 73.2422 473.198C71.6403 472.86 70.219 474.731 68.8427 476.016C67.3988 477.347 64.0597 478.384 57.4042 480.414C53.0273 481.744 49.1242 482.668 46.1912 483.367C45.5821 483.503 44.7699 483.706 43.6869 483.931C41.1601 484.45 39.0393 484.743 36.8283 484.991C27.9843 485.961 27.2398 485.239 26.969 484.811C26.6757 484.427 26.4726 483.706 26.9464 482.375Z" fill="#2B5ADC"/>
<path d="M39.6935 481.408L46.5521 478.927L53.7718 475.59L58.1712 472.433L57.1108 470.494L52.5309 472.614L42.8521 477.011L38.4526 480.348L39.6935 481.408Z" fill="#FFDB13"/>
<path d="M102.368 462.712C101.376 463.704 101.759 465.959 102.549 470.447C103.023 473.22 103.542 474.235 104.128 475.024C105.234 476.512 106.632 477.189 107.648 477.662C109.723 478.632 114.574 480.165 116.965 478.023C117.845 477.234 118.206 476.129 119.605 475.746C120.44 475.498 121.162 475.655 121.545 475.746C125.719 476.738 130.164 479.782 130.164 479.782C131.788 480.887 136.052 481.338 144.603 482.24C152.567 483.074 149.928 482.307 159.2 483.119C159.2 483.119 161.592 483.322 170.639 482.059C171.18 481.992 172.444 481.789 173.098 480.819C173.752 479.872 173.504 478.632 173.459 478.361C172.872 475.543 166.984 474.37 158.862 471.687C150.604 468.958 152.296 468.733 144.964 466.41C143.498 465.959 141.287 464.922 136.865 462.893C134.541 461.833 132.33 460.75 131.766 458.676C131.45 457.548 131.833 456.827 131.405 456.556C130.435 455.947 128.156 459.691 124.095 461.9C119.831 464.245 115.228 463.975 112.611 463.817C106.52 463.456 103.903 461.201 102.368 462.712Z" fill="#2B5ADC"/>
<path d="M155.997 477.346L149.138 474.889L141.918 471.551L137.519 468.394L138.579 466.455L143.159 468.552L152.838 472.949L157.238 476.309L155.997 477.346Z" fill="#FFDB13"/>
<path d="M59.3892 115.434C61.2392 115.029 69.1582 113.315 69.1582 113.315C69.1582 113.315 76.7163 112.571 82.0858 112.255C84.9737 112.097 90.5463 111.781 97.2244 112.165C98.8037 112.255 106.136 112.706 115.883 114.893C117.575 115.277 118.206 115.457 135.669 120.598C140.835 122.131 143.836 123.011 148.078 124.296C157.734 127.205 160.892 128.242 164.434 129.573C172.218 132.459 174.813 134.06 176.753 135.458C177.678 136.134 180.385 138.186 183.273 141.524C186.725 145.537 188.733 149.506 189.861 152.257L191.801 160.781L191.531 177.49L187.041 195.168L185.371 202.113L179.483 215.034L172.263 226.827L168.473 232.802L161.344 244.145L156.854 251.789L151.146 257.674L147.807 257.855L148.416 262.071L149.025 265.679L144.987 272.624L138.399 283.177L136.143 285.432L134.36 293.978L136.481 300.923L138.67 307.868L139.91 321.668L141.061 336.709L143.182 352.358L146.34 367.218L149.77 378.921L146.431 381.559L128.562 390.173L113.243 397.118L98.894 399.237L71.0985 399.666L48.1311 397.118L36.0834 393.42L27.8034 392.901L27.7132 363.001L27.8937 328.884L28.954 305.23L24.9607 294.858L22.321 288.927L20.471 277.856L22.7046 268.498L24.5546 262.297L24.1485 237.899L19.0045 218.236C19.5009 212.959 18.8466 208.72 18.2149 205.969C17.7862 204.165 17.1996 201.662 15.6655 198.753C13.7703 195.145 12.5971 195.033 9.77697 191.109C8.91964 189.914 5.76106 185.404 3.70798 178.888C3.43725 178.031 2.53482 175.054 2.03847 170.973C1.54212 166.914 0.842725 160.69 3.27934 153.565C4.76839 149.213 6.82145 146.259 7.94951 144.681C9.34831 142.696 12.2136 139.088 20.5387 133.248C28.4352 127.701 35.3615 124.296 38.8359 122.695C42.8292 120.869 50.3196 117.464 59.3892 115.434Z" fill="#2B5ADC" stroke="black" stroke-miterlimit="10"/>
<path d="M189.703 184.772C186.861 189.305 183.612 191.199 161.276 203.195C155.094 206.51 146.566 211.087 136.301 216.566L114.845 231.877L94.4271 244.37L78.4086 256.862L57.6522 270.752C45.582 275.893 38.8812 282.342 34.9556 287.461C31.797 291.587 28.5256 297.337 25.6829 296.638C24.1487 296.278 23.4494 294.203 22.1182 290.302C21.1481 287.483 19.9072 283.65 20.1328 278.441C20.3585 273.39 21.8926 269.467 23.0432 267.099C25.4799 262.138 28.7738 259.004 30.7366 257.38L42.8746 242.791L53.2528 234.876L70.6701 220.287L89.1477 205.698L110.446 191.447L124.524 180.713L146.16 165.944C149.86 163.125 154.959 159.292 161.118 154.872C179.167 141.884 181.311 141.658 182.98 142.087C192.208 144.387 199.179 169.642 189.703 184.772Z" fill="#FFDB13"/>
<path d="M0.730073 164.593C0.256286 173.387 3.43742 180.332 5.4905 183.985C9.14542 190.096 12.8229 196.206 16.4779 202.317L38.1141 225.881L67.1505 249.445L85.4476 263.155L109.724 276.346L133.819 286.538L138.918 284.261L147.356 272.467L149.815 265.432L148.416 258.397L131.698 246.784L115.161 234.472L75.7463 210.029L59.9083 196.477L42.3105 179.249L36.8507 169.396L31.2103 156.385C28.2323 146.418 22.5468 138.639 16.6132 138.458C8.2881 138.21 1.33923 153.025 0.730073 164.593Z" fill="#FFDB13"/>
</svg>
