<svg width="96" height="133" viewBox="0 0 96 133" fill="none" xmlns="http://www.w3.org/2000/svg">
<path d="M13.2469 132.346L82.2826 132.281C89.329 132.281 95.0441 126.631 95.0441 119.649L94.9467 12.9764C94.9467 5.99475 89.2316 0.376953 82.1527 0.376953L13.117 0.441922C6.07054 0.441922 0.355469 6.09214 0.355469 13.0738L0.452861 119.747C0.485333 126.696 6.20043 132.346 13.2469 132.346Z" fill="#2B5ADC"/>
<path d="M81.892 9.66443V5.31312H79.1643C78.5474 5.31312 78.0278 4.89097 78.0278 4.3714C78.0278 3.85184 78.5474 3.42969 79.1643 3.42969H86.8927C87.5097 3.42969 88.0292 3.85184 88.0292 4.3714C88.0292 4.89097 87.5097 5.31312 86.8927 5.31312H84.1651V9.66443C84.9444 8.72272 86.1783 7.87846 87.9318 8.26813C91.4713 9.07995 89.5879 16.3863 83.0285 18.8542C81.7296 18.3671 80.5931 17.6852 79.6839 16.9059C75.9171 13.7235 75.3002 8.91758 78.1253 8.26813C79.8787 7.87846 81.1127 8.72272 81.892 9.66443Z" fill="#F3F3F3"/>
<path d="M15.584 123.776V128.127H18.3116C18.9286 128.127 19.4482 128.549 19.4482 129.069C19.4482 129.588 18.9286 130.01 18.3116 130.01H10.5833C9.96634 130.01 9.44678 129.588 9.44678 129.069C9.44678 128.549 9.96634 128.127 10.5833 128.127H13.311V123.776C12.5316 124.717 11.2977 125.562 9.54417 125.172C6.00471 124.36 7.88813 117.054 14.4475 114.586C15.7464 115.073 16.8829 115.755 17.7921 116.534C21.5589 119.717 22.1758 124.523 19.3508 125.172C17.5973 125.562 16.3633 124.717 15.584 123.776Z" fill="#F3F3F3"/>
<path d="M51.234 71.7894V85.8947H60.4449C62.5284 85.8947 64.2829 87.2631 64.2829 88.9473C64.2829 90.6316 62.5284 92 60.4449 92H34.3472C32.2637 92 30.5093 90.6316 30.5093 88.9473C30.5093 87.2631 32.2637 85.8947 34.3472 85.8947H43.5582V71.7894C40.9265 74.842 36.7595 77.5789 30.8381 76.3158C18.8858 73.6842 25.2459 50 47.3961 42C51.7823 43.5789 55.6202 45.7895 58.6905 48.3158C71.4104 58.6316 73.4939 74.2105 63.954 76.3158C58.0326 77.5789 53.8658 74.842 51.234 71.7894Z" fill="#F3F3F3"/>
</svg>
