<svg width="97" height="135" viewBox="0 0 97 135" fill="none" xmlns="http://www.w3.org/2000/svg">
<path d="M13.16 134.555L83.634 134.489C90.8273 134.489 96.6615 128.738 96.6615 121.633L96.562 13.0689C96.562 5.96348 90.7279 0.246094 83.5015 0.246094L13.0274 0.312215C5.83414 0.312215 0 6.0626 0 13.168L0.0994217 121.732C0.13257 128.804 5.96674 134.555 13.16 134.555Z" fill="#2B5ADC"/>
<path d="M15.0476 122.953L11.6333 131.579H18.4951L15.0476 122.953Z" fill="#F3F3F3"/>
<path d="M11.0368 128.007C12.9408 128.007 14.4843 126.306 14.4843 124.207C14.4843 122.108 12.9408 120.406 11.0368 120.406C9.1328 120.406 7.58936 122.108 7.58936 124.207C7.58936 126.306 9.1328 128.007 11.0368 128.007Z" fill="#F3F3F3"/>
<path d="M15.0461 124.538C16.9501 124.538 18.4935 122.614 18.4935 120.242C18.4935 117.869 16.9501 115.945 15.0461 115.945C13.1421 115.945 11.5986 117.869 11.5986 120.242C11.5986 122.614 13.1421 124.538 15.0461 124.538Z" fill="#F3F3F3"/>
<path d="M18.9933 128.007C20.8973 128.007 22.4408 126.306 22.4408 124.207C22.4408 122.108 20.8973 120.406 18.9933 120.406C17.0893 120.406 15.5459 122.108 15.5459 124.207C15.5459 126.306 17.0893 128.007 18.9933 128.007Z" fill="#F3F3F3"/>
<path d="M48.5419 65.1035L36.3115 96.0011H60.8908L48.5419 65.1035Z" fill="#F3F3F3"/>
<path d="M34.1751 83.2082C40.9953 83.2082 46.5242 77.1131 46.5242 69.5943C46.5242 62.0756 40.9953 55.9805 34.1751 55.9805C27.3549 55.9805 21.8262 62.0756 21.8262 69.5943C21.8262 77.1131 27.3549 83.2082 34.1751 83.2082Z" fill="#F3F3F3"/>
<path d="M48.5366 70.7792C55.3567 70.7792 60.8855 63.889 60.8855 55.3896C60.8855 46.8902 55.3567 40 48.5366 40C41.7164 40 36.1875 46.8902 36.1875 55.3896C36.1875 63.889 41.7164 70.7792 48.5366 70.7792Z" fill="#F3F3F3"/>
<path d="M62.6756 83.2082C69.4958 83.2082 75.0246 77.1131 75.0246 69.5943C75.0246 62.0756 69.4958 55.9805 62.6756 55.9805C55.8554 55.9805 50.3267 62.0756 50.3267 69.5943C50.3267 77.1131 55.8554 83.2082 62.6756 83.2082Z" fill="#F3F3F3"/>
<path d="M84.3606 12.9342L87.7749 4.30859H80.9463L84.3606 12.9342Z" fill="#F3F3F3"/>
<path d="M88.3732 15.4761C90.2772 15.4761 91.8207 13.7746 91.8207 11.6756C91.8207 9.57657 90.2772 7.875 88.3732 7.875C86.4693 7.875 84.9258 9.57657 84.9258 11.6756C84.9258 13.7746 86.4693 15.4761 88.3732 15.4761Z" fill="#F3F3F3"/>
<path d="M84.3601 19.909C86.264 19.909 87.8075 17.9855 87.8075 15.6127C87.8075 13.2399 86.264 11.3164 84.3601 11.3164C82.4561 11.3164 80.9126 13.2399 80.9126 15.6127C80.9126 17.9855 82.4561 19.909 84.3601 19.909Z" fill="#F3F3F3"/>
<path d="M80.4162 15.4761C82.3202 15.4761 83.8637 13.7746 83.8637 11.6756C83.8637 9.57657 82.3202 7.875 80.4162 7.875C78.5122 7.875 76.9688 9.57657 76.9688 11.6756C76.9688 13.7746 78.5122 15.4761 80.4162 15.4761Z" fill="#F3F3F3"/>
</svg>
