<svg width="96" height="133" viewBox="0 0 96 133" fill="none" xmlns="http://www.w3.org/2000/svg">
<path d="M13.8166 132.153L82.8519 132.088C89.8983 132.088 95.6134 126.438 95.6134 119.457L95.5159 12.7866C95.5159 5.80514 89.8009 0.1875 82.722 0.1875L13.6867 0.252443C6.64032 0.252443 0.925293 5.90256 0.925293 12.884L1.02268 119.554C1.05516 126.503 6.77022 132.153 13.8166 132.153Z" fill="#2B5ADC"/>
<path d="M79.3435 3.66048C80.3176 2.78374 81.4541 2.00442 82.753 1.41992C90.4489 4.99183 92.5595 15.3504 88.4031 16.4544C87.8836 16.5843 87.3965 16.6168 86.9419 16.5518C83.8895 16.1297 82.6881 11.6486 82.6881 11.6486C82.6881 11.6486 81.032 17.5585 76.9081 16.3895C73.4661 15.4153 74.4402 8.07666 79.3435 3.66048Z" fill="#F3F3F3"/>
<path d="M16.3172 126.404C15.3431 127.281 14.2065 128.06 12.9077 128.645C5.21182 125.073 3.10114 114.714 7.25755 113.61C7.7771 113.48 8.26418 113.448 8.71878 113.513C11.7711 113.935 12.9726 118.416 12.9726 118.416C12.9726 118.416 14.6287 112.506 18.7526 113.675C22.1946 114.649 21.188 121.988 16.3172 126.404Z" fill="#F3F3F3"/>
<path d="M54.3611 111.736C54.3611 112.403 54.1611 112.961 53.7611 113.411C53.3611 113.861 52.8028 114.086 52.0861 114.086C51.6528 114.086 51.3111 113.986 51.0611 113.786C50.8111 113.569 50.6861 113.311 50.6861 113.011C50.6861 112.828 50.7528 112.686 50.8861 112.586C51.0028 112.469 51.2028 112.369 51.4861 112.286C52.2028 112.119 52.5611 111.828 52.5611 111.411C52.5611 110.828 52.1778 110.328 51.4111 109.911C50.6278 109.494 49.3861 109.136 47.6861 108.836C45.9861 108.536 43.6945 108.253 40.8111 107.986C39.5945 107.869 38.8778 108.411 38.6611 109.611L38.5611 110.136L37.7861 109.836L37.7861 99.6859L38.1361 99.3859L38.5611 99.6859C39.0445 100.069 39.5695 100.336 40.1361 100.486C40.6861 100.636 41.4111 100.711 42.3111 100.711L51.1861 100.711C51.8361 100.711 52.2945 100.619 52.5611 100.436C52.8111 100.253 53.0195 99.8859 53.1861 99.3359L53.3111 98.8859L54.0361 99.1109L54.0361 104.661L53.2611 104.936L53.1361 104.411C52.9528 103.828 52.7361 103.444 52.4861 103.261C52.2195 103.061 51.7361 102.961 51.0361 102.961L40.7861 102.961C40.0861 102.961 39.6195 103.061 39.3861 103.261C39.1528 103.444 39.0361 103.828 39.0361 104.411L39.0361 105.061C39.0361 105.511 39.1028 105.853 39.2361 106.086C39.3528 106.319 39.5945 106.453 39.9611 106.486C43.7778 106.803 46.7361 107.203 48.8361 107.686C50.9361 108.169 52.3861 108.736 53.1861 109.386C53.9695 110.019 54.3611 110.803 54.3611 111.736ZM54.3611 92.7809C54.3611 93.5142 54.1528 94.1975 53.7361 94.8309C53.3028 95.4475 52.6778 95.9475 51.8611 96.3309C51.0278 96.6975 50.0195 96.8809 48.8361 96.8809C46.8861 96.8809 45.3445 96.3559 44.2111 95.3059C43.0778 94.2392 42.5111 92.8059 42.5111 91.0059C42.5111 90.4059 42.6028 89.5892 42.7861 88.5559C42.9195 87.7892 43.0111 87.0975 43.0611 86.4809L43.3361 86.1809L43.7611 86.5059C43.9611 86.6225 44.1195 86.7059 44.2361 86.7559C44.3361 86.7892 44.4778 86.8059 44.6611 86.8059L52.0361 86.8059C52.5028 86.8059 52.7361 86.5642 52.7361 86.0809C52.7361 85.7142 52.6028 85.3392 52.3361 84.9559L52.9111 84.5309C53.3611 84.9309 53.7195 85.3559 53.9861 85.8059C54.2361 86.2559 54.3611 86.6642 54.3611 87.0309C54.3611 87.6642 54.1778 88.1225 53.8111 88.4059C53.4278 88.6892 52.8111 88.8309 51.9611 88.8309C52.8445 89.4309 53.4695 90.0559 53.8361 90.7059C54.1861 91.3392 54.3611 92.0309 54.3611 92.7809ZM52.5861 91.9059C52.5861 90.6392 51.9028 89.6142 50.5361 88.8309L44.4111 88.8309C43.9778 89.4809 43.7611 90.2142 43.7611 91.0309C43.7611 92.1142 44.1695 92.9642 44.9861 93.5809C45.7861 94.1809 46.9278 94.4809 48.4111 94.4809C49.8445 94.4809 50.9028 94.2392 51.5861 93.7559C52.2528 93.2559 52.5861 92.6392 52.5861 91.9059ZM53.3361 84.2834L53.1861 83.7584C53.0361 83.2417 52.8278 82.9001 52.5611 82.7334C52.2945 82.5501 51.8695 82.4084 51.2861 82.3084L45.1361 81.4084C45.0695 81.3917 44.9695 81.3834 44.8361 81.3834C44.5028 81.3834 44.2445 81.4917 44.0611 81.7084C43.8778 81.9084 43.7278 82.2251 43.6111 82.6584L43.4611 83.0834L42.7861 82.8834L42.7861 79.0834L49.6861 75.8334L42.7861 72.5334L42.7861 69.5834L43.0861 69.2334L43.4611 69.5334C44.1778 70.0667 44.8695 70.3334 45.5361 70.3334C45.7361 70.3334 45.9361 70.3084 46.1361 70.2584L49.9861 69.4834C50.1195 69.4501 50.3028 69.4167 50.5361 69.3834C51.4195 69.1834 52.0778 69.0084 52.5111 68.8584C52.9278 68.7084 53.3278 68.4417 53.7111 68.0584L54.0361 68.3084L54.0361 72.8834L53.3361 73.1334L53.1861 72.6834C53.0695 72.2501 52.8861 71.9334 52.6361 71.7334C52.3861 71.5334 52.0528 71.4334 51.6361 71.4334C51.4195 71.4334 51.1778 71.4584 50.9111 71.5084L45.2611 72.4084L52.5361 75.8084L52.5361 76.5084L45.2611 79.9334L50.7111 80.7834C50.9445 80.8167 51.1111 80.8334 51.2111 80.8334C51.8945 80.8334 52.6028 80.5834 53.3361 80.0834L53.7111 79.8084L54.0361 80.1084L54.0361 84.0084L53.3361 84.2834ZM54.3611 62.3121C54.3611 63.0454 54.1528 63.7288 53.7361 64.3621C53.3028 64.9788 52.6778 65.4788 51.8611 65.8621C51.0278 66.2288 50.0195 66.4121 48.8361 66.4121C46.8861 66.4121 45.3445 65.8871 44.2111 64.8371C43.0778 63.7704 42.5111 62.3371 42.5111 60.5371C42.5111 59.9371 42.6028 59.1204 42.7861 58.0871C42.9195 57.3204 43.0111 56.6288 43.0611 56.0121L43.3361 55.7121L43.7611 56.0371C43.9611 56.1538 44.1195 56.2371 44.2361 56.2871C44.3361 56.3204 44.4778 56.3371 44.6611 56.3371L52.0361 56.3371C52.5028 56.3371 52.7361 56.0954 52.7361 55.6121C52.7361 55.2454 52.6028 54.8704 52.3361 54.4871L52.9111 54.0621C53.3611 54.4621 53.7195 54.8871 53.9861 55.3371C54.2361 55.7871 54.3611 56.1954 54.3611 56.5621C54.3611 57.1954 54.1778 57.6538 53.8111 57.9371C53.4278 58.2204 52.8111 58.3621 51.9611 58.3621C52.8445 58.9621 53.4695 59.5871 53.8361 60.2371C54.1861 60.8704 54.3611 61.5621 54.3611 62.3121ZM52.5861 61.4371C52.5861 60.1704 51.9028 59.1454 50.5361 58.3621L44.4111 58.3621C43.9778 59.0121 43.7611 59.7454 43.7611 60.5621C43.7611 61.6454 44.1695 62.4954 44.9861 63.1121C45.7861 63.7121 46.9278 64.0121 48.4111 64.0121C49.8445 64.0121 50.9028 63.7704 51.5861 63.2871C52.2528 62.7871 52.5861 62.1704 52.5861 61.4371ZM53.6861 52.6646L53.3361 52.4146C52.8695 52.0646 52.4111 51.823 51.9611 51.6896C51.5111 51.5396 50.8778 51.4646 50.0611 51.4646L47.1111 51.4646C46.2778 51.4646 45.6028 51.5396 45.0861 51.6896C44.5528 51.823 44.0611 52.0646 43.6111 52.4146L43.2111 52.6646L42.9111 52.4146L42.9111 46.8646C42.9111 46.2313 42.8778 45.7313 42.8111 45.3646C42.7445 44.9813 42.6361 44.6813 42.4861 44.4646L42.1861 44.1146L42.4861 43.7896L46.2111 43.7896L46.4111 44.4646L45.9611 44.6396C45.4278 44.7563 45.0361 44.898 44.7861 45.0646C44.5361 45.2146 44.3611 45.4313 44.2611 45.7146C44.1611 45.9813 44.1111 46.373 44.1111 46.8896L44.1111 48.0896C44.1111 48.6396 44.2111 49.0063 44.4111 49.1896C44.5945 49.3563 45.0111 49.4396 45.6611 49.4396L51.2861 49.4396C51.9195 49.4396 52.3611 49.3563 52.6111 49.1896C52.8445 49.0063 53.0361 48.6396 53.1861 48.0896L53.3361 47.6396L54.0361 47.8896L54.0361 52.4146L53.6861 52.6646ZM53.3361 42.191L53.1861 41.716C53.0361 41.1993 52.8445 40.8577 52.6111 40.691C52.3611 40.5077 51.9195 40.416 51.2861 40.416L45.5361 40.416C44.9028 40.416 44.4611 40.5077 44.2111 40.691C43.9611 40.8577 43.7611 41.1993 43.6111 41.716L43.4611 42.191L42.7861 41.941L42.7861 37.416L43.0861 37.141L43.4611 37.416C43.9445 37.766 44.4445 38.016 44.9611 38.166C45.4611 38.2993 46.1361 38.366 46.9861 38.366L50.1611 38.366L45.0111 32.891C44.5611 32.9743 44.2445 33.1077 44.0611 33.291C43.8778 33.4577 43.7278 33.7243 43.6111 34.091L43.4611 34.541L42.7861 34.341L42.7861 29.766L43.0861 29.516L43.4611 29.766C43.9445 30.116 44.4445 30.366 44.9611 30.516C45.4611 30.6493 46.1361 30.716 46.9861 30.716L51.4361 30.716C52.0361 30.716 52.4445 30.6327 52.6611 30.466C52.8778 30.2993 53.0695 29.9577 53.2361 29.441L53.3611 29.016L54.0361 29.216L54.0361 34.341L53.3361 34.541L53.1861 34.091C53.0361 33.5577 52.8445 33.2077 52.6111 33.041C52.3611 32.8577 51.9195 32.766 51.2861 32.766L46.7111 32.766L51.8611 38.241C52.3278 38.1743 52.6528 38.0577 52.8361 37.891C53.0028 37.7077 53.1361 37.4327 53.2361 37.066L53.3611 36.616L54.0361 36.841L54.0361 41.941L53.3361 42.191ZM54.3611 22.8102C54.3611 23.5435 54.1528 24.2268 53.7361 24.8602C53.3028 25.4768 52.6778 25.9768 51.8611 26.3602C51.0278 26.7268 50.0195 26.9102 48.8361 26.9102C46.8861 26.9102 45.3445 26.3852 44.2111 25.3352C43.0778 24.2685 42.5111 22.8352 42.5111 21.0352C42.5111 20.4352 42.6028 19.6185 42.7861 18.5852C42.9195 17.8185 43.0111 17.1268 43.0611 16.5102L43.3361 16.2102L43.7611 16.5352C43.9611 16.6518 44.1195 16.7352 44.2361 16.7852C44.3361 16.8185 44.4778 16.8352 44.6611 16.8352L52.0361 16.8352C52.5028 16.8352 52.7361 16.5935 52.7361 16.1102C52.7361 15.7435 52.6028 15.3685 52.3361 14.9852L52.9111 14.5602C53.3611 14.9602 53.7195 15.3852 53.9861 15.8352C54.2361 16.2852 54.3611 16.6935 54.3611 17.0602C54.3611 17.6935 54.1778 18.1518 53.8111 18.4352C53.4278 18.7185 52.8111 18.8602 51.9611 18.8602C52.8445 19.4602 53.4695 20.0852 53.8361 20.7352C54.1861 21.3685 54.3611 22.0602 54.3611 22.8102ZM52.5861 21.9352C52.5861 20.6685 51.9028 19.6435 50.5361 18.8602L44.4111 18.8602C43.9778 19.5102 43.7611 20.2435 43.7611 21.0602C43.7611 22.1435 44.1695 22.9935 44.9861 23.6102C45.7861 24.2102 46.9278 24.5102 48.4111 24.5102C49.8445 24.5102 50.9028 24.2685 51.5861 23.7852C52.2528 23.2852 52.5861 22.6685 52.5861 21.9352Z" fill="#F3F3F3"/>
</svg>
