<svg width="100" height="139" viewBox="0 0 100 139" fill="none" xmlns="http://www.w3.org/2000/svg">
<path d="M13.5914 138.71L86.3755 138.642C93.8046 138.642 99.83 132.703 99.83 125.365L99.7273 13.243C99.7273 5.90475 93.7019 0 86.2386 0L13.4544 0.0682878C6.02538 0.0682878 0 6.00712 0 13.3454L0.102681 125.467C0.136916 132.771 6.16233 138.71 13.5914 138.71Z" fill="#2B5ADC"/>
<path d="M85.9648 9.7622V5.18862H83.089C82.4385 5.18862 81.8908 4.74491 81.8908 4.1988C81.8908 3.6527 82.4385 3.20898 83.089 3.20898H91.237C91.8875 3.20898 92.4353 3.6527 92.4353 4.1988C92.4353 4.74491 91.8875 5.18862 91.237 5.18862H88.3613V9.7622C89.1829 8.77239 90.4838 7.88499 92.3325 8.29457C96.0642 9.14786 94.0785 16.8274 87.163 19.4214C85.7936 18.9094 84.5954 18.1927 83.6368 17.3735C79.6655 14.0286 79.015 8.9772 81.9935 8.29457C83.8422 7.88499 85.1431 8.77239 85.9648 9.7622Z" fill="#F3F3F3"/>
<path d="M16.0554 129.7V134.274H18.9311C19.5816 134.274 20.1293 134.718 20.1293 135.264C20.1293 135.81 19.5816 136.253 18.9311 136.253H10.7831C10.1326 136.253 9.58488 135.81 9.58488 135.264C9.58488 134.718 10.1326 134.274 10.7831 134.274H13.6589V129.7C12.8372 130.69 11.5363 131.577 9.68756 131.168C5.95592 130.315 7.9416 122.635 14.8571 120.041C16.2265 120.553 17.4247 121.27 18.3833 122.089C22.3546 125.434 23.0051 130.485 20.0266 131.168C18.1779 131.577 16.877 130.69 16.0554 129.7Z" fill="#F3F3F3"/>
<path d="M54.225 112.094L54.1 111.544C53.95 110.977 53.7417 110.602 53.475 110.419C53.1917 110.219 52.7 110.119 52 110.119L40.8 110.119C40.6 110.119 40.4667 110.16 40.4 110.244C40.3167 110.327 40.275 110.452 40.275 110.619L40.275 111.919L39.425 112.194C39.175 111.544 38.95 110.685 38.75 109.619C38.5333 108.552 38.425 107.527 38.425 106.544C38.425 104.327 38.925 102.677 39.925 101.594C40.925 100.51 42.2167 99.9687 43.8 99.9687C44.7833 99.9687 45.675 100.169 46.475 100.569C47.275 100.952 47.9167 101.552 48.4 102.369C48.8667 103.169 49.1 104.169 49.1 105.369C49.1 105.902 49.0333 106.369 48.9 106.769C48.75 107.169 48.55 107.369 48.3 107.369C48.15 107.369 48.025 107.344 47.925 107.294C47.8083 107.227 47.75 107.135 47.75 107.019C47.75 106.969 47.7833 106.844 47.85 106.644C47.9 106.444 47.925 106.202 47.925 105.919C47.925 104.785 47.5583 103.902 46.825 103.269C46.0917 102.619 45.1167 102.294 43.9 102.294C42.6667 102.294 41.6583 102.635 40.875 103.319C40.075 103.985 39.675 104.935 39.675 106.169C39.675 107.302 40.0333 107.869 40.75 107.869L50.45 107.869C51.3833 107.869 52.125 107.794 52.675 107.644C53.2083 107.494 53.725 107.227 54.225 106.844L54.625 106.544L55 106.844L55 111.819L54.225 112.094ZM55.325 94.4171C55.325 95.1504 55.1167 95.8338 54.7 96.4671C54.2667 97.0838 53.6417 97.5838 52.825 97.9671C51.9917 98.3338 50.9833 98.5171 49.8 98.5171C47.85 98.5171 46.3083 97.9921 45.175 96.9421C44.0417 95.8754 43.475 94.4421 43.475 92.6421C43.475 92.0421 43.5667 91.2254 43.75 90.1921C43.8833 89.4254 43.975 88.7338 44.025 88.1171L44.3 87.8171L44.725 88.1421C44.925 88.2588 45.0833 88.3421 45.2 88.3921C45.3 88.4254 45.4417 88.4421 45.625 88.4421L53 88.4421C53.4667 88.4421 53.7 88.2004 53.7 87.7171C53.7 87.3504 53.5667 86.9754 53.3 86.5921L53.875 86.1671C54.325 86.5671 54.6833 86.9921 54.95 87.4421C55.2 87.8921 55.325 88.3004 55.325 88.6671C55.325 89.3004 55.1417 89.7588 54.775 90.0421C54.3917 90.3254 53.775 90.4671 52.925 90.4671C53.8083 91.0671 54.4333 91.6921 54.8 92.3421C55.15 92.9754 55.325 93.6671 55.325 94.4171ZM53.55 93.5421C53.55 92.2754 52.8667 91.2504 51.5 90.4671L45.375 90.4671C44.9417 91.1171 44.725 91.8504 44.725 92.6671C44.725 93.7504 45.1333 94.6004 45.95 95.2171C46.75 95.8171 47.8917 96.1171 49.375 96.1171C50.8083 96.1171 51.8667 95.8754 52.55 95.3921C53.2167 94.8921 53.55 94.2754 53.55 93.5421ZM54.65 84.7696L54.3 84.5196C53.8333 84.1696 53.375 83.928 52.925 83.7946C52.475 83.6446 51.8417 83.5696 51.025 83.5696L48.075 83.5696C47.2417 83.5696 46.5667 83.6446 46.05 83.7946C45.5167 83.928 45.025 84.1696 44.575 84.5196L44.175 84.7696L43.875 84.5196L43.875 78.9696C43.875 78.3363 43.8417 77.8363 43.775 77.4696C43.7083 77.0863 43.6 76.7863 43.45 76.5696L43.15 76.2196L43.45 75.8946L47.175 75.8946L47.375 76.5696L46.925 76.7446C46.3917 76.8613 46 77.003 45.75 77.1696C45.5 77.3196 45.325 77.5363 45.225 77.8196C45.125 78.0863 45.075 78.478 45.075 78.9946L45.075 80.1946C45.075 80.7446 45.175 81.1113 45.375 81.2946C45.5583 81.4613 45.975 81.5446 46.625 81.5446L52.25 81.5446C52.8833 81.5446 53.325 81.4613 53.575 81.2946C53.8083 81.1113 54 80.7446 54.15 80.1946L54.3 79.7446L55 79.9946L55 84.5196L54.65 84.7696ZM55.325 70.296C55.325 71.0293 55.1167 71.7127 54.7 72.346C54.2667 72.9627 53.6417 73.4627 52.825 73.846C51.9917 74.2127 50.9833 74.396 49.8 74.396C47.85 74.396 46.3083 73.871 45.175 72.821C44.0417 71.7543 43.475 70.321 43.475 68.521C43.475 67.921 43.5667 67.1043 43.75 66.071C43.8833 65.3043 43.975 64.6127 44.025 63.996L44.3 63.696L44.725 64.021C44.925 64.1377 45.0833 64.221 45.2 64.271C45.3 64.3043 45.4417 64.321 45.625 64.321L53 64.321C53.4667 64.321 53.7 64.0793 53.7 63.596C53.7 63.2293 53.5667 62.8543 53.3 62.471L53.875 62.046C54.325 62.446 54.6833 62.871 54.95 63.321C55.2 63.771 55.325 64.1793 55.325 64.546C55.325 65.1793 55.1417 65.6377 54.775 65.921C54.3917 66.2043 53.775 66.346 52.925 66.346C53.8083 66.946 54.4333 67.571 54.8 68.221C55.15 68.8543 55.325 69.546 55.325 70.296ZM53.55 69.421C53.55 68.1543 52.8667 67.1293 51.5 66.346L45.375 66.346C44.9417 66.996 44.725 67.7293 44.725 68.546C44.725 69.6293 45.1333 70.4793 45.95 71.096C46.75 71.696 47.8917 71.996 49.375 71.996C50.8083 71.996 51.8667 71.7543 52.55 71.271C53.2167 70.771 53.55 70.1543 53.55 69.421ZM55.325 56.1485C55.325 57.3652 55.075 58.3985 54.575 59.2485C54.075 60.0819 53.375 60.4985 52.475 60.4985C52.0083 60.4985 51.625 60.3402 51.325 60.0235C51.0083 59.7069 50.85 59.3069 50.85 58.8235C50.85 58.6902 50.875 58.5735 50.925 58.4735C50.9583 58.3735 51.0167 58.3235 51.1 58.3235C51.1667 58.3235 51.3167 58.3652 51.55 58.4485C51.7833 58.5152 52.0667 58.5485 52.4 58.5485C52.9333 58.5485 53.35 58.3319 53.65 57.8985C53.95 57.4652 54.1 56.8819 54.1 56.1485C54.1 55.2652 53.9167 54.6069 53.55 54.1735C53.1667 53.7235 52.5583 53.4985 51.725 53.4985C51.0417 53.4985 50.5167 53.7735 50.15 54.3235C49.7667 54.8569 49.5583 55.5819 49.525 56.4985L49.525 56.7235C49.525 57.0402 49.4 57.1985 49.15 57.1985C48.9667 57.1985 48.8333 57.1152 48.75 56.9485C48.6667 56.7652 48.5833 56.4569 48.5 56.0235C48.3667 55.1569 48.1333 54.5569 47.8 54.2235C47.45 53.8902 46.975 53.7235 46.375 53.7235C45.8917 53.7235 45.4917 53.9235 45.175 54.3235C44.8417 54.7235 44.675 55.2985 44.675 56.0485C44.675 57.5652 45.45 58.5569 47 59.0235L47.45 59.1485L47.225 59.8235L43.525 59.8235L43.225 59.5235L43.525 59.1485C43.675 58.9319 43.75 58.6652 43.75 58.3485C43.75 58.2319 43.7167 57.9735 43.65 57.5735C43.5333 56.9069 43.475 56.3902 43.475 56.0235C43.475 54.5735 43.7167 53.4985 44.2 52.7985C44.6667 52.0985 45.3333 51.7485 46.2 51.7485C47.5667 51.7485 48.475 52.5069 48.925 54.0235C49.1917 53.0902 49.6 52.4069 50.15 51.9735C50.6833 51.5235 51.275 51.2985 51.925 51.2985C52.5083 51.2985 53.0583 51.4819 53.575 51.8485C54.0917 52.2152 54.5167 52.7652 54.85 53.4985C55.1667 54.2319 55.325 55.1152 55.325 56.1485ZM55.325 44.8204C55.325 46.0371 55.075 47.0704 54.575 47.9204C54.075 48.7537 53.375 49.1704 52.475 49.1704C52.0083 49.1704 51.625 49.0121 51.325 48.6954C51.0083 48.3787 50.85 47.9787 50.85 47.4954C50.85 47.3621 50.875 47.2454 50.925 47.1454C50.9583 47.0454 51.0167 46.9954 51.1 46.9954C51.1667 46.9954 51.3167 47.0371 51.55 47.1204C51.7833 47.1871 52.0667 47.2204 52.4 47.2204C52.9333 47.2204 53.35 47.0037 53.65 46.5704C53.95 46.1371 54.1 45.5537 54.1 44.8204C54.1 43.9371 53.9167 43.2787 53.55 42.8454C53.1667 42.3954 52.5583 42.1704 51.725 42.1704C51.0417 42.1704 50.5167 42.4454 50.15 42.9954C49.7667 43.5287 49.5583 44.2537 49.525 45.1704L49.525 45.3954C49.525 45.7121 49.4 45.8704 49.15 45.8704C48.9667 45.8704 48.8333 45.7871 48.75 45.6204C48.6667 45.4371 48.5833 45.1287 48.5 44.6954C48.3667 43.8287 48.1333 43.2287 47.8 42.8954C47.45 42.5621 46.975 42.3954 46.375 42.3954C45.8917 42.3954 45.4917 42.5954 45.175 42.9954C44.8417 43.3954 44.675 43.9704 44.675 44.7204C44.675 46.2371 45.45 47.2287 47 47.6954L47.45 47.8204L47.225 48.4954L43.525 48.4954L43.225 48.1954L43.525 47.8204C43.675 47.6037 43.75 47.3371 43.75 47.0204C43.75 46.9037 43.7167 46.6454 43.65 46.2454C43.5333 45.5787 43.475 45.0621 43.475 44.6954C43.475 43.2454 43.7167 42.1704 44.2 41.4704C44.6667 40.7704 45.3333 40.4204 46.2 40.4204C47.5667 40.4204 48.475 41.1787 48.925 42.6954C49.1917 41.7621 49.6 41.0787 50.15 40.6454C50.6833 40.1954 51.275 39.9704 51.925 39.9704C52.5083 39.9704 53.0583 40.1537 53.575 40.5204C54.0917 40.8871 54.5167 41.4371 54.85 42.1704C55.1667 42.9037 55.325 43.7871 55.325 44.8204ZM55.325 32.5423C55.325 34.2423 54.7917 35.5923 53.725 36.5923C52.6417 37.5923 51.1917 38.0923 49.375 38.0923C47.5583 38.0923 46.125 37.5923 45.075 36.5923C44.0083 35.5923 43.475 34.2423 43.475 32.5423C43.475 31.4256 43.7167 30.4506 44.2 29.6173C44.6833 28.784 45.3667 28.1423 46.25 27.6923C47.1333 27.2423 48.175 27.0173 49.375 27.0173C50.575 27.0173 51.625 27.2506 52.525 27.7173C53.425 28.1673 54.1167 28.8089 54.6 29.6423C55.0833 30.4756 55.325 31.4423 55.325 32.5423ZM54.1 32.5923C54.1 31.6423 53.675 30.8756 52.825 30.2923C51.9583 29.6923 50.825 29.3923 49.425 29.3923C48.7083 29.3923 47.9917 29.4923 47.275 29.6923C46.5417 29.8923 45.925 30.2256 45.425 30.6923C44.9083 31.1423 44.65 31.734 44.65 32.4673C44.65 33.4506 45.0833 34.2423 45.95 34.8423C46.8167 35.4256 47.9667 35.7173 49.4 35.7173C50.8333 35.7173 51.975 35.4423 52.825 34.8923C53.675 34.3256 54.1 33.559 54.1 32.5923Z" fill="#F3F3F3"/>
</svg>
