<svg width="92" height="99" viewBox="0 0 92 99" fill="none" xmlns="http://www.w3.org/2000/svg">
<path d="M16.0273 1.47352L8.7737 7.67148L3.97736 16.1318L3.00864 23.838L2.8905 40.1931L2.51247 49.4311L0.882185 60.2953L0.291504 70.0046L0.551405 76.2026L2.74875 87.703L5.20598 97.7187L10.2622 97.7894L17.6575 98.0486L18.1065 90.9316L15.9091 75.5427L16.4289 61.5678L18.1773 45.0713C18.5318 43.6809 19.0279 41.56 19.3351 38.9205C19.7604 35.4798 18.9334 34.655 19.2878 30.6487C19.4768 28.5749 19.7131 28.1036 19.784 25.9354C19.8313 24.1915 19.8313 22.8482 19.784 21.3636C19.7131 19.4075 19.6895 18.4178 19.4532 17.3337C19.0279 15.3541 18.39 14.3879 18.5554 14.2936C18.7917 14.1758 20.6818 15.8962 20.8236 18.135C20.8945 19.219 20.5164 19.9731 20.6346 21.4814C20.6582 21.6935 20.7055 22.2591 20.7055 23.0604C20.7055 23.5317 20.6818 23.8852 20.6818 24.0737C20.6582 25.3934 20.4928 26.7603 20.4456 27.2316C20.1857 29.8946 20.4928 31.1908 20.4928 35.4563C20.4928 39.9575 20.4219 40.2167 20.6346 41.7249C21.4615 47.3573 23.7534 53.0368 23.7534 53.0368L25.4545 60.3895L26.2342 64.1837L26.0688 69.1798L23.6589 77.3809L19.595 88.8577L18.9098 90.2482L18.5318 91.3793L18.4845 98.0015C21.2016 98.0958 25.1946 98.19 30.0382 98.2607C35.9451 98.3314 40.4815 98.3314 46.0339 98.3078C54.5633 98.2843 56.5008 98.19 63.2818 98.2136C66.9676 98.2371 70.0156 98.2607 72.0239 98.3078C72.5201 98.4492 73.1816 98.5199 73.6778 98.19C74.7883 97.3652 73.9377 94.8672 73.5124 91.073C73.1107 87.5616 73.5833 87.3023 73.2997 84.7807C73.0398 82.3534 72.2129 78.9127 69.5903 74.8122C68.9287 73.3746 68.1017 71.2301 67.7001 68.5199C67.2748 65.6448 67.5111 63.4767 67.7946 61.0729C68.0545 58.7634 68.6215 55.5584 69.8738 51.8585C70.6062 49.1248 71.2205 46.9095 71.5986 45.472C73.1107 40.0046 74.1031 34.3958 75.568 28.9284C75.8751 27.8207 76.324 26.1004 75.8751 24.0501C75.5443 22.589 75.0954 22.5654 74.4102 20.3973C73.347 17.098 73.8668 15.5191 74.0322 15.142C74.363 14.2465 75.0009 13.3274 75.2844 13.4217C75.5916 13.516 75.379 14.7178 75.3317 17.9464C75.3081 20.1852 75.379 20.633 75.4498 20.9158C75.757 22.0941 76.1823 22.4712 76.6076 23.9323C76.8675 24.8514 76.962 25.5584 77.0329 26.2654C77.3636 29.164 77.0092 31.827 76.9384 32.2984C75.8042 41.0415 76.3477 39.1326 75.7806 42.267C75.3317 44.7179 74.7646 47.1688 75.6861 49.9732C75.8751 50.5859 75.946 50.5859 76.1587 51.2693C76.962 53.8616 76.6785 55.9119 76.5131 57.9622C76.1823 61.992 76.7021 61.3086 76.3949 65.1971C76.135 68.3785 75.7806 68.9441 75.2372 72.7383C75.119 73.6103 74.5993 77.2395 74.4575 81.6935C74.3157 85.7705 74.5992 86.7132 74.552 92.6048C74.5284 94.82 74.4575 96.6346 74.4339 97.813L83.554 97.8601L87.6179 97.648L90.8076 83.8617L91.8471 72.6205L91.729 55.0871L91.3037 45.472L91.9889 28.5277L91.1147 16.0611L90.335 10.3816L84.4991 0.907923L17.7284 0.601562L16.0273 1.47352Z" fill="#FC3824"/>
<path d="M17.3268 30.202C18.4609 27.5862 20.8709 26.4314 23.2336 25.2766C25.7381 24.0748 27.8409 23.8391 28.4316 23.792C30.2036 23.627 31.5268 23.8391 32.7081 24.0512C35.9923 24.6168 38.3314 25.7715 38.8748 26.0543C41.4975 27.4212 44.0728 28.7409 45.3014 31.4275C45.7267 32.3466 45.7504 32.9357 46.2702 33.1007C47.4043 33.4778 48.5384 30.9562 51.7753 28.1753C52.4841 27.5626 54.4452 25.9365 57.3513 24.6168C58.58 24.0512 60.3284 23.2735 62.7856 22.9436C63.778 22.8022 65.5028 22.5901 67.7237 23.0143C71.2914 23.6977 73.5833 25.583 74.0794 25.9836C75.1899 26.9263 76.8675 28.3639 77.5763 30.8383C78.2378 33.1007 77.7417 35.0331 77.4581 36.0701C76.6312 39.063 74.7883 40.8776 73.5597 42.0795C70.9134 44.6718 68.1726 45.6616 67.5347 45.8972C64.6286 46.9106 62.1949 46.7928 61.5098 46.7457C58.8635 46.5571 56.6898 45.6616 54.4452 44.7425C52.4369 43.9177 51.5154 43.3049 49.578 43.0693C47.7587 42.8336 46.3647 43.0929 46.0811 43.14C43.2931 43.6584 42.7497 44.9782 40.3161 45.9915C38.1897 46.8635 36.4176 46.7457 32.8499 46.51C30.8416 46.3686 28.4316 46.2036 25.5254 45.0253C23.777 44.3183 21.6978 43.4464 19.8785 41.3489C19.5714 40.9954 18.4845 39.6757 17.7284 37.6726C17.1614 36.1408 16.0509 33.1243 17.3268 30.202Z" fill="#FFDB13"/>
<path d="M44.8284 84.4504C44.2141 84.7568 44.2613 86.0293 44.4503 86.7835C44.5448 87.1605 44.7811 88.1975 45.6081 88.5981C46.1279 88.8337 46.3169 88.5745 47.2384 88.8573C47.3329 88.8809 47.4983 88.9516 47.6164 88.8573C47.8054 88.7395 47.829 88.3388 47.7109 88.0796C47.4274 87.514 46.5295 87.8911 46.0334 87.3019C45.679 86.8777 45.679 86.1708 45.679 85.5109C45.679 85.016 45.7735 84.6861 45.5608 84.4975C45.3718 84.3326 45.0646 84.3326 44.8284 84.4504Z" fill="#FFDB13"/>
</svg>
