<svg width="305" height="579" viewBox="0 0 305 579" fill="none" xmlns="http://www.w3.org/2000/svg">
<path d="M131.007 432.09C131.06 432.224 131.194 432.545 131.462 432.84C131.676 433.054 131.864 433.161 132.534 433.482C133.338 433.857 133.74 434.044 133.847 434.071C134.597 434.232 135.428 434.098 135.428 434.098C135.428 434.098 136.205 433.857 136.794 433.536C137.41 433.188 137.785 432.813 138.241 432.331C138.723 431.822 138.938 431.581 138.938 431.34C138.938 430.697 138.027 430.242 136.687 429.573C136.017 429.225 135.669 429.064 135.347 429.091C134.141 429.198 133.311 431.045 133.418 431.126C133.525 431.206 134.972 429.626 134.758 429.385C134.677 429.305 134.436 429.385 133.847 429.626C131.167 430.697 130.899 430.992 130.846 431.313C130.792 431.554 130.899 431.876 131.007 432.09Z" fill="#FFD740"/>
<path d="M126.13 364.051C121.602 362.016 115.761 359.767 111.501 363.596C111.126 363.944 111.688 364.506 112.063 364.158C116.029 360.624 121.575 362.846 125.701 364.72C126.184 364.961 126.612 364.265 126.13 364.051Z" fill="#40009B"/>
<path d="M115.681 362.847C119.673 362.338 123.638 361.803 127.631 361.294C128.14 361.241 128.14 360.437 127.631 360.491C123.638 361 119.673 361.535 115.681 362.044C115.172 362.097 115.172 362.901 115.681 362.847Z" fill="#40009B"/>
<path d="M130.926 361.99C127.416 362.981 123.745 361.615 120.209 362.472C117.851 363.034 115.707 364.855 115.734 367.426C115.734 367.934 116.538 367.934 116.538 367.426C116.458 363.945 120.45 362.954 123.21 362.981C125.862 363.008 128.488 363.49 131.114 362.767C131.623 362.633 131.435 361.856 130.926 361.99Z" fill="#40009B"/>
<path d="M135.401 361.025C144.243 363.087 152.603 366.889 159.944 372.218C160.373 372.512 160.775 371.816 160.346 371.522C152.951 366.14 144.511 362.337 135.615 360.249C135.106 360.142 134.892 360.891 135.401 361.025Z" fill="#40009B"/>
<path d="M153.621 363.971C148.45 359.339 142.421 355.858 135.857 353.662C135.375 353.502 135.16 354.278 135.642 354.439C142.073 356.608 147.994 360.008 153.058 364.56C153.434 364.882 153.996 364.32 153.621 363.971Z" fill="#40009B"/>
<path d="M131.57 354.25C126.372 355.723 121.602 358.347 117.637 362.015C117.262 362.364 117.824 362.926 118.2 362.578C122.085 359.017 126.72 356.446 131.784 355.027C132.293 354.866 132.079 354.09 131.57 354.25Z" fill="#40009B"/>
<path d="M120.825 358.83C119.539 359.098 118.253 359.366 116.993 359.634C116.484 359.741 116.699 360.517 117.208 360.41C118.494 360.142 119.78 359.875 121.039 359.607C121.548 359.5 121.334 358.75 120.825 358.83Z" fill="#40009B"/>
<path d="M113.645 360.197C120.048 359.554 126.479 358.911 132.882 358.269C133.392 358.215 133.392 357.412 132.882 357.465C126.479 358.108 120.048 358.751 113.645 359.393C113.135 359.447 113.135 360.25 113.645 360.197Z" fill="#40009B"/>
<path d="M134.303 357.357C126.907 356.929 119.566 360.249 115.172 366.22C114.877 366.649 115.574 367.05 115.868 366.622C120.102 360.892 127.202 357.732 134.303 358.161C134.838 358.187 134.838 357.384 134.303 357.357Z" fill="#40009B"/>
<path d="M132.293 411.553C134.437 412.758 135.107 413.08 136.018 413.321C136.741 413.508 138.67 414.044 140.68 413.508C142.234 413.106 142.85 412.303 145.261 410.054C148.53 406.975 147.887 407.965 151.746 404.297C154.639 401.566 156.086 400.2 156.408 399.531C158.524 395.139 158.364 391.096 158.364 391.096C158.337 390.561 158.256 389.329 158.98 388.874C159.65 388.445 160.507 389.061 161.338 388.606C161.981 388.258 162.249 387.481 162.356 386.839C162.276 386.705 162.222 386.598 162.142 386.464C161.74 385.821 161.204 384.911 160.668 383.759C160.212 382.769 159.301 380.653 158.712 377.547C157.908 373.263 158.551 371.603 157.506 371.094C156.676 370.692 156.059 371.603 153.112 372.54C150.727 373.29 148.664 373.959 146.842 373.129C145.369 372.46 144.967 371.228 144.002 371.362C143.198 371.496 142.689 372.513 142.395 373.317C139.715 373.504 137.491 373.477 135.857 373.37C133.526 373.236 131.757 372.968 129.587 372.647C124.63 371.897 125.354 371.603 124.121 371.656C123.505 371.683 122.192 371.817 121.495 371.067C121.174 370.746 121.12 370.371 120.825 370.344C120.37 370.318 120.263 371.255 119.486 371.71C118.548 372.272 117.691 371.522 117.048 371.978C116.485 372.379 116.592 373.343 116.914 375.432C117.449 379.02 117.637 379.904 117.664 380.734C117.664 380.867 117.664 380.948 117.664 381.323C117.637 383.036 117.691 383.492 117.664 384.456C117.637 386.464 117.423 386.357 117.423 388.044C117.423 388.445 117.423 388.927 117.262 389.516C117.074 390.159 116.86 390.32 116.78 390.721C116.619 391.551 117.423 392.221 117.449 392.622C117.53 393.319 118.012 395.059 119.004 398.567C119.566 400.575 119.995 402.101 121.093 403.654C122.031 404.993 123.773 406.118 127.229 408.421C128.864 409.599 129.989 410.241 132.293 411.553Z" fill="#202060"/>
<path d="M10.4076 578.264C15.9567 578.264 20.4552 573.912 20.4552 568.544C20.4552 563.176 15.9567 558.824 10.4076 558.824C4.85837 558.824 0.359863 563.176 0.359863 568.544C0.359863 573.912 4.85837 578.264 10.4076 578.264Z" fill="#FFDB13"/>
<path d="M275.399 578.639C280.948 578.639 285.446 574.287 285.446 568.919C285.446 563.551 280.948 559.199 275.399 559.199C269.85 559.199 265.351 563.551 265.351 568.919C265.351 574.287 269.85 578.639 275.399 578.639Z" fill="#FFDB13"/>
<path d="M303.907 100.195V91.171L303.96 68.0896L304.148 38.2069L304.282 11.8588L304.121 0.210938L301.334 0.264491L233.868 14.108L233.01 9.55597C231.322 9.60952 229.661 9.66308 227.973 9.6363C223.847 9.60952 219.586 9.20787 215.46 9.55597C211.521 10.2254 207.717 11.2964 203.671 11.4303C200.241 11.5642 196.785 11.2697 193.355 11.5107C191.828 11.832 190.328 11.8052 188.8 11.4303C188.398 11.4839 187.996 11.5374 187.568 11.5374C179.128 11.7517 170.714 11.8588 162.274 11.8588C132.453 11.8588 102.658 10.7341 72.8366 10.7341C72.6222 10.7341 72.3811 10.7341 72.1667 10.7074C70.961 11.2429 69.6481 11.5642 68.3084 11.5642C66.54 11.5642 64.9056 11.0822 63.5123 10.2789L63.8338 137.173V269.423L64.0482 388.15L63.6463 464.169H63.03L34.8965 464.356L5.18213 497.479L5.55724 503.504L5.36969 529.986V555.504L12.4433 555.691L13.8901 564.528L17.2661 568.357L20.4546 568.223L22.9196 565.358L24.4469 558.262L26.5636 554.861L63.1908 555.209L63.1372 569.749L70.8806 569.883H137.329L189.095 570.017L231.885 569.963L231.804 556.602L233.385 555.638L258.411 555.558L268.566 555.477L269.905 556.468L271.968 565.17L275.425 568.357L278.399 568.41L281.185 565.759L282.525 559.012L283.436 555.718L289.84 555.825V553.737L289.625 497.613L289.036 496.783L274.058 480.315L260.152 464.303L248.149 464.035L232.394 463.714L232.608 438.035L225.669 436.268L225.803 435.866L245.067 440.231L296.244 450.968L296.163 428.074L296.431 369.38V352.591L272.129 347.45L232.233 339.122L232.501 330.554L226.151 329.643L226.231 329.242L234.966 330.527L281.078 337.221L303.773 340.916L303.987 287.229L303.317 233.971L303.398 223.742L285.848 225.322L232.823 230.168L232.742 229.499L232.635 221.332L226.285 221.841L225.883 221.386L233.171 220.743L243.996 219.592L283.007 213.192L297.449 210.97L297.315 189.414L297.717 135.593L297.449 111.173L296.645 111.307L284.776 113.396L233.064 121.509L233.278 114.467L225.91 115.565L225.695 114.922L260.474 108.308L303.907 100.195Z" fill="#2B5ADC"/>
<path d="M58.5288 465.161V465.536V484.869L180.655 484.601L227.491 484.494L227.678 461.439L227.41 438.197L220.926 436.109L221.114 366.704L220.846 337.624L227.142 339.284L227.303 330.662L221.007 329.431L221.194 231.107L227.571 230.143L227.142 220.932L220.846 221.36L220.926 123.572L227.491 122.608L227.571 114.174L220.846 115.379L221.007 16.1177L226.687 14.8859L226.875 9.31641L96.5761 9.6645L59.2522 9.58417L59.1451 25.784L59.3326 66.3506L59.5202 122.769V162.05L59.6006 213.782L59.413 235.043L59.7077 266.372V308.786V348.067L59.2522 391.258L59.413 431.931L58.5288 465.161Z" fill="#FFDB13"/>
<path d="M65.9508 16.6543L146.922 17.0292L220.605 16.8417L220.658 114.898L124.656 115.005L65.147 114.817L65.9508 16.6543Z" fill="#2B5ADC"/>
<path d="M65.9508 124.023L146.922 124.398L220.605 124.211L220.658 222.267L124.656 222.374L65.147 222.187L65.9508 124.023Z" fill="#2B5ADC"/>
<path d="M65.9508 230.998L146.922 231.4L220.605 231.212L220.658 329.268L124.656 329.375L65.147 329.161L65.9508 230.998Z" fill="#2B5ADC"/>
<path d="M65.9508 337.998L146.922 338.373L220.605 338.185L220.658 436.241L124.656 436.349L65.147 436.161L65.9508 337.998Z" fill="#2B5ADC"/>
</svg>
