<svg width="269" height="317" viewBox="0 0 269 317" fill="none" xmlns="http://www.w3.org/2000/svg">
<path d="M145.507 146.777C146.876 146.758 148.246 146.758 149.616 146.74C149.908 148.928 150.219 151.116 150.511 153.304L151.771 164.5L153.251 173.015L154.146 176.753L154.876 184.904L155.57 193.255L156.283 202.044L156.758 209.1L156.959 210.085C156.995 211.398 157.032 212.71 157.068 214.005C156.922 216.211 156.794 218.418 156.648 220.624C153.726 218.837 150.803 217.068 147.881 215.281L139.479 205.636L133.872 200.038C132.52 198.707 131.169 197.376 129.799 196.045C129.762 194.969 129.726 193.346 129.744 191.395C129.762 189.918 129.781 189.152 129.817 187.584C129.872 185.542 129.854 184.813 129.89 180.801C129.909 179.087 129.927 176.626 129.963 173.599C130.018 171.648 130.073 169.715 130.128 167.764C130.164 166.032 130.219 164.318 130.256 162.585L130.329 160.616L134.676 157.863L139.096 154.271L143.242 150.095C144.009 148.983 144.758 147.889 145.507 146.777Z" fill="#2B59DB"/>
<path d="M119.332 146.195C117.725 146.469 116.1 146.742 114.492 147.016C113.999 148.803 113.524 150.608 113.031 152.395C112.173 156.096 111.314 159.78 110.456 163.481C109.78 166.107 109.086 168.732 108.41 171.358C108.027 172.835 107.643 174.33 107.259 175.807C106.876 178.396 106.492 180.986 106.109 183.575C105.707 186.328 105.323 189.063 104.922 191.817C104.575 194.898 104.209 197.961 103.862 201.043C103.643 203.14 103.424 205.218 103.186 207.315C103.04 208.3 102.894 209.285 102.748 210.269C103.022 213.643 103.296 216.998 103.57 220.371C105.707 218.949 107.844 217.526 109.999 216.122C110.912 215.211 112.301 213.807 113.89 212.02C117.561 207.899 117.616 207.042 120.392 204.27C121.36 203.304 123.04 201.827 126.474 198.946C127.661 197.943 128.848 196.958 130.017 195.956C129.908 194.114 129.944 192.637 129.999 191.616C130.036 190.814 130.109 189.993 130.163 188.407C130.163 188.407 130.2 187.386 130.218 186.419C130.255 184.085 130.145 182.335 130.09 180.858C129.999 178.615 130.054 176.992 130.163 173.747C130.218 172.179 130.255 171.832 130.456 167.802C130.565 165.45 130.657 163.536 130.711 162.314C130.803 161.494 130.894 160.691 130.967 159.871C130.072 159.16 129.177 158.449 128.282 157.737C126.876 156.497 125.469 155.276 124.063 154.036C122.657 152.687 121.25 151.337 119.844 149.988C119.679 148.693 119.497 147.453 119.332 146.195Z" fill="#2B59DB"/>
<path d="M130.985 191.686C132.539 191.686 133.798 190.429 133.798 188.878C133.798 187.327 132.539 186.07 130.985 186.07C129.432 186.07 128.172 187.327 128.172 188.878C128.172 190.429 129.432 191.686 130.985 191.686Z" fill="#FFDB13" stroke="#FFD740" stroke-miterlimit="10"/>
<path d="M130.985 172.212C132.539 172.212 133.798 170.955 133.798 169.404C133.798 167.853 132.539 166.596 130.985 166.596C129.432 166.596 128.172 167.853 128.172 169.404C128.172 170.955 129.432 172.212 130.985 172.212Z" fill="#FFDB13" stroke="#FFD740" stroke-miterlimit="10"/>
<path d="M148.685 131.532C148.94 132.134 149.214 132.736 149.47 133.338C149.707 134.103 149.945 134.869 150.182 135.617C150.201 136.474 150.127 137.148 150.073 137.622C149.854 139.118 149.397 140.029 149.872 140.704C150.036 140.941 150.274 141.069 150.42 141.142C150.091 141.78 149.762 142.436 149.433 143.074C149.452 144.023 149.452 144.971 149.47 145.919C149.506 146.502 149.506 150.605 149.506 150.605L149.744 156.13L150.383 160.615C150.383 160.615 151.169 167.398 151.169 167.781C151.169 168.164 152.593 173.616 152.593 173.616L153.379 177.172L155.351 172.759L158.822 165.593L162.146 157.935L162.931 155.328L161.013 153.139L158.255 149.876L157.653 149.201L160.977 147.487L165.707 145.335L165.89 144.898L163.369 140.886L158.054 133.447L154.584 129.764C152.611 130.347 150.657 130.949 148.685 131.532Z" fill="#202060"/>
<path d="M117.342 132.208C116.995 132.773 116.666 133.338 116.319 133.903C115.99 134.633 115.643 135.344 115.315 136.073C115.187 136.912 115.169 137.605 115.169 138.079C115.205 139.592 115.534 140.541 114.968 141.161C114.767 141.379 114.529 141.471 114.365 141.525C114.602 142.2 114.858 142.893 115.096 143.567C114.968 144.497 114.822 145.445 114.694 146.375C114.584 146.959 114.036 151.025 114.036 151.025L113.086 156.459L111.881 160.835C111.881 160.835 110.219 167.454 110.164 167.837C110.109 168.22 107.991 173.435 107.991 173.435L106.749 176.844L105.36 172.213L102.858 164.646L100.575 156.641L100.137 153.961L102.328 152.046L105.488 149.183L106.182 148.582L103.114 146.448L98.6938 143.695L98.5659 143.221L101.598 139.556L107.844 132.882L111.771 129.691C113.616 130.53 115.479 131.369 117.342 132.208Z" fill="#202060"/>
<path d="M125.561 132.972L120.081 132.243L113.67 131.495L111.552 135.707L111.022 141.597L111.241 145.171L112.812 147.049H115.88L119.132 146.32L124.721 143.694L126.182 143.056L136.611 142.855L139.552 143.803L143.771 146.01L145.232 146.958L150.09 147.049L152.191 144.533L152.3 136.656L149.451 131.404L139.131 133.082L125.561 132.972Z" fill="#2B59DB"/>
<path d="M125.926 142.127L125.981 134.305L127.187 133.594H136.337L137.561 134.615V140.997V141.927L137.031 142.528L126.529 142.601L125.926 142.127Z" fill="#FFDB13"/>
<path d="M139.898 137.674L148.501 135.23L139.898 137.674Z" fill="#FFD740"/>
<path d="M139.734 139.957L148.099 142.09L139.734 139.957Z" fill="#FFD740"/>
<path d="M122.932 140.486L114.238 141.653L122.932 140.486Z" fill="#FFD740"/>
<path d="M123.351 137.239L114.511 135.105L123.351 137.239Z" fill="#FFD740"/>
<path d="M65.086 143.239L58.5837 141.397L54.3463 140.066L51.5335 139.191L48.6842 138.608L44.8852 138.79L40.3738 138.735L35.0952 139.063L31.3144 138.954L25.8168 138.662L19.5337 140.322L14.2186 140.923L11.0223 140.869L8.83053 139.483L8.41044 137.988L8.75747 137.441L9.1045 136.894L9.74377 136.383L10.7118 135.599L13.0132 135.854L15.0588 135.781L17.488 134.87L19.625 133.94L20.5382 133.447L20.9218 132.609L18.9309 132.116L13.1227 132.08L7.35108 131.478L3.0406 131.022L1.34198 130.548L0.593124 129.308L0.483536 127.558L0.867095 126.719L1.83513 125.953L3.0406 125.497L4.77575 125.68L6.78488 125.88L8.52003 126.063L16.0268 126.573L18.9127 126.883L20.3556 127.029L20.7392 126.19L20.7574 125.917L20.246 125.279L17.9446 125.023L13.9081 124.604L9.30541 124.112L2.67531 123.419L1.26892 122.981L0.246094 121.705L0.684448 120.301L1.67074 119.243L3.13192 119.115L6.32826 119.152L9.50632 119.48L14.1456 119.681L17.0131 119.991L19.899 120.301L21.3419 120.447L22.2734 119.972L22.9309 119.17L22.1273 118.496L18.7118 117.839L15.278 117.183L11.0223 116.162L7.02232 115.45L5.61593 115.013L4.57484 113.736L4.73922 112.296L5.74379 110.947L7.8625 110.309L16.5017 111.22L22.8031 112.168L24.7939 112.679L26.4743 113.135L28.7939 113.39L32.5382 113.773L33.9994 113.645L34.9309 113.171L35.6249 112.077L34.0724 110.163L30.6752 106.607L28.7391 102.906L28.3008 101.41L28.4286 100.262L29.1227 99.1676L29.7619 98.657L30.4012 98.1465L31.5519 98.2741L34.2185 100.59L35.5701 101.593L39.0039 104.875L43.0222 108.212L45.3783 110.783L47.3326 114.174L49.287 117.876L50.5107 120.045L51.8623 121.048L55.2413 121.996L59.2595 122.708L61.5243 123.236L66.1088 124.02L67.8257 124.203L68.3188 125.114L67.917 128.852L67.4604 133.174L66.9125 138.352L66.5106 142.09L65.8166 143.166L65.086 143.239Z" fill="#FFDB13"/>
<path d="M209.013 144.625L214.894 141.306L218.711 139.045L221.25 137.532L223.88 136.31L227.624 135.599L231.99 134.505L237.195 133.593L240.848 132.609L246.127 131.059L252.647 131.205L257.944 130.566L261.049 129.782L262.839 127.923L262.894 126.354L262.437 125.917L261.962 125.461L261.232 125.115L260.117 124.586L257.944 125.352L255.935 125.753L253.359 125.443L251.058 125.023L250.053 124.768L249.487 124.039L251.295 123.091L256.958 121.705L262.419 119.79L266.51 118.332L268.044 117.493L268.483 116.107L268.172 114.375L267.624 113.664L266.51 113.135L265.231 112.971L263.588 113.554L261.67 114.229L260.026 114.794L252.848 117.037L250.108 118.003L248.738 118.477L248.172 117.766L248.081 117.493L248.446 116.745L250.62 115.979L254.437 114.63L258.821 113.08L265.085 110.874L266.364 110.108L267.076 108.631L266.309 107.373L265.104 106.571L263.642 106.771L260.537 107.574L257.542 108.631L253.067 109.889L250.346 110.856L247.624 111.822L246.254 112.314L245.232 112.059L244.41 111.421L245.031 110.582L248.209 109.16L251.387 107.738L255.295 105.75L259.021 104.127L260.282 103.361L260.994 101.885L260.501 100.517L259.204 99.4594L257.012 99.3136L248.811 102.195L242.912 104.601L241.085 105.55L239.551 106.388L237.359 107.172L233.816 108.412L232.355 108.631L231.332 108.376L230.401 107.464L231.46 105.258L233.962 101.009L234.985 96.9614L235.04 95.4115L234.656 94.3175L233.725 93.424L232.976 93.0776L232.245 92.7129L231.149 93.0958L229.104 95.9767L228.026 97.2714L225.433 101.246L222.309 105.422L220.629 108.467L219.497 112.241L218.474 116.289L217.78 118.678L216.72 119.973L213.634 121.668L209.908 123.291L207.807 124.349L203.551 126.154L201.908 126.737L201.652 127.74L202.912 131.296L204.355 135.38L206.09 140.285L207.35 143.822L208.282 144.734L209.013 144.625Z" fill="#FFDB13"/>
<path d="M104.684 219.037L117.232 207.732L141.159 207.988L154.62 218.892L154.182 247.719L159.789 248.029L165.086 246.662L161.378 266.847L158.054 280.267L157.981 283.804L160.099 287.852L160.666 289.311L159.241 288.417L155.917 287.05L149.762 286.959L145.342 288.581L140.757 291.408L135.716 294.398L131.442 295.93L130.876 296.094L130.766 292.046L130.346 278.644L130.273 263.054L130.237 246.844L129.871 238.566L132.976 238.402L136.812 238.019L140.501 236.615L140.812 236.031L131.826 235.813L124.611 235.758L117.817 235.922L114.657 235.977V236.888L118.036 237.855L122.657 238.566H126.182L126.346 247.282L127.022 260.52L127.241 268.652L127.716 276.511L127.771 283.093V290.241V295.583L126.291 295.529L120.246 292.556L113.141 287.816L108.501 286.576L104.246 286.375L100.721 288.089L99.4422 288.034L101.232 284.224L101.762 280.449L100.301 274.195L97.1956 265.479L94.9856 258.167L93.4513 251.585L93.0312 247.118L96.4468 247.975L99.497 248.193L104.301 248.303L104.611 231.127L104.447 222.794L104.721 218.855" fill="#2B59DB"/>
<path d="M103.406 283.147C106.054 283.055 109.671 283.22 113.798 284.277C118.821 285.572 122.62 287.687 125.086 289.328" stroke="#FFDB13" stroke-width="4" stroke-miterlimit="10"/>
<path d="M156.209 283.879C153.561 283.788 149.944 283.952 145.816 285.01C140.794 286.304 136.995 288.419 134.529 290.06" stroke="#FFDB13" stroke-width="4" stroke-miterlimit="10"/>
<path d="M116.263 236.435C116.792 236.417 117.322 236.38 117.852 236.362C117.852 236.18 117.852 235.997 117.852 235.815C116.518 235.924 115.167 236.052 113.834 236.161C113.487 236.198 113.468 236.69 113.834 236.708C117.286 236.818 120.738 236.909 124.19 237.018C124.537 237.037 124.537 236.49 124.19 236.471C121.304 236.362 118.436 236.253 115.55 236.143C115.24 236.125 115.167 236.617 115.477 236.672C123.678 238.277 132.098 238.659 140.409 237.766C140.756 237.73 140.774 237.237 140.409 237.219C134.126 236.891 127.824 236.581 121.541 236.253C121.541 236.435 121.541 236.617 121.541 236.8C127.441 236.854 133.322 236.909 139.222 236.982C139.569 236.982 139.569 236.453 139.222 236.435C137.194 236.344 135.185 236.234 133.158 236.143C133.158 236.325 133.158 236.508 133.158 236.69C135.843 236.745 138.546 236.818 141.231 236.873C141.523 236.873 141.614 236.38 141.304 236.344C138.308 235.943 135.295 235.924 132.317 236.344C129.304 236.763 125.815 238.404 122.838 237.146C122.783 237.31 122.747 237.492 122.692 237.657C126.984 237.802 131.276 237.93 135.569 238.076C135.569 237.894 135.569 237.711 135.569 237.529C131.66 237.547 127.751 237.547 123.843 237.565C123.496 237.565 123.496 238.112 123.843 238.112C127.751 238.094 131.66 238.094 135.569 238.076C135.916 238.076 135.916 237.547 135.569 237.529C131.276 237.383 126.984 237.255 122.692 237.11C122.436 237.11 122.29 237.511 122.546 237.62C125.231 238.751 128.025 237.693 130.728 237.164C134.162 236.49 137.687 236.417 141.139 236.873C141.158 236.69 141.194 236.508 141.212 236.344C138.528 236.289 135.824 236.216 133.139 236.161C132.792 236.161 132.792 236.69 133.139 236.708C135.167 236.8 137.176 236.909 139.203 237C139.203 236.818 139.203 236.635 139.203 236.453C133.304 236.398 127.423 236.344 121.523 236.271C121.176 236.271 121.176 236.8 121.523 236.818C127.806 237.146 134.107 237.456 140.391 237.784C140.391 237.602 140.391 237.42 140.391 237.237C132.117 238.112 123.77 237.748 115.605 236.161C115.587 236.344 115.55 236.526 115.532 236.69C118.418 236.8 121.286 236.909 124.171 237.018C124.171 236.836 124.171 236.654 124.171 236.471C120.719 236.362 117.267 236.271 113.815 236.161C113.815 236.344 113.815 236.526 113.815 236.708C115.149 236.599 116.5 236.471 117.834 236.362C118.181 236.325 118.199 235.797 117.834 235.815C117.304 235.833 116.774 235.87 116.245 235.888C115.916 235.906 115.916 236.453 116.263 236.435Z" fill="#2B59DB"/>
<path d="M120.848 237.563C121.689 237.764 122.547 237.946 123.387 238.146C123.351 238.001 123.314 237.837 123.259 237.691C123.04 237.909 122.821 238.128 122.602 238.329C122.456 238.475 122.529 238.73 122.73 238.785C122.985 238.858 123.223 238.931 123.478 239.003C123.825 239.113 123.953 238.584 123.625 238.475C123.533 238.438 123.442 238.42 123.369 238.384C123.04 238.274 122.894 238.803 123.223 238.912C123.314 238.949 123.405 238.967 123.478 239.003C123.533 238.821 123.57 238.657 123.625 238.475C123.369 238.402 123.131 238.329 122.876 238.256C122.912 238.402 122.949 238.566 123.004 238.712C123.223 238.493 123.442 238.274 123.661 238.074C123.807 237.928 123.734 237.654 123.533 237.618C122.693 237.417 121.835 237.235 120.994 237.034C120.647 236.961 120.501 237.49 120.848 237.563Z" fill="#40009B"/>
<path d="M104.737 214.969C121.322 215.06 137.888 215.17 154.472 215.261Z" fill="#FFDB13"/>
<path d="M104.739 215.244C117.634 215.317 130.51 215.39 143.405 215.463C147.095 215.481 150.784 215.5 154.474 215.536C154.821 215.536 154.821 214.989 154.474 214.989C141.579 214.916 128.702 214.843 115.807 214.77C112.118 214.752 108.428 214.734 104.739 214.697C104.374 214.697 104.374 215.244 104.739 215.244Z" fill="#FFDB13"/>
<path d="M95.752 293.598C95.7337 293.142 95.752 292.413 96.0625 291.61C96.4278 290.68 96.994 290.133 97.6333 289.513C98.3821 288.802 99.0214 288.401 100.263 287.617C101.67 286.742 102.382 286.304 103.314 286.049C104.318 285.757 105.122 285.739 105.633 285.739C107.204 285.702 108.355 286.049 109.743 286.468C110.601 286.724 111.88 287.125 113.432 287.945C115.405 288.985 115.514 289.477 118.272 291.209C118.473 291.337 119.387 291.847 121.213 292.887C124.117 294.528 124.592 294.765 125.432 294.874C126.51 295.02 126.93 294.783 127.423 295.184C127.971 295.622 127.935 296.278 128.062 298.339C128.208 300.618 128.263 301.767 128.373 302.751C128.482 303.772 128.629 304.793 128.263 306.015C128.099 306.544 127.935 306.817 127.843 306.963C127.149 308.003 125.998 308.331 125.633 308.44C123.807 309.005 123.861 309.789 119.953 311.795C118.473 312.561 115.679 313.983 111.843 314.95C109.359 315.588 107.551 315.734 104.574 316.007C103.862 316.062 100.154 316.39 95.3136 316.117C92.7931 315.971 91.6424 315.77 90.4735 315.387C88.5192 314.731 87.0762 313.783 86.163 313.072C85.6516 312.506 84.7566 311.376 84.3731 309.716C83.6607 306.671 85.195 304.228 85.5237 303.736C86.3456 302.204 87.6424 300.18 89.6333 298.174C91.8616 295.859 94.1264 294.437 95.752 293.598Z" fill="#FFDB13" stroke="#FFD740" stroke-miterlimit="10"/>
<path d="M115.662 298.885C116.739 298.502 117.342 297.499 117.452 297.317C118.018 296.332 117.963 295.384 117.927 295.056L116.776 293.105L114.785 291.373L111.315 290.224L107.991 289.695L104.466 289.951L101.945 291.519C101.671 291.628 100.813 292.011 100.374 292.941C100.228 293.251 99.8629 293.98 100.155 294.418C100.52 294.947 101.525 294.582 103.315 294.618C104.265 294.637 104.922 294.764 106.109 295.001C107.333 295.238 109.16 295.767 111.333 297.043C112.447 298.666 114.255 299.377 115.662 298.885Z" fill="#2B59DB"/>
<path d="M95.7166 298.355C95.3878 298.483 94.6572 298.993 93.1961 300.032C92.4655 300.543 92.155 300.78 91.9906 301.236C91.7714 301.783 91.7897 302.567 92.2098 303.077C92.9221 303.934 94.5111 303.57 95.4243 303.333C96.9403 302.968 97.8535 302.166 98.4197 301.655C99.0955 301.053 99.6435 300.543 99.68 299.759C99.68 299.631 99.7165 298.938 99.2599 298.446C98.2736 297.407 96.0271 298.246 95.7166 298.355Z" fill="#2B59DB"/>
<path d="M162.875 293.76C162.766 293.176 162.912 292.666 162.565 291.772C162.199 290.842 161.597 290.259 160.994 289.675C160.245 288.964 159.606 288.563 158.364 287.779C156.957 286.904 156.245 286.466 155.314 286.211C154.309 285.919 153.505 285.901 152.994 285.901C151.423 285.865 150.273 286.211 148.884 286.63C148.026 286.886 146.747 287.287 145.195 288.107C143.222 289.147 143.113 289.639 140.355 291.371C140.154 291.499 139.241 292.009 137.414 293.049C134.51 294.69 134.035 294.927 133.195 295.036C132.117 295.182 131.697 294.945 131.204 295.346C130.656 295.784 130.693 296.44 130.565 298.501C130.419 300.78 130.364 301.929 130.254 302.913C130.145 303.934 129.999 304.955 130.364 306.177C130.528 306.706 130.693 306.979 130.784 307.125C131.478 308.165 132.629 308.493 132.994 308.602C134.821 309.168 134.766 309.952 138.674 311.957C140.154 312.723 142.948 314.145 146.784 315.112C149.268 315.75 151.076 315.896 154.053 316.169C154.766 316.224 158.473 316.552 163.314 316.279C165.323 316.169 166.638 316.005 168.154 315.549C169.706 315.075 171.186 314.601 172.464 313.234C172.866 312.796 173.871 311.629 174.254 309.879C174.766 307.526 173.889 305.612 173.104 303.898C172.519 302.622 171.423 300.251 168.994 298.337C166.108 296.003 163.241 295.802 162.875 293.76Z" fill="#FFDB13" stroke="#FFD740" stroke-miterlimit="10"/>
<path d="M144.52 297.335C143.46 297.043 142.858 295.967 142.73 295.766C142.164 294.782 142.218 293.834 142.255 293.505L143.406 291.554L145.396 289.822L148.867 288.673L152.191 288.145C153.908 287.835 155.132 288.181 155.716 288.4C156.227 288.601 156.721 288.911 157.707 289.53C158.839 290.242 159.186 290.588 159.442 290.971C159.661 291.299 160.173 292.047 159.917 292.503C159.625 293.013 158.62 292.74 157.086 292.813C155.844 292.867 155.004 293.104 153.488 293.56C151.552 294.125 150.145 294.837 148.885 295.493C146.255 296.879 145.597 297.645 144.52 297.335Z" fill="#2B59DB"/>
<path d="M164.464 296.823C164.793 296.95 165.524 297.461 166.985 298.5C167.715 299.011 168.026 299.248 168.19 299.704C168.409 300.251 168.391 301.035 167.971 301.545C167.259 302.402 165.67 302.038 164.756 301.801C163.24 301.436 162.327 300.634 161.761 300.123C161.085 299.521 160.537 299.011 160.501 298.227C160.501 298.099 160.464 297.406 160.921 296.914C161.907 295.874 164.135 296.695 164.464 296.823Z" fill="#2B59DB"/>
<path d="M117.048 147.18C120.135 145.867 123.204 144.536 126.29 143.223L137.578 143.15C140.372 144.208 143.167 145.284 145.98 146.341C144.354 148.548 142.254 151.064 139.605 153.598C136.646 156.443 133.761 158.613 131.258 160.254C128.957 158.777 126.327 156.862 123.624 154.364C120.884 151.848 118.729 149.368 117.048 147.18Z" fill="#FFDB13" stroke="#FFD740" stroke-miterlimit="10"/>
<path d="M144.667 209.919L138.238 210.028L124.686 209.974C121.617 209.937 118.567 209.901 115.499 209.864C116.868 208.442 118.238 207.02 119.608 205.598L124.393 201.167L128.558 197.374L130.384 195.824L132.667 197.721L137.508 202.261L142.695 207.093L145.818 209.919H144.667V209.919Z" fill="#FFDB13" stroke="#FFD740" stroke-miterlimit="10"/>
<path d="M182.875 238.13L176.245 243.253L170.638 246.244L163.935 247.976L159.277 248.997L154.218 248.833L154.291 236.78L154.455 216.76L154.054 205.254L152.629 182.48L150.656 166.726L148.446 147.507L151.204 146.632L152.629 143.405L152.556 137.187L150.821 133.011L150.108 131.206L156.191 129.638L162.035 127.669L164.885 126.484C166.108 126.101 167.314 125.718 168.538 125.335C169.962 124.988 171.387 124.642 172.793 124.277C174.291 123.967 175.789 123.639 177.268 123.329L182.4 123.092L188.556 121.67C188.556 121.67 194.236 119.701 194.547 119.628C194.857 119.555 204.026 116.309 204.026 116.309C205.597 116.036 208.099 115.507 211.04 114.449C213.469 113.574 217.396 113.045 218.619 112.006C218.674 111.951 219.149 111.55 219.295 111.659C219.405 111.732 219.277 111.988 219.186 112.662C219.113 113.191 219.167 113.264 219.076 113.61C218.985 113.975 218.857 114.176 218.766 114.395C218.473 114.978 218.528 115.179 218.181 116.382C218.181 116.382 218.072 116.783 217.706 117.914C216.83 120.631 214.017 122.837 213.798 125.9C213.761 126.447 214.017 127.414 214.583 129.365C215.076 131.079 215.642 132.428 216.793 135.145C217.743 137.387 217.998 137.77 218.528 138.007C220.044 138.682 221.597 136.932 222.199 137.46C222.967 138.135 221.542 141.855 218.583 144.298C217.359 145.301 216.227 145.793 215.606 146.067C208.117 149.385 204.282 150.498 204.282 150.498C200.209 151.683 195.35 153.16 188.921 155.166L180.081 156.843L173.706 157.846L171.917 158.065L174.711 167.528L177.506 179.344L179.606 190.685L181.505 202.063L182.145 211.308L182.62 221.61L182.51 233.48L182.875 238.13Z" fill="#FC3824"/>
<path d="M97.4679 125.46L85.9428 124.676L79.7876 124.038L66.6918 119.625C62.8014 118.568 58.911 117.528 55.0388 116.471C54.0708 116.234 53.0845 115.997 52.1165 115.76C50.9841 115.778 49.8517 115.814 48.7192 115.833C49.1576 116.799 49.6142 117.784 50.0526 118.75C50.3448 119.188 50.637 119.644 50.9293 120.081C51.185 120.209 51.459 120.336 51.7147 120.482C52.2443 121.631 52.7923 122.78 53.322 123.929L53.2672 128.56L51.4772 134.03L50.2717 137.969C49.8517 138.297 49.4498 138.625 49.0297 138.935C48.7192 138.99 48.3905 139.044 48.08 139.099C47.4955 139.19 46.9658 139.172 46.9658 139.172C46.9658 139.172 47.1302 139.136 47.2763 139.172C47.7147 139.281 47.8608 140.029 47.9156 140.284C47.9156 140.284 48.0617 140.995 48.9384 143.202C48.9749 143.275 49.5046 144.588 50.4361 145.572C51.6051 146.794 53.0297 147.104 54.0708 147.377C56.6644 148.107 56.5 148.69 60.5365 150.532C64.4087 152.3 64.847 151.881 72.9383 154.634C77.5593 156.203 77.5045 156.367 79.5136 156.841C82.4177 157.534 85.3401 157.825 88.2442 158.154C89.888 158.336 91.2579 158.445 92.2442 158.518L86.9839 170.917L82.9839 185.213L79.404 201.824L77.3036 212.126L76.4634 222.629L76.2442 237.763L76.4634 238.656L80.2442 241.647L85.3766 244.965L90.2716 247.481L97.5409 249.214L104.408 249.287L105.048 216.666L105.687 201.186L107.221 191.102L108.956 179.761L112.902 160.743L115.112 147.396L113.212 147.341L111.313 146.502L110.838 143.293L111.258 138.826L111.988 134.304L113.358 131.368L114.034 129.836L109.194 128.214L104.354 126.591L97.4679 125.46Z" fill="#FC3824"/>
<path d="M118.491 206.676C121.195 204.251 123.898 201.826 126.583 199.401C126.838 199.164 126.455 198.781 126.199 199.018C123.496 201.443 120.793 203.868 118.108 206.293C117.834 206.512 118.218 206.913 118.491 206.676Z" fill="#FFDB13"/>
<path d="M118.711 205.856C118.729 206.038 118.382 206.147 118.254 206.238C118.181 206.311 118.108 206.384 118.054 206.475C117.999 206.548 117.962 206.712 117.871 206.749C117.542 206.877 117.688 207.405 118.017 207.278C118.181 207.205 118.291 207.132 118.382 206.986C118.492 206.84 118.547 206.694 118.693 206.603C118.985 206.439 119.295 206.238 119.241 205.856C119.222 205.509 118.674 205.509 118.711 205.856Z" fill="#FFDB13"/>
<path d="M77.0508 69.5745C72.1741 68.5716 73.6901 68.6446 71.9001 68.4622C69.0143 68.1887 67.5714 68.0611 66.3294 68.2434C64.4298 68.5351 63.0782 69.1369 62.7495 69.301C60.9047 70.158 59.6627 71.2885 59.0052 71.9814C56.8682 74.2059 55.681 77.1233 55.681 77.1233C55.4801 78.8008 55.334 81.153 55.5714 83.961C55.681 85.3103 55.7906 86.4956 56.2107 88.0637C56.2107 88.0637 56.7221 90.0147 59.681 95.6854C63.407 100.444 64.0463 101.046 64.0463 101.046C66.2928 103.143 68.5577 104.109 70.8956 105.094C71.9914 105.55 73.9275 106.316 76.4663 106.717C78.6763 107.082 79.7722 107.264 80.5211 106.662C81.8544 105.605 80.5576 103.763 82.0553 100.353C82.4206 99.5145 82.8224 98.9128 83.1147 97.6729C83.2425 97.1441 83.48 96.0501 83.3339 94.792C83.1695 93.4791 82.7311 93.3697 81.964 91.4734C81.069 89.2853 81.4161 88.8477 80.3932 86.3314C79.8088 84.891 79.6992 85.0551 79.3887 84.1251C78.8407 82.4476 79.1147 81.7365 79.0234 79.0743C78.859 74.4976 77.9823 74.8076 78.3476 72.5648C78.4389 71.9631 78.6946 70.7415 78.0371 70.0486C77.6718 69.7021 77.2334 69.611 77.0508 69.5745Z" fill="#FFD740"/>
<path d="M77.6178 73.9492L73.6361 72.1076L69.5448 71.5059L66.1658 71.9617L63.1339 73.7486L61.3439 75.8273L60.1567 77.9607L59.8097 79.4558L59.6636 83.2303L59.7549 86.1112L60.3942 88.4998L61.8919 91.6725L63.1339 93.7512L64.7777 96.231L67.1156 98.6196L70.2571 100.862L73.3439 102.358L76.2297 102.85L79.1703 102.795H80.4123L81.4534 102.595C81.8735 101.792 82.2936 101.008 82.7137 100.206C82.9694 99.112 83.2434 98.0179 83.4991 96.9421C83.4991 96.1216 83.4991 95.2828 83.4991 94.4623C83.2982 93.6965 83.0973 92.9307 82.9146 92.1831C82.6041 91.5084 82.3119 90.8155 82.0014 90.1409C81.7822 89.4298 81.5995 88.6457 81.49 87.7705C81.4534 87.5334 81.4352 87.3146 81.4169 87.0958C81.0699 86.5488 80.7411 86.02 80.3941 85.473C80.321 84.7801 80.2297 84.069 80.1201 83.3397C79.8279 81.3704 79.4808 79.4923 79.079 77.7418L78.6224 74.3686L77.6178 73.9492Z" fill="#2B5ADC"/>
<path d="M78.6594 81.6992C77.1069 80.3499 75.4631 79.11 73.7096 78.0342C71.9562 76.9584 70.3307 76.229 68.2302 76.3202C66.4768 76.3931 64.5955 76.7031 63.2074 77.8518C61.9837 78.8547 61.3261 80.441 61.7645 81.9909C61.8558 82.3373 62.3855 82.1915 62.2942 81.845C61.801 80.1128 62.8969 78.49 64.3946 77.7242C65.8923 76.9584 67.8284 76.7396 69.4905 76.8854C71.2074 77.0495 72.6868 78.0342 74.0932 78.9458C75.5544 79.894 76.9425 80.9516 78.2576 82.1003C78.5315 82.3191 78.9334 81.9362 78.6594 81.6992Z" fill="#FFDB13"/>
<path d="M79.4072 85.2751C77.7817 85.0928 76.1744 84.9287 74.5488 84.7646C73.2703 84.6369 71.9552 84.4911 70.7315 84.9469C68.6128 85.7492 67.5351 87.9008 67.8639 90.0889C67.9187 90.4353 68.4484 90.2894 68.3936 89.943C67.9918 87.2991 70.0009 85.2204 72.5945 85.184C74.841 85.1475 77.1789 85.5851 79.4072 85.8221C79.7543 85.8586 79.7543 85.3116 79.4072 85.2751Z" fill="#FFDB13"/>
<path d="M81.3606 89.9059C78.6757 89.8147 75.5159 91.4922 75.8264 94.5738C76.1369 97.7282 79.6985 98.5852 82.3104 98.2023C82.6574 98.1476 82.5113 97.6188 82.1643 97.6735C79.8812 98.0017 76.63 97.2906 76.3743 94.5008C76.1186 91.7293 79.0045 90.3617 81.3606 90.4529C81.7259 90.4711 81.7259 89.9241 81.3606 89.9059Z" fill="#FFDB13"/>
<path d="M81.2703 92.3672C80.8867 92.896 80.4849 93.4065 80.1014 93.9353C79.8822 94.2088 80.3571 94.4823 80.5762 94.2088C80.9598 93.68 81.3616 93.1695 81.7452 92.6407C81.9461 92.3672 81.4712 92.0937 81.2703 92.3672Z" fill="#FFD740"/>
<path d="M204.886 15.6202L202.365 13.4139L189.416 7.889L174.091 4.26046L153.251 2.05415L134.932 1.58008L116.941 1.74419L104.941 2.69234L88.5211 6.01091L74.4755 11.3534L62.165 18.1364L62.4755 31.5383L63.1148 42.4057L65.1605 55.9535L67.8454 67.9332L76.101 69.4101L77.4344 71.3976L78.3111 74.4791L79.8453 84.1796L81.6353 89.7956L83.1695 93.8435V97.7273L82.0188 99.7695L81.343 103.125L80.5029 106.48L80.8682 109.999L82.7129 113.463L92.0279 122.088C92.0279 122.088 97.0873 125.297 97.142 125.443C97.1968 125.607 104.558 128.433 104.558 128.433L110.877 130.22L116.302 131.752L124.411 132.7L130.146 133.174H139.407L150.201 131.387L159.571 128.761L169.525 124.713L175.425 121.559L181.525 115.615L183.516 110.473L184.046 105.696L183.68 102.596L182 98.2926L181.215 96.3416L182.055 93.2965L183.954 89.3033L186.055 82.9944L186.731 78.4724L187.461 73.8045L187.717 72.364L194.511 69.8113L200.393 67.4044L202.731 59.0533L204.594 49.444L205.105 43.4998L205.215 35.4586L205.178 27.4175L204.886 15.6202Z" fill="#2B59DB"/>
<path opacity="0.9" d="M62.1645 18.1354C62.8768 15.2909 66.1462 13.9052 72.4293 11.4071C80.7032 8.12501 84.8311 6.48395 86.3288 6.04634C93.5799 3.91297 99.3333 3.11068 104.648 2.36309C110.091 1.59727 114.256 1.30553 117.068 1.10496C124.484 0.576176 130.091 0.576172 134.438 0.576172C144.027 0.594406 151.205 1.08672 152.959 1.21436C161.086 1.79784 167.169 2.6366 169.068 2.89188C173.086 3.45713 177.872 4.15002 184.118 5.62696C193.159 7.76033 188.703 7.63269 198.639 10.5683C200.301 11.0607 203.552 11.9906 204.958 14.7804C205.397 15.6556 205.543 16.4944 205.598 17.0961V26.2313C205.415 32.522 205.232 38.7944 205.068 45.0851C204.429 49.4795 203.808 53.8556 203.168 58.25C202.054 61.8603 200.94 65.4706 199.808 69.0809C196.94 68.9715 194.073 68.8621 191.205 68.7709C189.324 69.2815 187.442 69.792 185.561 70.3026C186 63.9754 186.42 57.6665 186.858 51.3393L186.328 41.1466L185.178 32.4308L189.287 27.2888L191.497 22.4568L192.136 20.3599L192.027 16.8955H191.187L190.657 19.8312L188.137 24.1344L183.406 30.0239L176.557 35.1659L170 38.8309L168.849 38.9403L170.42 35.0565L171.68 30.2245L173.251 25.3925L173.671 22.8762L172.1 22.7668L162.621 29.2763L153.47 34.7465L148.739 37.3722L145.47 38.1015L147.461 31.4826L148.52 24.2255L147.68 22.7486L146.73 22.6392L142.31 25.9942L134.42 31.665L125.361 36.187L122.091 36.4969L123.772 30.9356L124.502 24.0979V22.2016H123.023L117.762 26.4136L105.89 33.6889L99.041 37.2628L96.4109 38.4115L97.9817 34.3089L99.9725 28.4193L100.283 22.1104L99.9725 21.0528L95.7534 23.3685L87.7534 28.3099L80.9041 33.6707L76.4841 37.5545L76.5937 34.1995L78.1644 28.2188L80.7946 22.7486L84.5754 18.1172L85.3059 17.3878L83.6256 17.0778L79.8448 20.5423L75.4247 28C75.4247 28 73.1051 34.1995 73.1051 34.5094C73.1051 34.8194 72.9955 43.1341 72.9955 43.1341L73.6348 43.8634L76.3745 40.8184L77.2147 40.399L77.1599 45.8692L76.5754 54.1109L76.3197 63.9937V67.9322C76.2284 68.4245 76.137 68.9168 76.064 69.4091C75.1142 69.2086 74.1462 69.0262 73.1964 68.8256C72.1005 68.6433 71.0046 68.461 69.927 68.2786C69.233 68.2422 68.5389 68.2057 67.8266 68.1692C66.8951 63.9207 65.9636 59.6905 65.0321 55.442C64.5024 52.1599 63.991 48.8778 63.4613 45.5957C63.1325 41.9489 62.8038 38.3203 62.475 34.6736C62.0001 29.4587 62.4385 30.8444 62.0732 23.4779C61.9636 20.3782 61.9819 18.8283 62.1645 18.1354Z" fill="#FC3824"/>
<path d="M175.608 54.1838C175.772 53.3086 175.535 52.5246 175.297 51.9775C174.676 50.6647 173.964 49.6618 173.398 48.9872C172.777 48.2396 172.009 47.3097 170.713 46.4709C169.799 45.8692 168.978 45.5592 168.265 45.2857C167.699 45.0669 166.932 44.7752 165.891 44.5746C164.685 44.3376 163.772 44.3558 162.621 44.3558C161.672 44.374 160.868 44.374 159.809 44.5746C158.347 44.8299 157.288 45.2675 156.886 45.4498C155.772 45.9239 154.968 46.4709 154.512 46.7809C153.763 47.3097 151.078 49.8077 152.064 48.9142C153.069 48.0026 149.599 51.0111 148.978 51.6676C148.448 52.2146 147.809 52.9804 147.553 54.038C147.48 54.3115 147.37 54.8402 147.626 55.0591C147.699 55.1138 147.918 55.2596 148.576 54.9861C149.544 54.585 150.037 53.8921 150.475 53.418C150.95 52.8892 151.736 52.3604 153.325 51.2846C154.055 50.7923 154.895 50.2271 156.083 49.6254C156.612 49.3701 157.526 48.896 158.567 48.5678C159.37 48.3125 162.621 47.255 165.982 48.5313C167.133 48.969 168.009 49.5707 168.503 49.9171C168.777 50.0994 169.416 50.5553 171.261 52.2875C172.101 53.0716 172.777 53.728 173.233 54.1838C173.544 54.8767 173.964 55.2779 174.219 55.4784C174.512 55.7155 174.621 55.7155 174.694 55.7155C175.224 55.6425 175.516 54.6397 175.608 54.1838Z" fill="#FFDB13"/>
<path d="M92.7215 54.1838C92.5572 53.3086 92.7946 52.5246 93.032 51.9775C93.653 50.6647 94.3654 49.6618 94.9316 48.9872C95.5526 48.2396 96.3197 47.3097 97.6165 46.4709C98.5297 45.8692 99.3516 45.5592 100.064 45.2857C100.63 45.0669 101.397 44.7752 102.438 44.5746C103.644 44.3376 104.557 44.3558 105.708 44.3558C106.658 44.374 107.461 44.374 108.521 44.5746C109.982 44.8299 111.041 45.2675 111.443 45.4498C112.557 45.9239 113.361 46.4709 113.817 46.7809C114.566 47.3097 117.251 49.8077 116.265 48.9142C115.26 48.0026 118.731 51.0111 119.352 51.6676C119.881 52.2146 120.521 52.9804 120.776 54.038C120.849 54.3115 120.959 54.8402 120.703 55.0591C120.63 55.1138 120.411 55.2596 119.753 54.9861C118.785 54.585 118.292 53.8921 117.854 53.418C117.379 52.8892 116.594 52.3604 115.005 51.2846C114.274 50.7923 113.434 50.2271 112.247 49.6254C111.717 49.3701 110.804 48.896 109.763 48.5678C108.959 48.3125 105.708 47.255 102.347 48.5313C101.196 48.969 100.32 49.5707 99.8265 49.9171C99.5526 50.0994 98.9133 50.5553 97.0686 52.2875C96.2284 53.0716 95.5526 53.728 95.096 54.1838C94.7855 54.8767 94.3654 55.2779 94.1097 55.4784C93.8174 55.7155 93.7078 55.7155 93.6348 55.7155C93.1051 55.6425 92.7946 54.6397 92.7215 54.1838Z" fill="#FFDB13"/>
<path d="M92.5229 74.3524C93.3813 72.0367 94.4772 70.4686 94.8425 69.9945C95.4087 69.2104 96.3768 67.9158 98.0571 66.6759C98.7512 66.1654 99.6827 65.4725 101.053 64.9984C103.993 63.9773 106.696 64.7067 108.103 65.1078C108.431 65.199 109.838 65.6001 111.518 66.53C112.066 66.8218 114.039 67.9523 116.048 70.1586C118.094 72.4014 119.536 75.0453 119.463 75.1C119.372 75.1364 120.815 77.671 121.564 80.5701C121.728 81.1901 122.002 82.2477 122.094 83.6699C122.167 84.6545 122.075 84.8369 122.039 87.0796C122.002 89.4318 122.094 89.3771 121.984 90.0153C121.747 91.3281 121.235 92.2216 120.505 93.4797C119.847 94.6285 119.226 95.686 118.039 96.7983C116.906 97.8376 115.829 98.3664 114.879 98.8405C113.947 99.2964 113.272 99.6246 112.304 99.7887C111.537 99.9163 111.336 99.8069 109.728 99.734C108.176 99.6793 108.231 99.7704 106.039 99.734C104.468 99.7157 103.664 99.6975 102.934 99.5152C102.404 99.3875 101.838 99.2052 100.304 98.4576C97.9841 97.3271 96.8151 96.7619 96.048 96.0872C94.806 95.0296 94.185 93.9538 93.3083 92.4586C92.5777 91.2005 91.9019 90.0518 91.5183 88.4107C91.3722 87.7543 91.3357 87.3714 91.3539 83.3599C91.3722 79.7131 91.3905 79.3667 91.4635 78.7832C91.7558 76.4675 92.3768 74.7718 92.5229 74.3524Z" fill="#EAEEFB"/>
<path d="M113.525 80.2966C112.904 79.9319 112.301 79.5855 111.424 79.4031C110.858 79.2755 109.982 79.0932 108.995 79.4031C107.735 79.8043 107.041 80.8072 106.365 81.7735C106.018 82.2841 105.635 82.8311 105.361 83.6699C105.214 84.1257 104.758 85.785 105.47 87.5537C105.817 88.4289 106.329 88.9942 107.041 89.8147C107.662 90.5076 107.972 90.854 108.411 91.1275C110.164 92.1851 112.356 91.4193 112.886 91.2369C113.361 91.0728 114.164 90.7811 114.931 90.0335C115.698 89.2859 116.027 88.4836 116.246 87.9366C116.429 87.4625 116.758 86.642 116.776 85.5115C116.776 85.0009 116.776 83.4328 115.717 82.0471C115.132 81.2265 114.438 80.8254 113.525 80.2966Z" fill="#2B59DB"/>
<path d="M110.421 85.7503C110.732 85.6227 111.006 85.3674 111.517 84.8569C111.901 84.474 112.102 84.2916 112.193 84.1275C112.576 83.4893 112.54 82.6323 112.248 81.9759C111.828 81.046 110.987 80.6995 110.713 80.6084C109.873 80.3166 109.161 80.5354 108.924 80.6084C108.668 80.6995 107.955 80.9184 107.499 81.6112C106.878 82.5412 107.207 83.617 107.28 83.9269C107.371 84.2369 107.736 85.4404 108.85 85.8233C108.978 85.8415 109.691 86.0603 110.421 85.7503Z" fill="#FFDB13"/>
<path d="M153.728 107.357L149.527 109.235L143.427 110.821L136.157 112.08H120.778L113.418 110.712L109.838 109.199L108.87 106.773L108.45 108.962L109.582 110.949L111.847 112.572L113.107 115.726L116.176 120.467L121.235 124.953L126.203 127.159L133.545 127.469L138.294 126.612L143.883 123.056L146.97 119.446L149.18 115.726L149.491 112.973L149.582 110.603L153.728 107.357Z" fill="#FFD740"/>
<path d="M127.518 117.181C128.322 117.254 129.107 117.327 130.13 117.4C130.897 117.455 131.865 117.509 132.742 117.491C133.162 117.491 134.349 117.455 137.107 116.908C139.682 116.397 140.979 116.142 142.367 115.54C143.865 114.902 144.65 114.264 146.203 113.024C146.714 112.623 147.207 112.185 147.098 111.911C147.043 111.784 146.805 111.583 145.308 111.747C143.189 111.984 141.984 112.55 140.413 112.951C139.481 113.188 138.659 113.297 136.997 113.48C134.751 113.735 133.874 113.625 128.833 113.589C124.504 113.552 123.518 113.625 121.198 113.37C119.901 113.243 118.824 113.078 118.093 112.951C117.107 112.313 116.285 112.221 115.828 112.221C115.518 112.221 115.007 112.221 114.879 112.477C114.696 112.841 115.335 113.516 115.518 113.68C116.358 114.537 117.363 114.829 118.038 115.048C120.705 115.886 120.121 116.014 121.874 116.47C122.659 116.689 124.285 116.853 127.518 117.181Z" fill="#2B59DB"/>
<path d="M121.582 121.323C121.856 120.193 123.81 119.81 125.271 119.537C125.984 119.409 126.897 119.281 130.531 119.281C132.979 119.281 135.646 119.336 135.646 119.336C135.646 119.336 136.979 119.372 138.221 119.591C138.221 119.591 139.865 119.901 141.107 120.74C141.362 120.922 141.673 121.159 141.837 121.579C141.892 121.706 142.02 122.016 141.947 122.308C141.801 122.873 140.979 123.019 139.737 123.457C138.531 123.894 138.897 123.913 137.162 124.606C135.81 125.153 135.116 125.426 134.422 125.554C133.527 125.718 132.687 125.663 131.006 125.554C129.673 125.463 129.016 125.426 128.121 125.244C127.262 125.061 126.477 124.788 124.906 124.241C124.906 124.241 124.267 124.022 123.372 123.603C122.294 123.11 122.057 122.892 121.892 122.655C121.655 122.363 121.454 121.798 121.582 121.323Z" fill="#2B59DB"/>
<path d="M171.389 74.3524C170.531 72.0367 169.435 70.4686 169.07 69.9945C168.503 69.2104 167.535 67.9158 165.855 66.6759C165.161 66.1654 164.229 65.4725 162.86 64.9984C159.919 63.9773 157.216 64.7067 155.809 65.1078C155.481 65.199 154.074 65.6001 152.394 66.53C151.846 66.8218 149.873 67.9523 147.864 70.1586C145.819 72.4014 144.376 75.0453 144.449 75.1C144.54 75.1364 143.097 77.671 142.348 80.5701C142.184 81.1901 141.91 82.2477 141.819 83.6699C141.745 84.6545 141.837 84.8369 141.873 87.0796C141.91 89.4318 141.819 89.3771 141.928 90.0153C142.166 91.3281 142.677 92.2216 143.408 93.4797C144.065 94.6285 144.686 95.686 145.873 96.7983C147.006 97.8376 148.083 98.3664 149.033 98.8405C149.965 99.2964 150.64 99.6246 151.608 99.7887C152.376 99.9163 152.577 99.8069 154.184 99.734C155.736 99.6793 155.681 99.7704 157.873 99.734C159.444 99.7157 160.248 99.6975 160.978 99.5152C161.508 99.3875 162.074 99.2052 163.608 98.4576C165.928 97.3271 167.097 96.7619 167.864 96.0872C169.106 95.0296 169.727 93.9538 170.604 92.4586C171.334 91.2005 172.01 90.0518 172.394 88.4107C172.54 87.7543 172.576 87.3714 172.558 83.3599C172.54 79.7131 172.522 79.3667 172.449 78.7832C172.138 76.4675 171.535 74.7718 171.389 74.3524Z" fill="#EAEEFB"/>
<path d="M150.384 80.2966C151.005 79.9319 151.608 79.5855 152.484 79.4031C153.051 79.2755 153.927 79.0932 154.914 79.4031C156.174 79.8043 156.868 80.8072 157.544 81.7735C157.891 82.2841 158.274 82.8311 158.548 83.6699C158.694 84.1257 159.151 85.785 158.439 87.5537C158.092 88.4289 157.58 88.9942 156.868 89.8147C156.247 90.5076 155.936 90.854 155.498 91.1275C153.745 92.1851 151.553 91.4193 151.023 91.2369C150.548 91.0728 149.745 90.7811 148.978 90.0335C148.21 89.2859 147.882 88.4836 147.662 87.9366C147.48 87.4625 147.151 86.642 147.133 85.5115C147.133 85.0009 147.133 83.4328 148.192 82.0471C148.777 81.2265 149.452 80.8254 150.384 80.2966Z" fill="#2B59DB"/>
<path d="M153.491 85.7503C153.18 85.6227 152.906 85.3674 152.395 84.8569C152.011 84.474 151.81 84.2916 151.719 84.1275C151.335 83.4893 151.372 82.6323 151.664 81.9759C152.084 81.046 152.924 80.6995 153.198 80.6084C154.038 80.3166 154.751 80.5354 154.988 80.6084C155.244 80.6995 155.956 80.9184 156.413 81.6112C157.034 82.5412 156.705 83.617 156.632 83.9269C156.541 84.2369 156.175 85.4404 155.061 85.8233C154.933 85.8415 154.203 86.0603 153.491 85.7503Z" fill="#FFDB13"/>
<path d="M140.43 98.2369C140.32 98.7292 140.156 99.0757 140.028 99.3492C139.626 100.206 139.133 100.753 138.603 101.318C138.256 101.683 137.782 102.194 137.033 102.741C136.649 103.014 135.992 103.47 135.133 103.762C133.69 104.254 132.448 104.035 130.95 103.762C129.818 103.561 129.252 103.452 128.576 103.051C127.845 102.613 127.425 102.066 126.603 101.008C126.001 100.224 125.617 99.7321 125.27 98.9663C124.868 98.1093 124.448 97.1793 124.631 96.0488C124.795 95.0824 125.325 94.426 125.818 93.8425C126.183 93.3867 126.969 92.4568 128.266 91.9462C130.056 91.2533 131.042 92.0739 132.448 91.071C132.649 90.9251 133.014 90.6698 133.325 90.1958C133.526 89.8858 134.019 88.9741 133.398 86.0202C132.941 83.8504 132.339 82.7928 132.923 82.0087C132.96 81.954 133.27 81.5164 133.599 81.5711C133.873 81.6076 134.019 82.0088 134.238 82.5193C134.75 83.7592 134.877 83.6498 135.115 84.288C135.389 85.0903 135.151 85.1814 135.188 87.4789C135.224 89.2658 135.371 89.5758 135.078 90.2687C134.823 90.8704 134.494 91.1804 134.64 91.4539C134.823 91.7821 135.462 91.4904 136.539 91.8004C137.069 91.9645 137.416 92.1833 137.928 92.4932C138.421 92.8032 138.841 93.0585 139.224 93.5326C139.352 93.6967 139.535 93.9337 139.772 94.426C140.138 95.283 140.777 96.6323 140.43 98.2369Z" fill="#FFD740"/>
<path d="M186.822 69.5745C191.699 68.5716 190.183 68.6446 191.973 68.4622C194.859 68.1887 196.302 68.0611 197.544 68.2434C199.443 68.5351 200.795 69.1369 201.124 69.301C202.968 70.158 204.21 71.2885 204.868 71.9814C207.005 74.2059 208.192 77.1233 208.192 77.1233C208.393 78.8008 208.539 81.153 208.302 83.961C208.192 85.3103 208.082 86.4956 207.662 88.0637C207.662 88.0637 207.151 90.0147 204.192 95.6854C200.466 100.444 199.827 101.046 199.827 101.046C197.58 103.143 195.315 104.109 192.977 105.094C191.882 105.55 189.946 106.316 187.407 106.717C185.197 107.082 184.101 107.264 183.352 106.662C182.019 105.605 183.315 103.763 181.818 100.353C181.452 99.5145 181.051 98.9128 180.758 97.6729C180.63 97.1441 180.393 96.0501 180.539 94.792C180.704 93.4791 181.142 93.3697 181.909 91.4734C182.804 89.2853 182.457 88.8477 183.48 86.3314C184.064 84.891 184.174 85.0551 184.484 84.1251C185.032 82.4476 184.758 81.7365 184.85 79.0743C185.014 74.4976 185.891 74.8076 185.525 72.5648C185.434 71.9631 185.178 70.7415 185.836 70.0486C186.201 69.7021 186.64 69.611 186.822 69.5745Z" fill="#FFD740"/>
<path d="M186.257 73.9492L190.238 72.1076L194.33 71.5059L197.709 71.9617L200.741 73.7486L202.531 75.8273L203.718 77.9607L204.065 79.4558L204.211 83.2303L204.12 86.1112L203.48 88.4998L201.983 91.6725L200.741 93.7512L199.097 96.231L196.759 98.6196L193.617 100.862L190.531 102.358L187.645 102.85L184.704 102.795H183.462L182.421 102.595C182.001 101.792 181.581 101.008 181.161 100.206C180.905 99.112 180.631 98.0179 180.375 96.9421C180.375 96.1216 180.375 95.2828 180.375 94.4623C180.576 93.6965 180.777 92.9307 180.96 92.1831C181.27 91.5084 181.563 90.8155 181.873 90.1409C182.092 89.4298 182.275 88.6457 182.385 87.7705C182.421 87.5334 182.439 87.3146 182.458 87.0958C182.805 86.5488 183.133 86.02 183.48 85.473C183.554 84.7801 183.645 84.069 183.754 83.3397C184.047 81.3704 184.394 79.4923 184.796 77.7418L185.252 74.3686L186.257 73.9492Z" fill="#2B5ADC"/>
<path d="M185.598 82.1022C186.877 80.9899 188.21 79.9688 189.617 79.0389C191.06 78.0907 192.594 77.0514 194.366 76.9055C195.991 76.7596 197.854 76.9602 199.334 77.6713C200.904 78.4371 202.092 80.0782 201.58 81.8651C201.489 82.2116 202.019 82.3574 202.11 82.011C202.548 80.5158 201.927 78.9659 200.777 77.9448C199.388 76.7414 197.416 76.4132 195.644 76.3403C193.598 76.2491 192.028 76.9237 190.311 77.9813C188.503 79.0753 186.822 80.3517 185.233 81.7375C184.959 81.9381 185.343 82.321 185.598 82.1022Z" fill="#FFDB13"/>
<path d="M184.485 85.8191C186.714 85.5638 189.052 85.1444 191.298 85.1809C193.892 85.2173 195.901 87.296 195.499 89.94C195.444 90.2864 195.974 90.4323 196.029 90.0858C196.358 87.8978 195.28 85.7644 193.161 84.9438C191.937 84.4697 190.622 84.6338 189.344 84.7615C187.718 84.9256 186.111 85.0897 184.485 85.272C184.138 85.3085 184.12 85.8555 184.485 85.8191Z" fill="#FFDB13"/>
<path d="M182.513 90.4509C184.87 90.3598 187.755 91.7273 187.5 94.4989C187.244 97.2887 184.011 97.9998 181.71 97.6716C181.363 97.6169 181.217 98.1457 181.564 98.2004C184.176 98.5651 187.737 97.7263 188.048 94.5718C188.34 91.4903 185.18 89.8128 182.513 89.9039C182.166 89.9222 182.166 90.4692 182.513 90.4509Z" fill="#FFDB13"/>
<path d="M182.131 92.6388C182.514 93.1675 182.916 93.6781 183.3 94.2069C183.5 94.4804 183.975 94.2069 183.774 93.9334C183.391 93.4046 182.989 92.894 182.605 92.3652C182.405 92.0917 181.93 92.3652 182.131 92.6388Z" fill="#FFD740"/>
<path d="M87.605 310.789C87.4223 310.57 86.9292 309.786 86.1803 309.75C86.1073 309.75 85.7054 309.731 85.5228 309.968C85.1575 310.443 85.9064 311.609 86.3995 312.193C87.5319 313.561 89.1027 314.016 89.6141 314.144C94.6917 315.548 100.609 315.238 100.609 315.238C103.696 315.074 106.345 314.946 109.925 314.089C113.23 313.305 115.367 312.394 119.24 310.716C123.824 308.747 120.975 309.476 125.833 306.85C126.125 306.686 127.678 305.866 127.952 304.571C127.988 304.407 128.098 303.933 127.842 303.696C127.568 303.441 127.02 303.623 126.801 303.696C125.267 304.206 121.103 306.96 120.208 307.562L114.765 309.841C113.139 310.497 110.71 311.3 107.678 311.737C106.491 311.901 104.628 311.956 100.975 312.065C100.975 312.065 98.7465 312.12 92.6461 311.956C90.162 311.901 88.4086 311.828 87.605 310.789Z" fill="#2B59DB"/>
<path d="M171.33 311.176C171.513 310.957 172.006 310.173 172.755 310.136C172.828 310.136 173.23 310.118 173.413 310.355C173.778 310.829 173.029 311.996 172.536 312.58C171.403 313.947 169.833 314.403 169.321 314.531C164.244 315.935 158.326 315.625 158.326 315.625C155.239 315.461 152.591 315.333 149.011 314.476C145.705 313.692 143.568 312.78 139.696 311.103C135.111 309.133 137.961 309.863 133.102 307.237C132.81 307.073 131.257 306.252 130.984 304.958C130.947 304.794 130.837 304.32 131.093 304.083C131.367 303.827 131.915 304.01 132.134 304.083C133.668 304.593 137.833 307.347 138.728 307.948L144.171 310.227C145.796 310.884 148.225 311.686 151.257 312.124C152.445 312.288 154.308 312.343 157.961 312.452C157.961 312.452 160.189 312.507 166.289 312.343C168.755 312.288 170.527 312.215 171.33 311.176Z" fill="#2B59DB"/>
<path d="M117.926 237.071C122.456 236.943 127.004 236.815 131.533 236.67C131.88 236.651 131.88 236.141 131.533 236.123C127.643 235.995 123.752 235.867 119.862 235.721C119.862 235.904 119.862 236.086 119.862 236.268C122.054 236.25 124.264 236.232 126.456 236.232C126.803 236.232 126.803 235.685 126.456 235.685C124.373 235.648 122.273 235.612 120.191 235.576C119.844 235.576 119.844 236.123 120.191 236.123C122.474 236.177 124.739 236.214 127.022 236.268C127.022 236.086 127.022 235.904 127.022 235.721C123.625 235.667 120.227 235.612 116.812 235.557C116.465 235.557 116.465 236.086 116.812 236.104C118.693 236.177 120.574 236.25 122.456 236.341C122.456 236.159 122.456 235.977 122.456 235.794C120.045 236.05 117.652 236.305 115.241 236.56C115.241 236.742 115.241 236.925 115.241 237.107C116.465 236.98 117.67 236.834 118.894 236.706C119.168 236.67 119.296 236.214 118.967 236.177C117.652 235.977 116.337 235.776 115.04 235.576C114.766 235.539 114.529 235.94 114.821 236.068C115.04 236.159 115.259 236.268 115.478 236.36C115.533 236.195 115.57 236.013 115.625 235.849C114.931 235.776 114.236 235.685 113.542 235.612C113.232 235.576 113.177 236.068 113.469 236.141C114.693 236.487 115.899 236.888 117.141 237.144C117.159 236.961 117.195 236.779 117.214 236.615C116.227 236.724 115.259 236.852 114.273 236.961C113.926 236.998 113.908 237.508 114.273 237.508C115.643 237.49 117.031 237.472 118.401 237.454C118.748 237.454 118.748 236.907 118.401 236.907C117.524 236.888 116.647 236.888 115.771 236.87C115.771 237.052 115.771 237.235 115.771 237.417C118.711 237.362 121.652 237.29 124.593 237.235C124.94 237.235 124.94 236.706 124.593 236.688C124.118 236.67 123.643 236.651 123.168 236.615C123.168 236.797 123.168 236.98 123.168 237.162C126.036 237.18 128.885 237.217 131.752 237.235C131.752 237.052 131.752 236.87 131.752 236.688C129.762 236.761 127.789 236.834 125.798 236.888C125.451 236.907 125.451 237.435 125.798 237.435C128.227 237.435 130.657 237.454 133.086 237.454C133.086 237.271 133.086 237.089 133.086 236.907C130.839 236.943 128.593 236.98 126.346 236.998C125.999 236.998 125.999 237.545 126.346 237.545C129.816 237.545 133.268 237.545 136.739 237.545C136.739 237.362 136.739 237.18 136.739 236.998C134.602 237.125 132.465 237.253 130.328 237.381C130.328 237.563 130.328 237.745 130.328 237.928C133.688 237.581 137.049 237.235 140.41 236.888C140.757 236.852 140.775 236.36 140.41 236.341C139.551 236.305 138.675 236.25 137.816 236.214C137.816 236.396 137.816 236.578 137.816 236.761C138.437 236.779 139.058 236.779 139.679 236.797C139.661 236.615 139.624 236.433 139.606 236.268C138.949 236.469 138.291 236.688 137.615 236.888C137.287 236.998 137.414 237.527 137.761 237.417C139.077 237.016 140.392 236.597 141.707 236.195C141.999 236.104 141.944 235.667 141.634 235.667C139.862 235.63 138.09 235.576 136.3 235.539C136.008 235.539 135.917 236.031 136.227 236.068C136.848 236.177 137.469 236.268 138.09 236.378C138.109 236.195 138.145 236.013 138.163 235.849C136.556 235.94 134.949 236.05 133.341 236.141C132.994 236.159 132.994 236.688 133.341 236.688C135.095 236.724 136.848 236.761 138.602 236.797C138.602 236.615 138.602 236.433 138.602 236.25C137.78 236.287 136.958 236.341 136.136 236.378C135.789 236.396 135.789 236.925 136.136 236.925C137.78 236.888 139.314 236.724 140.94 236.505C141.287 236.451 141.14 235.922 140.793 235.977C139.241 236.195 137.725 236.341 136.136 236.378C136.136 236.56 136.136 236.742 136.136 236.925C136.958 236.888 137.78 236.834 138.602 236.797C138.949 236.779 138.949 236.25 138.602 236.25C136.848 236.214 135.095 236.177 133.341 236.141C133.341 236.323 133.341 236.505 133.341 236.688C134.949 236.597 136.556 236.487 138.163 236.396C138.456 236.378 138.565 235.922 138.236 235.867C137.615 235.758 136.994 235.667 136.373 235.557C136.355 235.74 136.319 235.922 136.3 236.086C138.072 236.123 139.844 236.177 141.634 236.214C141.615 236.031 141.579 235.849 141.561 235.685C140.245 236.086 138.93 236.505 137.615 236.907C137.67 237.089 137.707 237.253 137.761 237.435C138.419 237.235 139.077 237.016 139.752 236.815C140.045 236.724 139.99 236.287 139.679 236.287C139.058 236.268 138.437 236.268 137.816 236.25C137.469 236.25 137.469 236.779 137.816 236.797C138.675 236.834 139.551 236.888 140.41 236.925C140.41 236.742 140.41 236.56 140.41 236.378C137.049 236.724 133.688 237.071 130.328 237.417C129.981 237.454 129.962 237.982 130.328 237.964C132.465 237.837 134.602 237.709 136.739 237.581C137.086 237.563 137.086 237.034 136.739 237.034C133.268 237.034 129.816 237.034 126.346 237.034C126.346 237.217 126.346 237.399 126.346 237.581C128.593 237.545 130.839 237.508 133.086 237.49C133.433 237.49 133.433 236.943 133.086 236.943C130.657 236.943 128.227 236.925 125.798 236.925C125.798 237.107 125.798 237.29 125.798 237.472C127.789 237.399 129.762 237.326 131.752 237.271C132.099 237.253 132.099 236.724 131.752 236.724C128.885 236.706 126.036 236.67 123.168 236.651C122.821 236.651 122.821 237.18 123.168 237.198C123.643 237.217 124.118 237.235 124.593 237.271C124.593 237.089 124.593 236.907 124.593 236.724C121.652 236.779 118.711 236.852 115.771 236.907C115.424 236.907 115.424 237.454 115.771 237.454C116.647 237.472 117.524 237.472 118.401 237.49C118.401 237.308 118.401 237.125 118.401 236.943C117.031 236.961 115.643 236.98 114.273 236.998C114.273 237.18 114.273 237.362 114.273 237.545C115.259 237.435 116.227 237.308 117.214 237.198C117.488 237.162 117.615 236.724 117.287 236.67C116.045 236.414 114.821 236.013 113.615 235.667C113.597 235.849 113.561 236.031 113.542 236.195C114.236 236.268 114.931 236.36 115.625 236.433C115.899 236.469 116.008 236.031 115.771 235.922C115.552 235.831 115.332 235.721 115.113 235.63C115.04 235.794 114.967 235.958 114.894 236.123C116.209 236.323 117.524 236.524 118.821 236.724C118.839 236.542 118.876 236.36 118.894 236.195C117.67 236.323 116.465 236.469 115.241 236.597C114.894 236.633 114.894 237.18 115.241 237.144C117.652 236.888 120.045 236.633 122.456 236.378C122.803 236.341 122.821 235.849 122.456 235.831C120.574 235.758 118.693 235.685 116.812 235.594C116.812 235.776 116.812 235.958 116.812 236.141C120.209 236.195 123.606 236.25 127.022 236.305C127.369 236.305 127.369 235.758 127.022 235.758C124.739 235.703 122.474 235.667 120.191 235.612C120.191 235.794 120.191 235.977 120.191 236.159C122.273 236.195 124.373 236.232 126.456 236.268C126.456 236.086 126.456 235.904 126.456 235.721C124.264 235.74 122.054 235.758 119.862 235.758C119.515 235.758 119.515 236.287 119.862 236.305C123.752 236.433 127.643 236.56 131.533 236.706C131.533 236.524 131.533 236.341 131.533 236.159C127.004 236.287 122.456 236.414 117.926 236.56C117.579 236.524 117.579 237.071 117.926 237.071Z" fill="#2B59DB"/>
<path d="M139.971 236.415C140.812 235.995 141.652 235.558 142.492 235.138C142.364 235.011 142.236 234.883 142.108 234.755C141.378 235.886 140.063 236.396 138.748 236.086C138.455 236.013 138.255 236.433 138.529 236.579C138.729 236.688 138.93 236.798 139.131 236.907C139.15 236.743 139.168 236.579 139.204 236.415C138.839 236.506 138.474 236.597 138.09 236.688C137.853 236.743 137.834 237.071 138.017 237.18C138.09 237.217 138.145 237.272 138.218 237.308C138.182 237.18 138.145 237.053 138.127 236.925C138.035 237.089 137.944 237.253 137.853 237.418C137.761 237.563 137.834 237.782 138.017 237.819C138.492 237.928 138.876 237.873 139.277 237.563C139.442 237.436 139.46 237.217 139.277 237.089C138.346 236.433 137.323 236.105 136.172 236.123C135.825 236.123 135.825 236.67 136.172 236.67C137.213 236.652 138.145 236.962 138.985 237.563C138.985 237.399 138.985 237.253 138.985 237.089C138.766 237.308 138.492 237.363 138.145 237.29C138.2 237.417 138.255 237.563 138.309 237.691C138.401 237.527 138.492 237.363 138.583 237.199C138.656 237.071 138.62 236.907 138.492 236.816C138.419 236.779 138.364 236.725 138.291 236.688C138.273 236.852 138.255 237.016 138.218 237.18C138.583 237.089 138.949 236.998 139.332 236.907C139.551 236.852 139.606 236.524 139.405 236.415C139.204 236.305 139.003 236.196 138.803 236.086C138.729 236.251 138.656 236.415 138.583 236.579C140.136 236.962 141.688 236.342 142.547 235.011C142.711 234.774 142.401 234.518 142.163 234.628C141.323 235.047 140.483 235.485 139.643 235.904C139.387 236.105 139.661 236.579 139.971 236.415Z" fill="#2B59DB"/>
<path d="M138.126 235.668C137.049 235.705 135.971 235.741 134.893 235.778C134.528 235.796 134.546 236.288 134.893 236.325C136.008 236.434 137.122 236.543 138.254 236.635C138.254 236.452 138.254 236.27 138.254 236.087C134.875 236.106 131.496 236.142 128.117 236.16C128.117 236.343 128.117 236.525 128.117 236.707C129.633 236.58 131.149 236.434 132.665 236.306C133.012 236.27 133.012 235.778 132.665 235.759C130.985 235.65 129.304 235.54 127.624 235.431C127.624 235.613 127.624 235.796 127.624 235.978C128.939 235.869 130.236 235.759 131.551 235.65C131.898 235.613 131.898 235.066 131.551 235.103C130.309 235.194 129.085 235.303 127.843 235.395C127.496 235.431 127.496 235.923 127.843 235.942C129.944 236.088 132.026 236.215 134.126 236.361C134.126 236.179 134.126 235.996 134.126 235.814C132.172 235.978 130.236 236.16 128.282 236.325C127.935 236.361 127.916 236.853 128.282 236.872C130.784 236.944 133.268 237.036 135.77 237.109C135.77 236.926 135.77 236.744 135.77 236.562C134.528 236.598 133.286 236.635 132.044 236.671C132.062 236.853 132.099 237.036 132.117 237.2C133.085 236.926 134.035 236.635 135.003 236.361C135.277 236.288 135.259 235.923 135.003 235.832C134.656 235.723 134.309 235.613 133.98 235.486C133.962 235.668 133.925 235.85 133.907 236.015C134.345 235.978 134.766 235.923 135.204 235.887C135.186 235.705 135.149 235.522 135.131 235.358C134.711 235.413 134.309 235.486 133.889 235.54C133.56 235.595 133.688 236.051 133.962 236.069C134.619 236.142 135.259 236.197 135.916 236.27C135.916 236.087 135.916 235.905 135.916 235.723C130.601 235.705 125.304 236.288 120.117 237.419C119.807 237.491 119.88 237.947 120.19 237.947C120.446 237.947 120.702 237.966 120.957 237.966C121.323 237.984 121.304 237.455 120.957 237.419C119.35 237.273 117.761 237.109 116.154 236.963C116.154 237.145 116.154 237.327 116.154 237.51C116.811 237.51 117.469 237.51 118.126 237.51C118.473 237.51 118.473 236.981 118.126 236.963C117.469 236.944 116.793 236.908 116.135 236.89C116.135 237.072 116.135 237.254 116.135 237.437C117.286 237.419 118.437 237.419 119.588 237.4C119.88 237.4 119.971 236.908 119.661 236.872C117.505 236.507 115.35 236.16 113.177 235.796C112.83 235.741 112.683 236.27 113.03 236.325C114.875 236.653 116.702 236.981 118.546 237.309C118.893 237.364 119.04 236.853 118.693 236.78C116.994 236.397 115.295 236.033 113.597 235.65C113.25 235.577 113.104 236.106 113.451 236.179C115.149 236.562 116.848 236.926 118.546 237.309C118.601 237.127 118.638 236.963 118.693 236.78C116.848 236.452 115.021 236.124 113.177 235.796C113.122 235.978 113.085 236.142 113.03 236.325C115.186 236.689 117.341 237.036 119.514 237.4C119.533 237.218 119.569 237.036 119.588 236.872C118.437 236.89 117.286 236.89 116.135 236.908C115.788 236.908 115.788 237.437 116.135 237.455C116.793 237.473 117.469 237.51 118.126 237.528C118.126 237.346 118.126 237.163 118.126 236.981C117.469 236.981 116.811 236.981 116.154 236.981C115.788 236.981 115.807 237.491 116.154 237.528C117.761 237.674 119.35 237.838 120.957 237.984C120.957 237.801 120.957 237.619 120.957 237.437C120.702 237.437 120.446 237.419 120.19 237.419C120.209 237.601 120.245 237.783 120.263 237.947C125.414 236.817 130.656 236.27 135.916 236.27C136.282 236.27 136.263 235.759 135.916 235.723C135.259 235.65 134.619 235.595 133.962 235.522C133.98 235.705 134.017 235.887 134.035 236.051C134.455 235.996 134.857 235.923 135.277 235.869C135.587 235.832 135.514 235.303 135.204 235.34C134.766 235.376 134.345 235.431 133.907 235.468C133.597 235.504 133.524 235.905 133.834 235.996C134.181 236.106 134.528 236.215 134.857 236.343C134.857 236.16 134.857 235.996 134.857 235.814C133.889 236.087 132.939 236.379 131.971 236.653C131.679 236.744 131.734 237.2 132.044 237.182C133.286 237.145 134.528 237.109 135.77 237.072C136.117 237.054 136.117 236.543 135.77 236.525C133.268 236.452 130.784 236.361 128.282 236.288C128.282 236.47 128.282 236.653 128.282 236.835C130.236 236.671 132.172 236.489 134.126 236.325C134.473 236.288 134.473 235.796 134.126 235.778C132.026 235.632 129.944 235.504 127.843 235.358C127.843 235.54 127.843 235.723 127.843 235.905C129.085 235.814 130.309 235.705 131.551 235.613C131.551 235.431 131.551 235.249 131.551 235.066C130.236 235.176 128.939 235.285 127.624 235.395C127.277 235.431 127.277 235.923 127.624 235.942C129.304 236.051 130.985 236.16 132.665 236.27C132.665 236.087 132.665 235.905 132.665 235.723C131.149 235.85 129.633 235.996 128.117 236.124C127.77 236.16 127.752 236.671 128.117 236.671C131.496 236.653 134.875 236.616 138.254 236.598C138.619 236.598 138.601 236.088 138.254 236.051C137.14 235.942 136.026 235.832 134.893 235.741C134.893 235.923 134.893 236.106 134.893 236.288C135.971 236.252 137.049 236.215 138.126 236.179C138.473 236.197 138.473 235.65 138.126 235.668Z" fill="#2B59DB"/>
<path d="M114.473 235.94C114.966 236.414 115.477 236.87 115.97 237.344C116.062 237.198 116.153 237.034 116.244 236.888C115.258 236.505 114.272 236.122 113.285 235.757C113.011 235.648 112.847 236.031 113.011 236.213C114.874 238.292 117.815 237.727 120.244 237.271C123.568 236.651 126.893 236.031 130.217 235.411C130.527 235.356 130.454 234.864 130.144 234.882C128.171 234.918 126.199 234.973 124.244 235.01C124.244 235.192 124.244 235.374 124.244 235.557C125.705 235.52 127.148 235.484 128.609 235.429C128.957 235.411 128.957 234.882 128.609 234.882C127.331 234.864 126.052 234.846 124.774 234.827C124.774 235.01 124.774 235.192 124.774 235.374C125.486 235.301 126.18 235.247 126.893 235.174C127.24 235.137 127.24 234.59 126.893 234.627C126.18 234.7 125.486 234.754 124.774 234.827C124.427 234.864 124.409 235.374 124.774 235.374C126.052 235.393 127.331 235.411 128.609 235.429C128.609 235.247 128.609 235.064 128.609 234.882C127.148 234.918 125.705 234.955 124.244 235.01C123.897 235.028 123.897 235.557 124.244 235.557C126.217 235.52 128.189 235.466 130.144 235.429C130.125 235.247 130.089 235.064 130.071 234.9C127.203 235.429 124.354 235.976 121.486 236.505C118.911 236.979 115.422 238.128 113.377 235.848C113.285 235.994 113.194 236.158 113.103 236.304C114.089 236.687 115.075 237.07 116.062 237.435C116.317 237.526 116.518 237.161 116.336 236.979C115.842 236.505 115.331 236.049 114.838 235.575C114.6 235.301 114.217 235.684 114.473 235.94Z" fill="#2B59DB"/>
<path d="M127.058 235.247C128.354 235.192 129.651 235.119 130.948 235.064C130.93 234.882 130.893 234.7 130.875 234.536C126.528 235.229 122.181 235.921 117.834 236.614C117.505 236.669 117.633 237.125 117.907 237.143C119.733 237.362 121.578 237.562 123.405 237.781C123.405 237.599 123.405 237.417 123.405 237.234C122.802 237.289 122.217 237.325 121.615 237.38C121.322 237.398 121.213 237.854 121.542 237.909C121.998 238 122.455 238.091 122.912 238.182C122.93 238 122.966 237.818 122.985 237.654C121.87 237.69 120.756 237.708 119.624 237.745C119.277 237.763 119.277 238.292 119.624 238.292C120.281 238.292 120.939 238.31 121.596 238.31C121.596 238.128 121.596 237.945 121.596 237.763C120.336 237.763 119.094 237.745 117.834 237.745C117.834 237.927 117.834 238.109 117.834 238.292C118.345 238.237 118.838 238.182 119.35 238.109C119.697 238.073 119.715 237.562 119.35 237.562C119.076 237.562 118.802 237.562 118.528 237.562C118.181 237.562 118.181 238.109 118.528 238.109C119.934 238.146 121.341 238.182 122.729 238.219C122.729 238.037 122.729 237.854 122.729 237.672C121.998 237.672 121.286 237.672 120.555 237.69C120.61 237.854 120.647 238.037 120.701 238.201C120.829 238.128 120.975 238.073 121.103 238C121.377 237.872 121.213 237.508 120.957 237.49C119.66 237.38 118.382 237.289 117.085 237.18C117.103 237.362 117.14 237.544 117.158 237.708C117.56 237.599 117.962 237.49 118.364 237.362C118.309 237.18 118.272 237.015 118.217 236.833C117.907 236.961 117.615 237.07 117.304 237.198C117.012 237.307 117.049 237.708 117.377 237.727C119.752 237.927 122.126 238.128 124.501 238.31C124.501 238.128 124.501 237.945 124.501 237.763C122.893 237.818 121.286 237.872 119.679 237.927C119.332 237.945 119.332 238.474 119.679 238.474C122.053 238.492 124.427 238.511 126.82 238.547C126.82 238.365 126.82 238.182 126.82 238C125.231 238.091 123.642 238.182 122.053 238.274C121.706 238.292 121.706 238.802 122.053 238.821C124.574 238.93 127.076 239.039 129.596 239.167C129.596 238.985 129.596 238.802 129.596 238.62C128.994 238.675 128.373 238.748 127.77 238.802C127.423 238.839 127.423 239.386 127.77 239.349C129.268 239.203 130.747 239.058 132.245 238.93C132.592 238.893 132.61 238.401 132.245 238.383C129.87 238.328 127.478 238.255 125.103 238.201C125.103 238.383 125.103 238.565 125.103 238.748C125.779 238.693 126.455 238.656 127.149 238.602C127.496 238.584 127.514 238.055 127.149 238.055C126.674 238.055 126.217 238.055 125.743 238.055C125.396 238.055 125.396 238.602 125.743 238.602C127.167 238.62 128.61 238.656 130.035 238.675C130.035 238.492 130.035 238.31 130.035 238.128C128.574 238.146 127.131 238.146 125.669 238.164C125.669 238.346 125.669 238.529 125.669 238.711C129.195 238.602 132.72 238.474 136.245 238.365C136.245 238.182 136.245 238 136.245 237.818C134.893 237.982 133.542 238.146 132.172 238.328C131.825 238.365 131.825 238.912 132.172 238.875C133.523 238.711 134.875 238.547 136.245 238.365C136.592 238.328 136.61 237.799 136.245 237.818C132.72 237.927 129.195 238.055 125.669 238.164C125.322 238.182 125.322 238.711 125.669 238.711C127.131 238.693 128.574 238.693 130.035 238.675C130.382 238.675 130.382 238.128 130.035 238.128C128.61 238.109 127.167 238.073 125.743 238.055C125.743 238.237 125.743 238.419 125.743 238.602C126.217 238.602 126.674 238.602 127.149 238.602C127.149 238.419 127.149 238.237 127.149 238.055C126.473 238.109 125.797 238.146 125.103 238.201C124.756 238.219 124.738 238.729 125.103 238.748C127.478 238.802 129.87 238.875 132.245 238.93C132.245 238.748 132.245 238.565 132.245 238.383C130.747 238.529 129.268 238.675 127.77 238.802C127.77 238.985 127.77 239.167 127.77 239.349C128.373 239.295 128.994 239.222 129.596 239.167C129.943 239.131 129.962 238.638 129.596 238.62C127.076 238.511 124.574 238.401 122.053 238.274C122.053 238.456 122.053 238.638 122.053 238.821C123.642 238.729 125.231 238.638 126.82 238.547C127.167 238.529 127.167 238 126.82 238C124.446 237.982 122.071 237.964 119.679 237.927C119.679 238.109 119.679 238.292 119.679 238.474C121.286 238.419 122.893 238.365 124.501 238.31C124.866 238.292 124.848 237.799 124.501 237.763C122.126 237.562 119.752 237.362 117.377 237.18C117.396 237.362 117.432 237.544 117.45 237.708C117.761 237.581 118.053 237.471 118.364 237.344C118.674 237.216 118.565 236.724 118.217 236.815C117.816 236.924 117.414 237.034 117.012 237.161C116.701 237.252 116.793 237.672 117.085 237.69C118.382 237.799 119.66 237.891 120.957 238C120.902 237.836 120.866 237.654 120.811 237.49C120.683 237.562 120.537 237.617 120.409 237.69C120.154 237.818 120.281 238.201 120.555 238.201C121.286 238.201 121.998 238.201 122.729 238.182C123.076 238.182 123.076 237.635 122.729 237.635C121.322 237.599 119.916 237.562 118.528 237.526C118.528 237.708 118.528 237.891 118.528 238.073C118.802 238.073 119.076 238.073 119.35 238.073C119.35 237.891 119.35 237.708 119.35 237.526C118.838 237.581 118.345 237.635 117.834 237.708C117.487 237.745 117.469 238.255 117.834 238.255C119.094 238.255 120.336 238.274 121.596 238.274C121.943 238.274 121.943 237.727 121.596 237.727C120.939 237.727 120.281 237.708 119.624 237.708C119.624 237.891 119.624 238.073 119.624 238.255C120.738 238.219 121.852 238.201 122.985 238.164C123.277 238.164 123.368 237.69 123.058 237.635C122.601 237.544 122.144 237.453 121.688 237.362C121.67 237.544 121.633 237.727 121.615 237.891C122.217 237.836 122.802 237.799 123.405 237.745C123.77 237.708 123.752 237.234 123.405 237.198C121.578 236.979 119.733 236.778 117.907 236.56C117.925 236.742 117.962 236.924 117.98 237.088C122.327 236.395 126.674 235.703 131.021 235.01C131.332 234.955 131.259 234.463 130.948 234.481C129.651 234.536 128.354 234.609 127.058 234.663C126.711 234.718 126.711 235.265 127.058 235.247Z" fill="#2B59DB"/>
<path d="M140.812 236.707C139.57 236.798 138.31 236.889 137.068 236.98C136.721 236.999 136.721 237.546 137.068 237.527C138.31 237.436 139.57 237.345 140.812 237.254C141.159 237.217 141.159 236.67 140.812 236.707Z" fill="#2B59DB"/>
<path d="M125.524 239.35C127.515 239.35 129.506 239.332 131.478 239.332C131.825 239.332 131.825 238.785 131.478 238.785C129.487 238.785 127.497 238.803 125.524 238.803C125.177 238.803 125.177 239.35 125.524 239.35Z" fill="#2B59DB"/>
<path d="M142.692 232.238C143.459 246.315 144.227 260.391 144.994 274.45C145.012 274.796 145.56 274.796 145.542 274.45C144.775 260.373 144.007 246.297 143.24 232.238C143.222 231.892 142.674 231.892 142.692 232.238Z" fill="#FFDB13"/>
<path d="M114.784 232.514C114.017 246.59 113.25 260.667 112.483 274.725C112.465 275.072 113.013 275.072 113.031 274.725C113.798 260.649 114.565 246.572 115.332 232.514C115.35 232.167 114.803 232.167 114.784 232.514Z" fill="#FFDB13"/>
</svg>
