<svg width="252" height="466" viewBox="0 0 252 466" fill="none" xmlns="http://www.w3.org/2000/svg">
<path d="M221.403 463.995H249.396C246.747 438.209 245.246 409.421 245.775 378.248C246.129 356.613 247.453 336.214 249.396 317.316C240.035 317.316 230.763 317.316 221.403 317.316C223.169 336.832 224.317 357.761 224.582 379.926C224.935 410.216 223.699 438.297 221.403 463.995Z" fill="#FFDB13"/>
<path d="M80.1107 465.321H108.192C105.543 439.447 104.042 410.57 104.572 379.31C104.925 357.586 106.25 337.187 108.192 318.201C98.8318 318.201 89.4712 318.201 80.1107 318.201C81.8768 337.805 83.0248 358.734 83.2898 380.988C83.7313 411.365 82.4067 439.624 80.1107 465.321Z" fill="#FFDB13"/>
<path d="M114.109 282.79C123.117 288.354 133.36 289.767 154.024 292.239C187.316 296.301 204.006 298.244 219.018 295.86C222.639 295.242 229.527 293.917 236.591 297.273C245.157 301.335 253.017 311.578 250.544 317.142C247.542 323.853 231.646 318.908 183.607 320.056C176.631 320.233 172.834 320.409 159.234 320.762C136.628 321.292 134.067 321.027 124.706 321.469C93.8871 322.882 94.3287 327.121 87.529 324.825C73.3999 320.056 74.1063 302.748 53.9723 232.367C48.144 211.88 37.9004 178.676 31.8072 160.485C26.0672 143.265 25.2725 142.647 20.5922 122.336C11.2316 82.1565 -4.66368 3.03326 2.5775 1.0022C7.34608 -0.32241 21.8285 32.0863 30.0411 59.6381C37.8121 85.6004 34.5447 89.0444 42.669 118.274C50.44 146.356 53.884 144.855 65.1873 180.089C75.8725 213.469 74.2829 219.297 84.6149 241.904C98.6557 272.547 110.312 280.494 114.109 282.79Z" fill="#FC3824"/>
</svg>
