<svg width="96" height="208" viewBox="0 0 96 208" fill="none" xmlns="http://www.w3.org/2000/svg">
<path d="M82.8814 207.351H13.4401C6.47249 207.351 0.914062 201.715 0.914062 194.825V13.3542C0.914062 6.38656 6.55078 0.828125 13.4401 0.828125H82.9597C89.9273 0.828125 95.4857 6.46484 95.4857 13.3542V194.747C95.4857 201.715 89.849 207.351 82.8814 207.351Z" fill="#FFDB13"/>
<path d="M31.5247 97.0443H14.3797C13.91 97.0443 13.5186 96.6528 13.5186 96.1831V94.4608C13.5186 93.991 13.91 93.5996 14.3797 93.5996H31.5247C31.9945 93.5996 32.3859 93.991 32.3859 94.4608V96.1831C32.3076 96.6528 31.9945 97.0443 31.5247 97.0443Z" fill="#2B5ADC"/>
<path d="M12.4227 99.3922C14.7143 99.3922 16.5719 97.5346 16.5719 95.243C16.5719 92.9514 14.7143 91.0938 12.4227 91.0938C10.1311 91.0938 8.27344 92.9514 8.27344 95.243C8.27344 97.5346 10.1311 99.3922 12.4227 99.3922Z" fill="#2B5ADC"/>
</svg>
