<svg width="103" height="217" viewBox="0 0 103 217" fill="none" xmlns="http://www.w3.org/2000/svg">
<path d="M6.33088 216.049H97.223C100.354 216.049 102.938 213.465 102.938 210.334V5.84587C102.938 2.71436 100.354 0.130859 97.223 0.130859H6.25259C3.12109 0.130859 0.537582 2.71436 0.537582 5.84587V210.412C0.615875 213.543 3.12109 216.049 6.33088 216.049Z" fill="#2B5ADC"/>
<path d="M17.0566 211.351H86.4979C93.4655 211.351 99.0239 205.715 99.0239 198.825V17.3542C99.0239 10.3866 93.3872 4.82812 86.4979 4.82812H16.9783C10.0107 4.82812 4.45229 10.4648 4.45229 17.3542V198.747C4.45229 205.715 10.089 211.351 17.0566 211.351Z" fill="#FC3824"/>
<path d="M68.4132 101.044H85.5583C86.028 101.044 86.4194 100.653 86.4194 100.183V98.4608C86.4194 97.991 86.028 97.5996 85.5583 97.5996H68.4132C67.9435 97.5996 67.5521 97.991 67.5521 98.4608V100.183C67.6304 100.653 67.9435 101.044 68.4132 101.044Z" fill="#F3F3F3"/>
<path d="M87.5148 103.392C85.2232 103.392 83.3656 101.535 83.3656 99.243C83.3656 96.9514 85.2232 95.0938 87.5148 95.0938C89.8064 95.0938 91.6641 96.9514 91.6641 99.243C91.6641 101.535 89.8064 103.392 87.5148 103.392Z" fill="#F3F3F3"/>
</svg>
