<svg width="96" height="208" viewBox="0 0 96 208" fill="none" xmlns="http://www.w3.org/2000/svg">
<path d="M13.2744 207.351H82.7157C89.6833 207.351 95.2417 201.715 95.2417 194.825V13.3542C95.2417 6.38656 89.605 0.828125 82.7157 0.828125H13.1961C6.2285 0.828125 0.670066 6.46484 0.670066 13.3542V194.747C0.670066 201.715 6.30679 207.351 13.2744 207.351Z" fill="#FC3824"/>
<path d="M64.631 97.0443H81.776C82.2458 97.0443 82.6372 96.6528 82.6372 96.1831V94.4608C82.6372 93.991 82.2458 93.5996 81.776 93.5996H64.631C64.1613 93.5996 63.7699 93.991 63.7699 94.4608V96.1831C63.8481 96.6528 64.1613 97.0443 64.631 97.0443Z" fill="#F3F3F3"/>
<path d="M83.7328 99.3922C81.4413 99.3922 79.5836 97.5346 79.5836 95.243C79.5836 92.9514 81.4413 91.0938 83.7328 91.0938C86.0244 91.0938 87.8821 92.9514 87.8821 95.243C87.8821 97.5346 86.0244 99.3922 83.7328 99.3922Z" fill="#F3F3F3"/>
</svg>
