<svg width="104" height="217" viewBox="0 0 104 217" fill="none" xmlns="http://www.w3.org/2000/svg">
<path d="M97.3893 216.049H6.49723C3.36572 216.049 0.782227 213.465 0.782227 210.334V5.84587C0.782227 2.71436 3.36572 0.130859 6.49723 0.130859H97.4676C100.599 0.130859 103.183 2.71436 103.183 5.84587V210.412C103.104 213.543 100.599 216.049 97.3893 216.049Z" fill="#2B5ADC"/>
<path d="M86.6636 211.351H17.2223C10.2547 211.351 4.69629 205.715 4.69629 198.825V17.3542C4.69629 10.3866 10.333 4.82812 17.2223 4.82812H86.7419C93.7095 4.82812 99.2679 10.4648 99.2679 17.3542V198.747C99.2679 205.715 93.6312 211.351 86.6636 211.351Z" fill="#FFDB13"/>
<path d="M35.307 101.044H18.1619C17.6922 101.044 17.3008 100.653 17.3008 100.183V98.4608C17.3008 97.991 17.6922 97.5996 18.1619 97.5996H35.307C35.7767 97.5996 36.1681 97.991 36.1681 98.4608V100.183C36.0898 100.653 35.7767 101.044 35.307 101.044Z" fill="#2B5ADC"/>
<path d="M16.2054 103.392C18.497 103.392 20.3547 101.535 20.3547 99.243C20.3547 96.9514 18.497 95.0938 16.2054 95.0938C13.9138 95.0938 12.0562 96.9514 12.0562 99.243C12.0562 101.535 13.9138 103.392 16.2054 103.392Z" fill="#2B5ADC"/>
</svg>
