<svg width="134" height="140" viewBox="0 0 134 140" fill="none" xmlns="http://www.w3.org/2000/svg">
<path d="M133.567 73.4299L130.962 72.4065L128.738 70.9993L127.658 68.6967L125.561 65.4986L123.401 63.2599L120.86 62.0446L119.208 61.5329L116.285 61.7248L112.79 62.5563L109.868 64.0914L107.898 66.2022L105.293 69.3363L103.45 71.511L101.862 72.7902L100.845 73.3019L99.3839 72.7902L98.812 70.7435L98.6849 65.5625L98.812 59.4222L98.7485 53.4737L98.1766 46.8856L96.5247 42.6641L93.8561 37.4832L89.4084 31.7266L82.8005 24.8827L76.2561 18.2307L73.6511 15.0965L70.6013 8.63635L68.441 2.87977L67.3609 1.02488L66.4713 0.449219H65.3912L64.3111 1.53657L63.4851 4.3509L62.6591 9.59578L62.0872 12.9218L61.5154 14.265L60.1176 15.8641L58.7197 17.5271L57.9573 18.7423L57.449 20.0216L57.5761 21.3648L58.0844 22.8359L58.7197 24.2431L58.5927 25.8421L58.0844 27.0574L56.8136 28.6565L55.9876 29.7438L55.6064 31.4708L55.9241 32.814L56.8771 34.477L58.2114 36.0121L58.402 37.2913L58.275 38.0589L57.449 39.1462L56.3053 40.1696L55.6064 41.257L55.2887 42.2164L55.4793 43.5596L55.797 44.7749L56.7501 45.7343L57.9573 46.8856L58.7197 47.7171L58.9104 48.5486L58.6562 49.7639L58.275 51.0432L57.9573 52.8341L58.275 54.4971L59.101 56.0962L60.4988 57.3114L61.706 58.5267L62.532 59.1663L62.7861 59.3582L62.5955 59.2943L61.9602 58.9744L60.9436 58.5907L59.6728 58.015L57.1948 57.0556L55.0346 56.2241L52.8743 55.4565L50.0786 54.625L47.9183 54.0494L46.5205 53.7296L44.6144 53.3458L42.4541 52.962L40.7386 52.6422L37.8158 52.0665L35.4649 51.5549L32.8599 50.8513L29.7466 49.9558L25.9978 48.8045L21.0419 47.1415L16.5943 45.4785L14.8152 44.7749L11.5112 43.4956L9.54158 42.6641L7.82606 42.0245L7.06361 41.8326L6.74592 41.7687L6.49177 41.8326L6.36469 41.9606L6.23762 42.0885V42.2804L6.30115 42.4722L6.49177 42.7281L6.74592 43.0479L7.31776 43.5596L8.08021 44.1992L9.54158 45.4145L10.9394 46.5019L12.2102 47.6532L13.5444 48.7405L14.8787 50.0198L14.8152 49.9558L14.434 49.8279L13.608 49.5081L13.0361 49.2522L12.782 49.1243H12.5914L12.3372 49.1883L12.2102 49.2522L12.0831 49.3801L11.956 49.572V49.8279V50.1477L12.0831 50.7233L12.4643 51.8107L12.7185 52.3224L13.2268 53.5377L14.0528 55.1367L14.3704 55.6484L15.4506 57.4394L15.7047 57.9511L15.8318 58.1429L16.0224 58.4627L16.5307 59.2303L16.9755 60.0618L17.6744 61.1492L18.3733 62.1725L18.8816 63.0041L19.7711 64.2833L20.7877 65.6905L21.9314 67.2895L22.5033 68.121L24.7271 70.9993L25.5531 72.0867L27.3957 74.3893L29.4924 76.8838L32.161 79.89L34.4483 82.3845L37.1805 85.0709L39.4043 87.1177L40.9292 88.5249L43.8519 90.8275L45.6945 92.1068L47.6006 93.386L50.714 95.113L53.2555 96.2003L56.1147 97.0318L58.5291 97.4156L60.3082 97.3516L61.2612 97.2237V97.2877L60.6259 97.9273L59.1645 99.2065L57.7667 100.486L54.9075 102.724L53.3826 103.94L50.0786 106.37L44.1061 110.464L42.1364 111.679L38.2606 114.046L32.161 117.372L29.4289 118.651L26.6332 119.93L22.5033 121.657L19.8347 122.809L16.6578 124.216L14.2434 125.303L10.1134 127.158L7.8896 128.309L5.91993 129.333L4.45856 130.228L3.25135 130.996L2.74304 131.379L2.23474 131.827L1.59937 132.467L1.21814 132.978L0.900452 133.554L0.836914 134.194L0.900452 134.45L0.963989 134.833L1.1546 135.217L1.53583 135.665L2.04413 136.049L2.61597 136.432L3.37842 136.688L3.95026 136.752L4.5221 136.624L5.15748 136.432L5.5387 136.304L6.23762 136.113L6.93653 136.049L7.63545 136.113L8.20728 136.368L8.58851 136.56L9.03327 136.816L9.79573 137.328L10.8759 137.904L12.2102 138.479L12.8455 138.671L13.4809 138.863L14.5611 139.055L15.8318 139.119L16.9119 139.055L18.1192 138.863L18.8816 138.671L19.8347 138.351L21.8043 137.52L23.8376 136.432L24.4094 136.049L25.2989 135.537L26.1884 134.833L26.8238 134.578L27.4592 134.322H28.0946L28.9841 134.386L29.9372 134.514L30.6996 134.578H31.5256L32.3516 134.322L33.2411 134.002L34.0036 133.554L34.7025 133.042L35.7191 132.275L37.3711 131.124L39.0866 130.1L40.7386 129.205L42.0729 128.501L43.5978 127.862L46.2028 126.902L47.9183 126.326L50.0786 125.687L51.6035 125.303L53.8909 124.727L56.4959 124.28L58.275 123.96L60.9436 123.576L63.6757 123.192L66.4713 122.872L69.0128 122.489L72.1262 122.041L74.7312 121.593L77.9081 121.018L80.1319 120.57L82.5464 119.93L85.8503 118.971L87.9471 118.331L89.5355 117.692L91.3146 116.988L92.8395 116.348L94.1102 115.773L95.3174 115.197L96.7153 114.429L98.6214 113.406L100.845 112.063L102.497 110.912L104.848 109.313L107.39 107.33L109.804 105.219L111.265 103.876L112.981 102.149L113.934 101.061L115.332 99.3984L117.556 96.3922L118.89 94.0896L120.415 91.0194L120.796 89.932L121.813 87.0538L122.956 83.4079L123.973 80.5936L124.545 79.1864L125.307 78.0351L125.943 77.4595L126.26 77.2676L127.023 77.0117L130.39 75.6685L132.042 75.0289L132.741 74.7091L133.504 74.3893L133.758 74.1974L133.885 74.0055V73.7497L133.758 73.5578L133.567 73.4299Z" fill="#FFDB13"/>
<path d="M118.508 70.3602C119.596 70.3602 120.477 69.4724 120.477 68.3774C120.477 67.2823 119.596 66.3945 118.508 66.3945C117.42 66.3945 116.538 67.2823 116.538 68.3774C116.538 69.4724 117.42 70.3602 118.508 70.3602Z" fill="#2B5ADC"/>
<path d="M25.1724 58.4648C32.098 70.6816 38.0705 74.8391 42.3275 73.6238C49.4437 71.641 58.0213 80.1479 59.6098 81.1074" stroke="#2B5ADC" stroke-width="5" stroke-miterlimit="10"/>
<path d="M31.0176 53.668C37.2443 64.7974 42.645 68.5072 46.5843 67.4198C53.0016 65.6289 60.8167 73.3043 62.2781 74.1998" stroke="#2B5ADC" stroke-width="3" stroke-miterlimit="10"/>
<path d="M67.4244 22.3828C65.3276 36.2626 67.4244 43.2344 71.5543 44.9614C78.3529 47.8397 79.8778 59.8645 80.5131 61.6555" stroke="#2B5ADC" stroke-width="5" stroke-miterlimit="10"/>
<path d="M74.9849 22.3203C73.0787 34.9208 74.9849 41.2531 78.7336 42.7882C84.8967 45.4106 86.231 56.2841 86.8664 57.9471" stroke="#2B5ADC" stroke-width="4" stroke-miterlimit="10"/>
<path d="M71.6816 108.289C85.6599 109.057 92.3314 106.179 93.6021 101.893C95.7624 94.7933 107.517 92.1069 109.232 91.2754" stroke="#2B5ADC" stroke-width="5" stroke-miterlimit="10"/>
<path d="M70.9194 100.741C83.5634 101.445 89.5995 98.8866 90.8067 94.9849C92.7764 88.5248 103.387 86.0942 104.976 85.3906" stroke="#2B5ADC" stroke-width="3" stroke-miterlimit="10"/>
</svg>
