<svg width="148" height="155" viewBox="0 0 148 155" fill="none" xmlns="http://www.w3.org/2000/svg">
<path d="M146.891 81.3852L144.009 80.253L141.549 78.6963L140.354 76.149L138.034 72.611L135.645 70.1344L132.833 68.79L131.005 68.2239L127.772 68.4362L123.906 69.3561L120.673 71.0543L118.494 73.3894L115.612 76.8566L113.573 79.2624L111.816 80.6776L110.692 81.2437L109.075 80.6776L108.442 78.4133L108.302 72.6818L108.442 65.8888L108.372 59.3082L107.739 52.0199L105.912 47.3498L102.96 41.6183L98.0393 35.2499L90.7291 27.6786L83.4892 20.3196L80.6073 16.8524L77.2334 9.70567L74.8435 3.3373L73.6486 1.28527L72.6645 0.648438H71.4696L70.2746 1.85135L69.3609 4.96478L68.4471 10.7671L67.8145 14.4466L67.1819 15.9325L65.6355 17.7015L64.0891 19.5413L63.2456 20.8857L62.6833 22.3009L62.8239 23.7868L63.3862 25.4143L64.0891 26.971L63.9485 28.74L63.3862 30.0845L61.9804 31.8534L61.0666 33.0564L60.6449 34.9669L60.9963 36.4528L62.0507 38.2926L63.5268 39.9908L63.7376 41.406L63.5971 42.2551L62.6833 43.458L61.4181 44.5902L60.6449 45.7931L60.2934 46.8545L60.5043 48.3404L60.8557 49.6849L61.9101 50.7463L63.2456 52.0199L64.0891 52.9398L64.3 53.8597L64.0188 55.2041L63.5971 56.6193L63.2456 58.6006L63.5971 60.4403L64.5108 62.2093L66.0572 63.5538L67.3927 64.8982L68.3065 65.6058L68.5877 65.8181L68.3768 65.7473L67.6739 65.3935L66.5492 64.969L65.1434 64.3321L62.4021 63.2707L60.0123 62.3509L57.6224 61.5017L54.5296 60.5819L52.1397 59.945L50.5934 59.5912L48.4847 59.1667L46.0948 58.7421L44.197 58.3883L40.9636 57.7515L38.3629 57.1854L35.481 56.407L32.0367 55.4164L27.8896 54.1427L22.407 52.303L17.4867 50.4632L15.5185 49.6849L11.8634 48.2697L9.68445 47.3498L7.78661 46.6422L6.94313 46.4299L6.59168 46.3592L6.31052 46.4299L6.16994 46.5715L6.02936 46.713V46.9253L6.09965 47.1375L6.31052 47.4206L6.59168 47.7744L7.22429 48.3404L8.06777 49.048L9.68445 50.3925L11.2308 51.5954L12.6366 52.8691L14.1127 54.072L15.5888 55.4872L15.5185 55.4164L15.0968 55.2749L14.183 54.9211L13.5504 54.6381L13.2693 54.4965H13.0584L12.7772 54.5673L12.6366 54.6381L12.4961 54.7796L12.3555 54.9919V55.2749V55.6287L12.4961 56.2655L12.9178 57.4684L13.199 58.0345L13.7613 59.379L14.6751 61.1479L15.0265 61.714L16.2214 63.6953L16.5026 64.2614L16.6432 64.4736L16.8541 64.8274L17.4164 65.6766L17.9084 66.5964L18.6816 67.7994L19.4548 68.9315L20.0171 69.8514L21.0012 71.2666L22.1258 72.8233L23.391 74.5923L24.0237 75.5122L26.4838 78.6963L27.3976 79.8993L29.436 82.4466L31.7556 85.2062L34.7078 88.5319L37.2382 91.2916L40.2607 94.2635L42.7209 96.5278L44.4078 98.0845L47.6412 100.632L49.6796 102.047L51.7883 103.462L55.2325 105.373L58.0441 106.576L61.2072 107.496L63.8782 107.92L65.8463 107.849L66.9007 107.708V107.779L66.1978 108.486L64.5811 109.901L63.0347 111.317L59.8717 113.793L58.1847 115.138L54.5296 117.826L47.9223 122.355L45.7433 123.699L41.4556 126.318L34.7078 129.997L31.6853 131.412L28.5925 132.827L24.0237 134.738L21.0715 136.012L17.557 137.568L14.8859 138.771L10.3171 140.823L7.8569 142.097L5.67791 143.229L4.06123 144.22L2.72572 145.069L2.16339 145.493L1.60107 145.989L0.89817 146.696L0.476429 147.262L0.124978 147.899L0.0546875 148.607L0.124978 148.89L0.195268 149.314L0.406139 149.739L0.82788 150.234L1.3902 150.659L2.02281 151.083L2.8663 151.367L3.49891 151.437L4.13152 151.296L4.83442 151.083L5.25616 150.942L6.02936 150.73L6.80255 150.659L7.57574 150.73L8.20835 151.013L8.6301 151.225L9.12213 151.508L9.96561 152.074L11.1605 152.711L12.6366 153.348L13.3395 153.56L14.0424 153.772L15.2374 153.985L16.6432 154.055L17.8381 153.985L19.1736 153.772L20.0171 153.56L21.0715 153.206L23.2505 152.286L25.4998 151.083L26.1324 150.659L27.1164 150.093L28.1005 149.314L28.8034 149.031L29.5063 148.748H30.2092L31.1933 148.819L32.2476 148.961L33.0911 149.031H34.0049L34.9186 148.748L35.9027 148.395L36.7462 147.899L37.5194 147.333L38.644 146.484L40.4716 145.21L42.3694 144.078L44.197 143.088L45.673 142.309L47.36 141.602L50.2419 140.54L52.1397 139.903L54.5296 139.196L56.2166 138.771L58.747 138.134L61.6289 137.639L63.5971 137.285L66.5492 136.861L69.5717 136.436L72.6645 136.082L75.4761 135.658L78.9203 135.163L81.8022 134.667L85.3167 134.03L87.7769 133.535L90.4479 132.827L94.103 131.766L96.4226 131.058L98.1799 130.351L100.148 129.573L101.835 128.865L103.241 128.228L104.576 127.591L106.123 126.742L108.231 125.61L110.692 124.124L112.519 122.85L115.12 121.081L117.931 118.888L120.602 116.553L122.219 115.067L124.117 113.156L125.171 111.953L126.718 110.114L129.178 106.788L130.654 104.241L132.341 100.844L132.763 99.6412L133.887 96.457L135.153 92.4237L136.277 89.3103L136.91 87.7536L137.753 86.4799L138.456 85.8431L138.808 85.6308L139.651 85.3477L143.376 83.8618L145.204 83.1542L145.977 82.8004L146.821 82.4466L147.102 82.2343L147.242 82.022V81.739L147.102 81.5267L146.891 81.3852Z" fill="#FFDB13"/>
<path d="M130.233 77.9887C131.436 77.9887 132.412 77.0066 132.412 75.7951C132.412 74.5836 131.436 73.6016 130.233 73.6016C129.029 73.6016 128.054 74.5836 128.054 75.7951C128.054 77.0066 129.029 77.9887 130.233 77.9887Z" fill="#2B5ADC"/>
<path d="M26.9756 64.8262C34.6372 78.3413 41.2445 82.9406 45.9539 81.5962C53.8265 79.4027 63.3156 88.8137 65.0729 89.8751" stroke="#2B5ADC" stroke-width="5" stroke-miterlimit="10"/>
<path d="M33.4424 59.5215C40.3308 71.8337 46.3055 75.9377 50.6635 74.7348C57.7628 72.7535 66.4085 81.2447 68.0252 82.2353" stroke="#2B5ADC" stroke-width="3" stroke-miterlimit="10"/>
<path d="M73.7185 24.918C71.3989 40.2728 73.7185 47.9856 78.2873 49.8961C85.8084 53.0803 87.4954 66.3831 88.1983 68.3644" stroke="#2B5ADC" stroke-width="5" stroke-miterlimit="10"/>
<path d="M82.082 24.8477C79.9733 38.7873 82.082 45.7925 86.2292 47.4907C93.0473 50.3919 94.5234 62.421 95.2263 64.2608" stroke="#2B5ADC" stroke-width="4" stroke-miterlimit="10"/>
<path d="M78.4287 119.951C93.8926 120.8 101.273 117.616 102.679 112.875C105.069 105.021 118.072 102.049 119.97 101.129" stroke="#2B5ADC" stroke-width="5" stroke-miterlimit="10"/>
<path d="M77.5845 111.598C91.5722 112.376 98.2498 109.546 99.5853 105.229C101.764 98.0825 113.503 95.3936 115.26 94.6152" stroke="#2B5ADC" stroke-width="3" stroke-miterlimit="10"/>
</svg>
