<svg width="74" height="89" viewBox="0 0 74 89" fill="none" xmlns="http://www.w3.org/2000/svg">
<path d="M44.5879 61.9832C44.5879 71.0163 45.4514 79.8521 47.0678 88.337C48.6843 88.2713 50.2786 88.1616 51.8728 88.0739C53.2014 87.9862 54.53 87.8766 55.8585 87.767C57.8071 87.5916 59.7556 87.4162 61.6599 87.1969C61.7264 87.1969 61.8149 87.175 61.9035 87.175C65.2471 86.8023 68.4799 86.3638 71.602 85.8376C72.9306 78.12 73.6392 70.1393 73.6392 61.9832C73.6392 39.5101 68.347 18.4401 59.1357 0.330078C49.88 18.4621 44.5879 39.5101 44.5879 61.9832Z" fill="#FFDB13"/>
<path d="M55.8365 87.7661C57.785 87.5907 59.7336 87.4153 61.6379 87.196C60.11 76.1897 57.4529 51.0855 62.3465 36.7904C62.8557 35.2995 62.0365 33.699 60.5086 33.1947C58.9807 32.6904 57.3422 33.5017 56.8329 34.9926C51.5408 50.4716 54.2422 76.2554 55.8365 87.7661Z" fill="#2B5ADC"/>
<path d="M0.879181 62.616C0.879181 70.7721 1.56562 78.7528 2.89418 86.4485C6.0606 86.9747 9.33773 87.4132 12.7256 87.8078C12.7699 87.8078 12.792 87.8079 12.8363 87.8298C14.7406 88.049 16.667 88.2244 18.6377 88.3998C19.9884 88.5095 21.3613 88.6191 22.7341 88.7068C24.2841 88.8164 25.8341 88.9041 27.4062 88.9699C29.0227 80.4849 29.8862 71.671 29.8862 62.616C29.8862 40.1429 24.5941 19.0729 15.3827 0.962891C6.17131 19.0729 0.879181 40.1429 0.879181 62.616Z" fill="#FFDB13"/>
<path d="M10.0682 37.8211C14.9618 52.1162 12.3047 77.2203 10.7768 88.2267C12.6811 88.4459 14.6075 88.6213 16.5782 88.7967C18.1725 77.2642 20.8518 51.5023 15.5818 36.0232C15.0725 34.5323 13.4339 33.743 11.9061 34.2254C10.3782 34.7296 9.55896 36.3302 10.0682 37.8211Z" fill="#2B5ADC"/>
</svg>
