<svg width="160" height="159" viewBox="0 0 160 159" fill="none" xmlns="http://www.w3.org/2000/svg">
<path d="M18.7583 114.668C24.4971 124.66 56.5429 117.028 90.3345 97.6202C124.126 78.2127 146.868 54.3795 141.129 44.3873C135.39 34.3952 103.344 42.0279 69.5525 61.4354C35.7609 80.843 13.0195 104.676 18.7583 114.668Z" fill="#FC3824"/>
<path d="M82.4523 84.2569C70.2738 91.1777 57.7198 96.8645 47.0435 100.137C47.0435 100.137 46.9899 100.191 46.9362 100.137C45.0048 100.781 43.7709 98.3667 45.2731 96.9718L45.3267 96.9182C53.6961 89.2999 65.0161 81.3061 77.1946 74.3853C89.3731 67.4645 101.981 61.8313 112.657 58.5587C112.657 58.5587 112.711 58.505 112.764 58.5587C114.696 57.9149 115.93 60.3291 114.428 61.724L114.374 61.7776C106.005 69.2886 94.6844 77.2824 82.4523 84.2569Z" fill="white"/>
</svg>
