<svg width="249" height="196" viewBox="0 0 249 196" fill="none" xmlns="http://www.w3.org/2000/svg">
<path d="M199.401 71.3089L124.725 71.0109L50.0488 70.7129L50.1157 126.641C50.0822 150.648 50.1491 168.132 50.1826 171.608C50.1826 172.138 50.216 173.463 50.7845 175.019C51.5871 177.171 52.9583 178.43 54.4631 179.821C58.3424 183.364 62.7233 185.019 65.1646 185.98C68.4085 187.205 71.0504 188.066 73.2241 188.662C75.8326 189.423 79.3774 190.417 83.6914 191.344C91.9516 193.132 98.2721 193.728 103.924 194.225C110.612 194.821 118.505 195.218 127.4 195.119C140.978 194.953 151.077 193.662 153.685 193.298C163.685 191.973 169.47 190.45 177.831 188.264C177.831 188.264 185.455 186.244 192.98 181.443C194.652 180.383 196.792 178.794 198.331 176.145C198.966 175.052 199.334 174.059 199.568 173.363L199.635 155.052L199.568 111.243L199.334 85.5476L199.401 71.3089Z" fill="#2B5ADC"/>
<path d="M199.5 89.7864V88.9255L199.467 76.7399V66.541L185.522 69.3556L164.687 72.2365L141.479 73.9252L121.012 74.2895L101.415 73.6603L78.4739 71.6073L61.4854 69.0576L50.0483 66.7397V79.2233L50.0817 90.4818L52.1217 94.0249L57.7065 98.76L71.0498 104.522L84.3597 107.833L96.6998 109.787L114.324 111.442L134.021 111.409L153.083 109.687L170.406 106.608L183.08 102.8L191.608 98.7269L194.15 97.0051L196.457 94.9852L198.531 92.1706" fill="#FFDB13"/>
<path d="M1.04368 38.2987C1.0166 17.4688 56.3479 0.512344 124.63 0.425289C192.911 0.338234 248.287 17.1536 248.314 37.9834C248.341 58.8133 193.009 75.7698 124.728 75.8568C56.446 75.9439 1.07077 59.1285 1.04368 38.2987Z" fill="#2B5ADC"/>
<path d="M124.69 48.2618C149.27 48.2287 173.382 45.7783 192.578 41.3412C192.611 41.3412 192.678 41.3081 192.711 41.3081C196.189 40.5133 196.189 35.6457 192.711 34.851C192.678 34.851 192.611 34.8179 192.578 34.8179C173.382 30.4139 149.27 28.0297 124.69 28.0628C100.11 28.096 75.9988 30.5463 56.8031 34.9835C56.7697 34.9835 56.7028 35.0166 56.6693 35.0166C53.1914 35.8113 53.1914 40.6789 56.6693 41.4736C56.7028 41.4736 56.7697 41.5067 56.8031 41.5067C75.9988 45.8777 100.11 48.2949 124.69 48.2618Z" fill="#FFDB13"/>
</svg>
