<svg width="201" height="132" viewBox="0 0 201 132" fill="none" xmlns="http://www.w3.org/2000/svg">
<path d="M172.58 131.135L172.963 131.08L178.534 130.022L183.374 128.545L188.434 126.758L193.493 124.333L197.274 121.598L199.593 118.334L200.433 114.031L200.324 107.941L199.374 105.954L195.374 101.96L188.744 98.0765L178.424 94.0833L163.575 90.1995C163.575 85.8051 166.424 72.859 166.424 72.859L170.534 45.4353L172.434 36.3001C172.598 35.206 172.689 33.4921 172.123 31.5775C171.831 30.6111 171.411 29.6447 169.913 27.4749C168.47 25.378 167.265 23.6093 165.182 21.4942C163.977 20.2542 162.351 18.7773 158.552 16.1334C155.52 14.0183 152.196 11.7208 147.813 9.51448C141.676 6.43295 136.763 5.22952 129.822 3.53377C125.384 2.43973 119.338 0.999253 111.192 0.379301C105.201 -0.0765467 100.781 0.14226 95.7216 0.379301C90.4796 0.634575 83.9043 0.962786 75.5208 2.5856C71.2103 3.42436 65.8222 4.48193 59.1008 6.99821C53.7127 9.02217 46.8999 11.6296 39.8315 17.4098C34.6443 21.64 30.0781 25.378 28.4708 31.9057C27.1192 37.3212 28.4343 42.1167 29.4206 44.7606L33.3657 65.7296L36.3612 82.76L37.6214 90.7282L31.8498 91.8405L18.2791 96.1802L7.30194 101.468L0.836213 107.923L0.361328 115.326L2.57136 120.997L6.82705 124.99L14.0964 128.308L22.0964 130.405L29.4206 131.973L29.311 127.488L29.2744 120.358L29.311 118.9L34.8452 114.888L44.7995 109.892L60.6898 105.06L77.7491 102.453L93.4568 101.742H117.53L134.662 103.547L149.511 106.063L161.986 109.929L172.324 115.836L172.58 131.135Z" fill="#FFDB13"/>
<path d="M4.54651 110.476C4.38213 110.549 3.81592 110.585 3.81592 110.585L4.0351 108.689L6.13554 105.845L11.8159 102.581L23.5967 97.3294L39.2861 93.4455L54.3362 90.6193L65.6969 89.2517L78.9571 87.9936L96.5278 87.5742L115.158 87.793L127.468 88.3218L139.998 89.7988L153.477 91.5857L166.847 94.4302L176.217 96.8553L185.167 99.9004L191.797 103.255L195.906 106.939L197.057 108.507L197.167 109.564L194.116 107.139L185.897 102.727L171.578 97.4752L154.427 94.1202L131.687 91.2757L106.427 90.2181L83.7973 90.4369L63.5965 92.0051L48.6559 93.792L33.3866 97.2564L20.2359 100.94L13.2953 104.404L7.39581 108.069C7.39581 108.069 5.40495 110.093 4.54651 110.476Z" fill="#FC3824"/>
<path d="M39.4854 80.7366C41.0561 79.8067 43.1931 78.6215 45.8049 77.3816C47.3209 76.6522 51.5401 74.7012 58.3346 72.659C65.6222 70.4527 71.3391 69.4863 75.7043 68.7752C78.1518 68.374 84.3436 67.4076 92.4349 66.8788C92.8732 66.8424 103.047 66.2224 112.745 66.7694C113.512 66.8059 114.992 66.8971 116.964 67.0794C118.079 67.1888 121.33 67.4988 126.754 68.447C129.366 68.9028 133.33 69.5957 138.535 70.8721C143.101 71.9843 145.457 72.5678 148.745 73.8077C152.782 75.3394 155.649 76.9075 156.855 77.5821C158.882 78.7309 160.544 79.8431 161.804 80.7366C161.877 80.7913 161.969 80.8642 162.06 80.9736C162.718 81.7577 162.316 82.8153 162.097 84.4381C161.896 86.0609 161.695 87.5743 162.024 89.3612C162.115 89.8718 162.206 90.2 162.024 90.4735C161.476 91.2576 159.302 90.5829 157.768 90.1635C155.101 89.4159 152.325 89.1607 149.64 88.4678C147.32 87.8661 144.471 87.5196 138.754 86.8085C137.001 86.5897 129.184 85.6415 117.987 85.1857C111.978 84.9486 107.558 84.9486 101.768 84.9486C100.289 84.9486 94.2248 84.9669 86.0239 85.1857C79.2112 85.368 75.7957 85.4592 71.4121 85.7692C67.0651 86.0791 61.3665 86.4985 54.0424 87.7384C48.9282 88.6136 44.6908 89.5983 41.6041 90.3823C41.0926 90.6558 40.7091 90.6741 40.4168 90.5829C38.5173 89.9447 39.1383 83.5446 39.4854 80.7366Z" fill="#FC3824"/>
</svg>
