<svg width="141" height="111" viewBox="0 0 141 111" fill="none" xmlns="http://www.w3.org/2000/svg">
<path d="M113.128 40.1533L70.9202 39.9848L28.7124 39.8164L28.7502 71.4276C28.7313 84.9967 28.7691 94.8787 28.788 96.8439C28.788 97.1433 28.8069 97.892 29.1282 98.7716C29.5819 99.9882 30.3568 100.699 31.2074 101.485C33.4 103.488 35.8762 104.424 37.256 104.967C39.0895 105.659 40.5827 106.146 41.8114 106.483C43.2857 106.913 45.2893 107.475 47.7276 107.999C52.3964 109.009 55.9688 109.346 59.1632 109.627C62.9436 109.964 67.4044 110.188 72.4323 110.132C80.1065 110.039 85.8148 109.309 87.2891 109.103C92.9408 108.354 96.2108 107.493 100.936 106.258C100.936 106.258 105.246 105.116 109.499 102.403C110.444 101.804 111.654 100.905 112.523 99.408C112.882 98.7903 113.09 98.2289 113.222 97.8358L113.26 87.4859L113.222 62.7247L113.09 48.2012L113.128 40.1533Z" fill="#E73B36"/>
<path d="M113.184 50.5956V50.109L113.165 43.2215V37.457L105.283 39.0479L93.5075 40.6762L80.3896 41.6307L68.8217 41.8366L57.7453 41.481L44.7786 40.3206L35.1765 38.8794L28.712 37.5693V44.6252L28.7309 50.9886L29.884 52.9913L33.0406 55.6676L40.5824 58.9242L48.1053 60.7958L55.0801 61.9L65.0414 62.8358L76.1745 62.8171L86.9486 61.8439L96.7397 60.1033L103.904 57.951L108.723 55.6489L110.16 54.6757L111.464 53.534L112.636 51.9432" fill="#FFDB13"/>
<path d="M1.01412 21.4955C0.998809 9.72222 32.2728 0.138194 70.8665 0.0889897C109.46 0.0397852 140.759 9.54404 140.774 21.3173C140.79 33.0906 109.516 42.6747 70.9219 42.7239C32.3282 42.7731 1.02943 33.2688 1.01412 21.4955Z" fill="#E73B36"/>
<path d="M70.9009 27.1259C84.7937 27.1072 98.4219 25.7222 109.272 23.2143C109.29 23.2143 109.328 23.1955 109.347 23.1955C111.313 22.7464 111.313 19.9951 109.347 19.5459C109.328 19.5459 109.29 19.5272 109.272 19.5272C98.4219 17.038 84.7937 15.6905 70.9009 15.7092C57.008 15.7279 43.3798 17.1129 32.5301 19.6208C32.5112 19.6208 32.4734 19.6395 32.4545 19.6395C30.4887 20.0887 30.4887 22.8399 32.4545 23.2891C32.4734 23.2891 32.5112 23.3078 32.5301 23.3078C43.3798 25.7783 57.008 27.1446 70.9009 27.1259Z" fill="#FFDB13"/>
</svg>
