<svg width="226" height="200" viewBox="0 0 226 200" fill="none" xmlns="http://www.w3.org/2000/svg">
<path d="M204.359 69.9144C199.388 54.9778 154.409 56.4973 103.896 73.3084C53.3832 90.1195 16.4642 115.856 21.4352 130.793C26.4062 145.729 71.3849 144.21 121.898 127.399C172.411 110.588 209.33 84.851 204.359 69.9144Z" fill="#2B5ADC"/>
<path d="M110.822 93.3398C129.007 87.3797 147.359 83.1737 162.542 81.6904C162.542 81.6904 162.629 81.6332 162.686 81.7196C165.447 81.3819 166.443 84.9494 164.053 86.4092L163.967 86.4664C150.693 94.3945 133.366 102.024 115.181 107.984C96.9965 113.944 78.5866 118.064 63.4035 119.547C63.4035 119.547 63.3171 119.605 63.2599 119.518C60.4991 119.856 59.5024 116.288 61.8924 114.829L61.9788 114.771C75.2237 106.987 92.5505 99.3572 110.822 93.3398Z" fill="white"/>
</svg>
