<svg width="165" height="130" viewBox="0 0 165 130" fill="none" xmlns="http://www.w3.org/2000/svg">
<path d="M131.991 47.1525L82.5467 46.9551L33.1019 46.7578L33.1462 83.7892C33.124 99.6848 33.1683 111.261 33.1904 113.563C33.1904 113.914 33.2126 114.791 33.589 115.822C34.1204 117.247 35.0283 118.08 36.0247 119.001C38.5933 121.347 41.494 122.443 43.1104 123.079C45.2583 123.89 47.0075 124.46 48.4468 124.855C50.174 125.359 52.5211 126.017 55.3775 126.631C60.8468 127.815 65.0318 128.209 68.7739 128.538C73.2024 128.933 78.4281 129.196 84.3181 129.13C93.3081 129.02 99.9952 128.165 101.722 127.924C108.343 127.047 112.174 126.039 117.709 124.592C117.709 124.592 122.758 123.254 127.74 120.075C128.847 119.373 130.264 118.321 131.283 116.567C131.704 115.844 131.947 115.186 132.102 114.725L132.146 102.601L132.102 73.594L131.947 56.5802L131.991 47.1525Z" fill="#2B5ADC"/>
<path d="M132.058 59.3855V58.8155L132.035 50.747V43.9941L122.802 45.8578L109.007 47.7652L93.6399 48.8834L80.0885 49.1246L67.1129 48.708L51.9229 47.3487L40.6744 45.6604L33.1016 44.1257V52.3914L33.1237 59.8459L34.4744 62.1919L38.1723 65.3272L47.0072 69.1421L55.82 71.3346L63.9907 72.6282L75.66 73.7245L88.7021 73.7025L101.323 72.5624L112.793 70.5234L121.186 68.002L126.832 65.3052L128.515 64.1651L130.043 62.8277L131.415 60.9641" fill="#FFDB13"/>
<path d="M0.654477 25.2967C0.636542 11.5048 37.2728 0.277435 82.4838 0.219794C127.695 0.162153 164.36 11.296 164.378 25.088C164.396 38.8799 127.76 50.1073 82.5488 50.1649C37.3377 50.2226 0.672412 39.0887 0.654477 25.2967Z" fill="#2B5ADC"/>
<path d="M82.524 31.892C98.7989 31.8701 114.764 30.2477 127.474 27.3097C127.496 27.3097 127.54 27.2878 127.562 27.2878C129.865 26.7616 129.865 23.5386 127.562 23.0124C127.54 23.0124 127.496 22.9905 127.474 22.9905C114.764 20.0745 98.7989 18.4959 82.524 18.5178C66.2491 18.5397 50.2841 20.1622 37.5742 23.1001C37.552 23.1001 37.5077 23.122 37.4856 23.122C35.1828 23.6482 35.1828 26.8712 37.4856 27.3974C37.5077 27.3974 37.552 27.4193 37.5742 27.4193C50.2841 30.3134 66.2491 31.914 82.524 31.892Z" fill="white"/>
</svg>
