<svg width="223" height="200" viewBox="0 0 223 200" fill="none" xmlns="http://www.w3.org/2000/svg">
<path d="M109.93 126.826C159.284 129.184 199.866 119.102 200.573 104.306C201.28 89.5109 161.844 75.6051 112.491 73.2467C63.1369 70.8884 22.5548 80.9706 21.8478 95.766C21.1408 110.561 60.5767 124.467 109.93 126.826Z" fill="#2B5ADC"/>
<path d="M111.183 107.592C93.4028 106.817 75.9866 104.365 62.1722 100.571L62.0872 100.525C59.5993 99.8278 59.5935 96.4046 62.082 95.8883C62.082 95.8883 62.167 95.9347 62.2134 95.8497C76.0855 93.2764 93.5809 92.3511 111.361 93.126C129.142 93.9009 146.558 96.3524 160.372 100.147L160.457 100.193C162.945 100.89 162.951 104.313 160.462 104.829C160.462 104.829 160.377 104.783 160.331 104.868C146.374 107.395 128.963 108.367 111.183 107.592Z" fill="white"/>
</svg>
