<svg width="163" height="115" viewBox="0 0 163 115" fill="none" xmlns="http://www.w3.org/2000/svg">
<path d="M20.8781 21.6725C15.0144 31.5918 37.4548 55.7086 71.0002 75.5388C104.546 95.369 136.493 103.403 142.357 93.484C148.221 83.5647 125.78 59.4479 92.2348 39.6177C58.6894 19.7875 26.7419 11.7531 20.8781 21.6725Z" fill="#2B5ADC"/>
<path d="M78.7401 62.0901C66.7145 54.907 55.5772 46.7888 47.4661 39.1139C47.4661 39.1139 47.393 39.0937 47.4132 39.0206C45.9009 37.6577 47.3929 35.3938 49.3471 36.013L49.4202 36.0332C60.1746 39.5585 72.7105 45.4657 84.7362 52.6488C96.7618 59.8319 107.879 68.0232 115.99 75.6981C115.99 75.6981 116.063 75.7184 116.043 75.7915C117.555 77.1544 116.063 79.4182 114.109 78.7991L114.036 78.7788C103.375 75.2007 90.8389 69.2934 78.7401 62.0901Z" fill="white"/>
</svg>
