<svg width="160" height="180" viewBox="0 0 160 180" fill="none" xmlns="http://www.w3.org/2000/svg">
<path d="M6.19628 96.4004C4.57641 96.3584 2.54089 96.4203 1.88903 97.5796C1.23911 98.6906 2.14123 100.325 2.52566 100.994C4.69894 104.713 8.95112 106.098 12.1518 107.148C26.6498 111.928 23.5919 111.537 27.3591 112.345C35.11 113.993 39.5542 113.618 54.6087 113.605C59.4007 113.607 66.7579 113.617 75.9475 113.8C75.9475 113.8 99.6284 115.93 124.981 115.031C128.81 114.897 134.981 113.117 147.402 109.994C148.086 109.829 153.395 108.424 157.096 104.267C158.591 102.61 158.725 101.696 158.555 101.108C158.043 99.3929 154.247 99.3103 153.352 99.2978C149.169 99.1993 146.779 100.844 141.252 102.869C141.252 102.869 139.802 103.415 133.459 105.261C124.274 107.959 115.204 106.596 111.087 106.064C109.931 105.92 94.036 105.778 62.2221 105.469C56.7052 105.437 45.005 109.291 32.8401 104.872C32.6256 104.791 32.1018 104.576 31.0523 104.194C19.8075 99.7648 13.4954 96.6506 6.19628 96.4004Z" fill="#FFD740"/>
<path d="M21.5574 7.40402C24.4636 2.71741 31.5069 1.93061 39.1656 1.38327C56.2267 0.185956 66.4497 0.904342 80.6388 1.1438C105.871 1.58852 118.488 1.79377 123.274 1.1438C123.719 1.07539 126.044 0.767507 129.053 1.1438C134.045 1.79377 140.917 4.42785 141.806 8.49871C142.524 11.7828 139.139 14.93 137.635 16.5036C133.258 21.156 129.395 29.2635 131.856 79.5505C132.745 97.9206 135.31 100.315 132.335 104.044C125.394 112.665 110.692 105.447 77.2197 106.062C47.3371 106.61 34.4131 112.801 28.3614 105.173C26.1732 102.402 27.4382 100.521 28.122 76.4375C28.6691 57.3832 29.3871 56.9042 28.6007 50.3703C27.3356 40.0735 23.5063 24.7821 23.0276 22.9691C20.7368 14.2458 19.4718 10.7907 21.5574 7.40402Z" fill="#FFDB13"/>
<path d="M128.335 102.095C132.266 97.3741 131.959 88.9929 128.095 85.6062C123.821 81.8775 116.949 85.8115 103.068 88.0693C89.8017 90.2244 79.4078 89.335 67.1676 88.3087C44.2941 86.3588 35.2335 80.9538 30.7888 85.8457C27.3355 89.6771 28.2929 97.9214 32.6351 102.54C40.157 110.51 52.9785 102.676 81.2883 102.54C108.88 102.403 121.941 109.723 128.335 102.095Z" fill="#2B5ADC"/>
<path d="M129.498 14.1104C127.207 14.5551 125.976 18.7628 124.404 34.6015C122.386 54.5794 124.062 50.748 122.557 64.2263C121.874 70.3155 120.848 77.3967 122.797 78.0467C123.446 78.252 124.267 77.7046 124.882 77.1573C124.848 65.4578 125.498 55.5715 126.284 47.9771C127.72 33.7462 128.404 26.6308 130.216 23.6888C131.242 22.0468 134.114 17.7707 132.541 15.4445C131.891 14.5551 130.592 13.9051 129.498 14.1104Z" fill="#2B5ADC"/>
</svg>
