<svg width="171" height="213" viewBox="0 0 171 213" fill="none" xmlns="http://www.w3.org/2000/svg">
<path d="M144.268 38.5416C133.126 28.945 97.7847 51.7106 65.3306 89.39C32.8764 127.069 15.5993 165.394 26.7411 174.991C37.8829 184.588 73.2243 161.822 105.678 124.143C138.133 86.4632 155.41 48.1383 144.268 38.5416Z" fill="#2B5ADC"/>
<path d="M80.4808 102.138C92.2085 88.6471 104.911 76.4824 116.376 68.0194C116.376 68.0194 116.418 67.9321 116.505 67.9739C118.557 66.3806 121.066 68.764 119.848 71.0796L119.807 71.1669C112.96 83.8835 102.72 98.3024 90.9923 111.793C79.2647 125.284 66.4748 137.407 55.0098 145.87C55.0098 145.87 54.9679 145.957 54.8806 145.916C52.8284 147.509 50.3202 145.126 51.5374 142.81L51.5793 142.723C58.4716 130.135 68.7113 115.716 80.4808 102.138Z" fill="white"/>
</svg>
