<svg width="212" height="158" viewBox="0 0 212 158" fill="none" xmlns="http://www.w3.org/2000/svg">
<path d="M195.832 80.4111C196.083 65.708 156.066 53.1007 106.45 52.2517C56.8335 51.4028 16.4078 62.6337 16.1562 77.3368C15.9046 92.0398 55.9225 104.647 105.539 105.496C155.155 106.345 195.58 95.1141 195.832 80.4111Z" fill="#FC3824"/>
<path d="M105.609 85.9424C87.7616 85.6089 70.2864 83.5374 56.5447 80.1027C56.5447 80.1027 56.4522 80.1315 56.4235 80.039C53.8946 79.4055 54.0557 76.0095 56.6384 75.5109L56.7308 75.4822C70.8461 72.6158 88.4824 71.2912 106.33 71.6247C124.206 72.0506 141.681 74.1221 155.423 77.5568C155.423 77.5568 155.515 77.528 155.544 77.6205C158.073 78.254 157.912 81.65 155.329 82.1486L155.237 82.1773C141.093 84.9513 123.457 86.2758 105.609 85.9424Z" fill="white"/>
</svg>
