<svg width="84" height="91" viewBox="0 0 84 91" fill="none" xmlns="http://www.w3.org/2000/svg">
<rect x="36.3506" y="65.9062" width="13.6354" height="2.87061" fill="#2B5ADC"/>
<rect x="28.4565" y="60.166" width="29.4238" height="5.74122" fill="#2B5ADC"/>
<path d="M22.2227 18.541L44.6443 18.7123L65.0436 18.6216L65.0572 60.1246L38.4755 60.1649L21.998 60.0843L22.2227 18.541Z" fill="#2B5ADC"/>
<path d="M33.7076 63.577C33.0461 63.9305 33.8258 65.4623 33.5422 69.5157C33.3768 72.0373 32.9516 73.0742 32.7625 73.522C31.9356 75.3837 30.6597 76.4678 30.1635 76.892C26.9739 79.6022 22.8627 79.013 16.5542 80.7805C11.8052 82.1002 8.96988 83.8441 3.72463 87.1198C1.19651 88.6752 0.322306 89.4529 0.487697 89.9714C0.818479 91.1026 5.85109 90.4191 10.8837 89.9949C14.3805 89.7121 11.4507 90.0892 35.4324 89.9714C52.066 89.9007 49.3489 89.7357 54.3342 89.8064C73.047 90.0892 82.876 91.9509 83.4666 89.7828C83.821 88.4631 80.5369 86.46 78.6467 85.2817C77.6071 84.6454 75.1262 83.2549 65.8171 80.8276C62.0367 79.8378 60.052 79.4608 58.0437 77.7168C57.453 77.1984 55.8936 75.8551 54.9958 73.5456C54.6178 72.5793 54.4996 71.7545 54.3815 70.8826C53.7908 65.5801 55.1375 62.5636 54.287 62.0452C53.7435 61.7152 52.1841 62.4222 47.6713 67.5833C47.1515 67.8189 46.3955 68.0781 45.474 68.2667C45.474 68.2667 43.5602 68.6202 41.5519 68.2196C37.1572 67.324 34.8181 62.9642 33.7076 63.577Z" fill="#F5F4F1"/>
<path d="M62.0841 37.3265C61.966 37.0201 61.5407 37.0672 60.2648 36.5723C59.3434 36.2188 59.2725 36.0775 58.7527 35.8889C57.0043 35.2526 55.2086 35.8654 54.9487 35.9596C54.1926 36.266 53.4838 36.8316 52.0898 38.0099C51.5464 38.4577 51.2628 38.7641 50.9793 39.1883C50.7667 39.5182 50.1051 40.6022 50.5068 41.4742C50.743 42.0162 51.2628 42.2519 51.8535 42.5111C53.4602 43.2181 54.9723 42.9825 55.3503 42.9118C56.7444 42.6525 57.7131 41.9691 58.2093 41.5685L58.4455 41.3328C59.5796 40.2016 59.8868 39.8952 60.1231 39.6596C61.4934 38.2927 62.1786 37.6093 62.0841 37.3265Z" fill="#F5F4F1"/>
<path d="M54.6646 42.0865C55.8782 42.0865 56.862 41.1053 56.862 39.8948C56.862 38.6844 55.8782 37.7031 54.6646 37.7031C53.4511 37.7031 52.4673 38.6844 52.4673 39.8948C52.4673 41.1053 53.4511 42.0865 54.6646 42.0865Z" fill="#FFDB13"/>
<path d="M54.3579 41.1669C54.8929 41.1669 55.3266 40.7343 55.3266 40.2006C55.3266 39.667 54.8929 39.2344 54.3579 39.2344C53.8229 39.2344 53.3892 39.667 53.3892 40.2006C53.3892 40.7343 53.8229 41.1669 54.3579 41.1669Z" fill="#2B5ADC"/>
<path d="M26.7381 37.3265C26.8562 37.0201 27.2815 37.0672 28.5574 36.5723C29.4789 36.2188 29.5497 36.0775 30.0695 35.8889C31.818 35.2526 33.6136 35.8654 33.8735 35.9596C34.3225 36.1246 34.7477 36.4074 35.3148 36.8552C35.6928 37.1615 36.1654 37.5386 36.7324 38.0335C37.2759 38.4812 37.5594 38.7876 37.8429 39.2118C38.0556 39.5417 38.7171 40.6258 38.3155 41.4977C38.0792 42.0398 37.5594 42.2754 36.9687 42.5347C35.362 43.2416 33.8499 43.006 33.4719 42.9353C32.0779 42.676 31.1091 41.9926 30.613 41.592L30.3767 41.3563C29.2426 40.2251 28.9354 39.9188 28.6992 39.6831C27.3288 38.2927 26.6436 37.6093 26.7381 37.3265Z" fill="#F5F4F1"/>
<path d="M34.1568 42.0865C35.3704 42.0865 36.3542 41.1053 36.3542 39.8948C36.3542 38.6844 35.3704 37.7031 34.1568 37.7031C32.9433 37.7031 31.9595 38.6844 31.9595 39.8948C31.9595 41.1053 32.9433 42.0865 34.1568 42.0865Z" fill="#FFDB13"/>
<path d="M34.4878 41.1669C35.0228 41.1669 35.4565 40.7343 35.4565 40.2006C35.4565 39.667 35.0228 39.2344 34.4878 39.2344C33.9527 39.2344 33.519 39.667 33.519 40.2006C33.519 40.7343 33.9527 41.1669 34.4878 41.1669Z" fill="#2B5ADC"/>
<path d="M35.6205 37.2099C35.5497 37.4927 34.5573 37.3277 32.5726 37.3277C30.7061 37.3277 30.3989 37.4691 28.6741 37.3984C27.8708 37.3748 27.2093 37.3041 26.6895 37.257C27.8944 36.7857 28.745 36.4322 29.3357 36.1494C29.5247 36.0552 29.95 35.8666 30.4934 35.7488C30.7061 35.7017 30.966 35.6545 31.2495 35.631C31.344 35.631 31.5803 35.6074 31.8874 35.6074C32.2891 35.6074 32.8325 35.6074 33.4941 35.796C33.7067 35.8667 34.1557 36.008 34.6518 36.3379C35.1008 36.5972 35.6914 36.9742 35.6205 37.2099Z" fill="#FFDB13"/>
<path d="M53.1052 37.2099C53.1761 37.4927 54.1685 37.3277 56.1531 37.3277C58.0197 37.3277 58.3268 37.4691 60.0516 37.3984C60.8549 37.3748 61.5165 37.3041 62.0363 37.257C60.8313 36.7857 59.9807 36.4322 59.3901 36.1494C59.201 36.0552 58.7757 35.8666 58.2323 35.7488C58.0197 35.7017 57.7598 35.6545 57.4763 35.631C57.3817 35.631 57.1455 35.6074 56.8383 35.6074C56.4367 35.6074 55.8932 35.6074 55.2317 35.796C55.019 35.8667 54.5701 36.008 54.074 36.3379C53.6487 36.5972 53.0344 36.9742 53.1052 37.2099Z" fill="#FFDB13"/>
<path d="M49.3487 38.4799C49.4905 38.5741 50.2938 37.2544 52.2549 35.8405C53.0346 35.2749 53.6725 34.8036 54.6648 34.4972C55.539 34.2144 56.7913 33.7902 58.0435 34.2616C59.2958 34.7093 59.6266 35.6991 60.9497 35.7462C61.1859 35.7462 61.6349 35.7698 61.8239 35.5105C62.0838 35.1099 61.564 34.2616 61.0914 33.7902C59.7683 32.4941 57.4292 32.9183 56.0352 33.1775C54.9956 33.3661 53.4126 33.6489 51.9005 34.8272C49.963 36.2882 49.1833 38.3621 49.3487 38.4799Z" fill="#FC3824"/>
<path d="M38.9294 38.5737C38.7876 38.668 37.9843 37.3483 36.0232 35.9343C35.2435 35.3687 34.6056 34.8974 33.6132 34.591C32.739 34.3082 31.4868 33.884 30.2345 34.3554C28.9823 34.8031 28.6515 35.7929 27.3284 35.84C27.0921 35.84 26.6432 35.8636 26.4542 35.6044C26.1943 35.2037 26.7141 34.3554 27.1866 33.884C28.5098 32.5879 30.8489 33.012 32.2429 33.2713C33.2825 33.4598 34.8655 33.7426 36.3776 34.9209C38.2914 36.382 39.0711 38.4795 38.9294 38.5737Z" fill="#FC3824"/>
<path d="M42.19 47.884C41.8828 48.4025 41.6466 48.7088 41.5048 49.2744C41.3867 49.7929 41.4576 50.0993 41.4812 50.17C41.5993 50.6413 41.9301 50.9005 42.0719 50.9948C42.19 51.0891 42.3081 51.1597 42.9933 51.3954C43.6313 51.6311 43.962 51.7253 44.1983 51.7725C44.5291 51.8196 45.0253 51.9139 45.5923 51.7489C46.0885 51.6075 46.6319 51.2776 46.6319 51.2776C46.6319 51.2776 47.01 50.9005 47.2226 50.6177C47.4825 50.2878 47.6715 49.9343 47.7424 49.7458C48.0496 48.8738 46.8209 48.1197 45.5451 45.9516C44.9544 44.9383 44.8363 44.4434 44.4582 44.4434C44.0093 44.4434 43.6313 45.1268 42.9225 46.4701C42.4735 47.2713 42.568 47.2477 42.19 47.884Z" fill="#FFDB13"/>
<path d="M39.0717 58.8663C38.9063 58.1121 40.6075 56.7453 42.1905 56.6746C43.2774 56.6274 43.4664 57.2166 44.8368 57.2637C46.4198 57.3109 46.8214 56.5332 47.9792 56.7688C49.1133 57.0045 50.2946 58.065 50.1293 58.7013C49.7276 60.4688 39.4498 60.5395 39.0717 58.8663Z" fill="#FFDB13"/>
<path d="M39.1648 59.5488C39.2593 59.7844 39.472 59.9023 39.5665 59.973C40.3226 60.4443 41.5275 61.387 41.5275 61.387C41.5275 61.387 44.5755 62.2118 47.0563 61.4341C48.6866 60.9156 50.2224 59.643 50.0334 59.1481C49.8444 58.6768 48.1196 59.4309 44.8354 59.3602C42.1419 59.3131 39.2121 58.7004 39.0703 59.1717C39.0703 59.266 39.0939 59.4309 39.1648 59.5488Z" fill="#FFDB13"/>
<path d="M39.1421 59.0527H49.9634H39.1421Z" fill="#F5F4F1" stroke="#F5F4F1" stroke-miterlimit="10"/>
<path d="M12.5849 29.9258C13.3882 25.8252 13.4355 24.7412 14.3097 21.9839C14.9713 19.9101 15.7273 17.6241 17.334 15.0082C18.9879 12.3452 20.6418 10.7899 23.3826 8.19756C26.0288 5.69952 27.8717 4.00273 30.896 2.68302C32.4554 1.99959 33.6368 1.71679 35.0544 1.38687C36.8974 0.939104 39.6854 0.302794 41.103 1.22188C41.2211 1.29258 41.5047 1.50469 41.9772 1.64609C42.2135 1.71679 43.0877 1.99959 43.9619 1.74036C44.6471 1.52826 44.7652 1.17475 45.2614 0.868388C46.2065 0.326361 47.3878 0.703446 48.5456 1.12764C51.3336 2.11743 52.7276 2.63587 54.1689 3.46069C56.0827 4.56831 57.2877 5.51098 59.6976 7.41985C62.5093 9.65866 63.4308 10.6956 64.0214 11.4733C64.872 12.5809 65.4627 13.5943 65.8171 14.3248C65.8407 14.3719 65.888 14.4426 65.9116 14.4898C66.8567 17.0114 67.9672 19.7922 69.2903 22.7616C71.8893 28.6296 73.0943 30.2793 74.7246 35.0868C75.1735 36.4065 76.2131 39.5408 76.7093 43.7121C77.1346 47.2235 77.3236 48.9909 76.3549 50.3578C75.2444 51.9132 73.4487 52.2667 71.8657 54.9297C71.6294 55.3303 71.4168 55.7309 71.1805 56.2258C69.9519 58.6296 70.0228 59.2188 69.3612 60.3735C69.0777 60.892 67.8963 62.9423 65.7226 63.7435C64.1159 64.3327 63.5725 63.6257 62.0131 64.3562C60.3828 65.1104 60.7845 65.9352 59.2487 66.5008C57.7602 67.0428 57.0987 66.383 55.0195 67.0192C54.8068 67.0899 54.5942 67.1606 54.3815 67.0664C53.6254 66.7129 53.7436 64.4741 54.3815 62.9187C55.1376 61.0569 56.4371 60.7506 58.4454 59.0302C59.5323 58.0876 62.462 55.566 63.4071 52.0782C63.9978 49.9336 65.1555 46.6579 64.4467 44.914C64.3758 44.749 64.1396 44.207 64.0923 43.4764C64.0214 42.3688 64.4467 41.5204 64.5412 41.2847C65.2737 39.6587 65.1555 37.0664 65.0374 34.097C65.0138 33.6257 64.6121 26.6972 62.9582 26.1551C62.2258 25.9195 61.9659 26.65 59.8394 27.2863C59.1306 27.4984 59.0597 27.4513 55.3739 27.8283C52.4677 28.1347 51.7825 28.2525 51.0973 27.7341C50.3885 27.2156 50.2231 26.4379 49.7269 26.4615C49.1835 26.5086 49.1599 27.4513 48.522 28.0876C47.5769 29.0302 45.9702 28.5353 43.7256 28.2525C39.7799 27.7577 39.5436 28.6532 36.2122 28.1347C34.0857 27.7812 31.3213 26.9564 31.2977 26.9564C31.2741 26.9564 31.2741 26.9564 31.2504 26.9328C28.9586 27.2863 28.2261 27.0035 28.0371 26.65C27.8717 26.3201 28.1316 25.7781 27.8009 25.5189C27.6355 25.3775 27.3992 25.3539 27.2102 25.4246C26.6667 25.5895 26.7849 26.3908 26.3123 26.815C25.6508 27.4042 24.6348 26.7207 23.9024 26.9328C23.1463 27.1685 22.3902 28.5589 22.5792 33.6493C22.1776 35.4874 22.1776 36.9721 22.2484 37.9854C22.3902 39.7058 22.6974 41.1198 22.6974 41.1198C22.8391 41.7796 22.9809 42.251 23.0754 43.0994C23.1463 43.7357 23.1227 44.0185 23.1935 44.7255C23.2644 45.4796 23.4062 46.0687 23.4771 46.4693C23.5716 47.1763 23.737 48.1661 23.9969 49.3445C24.6348 52.3845 24.9892 54.0813 25.9816 56.108C27.2102 58.6296 28.1789 60.6328 30.329 61.8582C31.534 62.5652 33.0934 63.013 33.4005 64.2856C33.495 64.6626 33.4005 64.804 33.5187 66.1237C33.6604 67.5377 33.7786 67.6791 33.6368 67.8676C33.1642 68.5746 30.7779 67.7262 27.3519 66.5008C21.0198 64.2384 20.4055 64.0027 19.2714 63.2722C17.4994 62.1174 15.6801 60.9156 14.8059 58.6767C14.2861 57.357 14.6405 57.0507 14.0498 55.8017C12.9629 53.3979 11.0491 53.1386 9.84414 51.5361C9.04081 50.4756 8.78091 49.1324 9.58424 43.7121C10.5293 37.9383 11.2854 36.4536 12.5849 29.9258Z" fill="#FFDB13"/>
</svg>
