<svg width="90" height="98" viewBox="0 0 90 98" fill="none" xmlns="http://www.w3.org/2000/svg">
<path d="M8.3474 0.0351562L7.0479 5.19619L3.17303 14.4814L1.11745 19.1239L0.597656 31.4963L2.15706 38.9669L4.21263 45.5419L5.63026 45.4241L6.66986 44.34L6.36271 42.1248L3.74008 34.7013L3.00763 31.8262L2.79499 20.9621H3.05489L3.4093 28.0085L3.50381 32.1797L6.74075 41.5827L7.78035 40.97L7.73309 34.7956L7.21329 31.9205L5.06321 27.4193L5.84291 22.6118L7.87485 16.9087L8.22926 12.8317L8.84357 12.6196L8.74907 16.6966L6.69349 22.7532L5.86654 25.8875C5.86654 25.8875 5.98468 27.655 6.03193 27.8671C6.07918 28.0792 7.23692 28.4327 7.23692 28.4327L12.6948 20.0195L16.0499 11.6534L16.6642 6.02102L16.4516 0.176549L8.3474 0.0351562Z" fill="#FC3824"/>
<path d="M81.6861 0.0351562L82.9856 5.19619L86.8604 14.4814L88.916 19.1239L89.4358 31.4963L87.8764 38.9669L85.8208 45.5419L84.4032 45.4241L83.3636 44.34L83.6708 42.1483L86.2934 34.7249L87.0258 31.8498L87.2385 20.9857H86.9786L86.6242 28.032L86.5297 32.2033L83.2927 41.6063L82.2531 40.9936L82.3004 34.8192L82.8202 31.9441L84.9703 27.4429L84.1906 22.6353L82.1586 16.9323L81.8042 12.8553L81.1899 12.6432L81.2844 16.7202L83.34 22.7767L84.1669 25.9111C84.1669 25.9111 84.0488 27.6785 84.0015 27.8906C83.9543 28.1027 82.7965 28.4562 82.7965 28.4562L77.3859 19.9723L74.0308 11.6063L73.4165 5.97388L73.6292 0.129413L81.6861 0.0351562Z" fill="#FC3824"/>
<path d="M17.1842 0.105469L44.1665 0.223301L72.7082 0.293997L73.039 7.57602L67.2976 9.50846L60.3275 15.9421L50.9003 25.4865L47.0726 28.6915L44.7572 29.21L41.3312 27.5368L32.3056 18.4637L25.2647 11.4409L20.7991 8.47154L17.1133 7.57602L17.1842 0.105469Z" fill="#FC3824"/>
<path d="M17.0662 7.90625L19.8306 8.75465L25.7611 12.6195L29.9903 17.1207L35.8971 23.6486L41.5677 28.9275C41.5677 28.9275 43.5051 29.9173 43.6233 29.9644C43.7414 30.0115 46.6475 30.2708 46.6475 30.2708L53.783 24.5206L63.4702 13.5386L68.2901 9.67373L72.2595 8.04766L73.0392 10.4514L75.6146 18.4876L78.5916 24.0728L82.2538 29.3988V29.7759L81.4032 32.1796L80.978 36.2095L80.4581 44.1514L78.9933 52.1875L77.6938 60.7657L73.7008 78.6761L69.566 96.7987L69.4479 97.0108H56.6419L46.6239 96.9872L46.0569 76.0131L45.5371 51.0327L45.7025 33.0045L45.6079 30.695L45.4898 30.4593L45.1354 30.4122C45.1354 30.4122 45.0173 30.9778 45.0173 31.0249C45.0173 31.072 44.9464 32.6274 44.9228 32.6981C44.8991 32.7688 44.7337 42.1954 44.7337 42.1954V55.2276L44.7101 81.999L45.1354 96.8458L45.0645 97.1993L34.9521 97.0343L21.4609 96.9637L20.5158 96.7987L17.7042 84.8505L13.5694 67.4114L9.88353 49.171L8.48952 40.4279C8.48952 40.4279 8.37139 31.9911 8.37139 31.9204C8.37139 31.8497 7.89884 29.6345 7.89884 29.6345L7.54443 28.8568L13.0968 20.5378L16.2393 12.5253L17.0662 7.90625Z" fill="#FFDB13"/>
</svg>
