<svg width="190" height="120" viewBox="0 0 190 120" fill="none" xmlns="http://www.w3.org/2000/svg">
<path d="M13.8857 88.1747C13.4792 88.1747 13.276 88.3755 13.276 88.7771V91.7486C8.03326 91.9092 5.02578 92.5116 2.87177 94.3989C0.758405 96.2059 0.0268555 98.9766 0.0268555 103.675C0.0268555 108.373 0.758405 111.144 2.87177 113.031C5.02578 114.838 8.03326 115.481 13.276 115.641V118.573C13.276 119.014 13.4792 119.215 13.8857 119.215H17.7466C18.153 119.215 18.3562 119.014 18.3562 118.573V115.641C23.5177 115.481 27.0129 114.597 28.8418 112.991C30.6707 111.345 31.6054 108.253 31.6054 103.675C31.6054 99.1372 30.6707 96.0453 28.8418 94.439C27.0129 92.7926 23.5177 91.9092 18.3562 91.7486V88.7771C18.3562 88.3755 18.153 88.1747 17.7466 88.1747H13.8857ZM13.276 111.063C10.0653 110.943 7.95198 110.381 6.85465 109.377C5.79797 108.373 5.26963 106.486 5.26963 103.675C5.26963 100.864 5.79797 98.9766 6.85465 97.9727C7.95198 96.9688 10.0653 96.4067 13.276 96.2862V111.063ZM18.3562 96.2862C21.5669 96.4067 23.7209 96.9688 24.7776 97.9727C25.8343 98.9766 26.3626 100.864 26.3626 103.675C26.3626 106.486 25.8343 108.373 24.7776 109.377C23.7209 110.381 21.5669 110.943 18.3562 111.063V96.2862Z" fill="#FFDB13"/>
<path d="M47.3473 88.2952C42.1858 88.2952 39.1783 89.0983 37.1869 91.6281C35.1954 94.0776 34.5858 97.6916 34.5858 103.916C34.5858 110.06 35.1954 113.674 37.1869 116.123C39.1783 118.573 42.1858 119.416 47.3473 119.416C52.5494 119.416 55.5569 118.573 57.5077 116.123C59.4991 113.674 60.1088 110.14 60.1088 103.916C60.1088 97.6916 59.4991 94.0776 57.5077 91.6281C55.5569 89.0983 52.5494 88.2952 47.3473 88.2952ZM39.8692 103.916C39.8692 99.5388 40.3569 96.5673 41.2917 95.0815C42.2264 93.5556 44.2585 92.7926 47.3473 92.7926C50.436 92.7926 52.4681 93.5556 53.4029 95.0815C54.3783 96.5673 54.866 99.5388 54.866 103.916C54.866 108.293 54.3783 111.224 53.4029 112.71C52.4681 114.196 50.436 114.918 47.3473 114.918C44.2585 114.918 42.2264 114.196 41.2917 112.71C40.3569 111.224 39.8692 108.293 39.8692 103.916Z" fill="#FFDB13"/>
<path d="M79.8877 88.496C79.5219 88.496 79.2374 88.6164 79.0342 88.8975L67.939 101.788V89.0983C67.939 88.6968 67.7358 88.496 67.3294 88.496H63.3059C62.8995 88.496 62.6963 88.6968 62.6963 89.0983V118.613C62.6963 119.014 62.8995 119.215 63.3059 119.215H67.3294C67.7358 119.215 67.939 119.014 67.939 118.613V103.835L79.7251 118.773C79.8877 119.054 80.1722 119.215 80.6192 119.215H85.0085C86.0246 119.215 86.1465 118.613 85.6994 118.131L73.385 102.671L84.724 89.2589C85.1305 88.7369 85.0085 88.496 84.3583 88.496H79.8877Z" fill="#FFDB13"/>
<path d="M108.752 88.496C108.427 88.496 108.183 88.6566 108.021 88.9778L102.046 104.799L94.5277 88.9377C94.4058 88.6566 94.2026 88.496 93.8368 88.496H89.4069C88.8785 88.496 88.7566 88.7369 88.9598 89.2188L99.5266 111.465C98.348 114.075 97.3726 114.918 95.4625 114.918H93.024C92.6175 114.918 92.4143 115.119 92.4143 115.521V118.091C92.4143 118.573 92.6582 118.894 93.1459 119.014C94.1619 119.295 95.2999 119.416 96.5191 119.416C98.5512 119.416 100.218 118.854 101.477 117.729C102.778 116.605 103.997 114.517 105.135 111.465L113.507 89.1786C113.711 88.7369 113.548 88.496 113.02 88.496H108.752Z" fill="#FFDB13"/>
<path d="M123.835 88.2952C120.624 88.2952 118.064 88.4558 116.194 88.7369C115.666 88.8574 115.422 89.0983 115.422 89.3794V92.3509C115.422 92.632 115.625 92.7926 116.032 92.7926H123.428C126.558 92.7926 128.631 93.0336 129.606 93.5154C130.622 93.9973 131.11 95.0815 131.11 96.7681V97.2499C131.11 98.9766 130.785 100.141 130.094 100.784C129.443 101.426 128.062 101.747 125.989 101.747H117.739C117.373 101.747 117.21 101.908 117.21 102.269V105.442C117.21 105.763 117.373 105.924 117.739 105.924H126.029C128.102 105.924 129.443 106.245 130.094 106.887C130.785 107.53 131.11 108.694 131.11 110.381V110.622C131.11 112.348 130.622 113.513 129.687 114.075C128.752 114.637 126.72 114.918 123.672 114.918H116.032C115.625 114.918 115.422 115.039 115.422 115.32V118.372C115.422 118.653 115.666 118.854 116.194 118.974C118.348 119.255 120.868 119.416 123.835 119.416C128.549 119.416 131.801 118.894 133.629 117.81C135.458 116.725 136.352 114.557 136.352 111.345V110.14C136.352 106.646 135.093 104.518 132.613 103.835C135.093 103.193 136.352 101.065 136.352 97.4909V96.1657C136.352 92.9934 135.418 90.9053 133.589 89.8613C131.76 88.8172 128.509 88.2952 123.835 88.2952Z" fill="#FFDB13"/>
<path d="M140.073 88.496C139.667 88.496 139.464 88.6968 139.464 89.0983V118.613C139.464 119.014 139.667 119.215 140.073 119.215H159.744C160.191 119.215 160.394 119.014 160.394 118.613V115.32C160.394 114.918 160.191 114.718 159.744 114.718H144.707V106.365H158.443C158.85 106.365 159.053 106.164 159.053 105.763V102.591C159.053 102.189 158.85 101.988 158.443 101.988H144.707V92.9934H159.744C160.191 92.9934 160.394 92.7926 160.394 92.3911V89.0983C160.394 88.6968 160.191 88.496 159.744 88.496H140.073Z" fill="#FFDB13"/>
<path d="M181.004 80.4648C180.679 80.4648 180.435 80.6255 180.313 80.9467C179.622 82.5931 178.769 83.1151 176.818 83.1151C174.867 83.1151 174.014 82.5931 173.323 80.9467C173.201 80.6255 172.957 80.4648 172.632 80.4648H170.803C170.356 80.4648 170.153 80.6656 170.234 81.1073C170.519 83.075 171.169 84.4001 172.104 85.1631C173.038 85.8859 174.623 86.2473 176.818 86.2473C179.013 86.2473 180.598 85.8859 181.532 85.1631C182.467 84.4001 183.117 83.075 183.402 81.1073C183.483 80.6656 183.28 80.4648 182.833 80.4648H181.004ZM164.91 88.496C164.504 88.496 164.3 88.6968 164.3 89.0983V118.573C164.3 119.014 164.504 119.215 164.91 119.215H168.039C168.771 119.215 169.34 118.934 169.746 118.332L184.499 96.6877V118.573C184.499 119.014 184.702 119.215 185.109 119.215H189.092C189.498 119.215 189.701 119.014 189.701 118.573V89.0983C189.701 88.6968 189.498 88.496 189.092 88.496H185.719C184.255 88.5361 183.971 88.7369 183.321 89.7408L169.543 109.939V89.0983C169.543 88.6968 169.34 88.496 168.934 88.496H164.91Z" fill="#FFDB13"/>
<path d="M72.8429 48.3745L94.403 48.3054L115.963 48.2363L115.928 64.7525C115.928 71.8358 115.894 77.0187 115.894 78.0553C115.894 78.2281 115.894 78.6082 115.721 79.0574C115.479 79.6793 115.099 80.0594 114.65 80.474C113.544 81.5106 112.266 81.9943 111.54 82.2708C110.608 82.6508 109.847 82.8927 109.225 83.0655C108.465 83.3073 107.429 83.5838 106.22 83.8602C103.835 84.3785 102.004 84.5512 100.38 84.6894C98.4455 84.8622 96.1651 84.9659 93.6083 84.9313C89.704 84.8622 86.7671 84.4821 86.007 84.3785C83.1392 83.9984 81.4462 83.5147 79.0276 82.8927C79.0276 82.8927 76.8163 82.3053 74.6396 80.8886C74.1559 80.5777 73.5339 80.0939 73.0848 79.3338C72.912 79.0228 72.8084 78.7118 72.7393 78.5045V73.1143L72.7738 60.157L72.8429 52.5554V48.3745Z" fill="#2B5ADC"/>
<path d="M72.8052 53.8408V53.5644V49.9709V46.9648L76.8477 47.7941L82.8596 48.6579L89.5626 49.1762L95.4709 49.2799L101.103 49.1071L107.737 48.5197L112.643 47.7596L115.96 47.0685V50.7656L115.925 54.1173L115.338 55.1538L113.714 56.536L109.879 58.229L106.009 59.1965L102.45 59.7839L97.3712 60.2676L91.6702 60.2331L86.1765 59.7148L81.1666 58.8164L77.5042 57.6762L75.051 56.4668L74.3254 55.9831L73.669 55.3612L73.0816 54.5319" fill="#FC3824"/>
<path d="M130.1 38.7069C130.117 32.5431 114.151 27.5026 94.4387 27.4486C74.7268 27.3946 58.7335 32.3476 58.7166 38.5113C58.6997 44.6751 74.6657 49.7156 94.3776 49.7696C114.089 49.8236 130.083 44.8706 130.1 38.7069Z" fill="#2B5ADC"/>
<path d="M94.4045 41.6064C87.3215 41.5718 80.3421 40.8462 74.8139 39.5332H74.7793C73.7773 39.2913 73.7773 37.8747 74.7793 37.6328H74.8139C80.3766 36.3543 87.3215 35.6287 94.439 35.6633C101.522 35.6978 108.501 36.4234 114.03 37.7365H114.064C115.066 37.9783 115.066 39.395 114.064 39.6369H114.03C108.467 40.9153 101.488 41.6064 94.4045 41.6064Z" fill="#FFDB13"/>
<path d="M90.6311 28.3731C90.6311 32.4158 90.2511 36.3548 89.5255 40.121C88.8345 40.0865 88.1089 40.0519 87.4179 39.9828C86.8305 39.9483 86.2431 39.9137 85.6903 39.8446C84.8265 39.7755 83.9973 39.6718 83.1681 39.6027C83.1335 39.6027 83.099 39.6027 83.0644 39.6027C81.6132 39.43 80.1966 39.2227 78.8491 39.0153C78.2618 35.5601 77.9854 32.0011 77.9854 28.3731C77.9854 18.3528 80.3003 8.95447 84.3428 0.869141C88.3508 8.91992 90.6657 18.3183 90.6311 28.3731Z" fill="#FC3824"/>
<path d="M85.7287 39.8441C84.8649 39.775 84.0357 39.6713 83.2064 39.6022C83.8629 34.6957 85.0376 23.4661 82.8955 17.1084C82.6881 16.4519 83.0337 15.7263 83.6901 15.519C84.3466 15.3117 85.0722 15.6572 85.2795 16.3137C87.5944 23.2242 86.4197 34.6957 85.7287 39.8441Z" fill="#FFDB13"/>
<path d="M110.534 28.6147C110.534 32.2427 110.223 35.8017 109.636 39.2569C108.254 39.4988 106.837 39.6716 105.351 39.8443H105.317C104.487 39.948 103.658 40.0171 102.794 40.0862C102.207 40.1207 101.62 40.1898 100.998 40.2244C100.307 40.259 99.6503 40.2935 98.9593 40.3281C98.2682 36.5273 97.8882 32.6228 97.8882 28.5801C97.8882 18.5598 100.238 9.16151 104.246 1.07617C108.254 9.19606 110.534 18.5944 110.534 28.6147Z" fill="#FC3824"/>
<path d="M106.562 17.5573C104.42 23.9495 105.56 35.1446 106.216 40.0511C105.387 40.1547 104.558 40.2239 103.694 40.293C103.003 35.1446 101.863 23.6386 104.178 16.7626C104.385 16.1061 105.111 15.726 105.767 15.9678C106.424 16.1752 106.769 16.9008 106.562 17.5573Z" fill="#FFDB13"/>
<path d="M92.8425 51.6738C92.4502 51.6738 92.254 51.871 92.254 52.2654V55.1836C87.1931 55.3413 84.2899 55.9328 82.2106 57.7863C80.1705 59.5609 79.4644 62.2819 79.4644 66.8958C79.4644 71.5097 80.1705 74.2308 82.2106 76.0842C84.2899 77.8588 87.1931 78.4898 92.254 78.6475V81.5263C92.254 81.9601 92.4502 82.1572 92.8425 82.1572H96.5696C96.9619 82.1572 97.1581 81.9601 97.1581 81.5263V78.6475C102.141 78.4898 105.515 77.6222 107.28 76.0448C109.045 74.4279 109.948 71.3914 109.948 66.8958C109.948 62.4396 109.045 59.4031 107.28 57.8257C105.515 56.2089 102.141 55.3413 97.1581 55.1836V52.2654C97.1581 51.871 96.9619 51.6738 96.5696 51.6738H92.8425ZM92.254 74.1519C89.1547 74.0336 87.1146 73.4815 86.0554 72.4956C85.0353 71.5097 84.5253 69.6563 84.5253 66.8958C84.5253 64.1354 85.0353 62.2819 86.0554 61.296C87.1146 60.3101 89.1547 59.758 92.254 59.6397V74.1519ZM97.1581 59.6397C100.257 59.758 102.337 60.3101 103.357 61.296C104.377 62.2819 104.887 64.1354 104.887 66.8958C104.887 69.6563 104.377 71.5097 103.357 72.4956C102.337 73.4815 100.257 74.0336 97.1581 74.1519V59.6397Z" fill="#FFDB13"/>
</svg>
