<svg width="80" height="149" viewBox="0 0 80 149" fill="none" xmlns="http://www.w3.org/2000/svg">
<path d="M31.3097 145.746C33.7485 146.204 36.1035 144.567 36.5712 142.091L52.0326 59.6501L43.1907 57.9849L27.7294 140.426C27.2617 142.901 28.8709 145.288 31.3097 145.746Z" fill="#FFDB13"/>
<path d="M48.1036 58.9096L32.6423 141.351C32.3105 143.1 31.0326 144.439 29.4212 144.907C29.9548 145.324 30.5822 145.609 31.2902 145.74C33.729 146.198 36.084 144.561 36.5517 142.085L52.013 59.6443L43.1712 57.979L48.1036 58.9096Z" fill="#FFDB13"/>
<path d="M74.5123 15.8137C73.049 17.553 72.294 19.1301 71.728 20.3668C70.6302 22.7124 70.185 24.6658 69.8327 26.2726C69.615 27.231 69.3334 28.7199 69.0784 31.3499C68.9453 32.7222 68.749 35.1333 68.7205 40.6399C68.7095 43.746 68.561 46.8543 68.6096 49.9568C68.6304 50.901 68.6647 52.67 68.0016 54.7801C67.3811 56.8039 66.4916 57.9343 66.2808 58.2102C65.752 58.8702 64.9736 59.6589 63.5065 60.5368C62.8076 60.9557 60.4116 62.3082 55.5807 62.9691C53.1653 63.2996 50.6902 63.6336 47.4144 63.0883C43.7226 62.4902 41.1936 61.1281 39.0731 59.9929C36.4578 58.5882 34.4553 57.5237 32.6476 55.2208C31.8446 54.2039 30.4999 52.4358 30.0942 49.8633C29.7803 47.8238 30.2056 46.2366 31.1666 43.3068C32.7882 38.4227 34.2487 34.9424 34.9613 33.1584C36.5209 29.2354 37.506 26.5076 38.2514 22.777C38.9404 19.4029 39.5281 16.334 38.9062 12.4521C38.3302 8.83674 36.9745 6.08793 35.9448 4.3846L35.7783 4.20313L35.9985 4.18393L37.7246 4.52909L41.0173 5.15717L42.7348 5.46094L43.8233 8.84211L45.0619 13.9255L45.6801 18.8428L45.7191 20.8868L45.4543 23.5534L46.3104 20.8692C46.3104 20.8692 47.4718 17.1915 47.4767 17.1732C47.4816 17.155 48.8848 12.7208 48.8848 12.7208L49.968 9.3349L50.7228 6.95605L52.0243 7.20702L54.1481 7.6001L55.879 7.92703L56.5869 8.05805L56.7014 11.0609L56.9234 16.6541L57.0203 19.0656L57.0778 20.8213L57.1328 21.6377L58.2716 19.5769L60.2322 16.0546L61.8953 13.0588L63.0292 11.0161L63.8985 9.45012L63.279 11.6892L62.4297 14.7858L61.4729 18.2838L60.7507 20.906L60.2863 22.6392L61.5167 20.3095L62.9886 17.5166L64.7348 14.2107L66.2115 11.3995L66.931 10.028L68.6071 10.3403L72.0324 10.9843L75.8871 11.7043L78.4172 12.1867L74.5123 15.8137Z" fill="#F3F3F3"/>
<path d="M39.5335 59.8779L54.7468 62.7224C55.6238 62.8792 56.1958 63.7364 56.039 64.6134L54.7362 71.5188C54.5794 72.3958 53.7222 72.9678 52.8452 72.811L37.632 69.9665C36.755 69.8097 36.183 68.9525 36.3397 68.0755L37.6425 61.1702C37.8175 60.298 38.6565 59.7211 39.5335 59.8779Z" fill="#FC3824"/>
<path d="M54.5524 62.5743L46.9497 62.4143L42.9631 61.0919L39.5535 59.5135L37.6691 56.3297L36.6699 52.5423L36.5857 50.7403L36.7452 48.6126L36.9228 47.5847L37.1753 47.0071L37.637 46.5246L38.1727 46.2771L38.8516 46.2244L39.5351 46.4466L40.1124 46.9924L40.3889 47.7117L40.3429 48.5402L40.1388 50.3236L40.1842 51.9783L40.4646 53.5591L40.9897 55.0294L41.7594 56.3893L43.1432 58.0116L44.2274 58.9278L45.6461 59.8359L45.9486 58.1962L46.3319 56.1089C46.3319 56.1089 46.6246 54.5057 46.6393 54.451C46.6539 54.3962 46.8544 53.6482 46.8544 53.6482L47.3503 53.0381L47.8129 52.7709L48.6685 52.57L49.5718 53.0663L50.195 53.8785L50.193 54.5428L49.9554 55.8674L49.6187 57.6348L49.3677 58.9364L49.1412 60.1466L49.0799 60.5213L49.8794 60.3836L51.744 59.8468L53.833 58.7641L55.7635 57.0327L56.5983 55.8876L57.5716 53.8606L58.0529 52.2102L58.3231 51.1289L58.8457 50.565L59.7781 50.15L60.6222 50.3566L61.4318 50.9842L61.6679 51.9274L61.3068 53.786L60.4083 56.2632L59.0965 58.5319L57.9695 59.892L56.8428 60.9589L56.0074 61.5954L54.5524 62.5743Z" fill="#FC3824"/>
<path d="M37.856 135.906L28.761 134.31L28.5491 135.465L37.6148 137.171L37.856 135.906Z" fill="#FC3824"/>
<path d="M48.4136 79.6424L39.3186 78.0462L39.1067 79.2018L48.1724 80.9074L48.4136 79.6424Z" fill="#FC3824"/>
</svg>
