<svg width="141" height="137" viewBox="0 0 141 137" fill="none" xmlns="http://www.w3.org/2000/svg">
<path d="M83.7484 41.6985C82.7756 42.3729 81.5572 41.8356 80.5943 41.1508L76.971 43.9195L45.3192 131.449L52.9937 134.124L84.5114 46.5593L83.8698 41.5156C83.9187 41.6002 83.8335 41.6493 83.7484 41.6985Z" fill="#FC3824"/>
<path d="M79.5454 40.518L76.885 43.9715L45.3184 131.452L49.18 132.832L80.6978 45.2668L81.0931 41.4292C80.5083 41.2028 80.045 40.7935 79.5454 40.518Z" fill="#FC3824"/>
<path d="M96.3077 9.96865L97.521 21.9011C97.6563 22.7253 98.047 23.4021 98.7295 23.7976L109.307 29.5343C111.122 30.5163 110.92 33.1147 109.119 33.9286L98.0975 38.8258C97.3675 39.1344 96.8329 39.7814 96.664 40.6685L94.3951 52.4683C93.9847 54.51 91.5143 55.1467 90.1118 53.7006L82.1224 44.778C81.5614 44.1995 80.7938 43.8531 79.9662 43.9926L68.0011 45.4865C65.9928 45.7436 64.5038 43.5579 65.5478 41.8271L71.6783 31.4072C72.079 30.7248 72.1628 29.8868 71.8083 29.0763L66.7011 18.2641C65.8457 16.3893 67.4494 14.4482 69.4954 14.8461L81.2969 17.3944C82.1007 17.6071 82.9647 17.3339 83.5481 16.7714L92.3972 8.50417C93.6729 6.97806 96.1459 7.91894 96.3077 9.96865Z" fill="#FFDB13"/>
</svg>
