<svg width="61" height="103" viewBox="0 0 61 103" fill="none" xmlns="http://www.w3.org/2000/svg">
<path d="M11.5247 23.8187L8.97484 17.9514L5.94914 11.3122L4.43852 7.88397L5.27098 6.74971L5.89528 6.05268L6.52363 5.46126L7.41537 4.77504L8.53808 4.05553L9.19245 3.7129L10.2717 3.29065L11.7117 2.88082L12.4113 2.76247L13.2909 2.66584L13.833 2.63791L14.7101 2.6654L15.4681 2.7343L15.7289 2.76362L15.9968 3.35804L16.634 4.75968L17.1274 5.8919L17.5272 6.7307L18.3601 8.60756L18.9138 9.83393L19.5557 11.3102L20.3601 13.0624L21.1279 14.7705L21.8839 16.4535L22.6631 18.2177L23.4668 20.001L22.295 19.7759L20.8035 19.6572L19.6955 19.6629L18.1163 19.8779L16.4704 20.3091L14.7996 21.044L13.8284 21.6605L13.0511 22.2308L12.2772 22.9376L11.5696 23.7512L11.5247 23.8187Z" fill="#FC3824"/>
<path d="M57.5344 97.2676L51.7288 99.9119L47.1539 102.031L46.1422 102.498L45.7728 101.691L44.9638 99.8639L44.0785 97.8123L43.0613 95.5163L42.621 94.5278L41.8066 92.6575L41.3245 91.5813L40.2483 89.1291L39.7125 87.9403L38.9041 86.0825L37.7502 83.4675L36.8935 81.5406L35.912 79.3197L34.794 76.7798L33.5513 73.946L32.4332 71.4062L32.1408 70.7927L30.8629 67.8528L30.3689 66.7516L29.5605 64.8938L28.8583 63.3234L28.0433 61.4841L27.1991 59.5512L26.4617 57.8746L25.5751 55.8851L24.8019 54.1334L23.9338 52.1504L23.2084 50.4989L22.3635 48.597L21.5068 46.6701L20.4663 44.293L19.9013 43.0106L18.9855 40.9274L18.0041 38.7065L17.3735 37.2864L16.1248 34.44L14.9822 31.8811L14.2329 30.1796L13.5193 28.5531L11.9186 24.9681L10.9563 22.7227L11.4278 22.1907L12.0568 21.5683L12.9624 20.814L13.8588 20.2023L15.3118 19.4637L16.7346 18.9853L17.585 18.795L18.9709 18.5953L20.8263 18.5713L22.3661 18.7592L23.054 18.9076L23.3862 19.7018L25.0413 23.3684L26.4565 26.5963L28.4008 31.0315L30.6667 36.1739L33.5752 42.7614L36.3644 49.0985L40.1416 57.638L42.6647 63.2876L45.8465 70.513L49.7364 79.3214L52.9348 86.6465L55.2968 91.9581L55.4275 92.2646L55.635 92.7648L55.7776 93.0963L56.0097 93.6156L56.1941 94.0347L56.5628 94.873L56.7537 95.2736L57.1994 96.3057L57.2948 96.506L57.3837 96.7248L57.5323 97.0688L57.6098 97.2316L57.5344 97.2676Z" fill="#FFDB13"/>
</svg>
