<svg width="197" height="116" viewBox="0 0 197 116" fill="none" xmlns="http://www.w3.org/2000/svg">
<path d="M14.0675 100.352C15.3398 103.38 18.8655 104.788 21.9411 103.5L124.288 60.4694L119.681 49.4876L17.3338 92.5177C14.2583 93.8058 12.7951 97.3237 14.0675 100.352Z" fill="#FFDB13"/>
<path d="M122.241 55.5896L19.8944 98.6197C17.7201 99.5285 15.3089 99.0933 13.6174 97.6542C13.5461 98.5475 13.6882 99.4488 14.0596 100.326C15.332 103.355 18.8577 104.762 21.9332 103.474L124.28 60.444L119.673 49.4622L122.241 55.5896Z" fill="#FFDB13"/>
<path d="M189.108 53.3396C186.12 52.9913 183.827 53.3071 182.049 53.5835C178.657 54.081 176.174 55.0135 174.142 55.7959C172.925 56.2542 171.075 57.0287 167.983 58.6646C166.371 59.5182 163.564 61.0593 157.46 65.0429C154.02 67.2954 150.478 69.3978 147.086 71.7136C146.059 72.425 144.129 73.7528 141.315 74.5588C138.627 75.3489 136.729 75.1905 136.271 75.1588C135.156 75.0558 133.717 74.771 131.678 73.7903C130.705 73.3237 127.464 71.663 123.212 66.8082C121.086 64.3807 118.912 61.8901 117.126 57.8737C115.095 53.3592 114.755 49.5722 114.463 46.402C114.108 42.4886 113.824 39.5002 115.05 35.8242C115.588 34.1957 116.561 31.4209 119.107 29.097C121.131 27.2632 123.195 26.5758 127.132 25.5012C133.71 23.7314 138.619 22.8073 141.11 22.2938C146.581 21.1563 150.312 20.2556 154.977 18.359C159.207 16.6599 163.026 15.0715 166.861 11.5541C170.435 8.28167 172.483 4.77977 173.614 2.40032L173.693 2.0841L173.875 2.3134L174.752 4.47181L176.459 8.56727L177.375 10.6861L174.434 14.3539L169.721 19.4287L164.74 23.697L162.51 25.2303L159.371 26.8821L162.961 25.8708C162.961 25.8708 167.87 24.4722 167.894 24.4643C167.918 24.4564 173.84 22.7735 173.84 22.7735L178.37 21.5014L181.548 20.6007L182.22 22.2214L183.334 24.8542L184.235 27.0048L184.606 27.8824L181.373 30.1982L175.356 34.5217L172.762 36.387L170.865 37.7307L170.003 38.3867L173.11 38.1421L178.43 37.7398L182.952 37.3927L186.036 37.156L188.4 36.9746L185.474 37.9228L181.434 39.2424L176.872 40.7358L173.449 41.85L171.196 42.6007L174.666 42.2613L178.825 41.8509L183.75 41.3694L187.933 40.9511L189.972 40.7459L190.849 42.8252L192.635 47.0788L194.651 51.8621L195.963 55.0089L189.108 53.3396Z" fill="#F3F3F3"/>
<path d="M114.921 46.8274L122.871 65.7077C123.337 66.7908 122.808 68.0478 121.724 68.514L113.146 72.1098C112.063 72.576 110.806 72.0461 110.34 70.963L102.39 52.0827C101.923 50.9996 102.453 49.7426 103.536 49.2764L112.115 45.6807C113.206 45.2381 114.455 45.7443 114.921 46.8274Z" fill="#FC3824"/>
<path d="M122.896 65.3822L117.529 56.8668L116.083 51.4986L115.341 46.5811L117.484 42.178L120.939 38.3126L122.869 36.9057L125.335 35.5305L126.6 34.9773L127.423 34.8351L128.292 34.9934L128.956 35.4046L129.51 36.1162L129.762 37.0333L129.58 38.0689L128.987 38.8989L128.039 39.4522L125.92 40.527L124.125 41.7837L122.583 43.2461L121.341 44.8981L120.4 46.74L119.617 49.4516L119.396 51.3173L119.427 53.5467L121.459 52.6853L124.044 51.5869C124.044 51.5869 126.029 50.7413 126.1 50.7176C126.171 50.6939 127.143 50.3699 127.143 50.3699L128.179 50.4728L128.811 50.7892L129.657 51.5878L129.768 52.9476L129.325 54.2282L128.589 54.7104L126.953 55.4137L124.755 56.3304L123.134 57.0021L121.632 57.6344L121.173 57.8398L121.908 58.6226L123.861 60.2911L126.58 61.8094L129.901 62.6796L131.774 62.7668L134.723 62.3641L136.897 61.6925L138.289 61.2026L139.293 61.3688L140.431 62.0963L140.818 63.1794L140.715 64.5313L139.845 65.4798L137.529 66.4361L134.137 67.2498L130.675 67.4548L128.35 67.2014L126.35 66.7347L125.038 66.2759L122.896 65.3822Z" fill="#FC3824"/>
<path d="M29.7139 100.406L24.8458 89.1953L23.4148 89.8038L28.1406 101.062L29.7139 100.406Z" fill="#FC3824"/>
<path d="M99.5645 71.049L94.6964 59.8378L93.2654 60.4463L97.9912 71.7049L99.5645 71.049Z" fill="#FC3824"/>
</svg>
