<svg width="81" height="138" viewBox="0 0 81 138" fill="none" xmlns="http://www.w3.org/2000/svg">
<path d="M14.7337 31.1571L11.2826 23.2156L7.18728 14.2295L5.14265 9.58941L6.26938 8.05419L7.11437 7.11076L7.96485 6.31027L9.17181 5.38148L10.6914 4.40761L11.5771 3.94387L13.0379 3.37235L14.987 2.81765L15.9338 2.65746L17.1244 2.52667L17.8581 2.48886L19.0452 2.52608L20.0711 2.61933L20.4242 2.65902L20.7868 3.46356L21.6493 5.36069L22.3171 6.89314L22.8582 8.02846L23.9855 10.5688L24.7349 12.2287L25.6038 14.2268L26.6924 16.5984L27.7318 18.9103L28.755 21.1883L29.8096 23.5761L30.8974 25.9897L29.3113 25.6852L27.2927 25.5244L25.7929 25.5322L23.6555 25.8232L21.4278 26.4068L19.1664 27.4015L17.8519 28.236L16.7998 29.0078L15.7523 29.9645L14.7946 31.0657L14.7337 31.1571Z" fill="#2B5ADC"/>
<path d="M77.0082 130.57L69.1503 134.149L62.9582 137.017L61.5888 137.649L61.0889 136.557L59.9939 134.084L58.7957 131.307L57.4188 128.2L56.8229 126.862L55.7206 124.33L55.0681 122.874L53.6114 119.555L52.8862 117.946L51.7921 115.431L50.2303 111.892L49.0707 109.284L47.7423 106.278L46.2291 102.84L44.547 99.0044L43.0338 95.5667L42.638 94.7365L40.9084 90.7572L40.2397 89.2668L39.1456 86.7522L38.1951 84.6267L37.092 82.1372L35.9494 79.521L34.9513 77.2518L33.7513 74.559L32.7048 72.1881L31.5299 69.5041L30.5479 67.2688L29.4045 64.6946L28.2448 62.0865L26.8366 58.8691L26.0718 57.1333L24.8323 54.3137L23.5039 51.3078L22.6504 49.3856L20.9603 45.5331L19.4138 42.0696L18.3996 39.7665L17.4338 37.5651L15.2672 32.7129L13.9648 29.6737L14.603 28.9536L15.4543 28.1112L16.68 27.0902L17.8933 26.2624L19.86 25.2626L21.7857 24.6151L22.9367 24.3575L24.8126 24.0873L27.3238 24.0548L29.4079 24.3091L30.3389 24.51L30.7886 25.5849L33.0288 30.5477L34.9442 34.9166L37.5759 40.9197L40.6428 47.8798L44.5795 56.796L48.3546 65.3733L53.467 76.9315L56.8821 84.5782L61.1886 94.3579L66.4536 106.28L70.7826 116.195L73.9796 123.384L74.1564 123.799L74.4374 124.476L74.6304 124.924L74.9445 125.627L75.194 126.194L75.6931 127.329L75.9516 127.871L76.5547 129.268L76.684 129.539L76.8043 129.836L77.0053 130.301L77.1103 130.521L77.0082 130.57Z" fill="#FFDB13"/>
</svg>
