<svg width="149" height="167" viewBox="0 0 149 167" fill="none" xmlns="http://www.w3.org/2000/svg">
<path d="M70.984 96.5847C71.381 96.815 71.7748 97.0506 72.1717 97.2808C71.8795 97.9601 71.5926 98.6425 71.3004 99.3218L69.7377 102.757L68.699 105.459L68.3136 106.688L67.1222 109.156L65.8859 111.677L64.5796 114.326L63.5028 116.436L63.3913 116.753C63.176 117.137 62.9608 117.521 62.7487 117.899C62.3274 118.508 61.9113 119.121 61.4899 119.73C60.9571 118.714 60.421 117.703 59.8882 116.687L59.1313 112.469L58.4818 109.896C58.3221 109.281 58.1624 108.666 57.9974 108.048C58.1719 107.732 58.4404 107.259 58.7811 106.701C59.0403 106.28 59.1773 106.063 59.4574 105.618C59.8242 105.041 59.9444 104.828 60.6446 103.681C60.9446 103.191 61.373 102.487 61.904 101.623C62.2552 101.072 62.6032 100.525 62.9544 99.9739C63.2628 99.4822 63.5732 98.9989 63.8816 98.5072L64.2412 97.9537L65.9642 97.9095L67.8525 97.6369L69.7623 97.1494C70.1741 96.9615 70.5775 96.7757 70.984 96.5847Z" fill="#2B59DB"/>
<path d="M63.5601 91.9159C63.0511 91.7182 62.5367 91.5173 62.0276 91.3196C61.5786 91.7485 61.1317 92.1858 60.6827 92.6147C59.7995 93.5312 58.9194 94.4425 58.0362 95.359C57.3905 95.9976 56.7395 96.6331 56.0938 97.2717C55.7296 97.6304 55.3623 97.9943 54.9981 98.3529C54.4426 99.0313 53.8872 99.7097 53.3317 100.388C52.7428 101.111 52.1623 101.831 51.5734 102.553C50.9438 103.379 50.3121 104.197 49.6825 105.024C49.2589 105.589 48.8385 106.149 48.4097 106.711C48.1984 106.968 47.9871 107.226 47.7758 107.484C47.2746 108.501 46.7765 109.513 46.2753 110.53C47.1342 110.488 47.993 110.447 48.854 110.414C49.2733 110.309 49.9138 110.144 50.6778 109.903C52.4417 109.35 52.6049 109.113 53.8795 108.793C54.3239 108.682 55.0609 108.546 56.5434 108.308C57.0571 108.224 57.5677 108.145 58.0762 108.058C58.3614 107.51 58.6258 107.091 58.8171 106.807C58.9656 106.583 59.1276 106.36 59.4161 105.913C59.4161 105.913 59.6022 105.626 59.7736 105.351C60.1854 104.686 60.4549 104.164 60.6931 103.73C61.0524 103.07 61.3472 102.613 61.9367 101.699C62.2221 101.257 62.2922 101.164 63.0428 100.04C63.4787 99.3826 63.8341 98.848 64.0599 98.5062C64.2273 98.286 64.3915 98.071 64.5536 97.8477C64.4185 97.4894 64.2835 97.1311 64.1485 96.7728C63.9574 96.1745 63.7631 95.5815 63.572 94.9833C63.3997 94.3536 63.2274 93.7239 63.0551 93.0942C63.2304 92.6937 63.3911 92.3059 63.5601 91.9159Z" fill="#2B59DB"/>
<path d="M59.0876 106.997C59.5342 107.264 60.1124 107.119 60.3791 106.673C60.6457 106.227 60.4998 105.649 60.0532 105.382C59.6067 105.115 59.0285 105.26 58.7618 105.706C58.4952 106.152 58.6411 106.729 59.0876 106.997Z" fill="#FFDB13" stroke="#FFD740" stroke-miterlimit="10"/>
<path d="M62.4363 101.401C62.8829 101.668 63.461 101.523 63.7277 101.077C63.9943 100.631 63.8485 100.053 63.4019 99.7864C62.9553 99.5193 62.3771 99.6642 62.1105 100.11C61.8438 100.556 61.9897 101.134 62.4363 101.401Z" fill="#FFDB13" stroke="#FFD740" stroke-miterlimit="10"/>
<path d="M74.5187 92.7487C74.4887 92.9656 74.464 93.1857 74.4341 93.4027C74.3706 93.6637 74.3072 93.9246 74.247 94.1804C74.1049 94.4299 73.9679 94.6113 73.8706 94.7381C73.5505 95.1303 73.2625 95.3139 73.283 95.5895C73.2895 95.6859 73.3358 95.7634 73.3653 95.8095C73.1611 95.9364 72.9537 96.0686 72.7494 96.1955C72.5917 96.4713 72.4286 96.7438 72.2709 97.0195C72.181 97.1936 71.4757 98.373 71.4757 98.373L70.594 100.002L70.0065 101.401C70.0065 101.401 69.0661 103.487 69.0002 103.597C68.9344 103.707 68.4066 105.519 68.4066 105.519L68.021 106.676L69.3468 105.747L71.5765 104.283L73.8489 102.653L74.523 102.039L74.3478 101.08L74.1162 99.6676L74.0589 99.37L75.3092 99.4488L77.0391 99.6436L77.1668 99.5492L77.132 97.9626L76.8831 94.9101L76.5187 93.2546C75.8513 93.0832 75.1861 92.9201 74.5187 92.7487Z" fill="#202060"/>
<path d="M65.3928 87.5532C65.1959 87.6561 65.0042 87.762 64.8072 87.8649C64.5873 88.018 64.3653 88.1628 64.1454 88.3159C63.9644 88.5351 63.84 88.7311 63.7585 88.8674C63.5088 89.3088 63.4403 89.6379 63.1709 89.7187C63.0756 89.7471 62.9916 89.7325 62.935 89.72C62.8872 89.9547 62.8416 90.1979 62.7939 90.4327C62.5972 90.678 62.3922 90.9255 62.1955 91.1708C62.0637 91.3197 61.2071 92.3944 61.2071 92.3944L59.9998 93.7932L58.9008 94.844C58.9008 94.844 57.285 96.461 57.2034 96.5617C57.1218 96.6623 55.6161 97.7972 55.6161 97.7972L54.6728 98.5639L55.07 96.9938L55.6517 94.3882L56.3717 91.6945L56.7065 90.8485L57.6658 90.675L59.0664 90.3953L59.3694 90.3417L58.854 89.2008L58.0568 87.6493L58.1015 87.491L59.6033 86.9587L62.5465 86.1142L64.224 85.8721C64.6101 86.4304 65.0015 86.9918 65.3928 87.5532Z" fill="#202060"/>
<path d="M67.6233 89.1888L66.1735 88.037L64.4591 86.7198L63.1258 87.5664L61.9609 89.1685L61.4094 90.2336L61.5381 91.0436L62.4202 91.5711L63.4802 91.9205L65.5384 92.1266L66.0682 92.1943L69.1008 93.9298L69.7832 94.708L70.6167 96.0677L70.8738 96.5915L72.2548 97.4531L73.2913 97.0908L74.6771 94.8452L74.7609 92.8456L71.5058 91.5536L67.6233 89.1888Z" fill="#2B59DB"/>
<path d="M66.1554 91.8829L67.516 89.6435L67.9849 89.6464L70.6155 91.2197L70.7917 91.7236L69.6944 93.5583L69.5346 93.8256L69.2788 93.9075L66.2471 92.1228L66.1554 91.8829Z" fill="#FFDB13"/>
<path d="M70.9358 93.0071L73.829 93.7838L70.9358 93.0071Z" fill="#FFD740"/>
<path d="M70.4966 93.6309L72.5346 95.6824L70.4966 93.6309Z" fill="#FFD740"/>
<path d="M65.576 90.8952L62.876 89.7359L65.576 90.8952Z" fill="#FFD740"/>
<path d="M66.2541 90.0336L64.0796 87.9004L66.2541 90.0336Z" fill="#FFD740"/>
<path d="M48.473 81.7423L46.9204 80.0949L45.9311 78.9837L45.2729 78.2484L44.5541 77.5908L43.4306 76.99L42.1431 76.1986L40.5692 75.3854L39.5011 74.7039L37.9708 73.6748L35.8793 73.0715L34.2479 72.3306L33.3384 71.7654L32.9466 70.9901L33.0829 70.4881L33.2767 70.3905L33.4705 70.2929L33.7421 70.256L34.1552 70.1971L34.7729 70.6661L35.3735 70.9969L36.2286 71.1525L37.0028 71.2526L37.35 71.2681L37.6045 71.0929L37.1168 70.609L35.4533 69.5999L33.8976 68.4346L32.7368 67.5624L32.33 67.1341L32.3279 66.6489L32.5973 66.1268L32.8518 65.9516L33.2618 65.8979L33.6867 65.9741L34.1542 66.3249L34.6973 66.728L35.1647 67.0787L37.235 68.5162L38.0113 69.1015L38.401 69.3915L38.6555 69.2163L38.7078 69.1409L38.6705 68.8695L38.0528 68.4004L36.9645 67.5858L35.726 66.6529L33.9391 65.3137L33.61 64.9461L33.5354 64.4033L33.9028 64.0751L34.3682 63.9406L34.8102 64.1552L35.7228 64.7152L36.58 65.356L37.8792 66.2113L38.6503 66.7935L39.4266 67.3788L39.8163 67.6688L40.1656 67.6927L40.4926 67.5751L40.3776 67.2429L39.5085 66.467L38.6343 65.6879L37.5864 64.6626L36.5588 63.7705L36.2297 63.4028L36.1499 62.8569L36.4448 62.4711L36.9656 62.2559L37.6844 62.4367L40.0112 64.1842L41.6597 65.5402L42.1443 66.0293L42.5489 66.4492L43.1719 66.9215L44.1825 67.6753L44.6245 67.8898L44.9738 67.9137L45.3614 67.7185L45.2443 66.9012L44.879 65.2949L44.9588 63.898L45.0899 63.3928L45.3241 63.0845L45.7118 62.8893L45.9833 62.8525L46.2549 62.8156L46.5637 63.0502L46.9322 64.1744L47.1483 64.6951L47.5711 66.229L48.1526 67.8791L48.3879 69.0233L48.3666 70.3343L48.292 71.7345L48.2707 72.5686L48.4868 73.0893L49.2952 73.9429L50.3281 74.8382L50.8883 75.3796L52.0714 76.3932L52.5336 76.7409L52.5186 77.0877L51.7604 78.0932L50.8861 79.257L49.8383 80.6515L49.08 81.657L48.6955 81.8469L48.473 81.7423Z" fill="#FFDB13"/>
<path d="M89.6114 106.886L91.8727 106.944L93.3589 106.95L94.3489 106.951L95.3151 107.052L96.5138 107.492L97.9568 107.928L99.61 108.561L100.829 108.906L102.613 109.368L104.463 110.531L106.095 111.258L107.123 111.566L107.957 111.34L108.242 110.898L108.186 110.694L108.128 110.481L107.978 110.256L107.748 109.912L106.992 109.759L106.345 109.529L105.658 108.997L105.069 108.481L104.824 108.234L104.787 107.927L105.469 107.966L107.335 108.541L109.234 108.929L110.661 109.214L111.247 109.236L111.611 108.913L111.82 108.362L111.784 108.063L111.555 107.72L111.216 107.453L110.643 107.338L109.975 107.202L109.406 107.082L106.957 106.492L106.003 106.299L105.527 106.2L105.487 105.898L105.508 105.804L105.741 105.652L106.498 105.805L107.827 106.074L109.354 106.382L111.534 106.825L112.033 106.824L112.492 106.522L112.488 106.029L112.279 105.591L111.825 105.397L110.794 105.094L109.751 104.883L108.248 104.475L107.3 104.285L106.351 104.095L105.873 104.001L105.623 103.752L105.496 103.427L105.819 103.293L106.977 103.43L108.135 103.568L109.601 103.668L110.951 103.843L111.445 103.839L111.904 103.537L111.997 103.059L111.806 102.532L111.201 102.113L108.348 101.531L106.238 101.209L105.55 101.168L104.965 101.145L104.2 100.993L102.968 100.741L102.51 100.552L102.26 100.303L102.149 99.8809L102.833 99.4287L104.283 98.6376L105.273 97.6498L105.555 97.2137L105.633 96.8332L105.519 96.4162L105.363 96.1878L105.216 95.9574L104.835 95.879L103.752 96.3555L103.219 96.5424L101.79 97.2392L100.174 97.9026L99.1677 98.4891L98.1932 99.3794L97.2032 100.367L96.593 100.935L96.0658 101.125L94.8869 101.081L93.5367 100.907L92.751 100.85L91.2173 100.637L90.6444 100.523L90.3984 100.767L90.1494 102.006L89.8619 103.428L89.5174 105.136L89.2715 106.37L89.3826 106.792L89.6114 106.886Z" fill="#FFDB13"/>
<path d="M46.8247 110.337L52.3757 109.245L59.2102 113.432L61.2052 118.881L56.1227 127.093L57.6814 128.147L59.4392 128.664L54.9028 133.829L51.6397 137.116L51.0105 138.12L50.9236 139.648L50.8356 140.165L50.5797 139.663L49.8592 138.698L48.1053 137.614L46.5556 137.32L44.7518 137.345L42.7884 137.338L41.2964 137.043L41.1054 136.993L41.7699 135.81L43.9534 131.885L46.6129 127.391L49.3895 122.725L50.7078 120.282L51.6286 120.769L52.7971 121.318L54.0991 121.549L54.2887 121.435L51.743 119.827L49.6784 118.57L47.6969 117.449L46.7791 116.922L46.6223 117.184L47.4276 118.043L48.6337 119.042L49.6471 119.648L48.1958 122.182L46.114 126.103L44.7788 128.479L43.5641 130.82L42.4481 132.722L41.2192 134.776L40.3006 136.312L39.8847 136.042L38.6577 134.148L37.4303 131.564L36.3098 130.41L35.1209 129.62L33.8128 129.507L33.4546 129.271L34.6244 128.484L35.4257 127.49L36.0809 125.44L36.6869 122.401L37.3087 119.919L37.9994 117.763L38.6467 116.406L39.4812 117.24L40.3205 117.827L41.6826 118.685L44.7251 113.8L46.1106 111.376L46.8665 110.291" fill="#2B59DB"/>
<path d="M35.4343 128.551C36.2113 128.98 37.2227 129.649 38.2276 130.663C39.4489 131.899 40.1774 133.16 40.6041 134.056" stroke="#FFDB13" stroke-width="4" stroke-miterlimit="10"/>
<path d="M50.4887 137.839C49.743 137.358 48.6751 136.783 47.3066 136.377C45.6401 135.886 44.1843 135.841 43.1933 135.889" stroke="#FFDB13" stroke-width="4" stroke-miterlimit="10"/>
<path d="M47.1626 117.333C47.318 117.419 47.4766 117.5 47.632 117.586C47.6633 117.533 47.6947 117.481 47.726 117.428C47.3239 117.231 46.9134 117.035 46.5113 116.837C46.4053 116.788 46.3154 116.926 46.4172 116.994C47.3908 117.619 48.3675 118.239 49.3411 118.864C49.4377 118.929 49.5318 118.772 49.4352 118.707C48.6244 118.179 47.8188 117.655 47.008 117.127C46.9219 117.068 46.8162 117.197 46.8961 117.266C48.9778 119.138 51.3325 120.696 53.8752 121.868C53.9812 121.917 54.0711 121.778 53.9693 121.71C52.2194 120.536 50.4612 119.363 48.7114 118.189C48.6801 118.241 48.6487 118.293 48.6174 118.346C50.304 119.376 51.9853 120.403 53.6687 121.438C53.7685 121.498 53.8594 121.346 53.7628 121.281C53.1956 120.906 52.6368 120.529 52.0697 120.154C52.0383 120.207 52.007 120.259 51.9756 120.312C52.7381 120.789 53.5027 121.275 54.2651 121.752C54.3491 121.802 54.46 121.676 54.377 121.613C53.5849 120.982 52.7217 120.459 51.7937 120.068C50.8552 119.67 49.5702 119.542 48.9306 118.668C48.8866 118.706 48.8448 118.752 48.8008 118.79C50.0097 119.57 51.2216 120.345 52.4305 121.125C52.4618 121.072 52.4932 121.02 52.5245 120.967C51.3977 120.3 50.2741 119.628 49.1473 118.962C49.0475 118.902 48.9535 119.059 49.0532 119.119C50.18 119.786 51.3037 120.458 52.4305 121.125C52.5302 121.184 52.6212 121.032 52.5245 120.967C51.3157 120.187 50.1037 119.413 48.8949 118.633C48.8214 118.589 48.7104 118.679 48.7651 118.754C49.3426 119.541 50.3278 119.717 51.1958 120.03C52.2989 120.427 53.3248 121.012 54.2389 121.736C54.2755 121.687 54.3173 121.641 54.3508 121.597C53.5883 121.12 52.8238 120.634 52.0613 120.156C51.9615 120.097 51.8706 120.249 51.9673 120.314C52.5344 120.688 53.0932 121.065 53.6603 121.44C53.6917 121.388 53.723 121.335 53.7544 121.283C52.0678 120.253 50.3865 119.226 48.703 118.191C48.6033 118.131 48.5124 118.283 48.609 118.348C50.3588 119.523 52.117 120.695 53.8668 121.87C53.8982 121.817 53.9295 121.765 53.9609 121.712C51.4318 120.541 49.0949 119.001 47.0206 117.142C46.984 117.191 46.9422 117.237 46.9087 117.281C47.7195 117.809 48.5251 118.333 49.3359 118.861C49.3672 118.808 49.3986 118.756 49.4299 118.704C48.4563 118.079 47.4796 117.459 46.506 116.834C46.4747 116.886 46.4433 116.939 46.412 116.991C46.8141 117.189 47.2246 117.385 47.6267 117.582C47.7328 117.632 47.8289 117.483 47.7208 117.425C47.5654 117.339 47.4068 117.259 47.2514 117.173C47.1538 117.122 47.0597 117.279 47.1626 117.333Z" fill="#2B59DB"/>
<path d="M48.2857 118.446C48.4928 118.648 48.7082 118.848 48.9153 119.05C48.9299 119.002 48.9476 118.948 48.9569 118.897C48.8563 118.922 48.7556 118.948 48.6581 118.968C48.5911 118.984 48.5682 119.07 48.6165 119.121C48.6775 119.186 48.7332 119.247 48.7942 119.312C48.8751 119.403 49.0028 119.273 48.9271 119.185C48.9071 119.159 48.884 119.138 48.8693 119.115C48.7936 119.027 48.6606 119.154 48.7363 119.242C48.7563 119.268 48.7794 119.289 48.7942 119.312C48.8413 119.269 48.88 119.228 48.9271 119.185C48.8661 119.12 48.8104 119.059 48.7494 118.994C48.7349 119.042 48.7172 119.095 48.7078 119.147C48.8085 119.121 48.9091 119.096 49.0066 119.076C49.0737 119.059 49.0997 118.968 49.0482 118.923C48.8411 118.721 48.6257 118.521 48.4187 118.319C48.3314 118.238 48.1985 118.365 48.2857 118.446Z" fill="#40009B"/>
<path d="M47.5391 109.18C52.291 112.057 57.0346 114.937 61.7866 117.815Z" fill="#FFDB13"/>
<path d="M47.4925 109.259C51.187 111.497 54.8762 113.732 58.5707 115.97C59.6282 116.61 60.6857 117.249 61.7401 117.894C61.8398 117.954 61.9339 117.797 61.8341 117.737C58.1397 115.499 54.4504 113.264 50.756 111.026C49.6985 110.386 48.6409 109.747 47.5866 109.102C47.4816 109.039 47.3875 109.196 47.4925 109.259Z" fill="#FFDB13"/>
<path d="M31.437 130.237C31.5102 130.103 31.6408 129.896 31.868 129.719C32.1329 129.514 32.3897 129.454 32.6801 129.386C33.0176 129.31 33.2704 129.305 33.7623 129.293C34.317 129.283 34.5971 129.28 34.9087 129.367C35.2477 129.456 35.4819 129.589 35.6289 129.677C36.0867 129.936 36.3579 130.234 36.6849 130.593C36.8878 130.814 37.1864 131.149 37.4916 131.652C37.88 132.29 37.8268 132.45 38.3219 133.422C38.3577 133.493 38.5324 133.797 38.8788 134.41C39.4315 135.381 39.5273 135.531 39.75 135.707C40.0347 135.934 40.1962 135.938 40.269 136.138C40.3513 136.358 40.228 136.541 39.9104 137.155C39.5606 137.835 39.3788 138.175 39.241 138.477C39.097 138.789 38.9634 139.108 38.6483 139.396C38.5102 139.52 38.4159 139.57 38.3645 139.597C37.9863 139.776 37.5991 139.673 37.4753 139.641C36.853 139.49 36.734 139.725 35.2654 139.629C34.7085 139.595 33.6606 139.523 32.3918 139.142C31.5679 138.898 31.023 138.629 30.1201 138.196C29.906 138.089 28.7836 137.546 27.4392 136.635C26.7397 136.16 26.4434 135.904 26.1732 135.593C25.7242 135.069 25.4724 134.548 25.3321 134.186C25.2823 133.936 25.2194 133.457 25.3944 132.914C25.7132 131.916 26.5744 131.478 26.7535 131.393C27.2531 131.094 27.9739 130.735 28.8911 130.5C29.9299 130.218 30.8255 130.198 31.437 130.237Z" fill="#FFDB13" stroke="#FFD740" stroke-miterlimit="10"/>
<path d="M36.2518 135.179C36.6274 135.254 36.9731 135.069 37.0359 135.036C37.368 134.85 37.5153 134.568 37.5612 134.467L37.5659 133.708L37.2914 132.868L36.4912 131.941L35.6265 131.218L34.5692 130.685L33.575 130.702C33.4775 130.687 33.1648 130.649 32.8789 130.841C32.7836 130.905 32.5532 131.052 32.562 131.228C32.5761 131.443 32.9276 131.511 33.4359 131.829C33.7058 131.998 33.8729 132.147 34.1734 132.42C34.4844 132.698 34.9186 133.164 35.324 133.905C35.3653 134.563 35.7628 135.078 36.2518 135.179Z" fill="#2B59DB"/>
<path d="M30.6095 131.601C30.493 131.581 30.1952 131.602 29.5965 131.649C29.2987 131.671 29.1686 131.685 29.043 131.788C28.886 131.908 28.7564 132.136 28.7894 132.355C28.8468 132.724 29.3663 132.892 29.6696 132.981C30.1681 133.137 30.5686 133.064 30.8191 133.014C31.1169 132.957 31.3622 132.905 31.5075 132.686C31.5294 132.649 31.6591 132.456 31.6124 132.236C31.5076 131.768 30.7176 131.623 30.6095 131.601Z" fill="#2B59DB"/>
<path d="M50.7047 141.825C50.7735 141.639 50.9033 141.517 50.9572 141.201C51.012 140.871 50.9391 140.599 50.8661 140.328C50.7731 139.995 50.6583 139.769 50.4361 139.33C50.1823 138.837 50.0527 138.589 49.8288 138.355C49.5902 138.099 49.3623 137.955 49.2153 137.867C48.77 137.587 48.3796 137.489 47.9085 137.37C47.6178 137.296 47.1813 137.192 46.5939 137.161C45.8481 137.12 45.732 137.243 44.6413 137.267C44.5616 137.269 44.2112 137.259 43.5075 137.243C42.3904 137.216 42.2132 137.202 41.9528 137.089C41.618 136.946 41.5379 136.806 41.3272 136.836C41.0944 136.868 40.9921 137.063 40.6011 137.633C40.1672 138.263 39.9539 138.584 39.7531 138.848C39.546 139.123 39.3285 139.391 39.2234 139.805C39.1798 139.986 39.18 140.092 39.1812 140.15C39.202 140.568 39.4764 140.86 39.5626 140.955C39.9905 141.431 39.8399 141.647 40.6187 142.896C40.9123 143.37 41.4712 144.26 42.4077 145.197C43.012 145.808 43.5068 146.16 44.3156 146.751C44.511 146.889 45.5205 147.621 46.9589 148.375C47.5553 148.689 47.9616 148.867 48.4758 148.997C49.0036 149.128 49.5104 149.246 50.1131 149.072C50.3038 149.016 50.7933 148.853 51.2045 148.416C51.756 147.827 51.8331 147.126 51.902 146.499C51.9534 146.031 52.046 145.161 51.6768 144.193C51.2485 143.026 50.4586 142.475 50.7047 141.825Z" fill="#FFDB13" stroke="#FFD740" stroke-miterlimit="10"/>
<path d="M44.8132 139.695C44.5588 139.429 44.5705 139.016 44.5682 138.937C44.5748 138.556 44.7535 138.293 44.8205 138.205L45.4867 137.842L46.3569 137.686L47.552 137.953L48.5986 138.372C49.1454 138.578 49.4377 138.888 49.5681 139.052C49.6806 139.197 49.7691 139.371 49.946 139.719C50.1493 140.118 50.1895 140.278 50.1972 140.432C50.2038 140.564 50.2222 140.866 50.0703 140.954C49.8986 141.05 49.6568 140.799 49.2032 140.556C48.8367 140.358 48.5544 140.282 48.0403 140.152C47.3865 139.982 46.8599 139.944 46.3848 139.916C45.3904 139.863 45.0697 139.97 44.8132 139.695Z" fill="#2B59DB"/>
<path d="M50.6344 142.978C50.7069 143.072 50.8292 143.344 51.0705 143.894C51.1928 144.166 51.2413 144.288 51.2102 144.447C51.1791 144.642 51.0391 144.865 50.8305 144.939C50.4784 145.063 50.0843 144.685 49.8625 144.46C49.4894 144.094 49.3648 143.707 49.2898 143.462C49.199 143.173 49.1292 142.932 49.2536 142.701C49.2755 142.664 49.3841 142.458 49.6 142.395C50.0623 142.266 50.5618 142.885 50.6344 142.978Z" fill="#2B59DB"/>
<path d="M62.7349 91.8069C63.848 91.9602 64.959 92.1051 66.0721 92.2584L69.3296 94.1782C69.9511 94.9627 70.5695 95.7525 71.1963 96.5401C70.3496 96.8949 69.3131 97.2571 68.116 97.5304C66.7763 97.8394 65.5736 97.967 64.5721 98.0085C64.1645 97.1882 63.7375 96.1856 63.3899 95.0027C63.035 93.8083 62.8417 92.7248 62.7349 91.8069Z" fill="#FFDB13" stroke="#FFD740" stroke-miterlimit="10"/>
<path d="M59.8868 114.593L58.0197 113.519L54.1331 111.173C53.2573 110.635 52.3867 110.1 51.5108 109.562C52.1491 109.388 52.7875 109.215 53.4258 109.042L55.5633 108.591L57.4126 108.216L58.2041 108.085L58.5344 109.022L59.1453 111.16L59.8057 113.441L60.2176 114.79L59.8868 114.593V114.593Z" fill="#FFDB13" stroke="#FFD740" stroke-miterlimit="10"/>
<path d="M66.0202 129.273L63.2332 129.606L61.1071 129.501L58.8822 128.847L57.3677 128.339L55.9415 127.422L58.0348 123.97L61.5243 118.243L63.3871 114.866L66.8932 108.074L69.0348 103.206L71.7038 97.3011L72.6472 97.5237L73.6116 96.8409L74.6597 95.0408L74.8788 93.5421L74.9844 92.9007L77.0025 93.4956L79.0213 93.9344L80.0442 94.0836C80.4618 94.1839 80.8742 94.2811 81.2919 94.3814C81.761 94.5268 82.2301 94.6722 82.6971 94.8091C83.181 94.9775 83.668 95.1407 84.1466 95.3059L85.6628 96.1202L87.6768 96.7697C87.6768 96.7697 89.6484 97.1802 89.7502 97.2126C89.852 97.2451 93.0459 97.8885 93.0459 97.8885C93.5445 98.0799 94.3547 98.3581 95.3819 98.5597C96.2308 98.7258 97.4506 99.2489 97.9811 99.1606C98.0062 99.1542 98.2117 99.1206 98.2349 99.1772C98.2539 99.217 98.1733 99.2684 98.031 99.4466C97.9191 99.5861 97.9223 99.6165 97.8365 99.7003C97.7475 99.7895 97.6763 99.8252 97.6124 99.8724C97.4281 99.9899 97.4093 100.057 97.1027 100.343C97.1027 100.343 97.0022 100.44 96.7028 100.702C95.9836 101.332 94.7957 101.483 94.206 102.326C94.1014 102.477 94.0088 102.799 93.8361 103.457C93.6832 104.034 93.6139 104.52 93.4776 105.498C93.365 106.306 93.3727 106.461 93.4842 106.62C93.804 107.074 94.5513 106.838 94.6337 107.094C94.7382 107.42 93.6891 108.244 92.4184 108.438C91.8942 108.515 91.484 108.462 91.2584 108.434C88.535 108.101 87.2411 107.761 87.2411 107.761C85.8665 107.401 84.2158 106.991 82.0227 106.462L79.1929 105.424L77.188 104.616L76.6358 104.372L75.8121 107.573L74.5839 111.45L73.2377 115.071L71.8275 118.669L70.4218 121.436L68.787 124.48L66.7146 127.873L66.0202 129.273Z" fill="#FC3824"/>
<path d="M60.8392 82.1964L57.6608 79.9894L56.001 78.7477L52.9949 75.2275C52.0583 74.2546 51.1186 73.2869 50.1873 72.3171C49.9498 72.0825 49.707 71.8448 49.4695 71.6102C49.1408 71.4207 48.809 71.2365 48.4803 71.0471C48.4402 71.4002 48.4021 71.7618 48.362 72.115C48.3708 72.291 48.3764 72.4723 48.3852 72.6484C48.4367 72.7291 48.4935 72.8128 48.542 72.8987C48.4967 73.3201 48.4568 73.7445 48.4115 74.1658L47.5995 75.4878L46.1444 76.7526L45.1206 77.6776C44.9434 77.6997 44.7715 77.725 44.5974 77.7419C44.4988 77.7042 44.3948 77.6634 44.2962 77.6257C44.1125 77.5515 43.9633 77.4551 43.9633 77.4551C43.9633 77.4551 44.0169 77.4729 44.0526 77.5085C44.1598 77.6154 44.0733 77.8554 44.0451 77.9382C44.0451 77.9382 43.9649 78.1678 43.8376 78.9528C43.8355 78.98 43.7621 79.4485 43.8606 79.8917C43.9866 80.4439 44.3428 80.778 44.5951 81.0356C45.2153 81.6912 45.0677 81.8307 45.9115 83.0541C46.7205 84.2283 46.9187 84.1831 48.7713 86.3659C49.8302 87.6112 49.7862 87.6489 50.2823 88.1306C50.998 88.8292 51.788 89.4155 52.5664 90.0092C53.0076 90.3442 53.3826 90.6112 53.6536 90.8017L50.0095 93.4618L46.4017 96.8836L42.5166 101.043L40.1414 103.644L38.0941 106.519L35.429 110.832L35.3384 111.126L35.9111 112.636L36.816 114.473L37.7905 116.038L39.5825 117.785L41.5442 118.987L47.3366 109.719L50.1821 105.379L52.3568 102.744L54.8057 99.7819L59.2097 94.993L62.1399 91.536L61.6032 91.1936L61.2014 90.6259L61.6166 89.6217L62.5055 88.4097L63.493 87.2353L64.3915 86.6269L64.8492 86.3028L63.7367 85.0041L62.6243 83.7053L60.8392 82.1964Z" fill="#FC3824"/>
<path d="M52.9196 109.161C54.1137 108.928 55.3078 108.696 56.4966 108.46C56.6109 108.436 56.5664 108.26 56.4522 108.284C55.2581 108.517 54.064 108.749 52.8752 108.985C52.7588 109 52.8001 109.182 52.9196 109.161Z" fill="#FFDB13"/>
<path d="M53.1237 108.96C53.0976 109.016 52.979 108.987 52.9266 108.992C52.893 109 52.8595 109.008 52.8281 109.025C52.7998 109.037 52.761 109.078 52.7285 109.072C52.6121 109.053 52.5632 109.23 52.6796 109.25C52.7394 109.257 52.7835 109.255 52.8348 109.228C52.8914 109.205 52.9322 109.173 52.9899 109.172C53.1021 109.175 53.2258 109.171 53.2759 109.051C53.3302 108.948 53.1727 108.854 53.1237 108.96Z" fill="#FFDB13"/>
<path d="M64.5784 62.6252C63.3489 61.4985 63.7722 61.7801 63.289 61.4199C62.5064 60.8451 62.1135 60.5603 61.7251 60.3992C61.1289 60.1564 60.6369 60.097 60.5141 60.0877C59.8365 60.0169 59.285 60.1283 58.9769 60.2145C57.9801 60.4865 57.1372 61.1211 57.1372 61.1211C56.791 61.5688 56.3445 62.2199 55.93 63.068C55.7295 63.4747 55.5572 63.8343 55.4084 64.3573C55.4084 64.3573 55.22 65.0061 55.0956 67.1451C55.3485 69.1538 55.4288 69.4367 55.4288 69.4367C55.7141 70.4258 56.199 71.093 56.7018 71.7781C56.9385 72.0975 57.3634 72.6506 58.0243 73.2024C58.5969 73.6872 58.8806 73.9281 59.1993 73.8838C59.7645 73.8091 59.7083 73.0567 60.7251 72.3339C60.9744 72.1556 61.1933 72.0517 61.4905 71.7455C61.6182 71.6155 61.8746 71.3418 62.0489 70.955C62.2274 70.5493 62.1201 70.4425 62.2257 69.7655C62.3446 68.9826 62.5196 68.9164 62.6582 68.0172C62.7378 67.5026 62.6781 67.5309 62.7487 67.2102C62.8796 66.6337 63.0807 66.4764 63.5121 65.6954C64.2518 64.3514 63.9465 64.2898 64.4371 63.7079C64.5668 63.5506 64.8504 63.2433 64.7805 62.9311C64.735 62.7687 64.6247 62.6671 64.5784 62.6252Z" fill="#FFD740"/>
<path d="M63.9889 63.9789L63.1609 62.7648L62.0882 61.8884L61.0384 61.4385L59.8596 61.4309L58.9876 61.7207L58.2795 62.1299L57.9227 62.5L57.2317 63.56L56.7626 64.4039L56.5357 65.2005L56.4208 66.3701L56.4204 67.1812L56.4666 68.1767L56.728 69.2654L57.2455 70.4502L57.8758 71.4108L58.6208 72.0485L59.4756 72.5384L59.8326 72.7519L60.1664 72.8733C60.4251 72.7149 60.6807 72.5617 60.9394 72.4033C61.201 72.1327 61.4679 71.8653 61.7263 71.6C61.8674 71.3641 62.0116 71.123 62.1527 70.8871C62.2266 70.6324 62.3005 70.3777 62.3766 70.1314C62.4033 69.8841 62.4384 69.6346 62.4652 69.3873C62.5244 69.1452 62.6067 68.8884 62.7257 68.6179C62.756 68.5435 62.7883 68.4775 62.8207 68.4114C62.815 68.1945 62.8114 67.986 62.8057 67.769C62.9038 67.5573 62.9998 67.3371 63.0937 67.1086C63.3483 66.4923 63.5714 65.8927 63.7569 65.3204L64.2056 64.2721L63.9889 63.9789Z" fill="#2B5ADC"/>
<path d="M62.9557 66.3869C62.7414 65.7321 62.482 65.093 62.1629 64.4823C61.8438 63.8716 61.5019 63.3824 60.8824 63.0475C60.3658 62.7669 59.7717 62.5326 59.1751 62.6242C58.6509 62.7021 58.1891 63.045 58.0486 63.566C58.0153 63.6813 58.1927 63.7304 58.226 63.6151C58.3821 63.0323 58.9761 62.7542 59.5383 62.7916C60.1006 62.8289 60.6948 63.0989 61.1475 63.4266C61.6129 63.769 61.8689 64.3064 62.1164 64.8103C62.3735 65.3341 62.5907 65.8768 62.7712 66.4332C62.8124 66.5432 62.9937 66.5022 62.9557 66.3869Z" fill="#FFDB13"/>
<path d="M62.556 67.5396C62.12 67.2077 61.6862 66.8841 61.2471 66.5575C60.9015 66.301 60.5485 66.0329 60.1183 65.9536C59.3713 65.8199 58.6916 66.2532 58.4099 66.9387C58.3661 67.0477 58.5434 67.0969 58.5872 66.9879C58.9263 66.1587 59.8613 65.9066 60.6132 66.342C61.2653 66.7178 61.8621 67.2456 62.4619 67.6968C62.5554 67.767 62.6495 67.6097 62.556 67.5396Z" fill="#FFDB13"/>
<path d="M62.3216 69.2062C61.5654 68.7184 60.3686 68.6573 59.928 69.5966C59.4749 70.5568 60.3514 71.4155 61.1681 71.7545C61.2773 71.7985 61.3262 71.6213 61.217 71.5774C60.5043 71.2792 59.6919 70.5158 60.0981 69.6698C60.5011 68.8291 61.5658 68.9321 62.2275 69.3635C62.3294 69.4315 62.4234 69.2742 62.3216 69.2062Z" fill="#FFDB13"/>
<path d="M61.8723 69.8976C61.6712 69.9836 61.4679 70.0613 61.2667 70.1474C61.1566 70.1883 61.2461 70.3486 61.3562 70.3076C61.5574 70.2216 61.7606 70.1439 61.9618 70.0578C62.0666 70.0137 61.9771 69.8535 61.8723 69.8976Z" fill="#FFD740"/>
<path d="M108.128 73.6377L108.247 73.6879L110.031 74.3417L111.676 74.7493L113.438 75.1055L115.309 75.2782L116.866 75.142L118.094 74.6026L119.076 73.5099L120.091 71.7403L120.16 71.0056L119.697 69.1699L118.459 66.9135L116.178 63.9912L112.577 60.3216C113.333 59.0583 116.378 55.8264 116.378 55.8264L122.275 48.6493L124.391 46.3497C124.627 46.0635 124.948 45.5864 125.114 44.9387C125.196 44.6106 125.242 44.2606 125.184 43.3793C125.13 42.5284 125.087 41.8127 124.852 40.8466C124.719 40.2829 124.506 39.5788 123.868 38.1655C123.36 37.0362 122.8 35.8042 121.919 34.4162C120.684 32.4752 119.479 31.2844 117.775 29.6036C116.687 28.526 115.197 27.0724 112.962 25.4936C111.318 24.3325 110.01 23.6354 108.514 22.8337C106.963 22.0058 105.017 20.9696 102.328 19.9947C100.944 19.4947 99.2135 18.8723 96.8486 18.44C94.9516 18.0955 92.5448 17.6737 89.5189 18.12C87.3004 18.4443 85.345 18.7338 83.7606 20.334C82.4409 21.6584 81.9945 23.2632 81.8234 24.1928L79.3522 30.8993L77.2852 36.3102L76.2775 38.8175L74.427 38.1449L69.7796 37.0592L65.7147 36.692L62.7461 37.4359L61.3368 39.4824L60.9971 41.4926L61.534 43.3723L63.0532 45.5762L64.9925 47.5545L66.8284 49.2646L67.5681 47.9563L68.7834 45.9004L69.0447 45.4873L71.3254 45.2857L75.0461 45.5609L80.445 46.9039L85.7975 49.0875L90.4354 51.5838L97.3558 55.7228L101.971 59.1874L105.807 62.4639L108.728 65.72L110.685 69.1958L108.128 73.6377Z" fill="#FFDB13"/>
<path d="M63.3744 38.807C63.3146 38.7998 63.1456 38.7129 63.1456 38.7129L63.5346 38.2054L64.6276 37.7488L66.8217 37.7872L71.1113 38.3031L76.2895 39.8841L81.102 41.6593L84.6031 43.2195L88.6314 45.1377L93.7547 48.0382L99.0729 51.3043L102.521 53.5729L105.869 56.1518L109.437 58.9831L112.791 62.0996L115.068 64.4078L117.117 66.8219L118.446 68.9264L118.994 70.6918L119.056 71.3405L118.905 71.6633L118.445 70.4417L116.841 67.76L113.628 63.7883L109.274 59.875L103.226 55.1475L96.146 50.5003L89.6028 46.6723L83.5259 43.6499L78.9235 41.5948L73.9383 39.9654L69.5244 38.7631L66.9335 38.5657L64.6074 38.605C64.6074 38.605 63.687 38.8446 63.3744 38.807Z" fill="#FC3824"/>
<path d="M78.5312 36.2644C79.1427 36.2672 79.9608 36.2939 80.9248 36.3865C81.4861 36.4375 83.0344 36.602 85.3388 37.1832C87.8132 37.8019 89.6228 38.507 91 39.0531C91.7726 39.3586 93.7188 40.1454 96.1357 41.3846C96.268 41.4494 99.2993 43.0204 101.993 44.8452C102.208 44.9876 102.617 45.2682 103.153 45.6597C103.454 45.8828 104.336 46.5309 105.732 47.7361C106.405 48.3162 107.425 49.1969 108.702 50.4588C109.823 51.5637 110.4 52.1365 111.132 53.0582C112.029 54.1926 112.584 55.1364 112.815 55.5376C113.2 56.2164 113.487 56.822 113.695 57.2955C113.707 57.3238 113.721 57.3605 113.728 57.4076C113.782 57.7461 113.485 57.981 113.143 58.4098C112.806 58.8418 112.488 59.2424 112.275 59.8126C112.214 59.9751 112.184 60.0851 112.084 60.1323C111.792 60.2635 111.283 59.6959 110.914 59.3115C110.276 58.6381 109.522 58.0874 108.869 57.4266C108.306 56.8548 107.546 56.2653 106.025 55.0779C105.558 54.7135 103.474 53.0969 100.334 51.0408C98.6472 49.9394 97.3765 49.1795 95.712 48.184C95.2867 47.9296 93.5403 46.8922 91.1451 45.5451C89.1553 44.4262 88.1577 43.8651 86.8442 43.2005C85.5413 42.5423 83.8309 41.683 81.5122 40.7802C79.8915 40.1525 78.5041 39.707 77.4819 39.4016C77.2878 39.3923 77.1744 39.3316 77.1061 39.2552C76.6697 38.7451 77.9487 37.012 78.5312 36.2644Z" fill="#FC3824"/>
<path d="M110.604 69.0927L110.259 68.0251L107.486 64.2102L103.705 60.5323L98.0931 56.3149L92.9082 53.0288L87.708 49.9827L84.0952 48.1921L78.8042 46.3229L73.8479 45.4438L69.1426 45.2772L66.9276 49.1833L65.2429 52.4174L63.5016 56.6638L62.2137 60.5693L64.3331 62.4134L64.3747 63.214L64.0969 64.2506L62.8701 67.303L62.4191 69.2253L62.1642 70.6528L61.4964 71.7693L60.8145 72.1585L60.0433 73.0068L59.225 73.8269L58.7249 74.9014L58.6596 76.2145L59.8545 80.2955C59.8545 80.2955 60.7572 82.0879 60.7479 82.1393C60.7354 82.1959 62.3655 84.2739 62.3655 84.2739L63.8751 85.8742L65.1712 87.2472L67.3395 88.9141L68.9067 90.0365L71.5688 91.6286L74.9792 92.9709L78.1243 93.8271L81.6819 94.3749L83.9203 94.4824L86.6961 93.8225L88.1525 92.6865L89.1261 91.4043L89.5541 90.4503L89.8109 88.9243L89.9206 88.2284L90.6856 87.4975L91.9183 86.6761L93.6069 85.2236L94.5786 84.0398L95.5912 82.8235L95.9124 82.4534L98.3046 82.8877L100.409 83.207L102.517 81.2082L104.705 78.7661L105.874 77.1452L107.288 74.8523L108.66 72.5344L110.604 69.0927Z" fill="#2B59DB"/>
<path opacity="0.9" d="M69.1429 45.2764C69.8367 44.5812 71.0149 44.7449 73.2506 45.1071C76.1935 45.5861 77.6623 45.8241 78.1681 45.9558C80.6195 46.5892 82.4114 47.3478 84.0679 48.0467C85.7643 48.7624 87.0116 49.3946 87.8547 49.8205C90.0774 50.9435 91.6894 51.9076 92.9391 52.655C95.6926 54.3089 97.6715 55.6846 98.1536 56.0228C100.39 57.588 101.994 58.8749 102.496 59.2749C103.554 60.1282 104.811 61.1502 106.353 62.6488C108.585 64.8166 107.326 64.0136 109.677 66.5659C110.071 66.9932 110.845 67.8196 110.77 68.8634C110.745 69.1904 110.643 69.4566 110.556 69.639L108.985 72.2652C107.851 74.0422 106.72 75.814 105.591 77.5942C104.652 78.7476 103.721 79.8988 102.781 81.0522C101.84 81.8985 100.899 82.7448 99.953 83.588C99.1474 83.0635 98.3419 82.5391 97.5332 82.0198C96.9046 81.8431 96.276 81.6664 95.6474 81.4897C96.8612 79.7462 98.0667 78.0047 99.2806 76.2612L100.881 73.2399L102.049 70.5365L104.114 69.7648L105.58 68.7557L106.125 68.2628L106.689 67.248L106.447 67.1036L105.79 67.8565L104.326 68.6602L101.953 69.5399L99.1 69.8405L96.5849 69.7667L96.2353 69.6003L97.3546 68.7539L98.5477 67.5815L99.83 66.4624L100.383 65.8113L99.9507 65.5098L96.1063 65.7513L92.5352 65.7505L90.7238 65.692L89.6585 65.3395L91.3689 63.779L92.9212 61.8749L92.9336 61.3059L92.6794 61.1111L90.8319 61.3156L87.5885 61.5892L84.2067 61.3316L83.2135 60.8586L84.6528 59.5487L86.0384 57.7086L86.3645 57.1635L85.9392 56.9091L83.7028 57.2155L79.0389 57.2658L76.4554 57.1156L75.5018 56.9936L76.6588 56.0842L78.2437 54.7334L79.4177 52.9731L79.5103 52.6157L77.8992 52.556L74.7498 52.6011L71.8591 52.9645L69.9206 53.3211L70.529 52.3754L72.0088 50.9261L73.7055 49.8058L75.5887 49.1244L75.9241 49.0404L75.4943 48.6623L73.8118 49.0082L71.2588 50.3922C71.2588 50.3922 69.5261 51.7756 69.4728 51.8647C69.4195 51.9538 67.9584 54.3253 67.9584 54.3253L68.0168 54.6448L69.3279 54.2405L69.6416 54.2644L68.6853 55.8275L67.1002 58.0964L65.3275 60.8935L64.6503 62.0257C64.5394 62.1516 64.4285 62.2774 64.3229 62.4064C64.0843 62.1854 63.8374 61.9665 63.5988 61.7456C63.3151 61.5047 63.0315 61.2639 62.753 61.0262C62.5598 60.8964 62.3665 60.7666 62.168 60.6336C62.6307 59.2521 63.0902 57.8758 63.5529 56.4943C63.9649 55.4597 64.3822 54.4282 64.7943 53.3936C65.3268 52.2887 65.8561 51.1891 66.3886 50.0842C67.1488 48.5034 67.0365 48.9771 68.1981 46.7966C68.6995 45.8866 68.9712 45.4442 69.1429 45.2764Z" fill="#FC3824"/>
<path d="M95.5566 75.1445C95.7543 74.9212 95.8208 74.6549 95.8466 74.4569C95.8938 73.9727 95.8615 73.5619 95.8147 73.2706C95.7647 72.9489 95.7041 72.5497 95.4755 72.0856C95.3164 71.7556 95.1334 71.5252 94.9757 71.3241C94.8505 71.1638 94.6802 70.948 94.4153 70.7114C94.1096 70.436 93.8439 70.2842 93.5131 70.0864C93.2369 69.9283 93.0059 69.7901 92.6669 69.6656C92.2029 69.4878 91.8231 69.4315 91.6763 69.4148C91.2745 69.3595 90.9494 69.3786 90.7648 69.3892C90.4586 69.4124 89.2573 69.6689 89.6944 69.5817C90.1399 69.4923 88.625 69.7605 88.3336 69.8425C88.0873 69.9087 87.7719 70.0189 87.5165 70.279C87.4485 70.345 87.3261 70.4782 87.362 70.5851C87.3736 70.6133 87.4115 70.693 87.6475 70.7274C87.9948 70.7785 88.2557 70.6641 88.4632 70.6032C88.6907 70.5328 89.0074 70.5159 89.6492 70.4798C89.9438 70.4639 90.2825 70.4458 90.7273 70.477C90.9235 70.4947 91.2675 70.5154 91.6232 70.6001C91.8982 70.6648 93.0146 70.9198 93.7613 71.8646C94.0168 72.1882 94.1654 72.5119 94.2476 72.6963C94.295 72.7958 94.4004 73.0368 94.6329 73.8519C94.7397 74.2218 94.8211 74.5267 94.874 74.7363C94.8441 74.9888 94.8959 75.1764 94.9349 75.278C94.9782 75.3964 95.0097 75.4152 95.0307 75.4278C95.1955 75.4979 95.4519 75.2598 95.5566 75.1445Z" fill="#FFDB13"/>
<path d="M71.7287 60.8954C71.8319 60.6155 72.035 60.4309 72.1973 60.3145C72.6015 60.0439 72.9787 59.878 73.2575 59.7814C73.5646 59.6733 73.945 59.5379 74.462 59.5197C74.828 59.5037 75.1176 59.5559 75.3694 59.5998C75.5698 59.6342 75.8404 59.6823 76.1742 59.8036C76.5615 59.9427 76.8209 60.105 77.1517 60.3028C77.4216 60.4714 77.6527 60.6095 77.9227 60.8493C78.2989 61.174 78.5282 61.4819 78.6124 61.6034C78.8511 61.9313 78.9881 62.2267 79.0661 62.3943C79.1904 62.6751 79.5328 63.8548 79.4029 63.4284C79.2708 62.9936 79.7512 64.4552 79.8169 64.7507C79.8751 64.999 79.9272 65.3291 79.8189 65.677C79.7928 65.7682 79.7334 65.9391 79.6223 65.958C79.5919 65.9612 79.5038 65.9654 79.3618 65.7738C79.1525 65.492 79.1298 65.208 79.0853 64.9964C79.0397 64.7627 78.9049 64.4757 78.633 63.8932C78.5076 63.626 78.3633 63.3191 78.1255 62.942C78.0171 62.7775 77.836 62.4842 77.5932 62.2109C77.406 61.9993 76.6532 61.1363 75.4677 60.9254C75.0616 60.8533 74.7061 60.8756 74.5048 60.8904C74.3947 60.8957 74.1325 60.9168 73.3044 61.0976C72.928 61.1786 72.6209 61.2511 72.4113 61.3036C72.2029 61.4494 72.0131 61.4925 71.9051 61.5062C71.7804 61.5241 71.7489 61.5053 71.7279 61.4927C71.5881 61.3807 71.6713 61.039 71.7287 60.8954Z" fill="#FFDB13"/>
<path d="M68.2046 66.6555C68.8495 66.1374 69.4342 65.875 69.6207 65.8015C69.9183 65.6735 70.4191 65.4677 71.1154 65.4002C71.4027 65.3728 71.7896 65.3337 72.2649 65.433C73.2859 65.645 73.9376 66.3195 74.2729 66.6766C74.3517 66.7593 74.6871 67.1165 75.0103 67.6727C75.1176 67.8508 75.4903 68.515 75.6886 69.4947C75.891 70.4911 75.8512 71.4993 75.8208 71.5025C75.7883 71.4972 75.7673 72.4739 75.4842 73.4362C75.4248 73.6426 75.3217 73.9938 75.1035 74.4183C74.9552 74.714 74.8976 74.7507 74.5015 75.3892C74.0865 76.0591 74.1222 76.059 73.981 76.2237C73.687 76.5603 73.3863 76.7292 72.96 76.9652C72.5734 77.1824 72.2131 77.3797 71.6806 77.4953C71.1763 77.5994 70.7756 77.5661 70.4211 77.5391C70.0749 77.51 69.8242 77.4882 69.5177 77.3689C69.2752 77.2737 69.2363 77.2077 68.7867 76.9104C68.3498 76.6277 68.3499 76.6634 67.7261 76.276C67.2777 76.0007 67.0498 75.8573 66.8711 75.6793C66.7408 75.5515 66.6093 75.4017 66.2968 74.923C65.8243 74.1992 65.5855 73.8357 65.4809 73.5099C65.3057 72.9923 65.3122 72.5763 65.3172 71.9957C65.3235 71.5084 65.3267 71.062 65.4986 70.5242C65.5695 70.3104 65.6248 70.194 66.3198 69.044C66.9521 67.9988 67.0169 67.9023 67.1382 67.7471C67.6204 67.1317 68.0904 66.7509 68.2046 66.6555Z" fill="#EAEEFB"/>
<path d="M73.2204 71.9744C73.1046 71.7628 72.9909 71.5596 72.7702 71.3565C72.6294 71.2224 72.4087 71.0193 72.0718 70.9388C71.6406 70.8374 71.2686 71.0064 70.9082 71.168C70.7206 71.2551 70.5163 71.3464 70.2933 71.5404C70.173 71.6464 69.7564 72.0449 69.6571 72.6758C69.6064 72.9871 69.6562 73.2375 69.7199 73.5959C69.7793 73.9018 69.809 74.0548 69.888 74.2088C70.2102 74.8143 70.972 74.971 71.1556 75.0096C71.3203 75.0441 71.6015 75.0984 71.9506 75.0154C72.2996 74.9324 72.5321 74.7583 72.6892 74.6387C72.8232 74.5338 73.0588 74.3545 73.2584 74.0326C73.3462 73.8858 73.6158 73.435 73.5495 72.8545C73.5226 72.5181 73.392 72.2835 73.2204 71.9744Z" fill="#2B59DB"/>
<path d="M71.3905 73.0107C71.5017 73.0274 71.6243 73.0012 71.8591 72.9423C72.0352 72.8982 72.1244 72.8803 72.1788 72.8488C72.3988 72.7313 72.5357 72.4787 72.5645 72.2397C72.6036 71.9002 72.4217 71.6561 72.3586 71.5828C72.1672 71.3545 71.9248 71.2949 71.844 71.275C71.7548 71.2573 71.5124 71.1977 71.262 71.3184C70.9236 71.4789 70.8332 71.8447 70.8009 71.9464C70.7738 72.0512 70.6719 72.46 70.9264 72.7616C70.96 72.7889 71.1272 72.9742 71.3905 73.0107Z" fill="#FFDB13"/>
<path d="M80.1247 86.6656L78.5941 86.4832L76.5676 85.8904L74.2615 85.0022L69.8404 82.358L67.9595 80.6993L67.1906 79.6487L67.3293 78.7851L66.8323 79.3419L66.8161 80.108L67.1882 80.9639L67.0081 82.0874L67.0751 83.9779L67.7583 86.1373L68.8072 87.6257L70.8647 88.9773L72.3772 89.5474L74.5953 89.4862L76.1034 88.979L77.3783 88.2897L77.9409 87.5515L78.3748 86.8858L80.1247 86.6656Z" fill="#FFD740"/>
<path d="M70.9011 84.9851C71.1196 85.1443 71.3328 85.3003 71.6143 85.4971C71.8255 85.6447 72.0943 85.8269 72.3495 85.9724C72.4703 86.0446 72.8178 86.2382 73.7048 86.5552C74.5329 86.8512 74.9496 87.0008 75.4521 87.0665C75.9924 87.1405 76.3279 87.0921 76.9874 87.0026C77.2034 86.9752 77.4204 86.9342 77.4359 86.8367C77.4421 86.7906 77.4083 86.6921 76.9495 86.4818C76.2997 86.1856 75.856 86.1409 75.3354 85.9861C75.0269 85.8941 74.7718 85.7842 74.2626 85.5509C73.5729 85.238 73.3397 85.0558 71.8967 84.1786C70.6586 83.4238 70.3625 83.2752 69.7396 82.803C69.3887 82.5433 69.1071 82.3109 68.919 82.1486C68.7452 81.7955 68.5246 81.628 68.3934 81.5495C68.3041 81.4961 68.1571 81.4082 68.0764 81.4596C67.9612 81.533 68.029 81.8369 68.0533 81.9155C68.1475 82.3063 68.3861 82.5629 68.5428 82.742C69.1652 83.4416 68.9752 83.3778 69.4009 83.8103C69.589 84.0082 70.0281 84.3349 70.9011 84.9851Z" fill="#2B59DB"/>
<path d="M68.4826 85.1564C68.7557 84.8785 69.3834 85.1045 69.8505 85.2771C70.0772 85.3629 70.3617 85.4832 71.4066 86.1081C72.1101 86.5289 72.8673 87.0032 72.8673 87.0032C72.8673 87.0032 73.2444 87.2429 73.5638 87.5193C73.5638 87.5193 73.9831 87.8911 74.1959 88.3457C74.2381 88.4421 74.2866 88.5637 74.2617 88.7125C74.2555 88.7586 74.239 88.8697 74.1678 88.941C74.0286 89.0784 73.7673 88.979 73.335 88.8912C72.9132 88.8098 73.0151 88.8778 72.3971 88.7787C71.9145 88.7036 71.668 88.6629 71.4465 88.5802C71.161 88.4735 70.9289 88.3133 70.4646 87.993C70.097 87.7375 69.9142 87.614 69.6883 87.4077C69.4729 87.2077 69.2941 86.994 68.9366 86.5667C68.9366 86.5667 68.7904 86.3938 68.6053 86.1194C68.3801 85.7926 68.3495 85.6889 68.343 85.5925C68.3249 85.4678 68.3643 85.2707 68.4826 85.1564Z" fill="#2B59DB"/>
<path d="M90.8771 80.2166C91.0285 79.4033 90.983 78.7641 90.9595 78.565C90.9316 78.2422 90.8759 77.7036 90.606 77.0582C90.4942 76.7921 90.3456 76.4328 90.0333 76.061C89.3635 75.2618 88.461 75.0067 87.9877 74.8802C87.8775 74.8499 87.4042 74.7234 86.7613 74.7018C86.5536 74.6915 85.7921 74.6773 84.8352 74.9662C83.8615 75.2592 82.9921 75.7712 83.0037 75.7995C83.0237 75.8256 82.1731 76.3062 81.4594 77.0109C81.3055 77.1608 81.0449 77.4177 80.7741 77.8109C80.5838 78.0814 80.5787 78.1495 80.2036 78.8006C79.8097 79.483 79.7929 79.4516 79.7146 79.6539C79.5572 80.0722 79.5506 80.4169 79.5443 80.9042C79.5358 81.3475 79.5325 81.7583 79.6826 82.2822C79.8294 82.7757 80.0483 83.113 80.2398 83.4126C80.4292 83.7038 80.5671 83.9143 80.8171 84.1279C81.0157 84.2965 81.0923 84.2996 81.5669 84.555C82.0226 84.8062 81.9912 84.823 82.6275 85.1894C83.0822 85.4542 83.3164 85.5871 83.5578 85.6603C83.732 85.7147 83.9261 85.7596 84.4957 85.8085C85.3569 85.8824 85.7902 85.9208 86.1267 85.8588C86.6656 85.7683 87.0291 85.5658 87.5382 85.2867C87.9645 85.0506 88.3563 84.8366 88.7487 84.4308C88.9036 84.2672 88.9799 84.1634 89.6644 83.007C90.2862 81.9555 90.3405 81.8528 90.4198 81.6725C90.7287 80.9534 90.847 80.3623 90.8771 80.2166Z" fill="#EAEEFB"/>
<path d="M83.8166 78.3141C84.0578 78.3161 84.2907 78.3201 84.5741 78.4184C84.7588 78.4791 85.0422 78.5774 85.2724 78.8361C85.5657 79.1681 85.5928 79.5757 85.6209 79.9698C85.6329 80.1762 85.6491 80.3994 85.5837 80.6876C85.5473 80.8438 85.3933 81.3993 84.8844 81.7853C84.6342 81.9772 84.39 82.0518 84.0441 82.1652C83.7464 82.2576 83.5976 82.3038 83.4246 82.3071C82.7387 82.3097 82.2403 81.7126 82.1193 81.5692C82.011 81.4403 81.8302 81.2183 81.7382 80.8715C81.6462 80.5247 81.6896 80.2375 81.7207 80.0426C81.7497 79.8749 81.7962 79.5825 81.9853 79.2543C82.0731 79.1075 82.3427 78.6567 82.8855 78.4405C83.1946 78.3051 83.4579 78.306 83.8166 78.3141Z" fill="#2B59DB"/>
<path d="M83.7719 80.4165C83.7046 80.3264 83.6697 80.2059 83.6105 79.9712C83.5661 79.7952 83.5397 79.7082 83.5416 79.6453C83.5411 79.3959 83.6989 79.1558 83.8958 79.0174C84.1765 78.8223 84.4776 78.8671 84.572 78.888C84.8637 78.9486 85.0309 79.134 85.0866 79.1958C85.1444 79.2659 85.3116 79.4513 85.3237 79.729C85.3423 80.1031 85.0629 80.3559 84.9886 80.4324C84.909 80.5058 84.5971 80.789 84.211 80.7075C84.1711 80.6908 83.9234 80.6281 83.7719 80.4165Z" fill="#FFDB13"/>
<path d="M77.8699 81.7566C77.7537 81.8793 77.6469 81.9506 77.5631 82.0073C77.3003 82.1846 77.0645 82.257 76.815 82.3285C76.6525 82.3736 76.4282 82.4388 76.1189 82.4673C75.9616 82.4799 75.6942 82.4979 75.3973 82.4342C74.8978 82.3276 74.5784 82.0512 74.1948 81.7151C73.9038 81.4627 73.7598 81.3339 73.6345 81.1024C73.4997 80.851 73.473 80.6215 73.4186 80.1761C73.3801 79.8471 73.3545 79.6396 73.3864 79.3598C73.4182 79.0443 73.4573 78.7048 73.7042 78.4112C73.9176 78.1616 74.1828 78.064 74.4249 77.981C74.6083 77.9128 74.9939 77.7805 75.4545 77.8567C76.0882 77.9653 76.2307 78.3707 76.8074 78.3242C76.8902 78.3169 77.0392 78.3063 77.2099 78.2234C77.321 78.1688 77.6195 77.9915 77.9489 77.0355C78.1907 76.3333 78.1992 75.9256 78.5021 75.8007C78.522 75.7912 78.6865 75.7188 78.7716 75.7911C78.8441 75.8487 78.8171 75.9891 78.7923 76.1736C78.7262 76.6179 78.7817 76.6085 78.7403 76.8328C78.6811 77.1105 78.5971 77.0959 78.2126 77.7626C77.9159 78.2826 77.9046 78.3969 77.7015 78.5458C77.5245 78.6748 77.3767 78.7074 77.3717 78.8112C77.3677 78.9369 77.6017 78.963 77.8582 79.2374C77.9822 79.3756 78.0444 79.4982 78.1381 79.6752C78.2266 79.8491 78.3034 79.9947 78.3322 80.197C78.3407 80.2661 78.3525 80.3657 78.3361 80.548C78.2938 80.8572 78.2455 81.355 77.8699 81.7566Z" fill="#FFD740"/>
<path d="M96.1336 81.4934C97.7079 82.0436 97.2596 81.8039 97.8055 82.0592C98.6822 82.4768 99.1189 82.6882 99.4446 82.9541C99.9405 83.3646 100.226 83.77 100.292 83.8737C100.675 84.4372 100.838 84.9758 100.907 85.288C101.139 86.2949 100.979 87.3378 100.979 87.3378C100.748 87.8546 100.386 88.5559 99.8349 89.3223C99.5714 89.6914 99.3361 90.0132 98.9457 90.3918C98.9457 90.3918 98.4632 90.8647 96.6376 91.9862C94.7482 92.7137 94.461 92.7768 94.461 92.7768C93.4546 92.9933 92.6373 92.8817 91.796 92.7628C91.4025 92.7055 90.7143 92.5927 89.9155 92.2715C89.2174 91.9964 88.871 91.8604 88.7592 91.5587C88.5577 91.0254 89.2472 90.7189 89.4029 89.4812C89.4421 89.1772 89.43 88.9352 89.5592 88.5285C89.6134 88.3545 89.7332 87.9992 89.9915 87.6626C90.2645 87.3134 90.4093 87.3574 90.9559 86.9441C91.5894 86.469 91.5649 86.2835 92.2916 85.736C92.7073 85.4224 92.7106 85.4884 92.9597 85.2744C93.4057 84.8864 93.4492 84.6348 93.9331 83.8852C94.7673 82.5978 94.966 82.8376 95.2466 82.1301C95.3238 81.9414 95.4604 81.5462 95.7685 81.4601C95.9331 81.4233 96.0748 81.4725 96.1336 81.4934Z" fill="#FFD740"/>
<path d="M95.2203 82.655L96.6816 82.8102L97.9613 83.3407L98.8543 84.0527L99.4187 85.0877L99.5758 85.993L99.5503 86.8104L99.393 87.2999L98.7861 88.4101L98.2645 89.2226L97.67 89.7994L96.6939 90.454L95.9795 90.838L95.0806 91.2682L93.9978 91.5529L92.709 91.6576L91.5646 91.5567L90.6503 91.202L89.8144 90.6807L89.4573 90.4671L89.1925 90.2305C89.2097 89.9276 89.2237 89.63 89.2409 89.3271C89.3555 88.9686 89.4648 88.607 89.5763 88.2538C89.7174 88.0179 89.8616 87.7768 90.0027 87.5409C90.1921 87.3553 90.3815 87.1697 90.5626 86.9862C90.7678 86.8456 90.971 86.6966 91.1762 86.5561C91.3615 86.3893 91.5488 86.1953 91.7308 85.9626C91.7821 85.9007 91.8249 85.841 91.8678 85.7812C92.0616 85.6836 92.2471 85.5881 92.4409 85.4905C92.581 85.3039 92.7295 85.1152 92.8864 84.9243C93.309 84.4085 93.7317 83.9282 94.1482 83.4941L94.8594 82.6029L95.2203 82.655Z" fill="#2B5ADC"/>
<path d="M93.6303 84.8843C94.1891 84.7844 94.748 84.7201 95.3122 84.6946C95.89 84.6701 96.5098 84.6351 97.0442 84.8978C97.5366 85.1353 98.0377 85.5133 98.3407 85.9721C98.6606 86.4624 98.7197 87.1382 98.2655 87.564C98.1796 87.6479 98.3068 87.7809 98.3927 87.697C98.7758 87.3426 98.8637 86.7902 98.7085 86.2988C98.5163 85.7142 98.0057 85.2807 97.5089 84.9551C96.9365 84.5772 96.3689 84.5011 95.6935 84.5099C94.9856 84.5135 94.2831 84.5915 93.588 84.7167C93.4748 84.7272 93.5192 84.9033 93.6303 84.8843Z" fill="#FFDB13"/>
<path d="M92.6702 85.7636C93.3547 86.0734 94.0989 86.3548 94.7384 86.7515C95.4778 87.208 95.6979 88.151 95.1278 88.842C95.0525 88.9321 95.1797 89.0651 95.255 88.975C95.7258 88.4025 95.7828 87.6039 95.3148 87.0037C95.0445 86.657 94.6382 86.4781 94.2487 86.295C93.7532 86.0626 93.2629 85.8335 92.7642 85.6064C92.6582 85.5572 92.5589 85.7113 92.6702 85.7636Z" fill="#FFDB13"/>
<path d="M91.3072 86.7541C92.0002 87.133 92.5947 88.0223 92.0447 88.7751C91.4915 89.5332 90.4398 89.1818 89.8347 88.6917C89.7443 88.6163 89.6114 88.7432 89.7017 88.8186C90.3899 89.3725 91.558 89.7438 92.1896 88.8903C92.8035 88.0547 92.1835 87.0292 91.4013 86.5969C91.2984 86.5424 91.2043 86.6997 91.3072 86.7541Z" fill="#FFDB13"/>
<path d="M90.821 87.3207C90.8403 87.5387 90.8681 87.7545 90.8874 87.9725C90.8981 88.0857 91.0817 88.0887 91.071 87.9755C91.0516 87.7576 91.0239 87.5417 91.0045 87.3237C90.9938 87.2106 90.8103 87.2075 90.821 87.3207Z" fill="#FFD740"/>
<path d="M26.1387 133.782C26.1238 133.687 26.1169 133.377 25.9079 133.238C25.8869 133.225 25.7745 133.151 25.6812 133.188C25.4947 133.261 25.5093 133.725 25.5508 133.978C25.6412 134.566 26.0144 134.967 26.1394 135.092C27.3577 136.368 29.1123 137.297 29.1123 137.297C30.0279 137.78 30.8112 138.199 31.9876 138.568C33.0728 138.911 33.8439 139.016 35.2455 139.2C36.902 139.422 35.9575 139.142 37.8057 139.222C37.9179 139.225 38.5053 139.256 38.8066 138.931C38.8453 138.89 38.9584 138.773 38.9256 138.661C38.8907 138.54 38.7019 138.499 38.6263 138.482C38.0975 138.365 36.4269 138.44 36.0662 138.459L34.1096 138.179C33.5294 138.088 32.6931 137.901 31.7462 137.505C31.3767 137.349 30.8317 137.044 29.7628 136.447C29.7628 136.447 29.1128 136.08 27.3873 134.984C26.6826 134.541 26.191 134.219 26.1387 133.782Z" fill="#2B59DB"/>
<path d="M50.143 148.285C50.2331 148.254 50.5097 148.113 50.7312 148.231C50.7522 148.244 50.8709 148.308 50.8826 148.407C50.9061 148.606 50.4902 148.813 50.2481 148.896C49.6874 149.094 49.1575 148.955 48.9885 148.904C47.2874 148.435 45.6395 147.328 45.6395 147.328C44.7803 146.75 44.0409 146.258 43.1591 145.396C42.3435 144.603 41.886 143.973 41.0612 142.825C40.0819 141.471 40.7756 142.17 39.8304 140.58C39.7746 140.483 39.4693 139.98 39.6132 139.561C39.6309 139.507 39.6809 139.352 39.7952 139.328C39.9178 139.301 40.044 139.448 40.0945 139.507C40.4477 139.917 41.1715 141.425 41.3253 141.752L42.4982 143.343C42.8526 143.811 43.413 144.459 44.2094 145.106C44.5225 145.358 45.0486 145.694 46.08 146.353C46.08 146.353 46.7112 146.752 48.4931 147.754C49.2114 148.162 49.7332 148.446 50.143 148.285Z" fill="#2B59DB"/>
<path d="M47.5301 117.8C48.8542 118.542 50.1836 119.288 51.5108 120.024C51.6137 120.079 51.7015 119.932 51.6049 119.867C50.5084 119.162 49.412 118.456 48.3186 117.745C48.2873 117.798 48.2559 117.85 48.2246 117.902C48.8578 118.274 49.4963 118.649 50.1264 119.026C50.2261 119.085 50.3202 118.928 50.2204 118.868C49.6281 118.5 49.0305 118.128 48.4382 117.76C48.3385 117.7 48.2444 117.857 48.3442 117.917C48.9911 118.325 49.6359 118.725 50.2829 119.133C50.3142 119.081 50.3456 119.029 50.3769 118.976C49.4097 118.376 48.4425 117.776 47.47 117.173C47.3702 117.114 47.2793 117.266 47.3759 117.331C47.9042 117.675 48.4325 118.02 48.9576 118.369C48.989 118.317 49.0203 118.264 49.0517 118.212C48.3147 117.871 47.583 117.533 46.846 117.192C46.8146 117.244 46.7833 117.297 46.7519 117.349C47.1257 117.523 47.4973 117.688 47.8711 117.862C47.9561 117.898 48.0712 117.789 47.983 117.722C47.6394 117.439 47.2958 117.155 46.9575 116.874C46.885 116.817 46.7478 116.891 46.8099 116.978C46.8572 117.042 46.9014 117.111 46.9487 117.175C46.9927 117.137 47.0346 117.091 47.0785 117.053C46.8915 116.913 46.7077 116.767 46.5207 116.627C46.4377 116.563 46.3373 116.695 46.4088 116.767C46.701 117.077 46.9786 117.399 47.2917 117.686C47.3283 117.637 47.3702 117.591 47.4037 117.547C47.1013 117.408 46.8011 117.279 46.4987 117.141C46.3927 117.091 46.2997 117.235 46.4047 117.298C46.8016 117.528 47.2038 117.762 47.6007 117.992C47.7005 118.052 47.7946 117.894 47.6948 117.835C47.4459 117.679 47.1939 117.528 46.945 117.372C46.9136 117.424 46.8823 117.477 46.8509 117.529C47.7057 118.019 48.5636 118.504 49.4184 118.994C49.5181 119.053 49.609 118.901 49.5124 118.836C49.379 118.749 49.2456 118.663 49.1154 118.57C49.084 118.623 49.0527 118.675 49.0213 118.728C49.8426 119.226 50.6554 119.726 51.4766 120.225C51.508 120.172 51.5393 120.12 51.5707 120.067C50.9858 119.746 50.4062 119.428 49.8245 119.101C49.7216 119.047 49.6307 119.199 49.7304 119.258C50.4288 119.676 51.124 120.099 51.8223 120.517C51.8537 120.464 51.885 120.412 51.9164 120.359C51.2643 119.984 50.6122 119.608 49.9632 119.227C49.8634 119.167 49.7694 119.324 49.8691 119.384C50.8668 119.981 51.8592 120.574 52.8568 121.171C52.8882 121.119 52.9195 121.066 52.9509 121.014C52.3146 120.683 51.6783 120.352 51.042 120.022C51.0107 120.074 50.9793 120.126 50.948 120.179C51.9737 120.657 52.9994 121.135 54.0251 121.614C54.1311 121.663 54.221 121.524 54.1191 121.456C53.8786 121.298 53.636 121.132 53.3954 120.974C53.3641 121.026 53.3327 121.078 53.3014 121.131C53.4768 121.243 53.6553 121.35 53.8307 121.462C53.8568 121.406 53.8777 121.347 53.9006 121.297C53.6771 121.242 53.4505 121.192 53.2217 121.133C53.1084 121.108 53.0542 121.282 53.1728 121.31C53.6198 121.421 54.07 121.526 54.517 121.637C54.6167 121.661 54.6762 121.526 54.5869 121.473C54.0839 121.158 53.5839 120.837 53.0756 120.519C52.9916 120.469 52.8807 120.595 52.9637 120.658C53.1234 120.797 53.2863 120.93 53.446 121.068C53.4826 121.019 53.5244 120.972 53.5579 120.928C53.0802 120.678 52.5993 120.433 52.1216 120.183C52.0187 120.129 51.9277 120.281 52.0275 120.341C52.5253 120.652 53.0231 120.964 53.5209 121.276C53.5523 121.224 53.5836 121.172 53.615 121.119C53.3724 120.988 53.1267 120.863 52.8842 120.732C52.7813 120.677 52.6904 120.829 52.7901 120.889C53.269 121.161 53.7382 121.378 54.2432 121.595C54.3523 121.638 54.4012 121.461 54.2921 121.417C53.8081 121.213 53.3473 120.995 52.8842 120.732C52.8528 120.784 52.8215 120.837 52.7901 120.889C53.0327 121.02 53.2784 121.146 53.5209 121.276C53.6238 121.331 53.7147 121.179 53.615 121.119C53.1172 120.807 52.6194 120.495 52.1216 120.183C52.0902 120.236 52.0589 120.288 52.0275 120.341C52.5052 120.591 52.9861 120.836 53.4639 121.086C53.551 121.131 53.6609 121.019 53.5758 120.946C53.4161 120.808 53.2532 120.675 53.0935 120.537C53.0569 120.586 53.0151 120.632 52.9816 120.676C53.4846 120.991 53.9845 121.312 54.4929 121.63C54.519 121.574 54.5398 121.516 54.5628 121.465C54.1157 121.355 53.6656 121.249 53.2186 121.138C53.203 121.2 53.1852 121.254 53.1696 121.315C53.3932 121.371 53.6198 121.421 53.8486 121.479C53.9483 121.504 54.0077 121.368 53.9185 121.315C53.7431 121.203 53.5646 121.096 53.3892 120.984C53.2894 120.924 53.1985 121.076 53.2951 121.141C53.5356 121.299 53.7783 121.466 54.0188 121.624C54.0501 121.572 54.0815 121.519 54.1128 121.467C53.0871 120.989 52.0614 120.51 51.0357 120.032C50.9297 119.983 50.8335 120.132 50.9417 120.189C51.578 120.52 52.2142 120.851 52.8505 121.181C52.9534 121.236 53.0443 121.084 52.9446 121.024C51.9469 120.428 50.9546 119.834 49.9569 119.237C49.9256 119.29 49.8942 119.342 49.8629 119.395C50.515 119.77 51.1671 120.146 51.8161 120.527C51.9158 120.587 52.0099 120.43 51.9101 120.37C51.2118 119.952 50.5166 119.529 49.8182 119.112C49.7869 119.164 49.7555 119.217 49.7242 119.269C50.309 119.59 50.8886 119.908 51.4704 120.235C51.5733 120.289 51.6642 120.137 51.5644 120.078C50.7432 119.58 49.9304 119.079 49.1091 118.581C49.0094 118.521 48.9184 118.673 49.0151 118.738C49.1485 118.825 49.2818 118.912 49.4121 119.004C49.4434 118.952 49.4748 118.899 49.5061 118.847C48.6514 118.357 47.7935 117.872 46.9387 117.382C46.8389 117.323 46.7449 117.48 46.8446 117.54C47.0935 117.696 47.3456 117.846 47.5945 118.002C47.6258 117.95 47.6572 117.898 47.6885 117.845C47.2916 117.615 46.8894 117.381 46.4925 117.151C46.4611 117.204 46.4298 117.256 46.3984 117.308C46.7008 117.446 47.001 117.576 47.3033 117.714C47.3884 117.751 47.5004 117.647 47.4153 117.575C47.1021 117.288 46.8193 116.962 46.5323 116.655C46.4957 116.705 46.4538 116.751 46.4204 116.795C46.6074 116.935 46.7912 117.081 46.9782 117.221C47.0507 117.279 47.1574 117.172 47.108 117.099C47.0607 117.035 47.0165 116.966 46.9691 116.902C46.9199 116.937 46.8707 116.972 46.8215 117.006C47.165 117.29 47.5086 117.574 47.8469 117.854C47.8835 117.805 47.9254 117.759 47.9588 117.715C47.5851 117.541 47.2135 117.376 46.8397 117.202C46.7337 117.153 46.6396 117.31 46.7457 117.359C47.4827 117.701 48.2144 118.039 48.9514 118.38C49.0574 118.429 49.1473 118.291 49.0454 118.222C48.5171 117.878 47.9889 117.534 47.4637 117.184C47.4324 117.236 47.401 117.289 47.3697 117.341C48.3369 117.941 49.3041 118.541 50.2766 119.144C50.3764 119.204 50.4704 119.046 50.3706 118.987C49.7237 118.578 49.0789 118.178 48.432 117.77C48.4006 117.823 48.3693 117.875 48.3379 117.927C48.9302 118.296 49.5278 118.668 50.1201 119.036C50.1514 118.984 50.1828 118.931 50.2141 118.879C49.5809 118.507 48.9425 118.132 48.3124 117.756C48.2126 117.696 48.1217 117.848 48.2183 117.913C49.3148 118.618 50.4112 119.324 51.5046 120.035C51.5359 119.982 51.5673 119.93 51.5986 119.878C50.2745 119.135 48.9451 118.39 47.6178 117.653C47.5244 117.583 47.4303 117.74 47.5301 117.8Z" fill="#2B59DB"/>
<path d="M53.9812 121.401C54.2949 121.425 54.6116 121.443 54.9253 121.467C54.9105 121.409 54.8957 121.35 54.8809 121.291C54.4764 121.491 54.0106 121.411 53.6859 121.096C53.6144 121.025 53.4845 121.111 53.5382 121.2C53.5771 121.266 53.6161 121.332 53.655 121.398C53.6885 121.354 53.722 121.31 53.7607 121.269C53.64 121.232 53.5193 121.196 53.3934 121.156C53.3157 121.131 53.254 121.222 53.2877 121.285C53.3025 121.308 53.3088 121.333 53.3235 121.356C53.335 121.313 53.3464 121.27 53.3631 121.23C53.3086 121.262 53.2542 121.293 53.1997 121.325C53.1484 121.351 53.1318 121.427 53.178 121.468C53.2957 121.582 53.4154 121.632 53.5842 121.612C53.6534 121.603 53.6963 121.544 53.6657 121.475C53.5108 121.127 53.2732 120.856 52.9392 120.664C52.8395 120.604 52.7454 120.761 52.8452 120.821C53.1476 120.995 53.3621 121.244 53.5002 121.561C53.5284 121.514 53.5535 121.472 53.5817 121.425C53.4811 121.45 53.3929 121.419 53.3057 121.338C53.2995 121.384 53.2901 121.436 53.2839 121.482C53.3384 121.45 53.3929 121.419 53.4474 121.388C53.4903 121.363 53.508 121.31 53.4869 121.262C53.4722 121.239 53.4659 121.214 53.4511 121.191C53.4177 121.235 53.3842 121.279 53.3455 121.319C53.4662 121.356 53.5869 121.393 53.7128 121.432C53.7852 121.454 53.8574 121.369 53.8185 121.303C53.7795 121.237 53.7406 121.171 53.7016 121.105C53.6524 121.14 53.6032 121.175 53.554 121.209C53.9344 121.586 54.4873 121.675 54.963 121.44C55.051 121.4 55.0056 121.273 54.9186 121.264C54.6049 121.24 54.2881 121.221 53.9745 121.198C53.8665 121.211 53.8637 121.395 53.9812 121.401Z" fill="#2B59DB"/>
<path d="M53.5792 120.872C53.2632 120.697 52.9471 120.522 52.631 120.347C52.5229 120.29 52.4435 120.434 52.537 120.504C52.8385 120.727 53.14 120.95 53.4498 121.171C53.4812 121.119 53.5125 121.067 53.5439 121.014C52.5694 120.438 51.5917 119.868 50.6172 119.292C50.5858 119.345 50.5545 119.397 50.5231 119.449C50.9809 119.673 51.4418 119.892 51.8995 120.116C52.0056 120.165 52.0902 120.024 51.9936 119.959C51.5293 119.638 51.0651 119.318 50.6008 118.998C50.5695 119.05 50.5381 119.103 50.5068 119.155C50.9036 119.35 51.2952 119.541 51.6921 119.736C51.7981 119.785 51.8922 119.628 51.7861 119.579C51.4134 119.391 51.0428 119.212 50.6701 119.025C50.5641 118.976 50.4794 119.117 50.576 119.182C51.1548 119.585 51.7314 119.98 52.3102 120.383C52.3415 120.331 52.3729 120.278 52.4042 120.226C51.8142 119.937 51.2263 119.656 50.6362 119.368C50.5302 119.318 50.4403 119.457 50.5422 119.525C51.249 119.976 51.9474 120.429 52.6542 120.881C52.6856 120.828 52.7169 120.776 52.7483 120.723C52.3849 120.52 52.0216 120.317 51.6583 120.114C51.6322 120.17 51.6114 120.228 51.5884 120.279C51.9137 120.367 52.2369 120.446 52.5622 120.534C52.6535 120.56 52.711 120.452 52.6531 120.382C52.5722 120.291 52.4912 120.2 52.4187 120.106C52.3821 120.156 52.3402 120.202 52.3067 120.246C52.439 120.311 52.5692 120.367 52.7015 120.432C52.7276 120.376 52.7484 120.318 52.7714 120.267C52.6412 120.211 52.5132 120.163 52.383 120.106C52.2791 120.066 52.2375 120.219 52.3131 120.271C52.4896 120.405 52.6639 120.531 52.8404 120.665C52.8718 120.612 52.9031 120.56 52.9345 120.507C51.4097 119.588 49.7866 118.845 48.101 118.278C47.9992 118.246 47.9419 118.39 48.0311 118.443C48.1046 118.487 48.175 118.536 48.2485 118.58C48.3504 118.648 48.4361 118.493 48.3426 118.423C47.9056 118.105 47.477 117.784 47.04 117.466C47.0087 117.518 46.9773 117.571 46.946 117.623C47.135 117.736 47.324 117.849 47.513 117.962C47.6128 118.022 47.7037 117.87 47.6071 117.805C47.4212 117.687 47.2332 117.56 47.0473 117.442C47.0159 117.494 46.9846 117.547 46.9532 117.599C47.2872 117.792 47.618 117.989 47.9519 118.182C48.0359 118.232 48.1468 118.106 48.0638 118.043C47.5069 117.567 46.9469 117.097 46.3848 116.619C46.2944 116.543 46.1615 116.67 46.2519 116.745C46.7258 117.157 47.1944 117.565 47.6683 117.977C47.7586 118.052 47.8884 117.931 47.8012 117.85C47.3787 117.448 46.9531 117.051 46.5306 116.649C46.4434 116.568 46.3105 116.695 46.3977 116.776C46.8202 117.178 47.2458 117.575 47.6683 117.977C47.7154 117.934 47.7541 117.893 47.8012 117.85C47.3273 117.438 46.8587 117.03 46.3848 116.619C46.3377 116.662 46.299 116.702 46.2519 116.745C46.8087 117.221 47.3688 117.691 47.9309 118.17C47.9675 118.12 48.0094 118.074 48.0428 118.03C47.7089 117.837 47.3781 117.64 47.0442 117.447C46.9444 117.387 46.8535 117.539 46.9501 117.604C47.136 117.723 47.324 117.849 47.5099 117.968C47.5413 117.915 47.5726 117.863 47.604 117.81C47.4149 117.697 47.2259 117.584 47.0369 117.471C46.9319 117.408 46.8493 117.558 46.9428 117.628C47.3798 117.947 47.8084 118.267 48.2454 118.585C48.2767 118.533 48.3081 118.481 48.3394 118.428C48.2659 118.384 48.1956 118.335 48.122 118.291C48.0959 118.347 48.0751 118.405 48.0521 118.456C49.7272 119.016 51.3282 119.76 52.8404 120.665C52.9454 120.727 53.028 120.577 52.9345 120.507C52.758 120.373 52.5836 120.248 52.4071 120.114C52.381 120.169 52.3602 120.228 52.3372 120.278C52.4674 120.335 52.5955 120.383 52.7256 120.439C52.8212 120.482 52.8911 120.318 52.7955 120.275C52.6632 120.21 52.5331 120.153 52.4008 120.088C52.3053 120.046 52.2153 120.148 52.2889 120.228C52.3698 120.319 52.4508 120.41 52.5233 120.503C52.5547 120.451 52.5829 120.404 52.6143 120.351C52.2889 120.264 51.9657 120.184 51.6404 120.096C51.5407 120.072 51.4781 120.213 51.5705 120.261C51.9338 120.464 52.2972 120.667 52.6605 120.87C52.7634 120.925 52.8512 120.778 52.7545 120.713C52.0477 120.262 51.3493 119.808 50.6425 119.357C50.6111 119.41 50.5798 119.462 50.5484 119.514C51.1385 119.803 51.7264 120.084 52.3164 120.373C52.4225 120.422 52.5071 120.28 52.4105 120.215C51.8317 119.812 51.2551 119.418 50.6764 119.014C50.645 119.067 50.6137 119.119 50.5823 119.172C50.955 119.359 51.3256 119.538 51.6984 119.725C51.7297 119.673 51.7611 119.62 51.7924 119.568C51.3956 119.373 51.0039 119.182 50.6071 118.987C50.501 118.938 50.4164 119.08 50.513 119.144C50.9773 119.465 51.4415 119.785 51.9058 120.106C51.9371 120.053 51.9685 120.001 51.9998 119.948C51.5421 119.724 51.0812 119.506 50.6234 119.282C50.5174 119.233 50.4244 119.376 50.5294 119.439C51.5039 120.015 52.4816 120.585 53.4561 121.161C53.5611 121.224 53.6436 121.074 53.5501 121.004C53.2487 120.781 52.9472 120.558 52.6373 120.337C52.606 120.389 52.5746 120.442 52.5433 120.494C52.8593 120.669 53.1754 120.844 53.4914 121.018C53.5881 121.083 53.6821 120.926 53.5792 120.872Z" fill="#2B59DB"/>
<path d="M46.7324 116.881C46.7927 117.102 46.8613 117.321 46.9216 117.542C46.9729 117.516 47.0274 117.484 47.0787 117.458C46.861 117.178 46.6433 116.899 46.4225 116.624C46.3625 116.546 46.2494 116.627 46.2653 116.708C46.4435 117.626 47.3861 117.969 48.1628 118.256C49.225 118.649 50.2872 119.042 51.3495 119.436C51.4481 119.473 51.5118 119.319 51.4194 119.271C50.846 118.942 50.2695 118.619 49.7014 118.293C49.6701 118.346 49.6387 118.398 49.6074 118.451C50.0337 118.691 50.4548 118.929 50.8843 119.165C50.9872 119.219 51.0781 119.067 50.9783 119.007C50.6139 118.782 50.2495 118.557 49.8851 118.332C49.8537 118.384 49.8224 118.437 49.791 118.489C50.0083 118.591 50.2173 118.694 50.4346 118.796C50.5406 118.845 50.6347 118.688 50.5286 118.639C50.3113 118.537 50.1024 118.434 49.8851 118.332C49.779 118.283 49.686 118.427 49.791 118.489C50.1554 118.714 50.5198 118.939 50.8843 119.165C50.9156 119.112 50.947 119.06 50.9783 119.007C50.552 118.767 50.1309 118.529 49.7014 118.293C49.5985 118.239 49.5076 118.391 49.6074 118.451C50.1807 118.779 50.7572 119.103 51.3253 119.428C51.3514 119.373 51.3723 119.314 51.3952 119.264C50.48 118.923 49.5668 118.59 48.6515 118.249C47.8296 117.943 46.6292 117.673 46.433 116.666C46.3817 116.692 46.3272 116.724 46.2759 116.75C46.4936 117.03 46.7113 117.309 46.9322 117.584C46.99 117.654 47.1104 117.584 47.0893 117.5C47.029 117.279 46.9604 117.06 46.9001 116.839C46.8789 116.719 46.7028 116.763 46.7324 116.881Z" fill="#2B59DB"/>
<path d="M50.4695 118.848C50.8517 119.055 51.2371 119.257 51.6193 119.464C51.6454 119.409 51.6662 119.35 51.6892 119.3C50.3204 118.752 48.9516 118.203 47.5828 117.655C47.4789 117.614 47.4372 117.767 47.5129 117.82C48.0003 118.197 48.4962 118.572 48.9836 118.949C49.015 118.896 49.0463 118.844 49.0777 118.791C48.895 118.703 48.7207 118.613 48.538 118.525C48.4509 118.48 48.341 118.593 48.4261 118.665C48.5417 118.77 48.6573 118.874 48.7729 118.979C48.8095 118.93 48.8513 118.884 48.8848 118.84C48.5582 118.659 48.2348 118.472 47.903 118.288C47.8001 118.234 47.7092 118.386 47.8089 118.445C47.998 118.558 48.1838 118.677 48.3729 118.79C48.4042 118.737 48.4356 118.685 48.4669 118.632C48.1046 118.416 47.7507 118.197 47.3884 117.98C47.3571 118.033 47.3257 118.085 47.2944 118.137C47.4508 118.21 47.602 118.279 47.7615 118.346C47.8676 118.395 47.9606 118.251 47.8556 118.188C47.7768 118.141 47.6981 118.094 47.6193 118.047C47.5195 117.987 47.4255 118.145 47.5252 118.204C47.9233 118.457 48.3213 118.709 48.7141 118.958C48.7454 118.906 48.7768 118.853 48.8081 118.801C48.5981 118.675 48.3933 118.553 48.1802 118.432C48.1677 118.489 48.1469 118.548 48.1344 118.604C48.1837 118.605 48.2351 118.615 48.2844 118.616C48.3851 118.626 48.4005 118.493 48.3302 118.444C47.9762 118.189 47.6243 117.943 47.2703 117.689C47.2442 117.745 47.2234 117.803 47.2004 117.854C47.3347 117.891 47.4691 117.929 47.6065 117.961C47.6221 117.899 47.6398 117.846 47.6554 117.784C47.5442 117.767 47.4414 117.749 47.3302 117.732C47.2274 117.713 47.1689 117.835 47.2603 117.896C47.9084 118.362 48.5565 118.828 49.2077 119.289C49.2391 119.237 49.2704 119.184 49.3018 119.132C48.8303 118.871 48.3589 118.61 47.8874 118.35C47.7845 118.295 47.6936 118.447 47.7933 118.507C48.4728 118.921 49.1523 119.334 49.8338 119.756C49.8652 119.703 49.8965 119.651 49.9279 119.599C49.4554 119.352 48.9829 119.105 48.5104 118.858C48.4075 118.803 48.3197 118.95 48.4164 119.015C49.1222 119.48 49.8227 119.941 50.5253 120.411C50.5567 120.359 50.588 120.307 50.6194 120.254C50.4367 120.166 50.2457 120.081 50.063 119.993C49.9569 119.943 49.8629 120.101 49.9689 120.15C50.4246 120.365 50.875 120.578 51.3275 120.799C51.4335 120.848 51.5234 120.709 51.4215 120.641C50.7483 120.217 50.073 119.785 49.3998 119.361C49.3685 119.414 49.3371 119.466 49.3058 119.518C49.5095 119.619 49.71 119.725 49.9189 119.828C50.0218 119.883 50.118 119.734 50.013 119.671C49.8765 119.589 49.7452 119.511 49.6087 119.429C49.5089 119.369 49.4149 119.527 49.5146 119.586C49.9211 119.837 50.3296 120.095 50.736 120.345C50.7674 120.293 50.7987 120.24 50.8301 120.188C50.4069 119.942 49.9921 119.694 49.5689 119.448C49.5375 119.5 49.5062 119.553 49.4748 119.605C50.507 120.18 51.5424 120.749 52.5746 121.324C52.6059 121.272 52.6373 121.219 52.6686 121.167C52.2518 120.981 51.8351 120.796 51.4099 120.613C51.3039 120.564 51.2098 120.721 51.3159 120.77C51.7326 120.956 52.1494 121.141 52.5746 121.324C52.6806 121.373 52.7768 121.224 52.6686 121.167C51.6364 120.592 50.6011 120.023 49.5689 119.448C49.466 119.394 49.3751 119.546 49.4748 119.605C49.898 119.851 50.3128 120.099 50.736 120.345C50.8358 120.405 50.9298 120.248 50.8301 120.188C50.4236 119.938 50.0151 119.679 49.6087 119.429C49.5773 119.482 49.546 119.534 49.5146 119.586C49.6511 119.668 49.7824 119.747 49.9189 119.828C49.9503 119.776 49.9816 119.723 50.013 119.671C49.8093 119.57 49.6088 119.465 49.3998 119.361C49.2969 119.307 49.2039 119.45 49.3058 119.518C49.979 119.942 50.6543 120.375 51.3275 120.799C51.3588 120.746 51.3902 120.694 51.4215 120.641C50.9659 120.426 50.5155 120.213 50.063 119.993C50.0316 120.045 50.0003 120.097 49.9689 120.15C50.1516 120.238 50.3427 120.324 50.5253 120.411C50.6314 120.461 50.7213 120.322 50.6194 120.254C49.9136 119.789 49.2131 119.328 48.5104 118.858C48.4791 118.91 48.4477 118.962 48.4164 119.015C48.8889 119.262 49.3613 119.509 49.8338 119.756C49.9367 119.81 50.0276 119.658 49.9279 119.599C49.2484 119.185 48.569 118.772 47.8874 118.35C47.856 118.402 47.8247 118.455 47.7933 118.507C48.2648 118.768 48.7363 119.028 49.2077 119.289C49.3159 119.347 49.3953 119.202 49.3018 119.132C48.6537 118.666 48.0056 118.2 47.3543 117.739C47.3282 117.795 47.3074 117.853 47.2844 117.904C47.3956 117.92 47.4984 117.939 47.6097 117.956C47.7209 117.973 47.774 117.812 47.6586 117.779C47.5242 117.741 47.3899 117.704 47.2525 117.671C47.1475 117.644 47.1017 117.78 47.1825 117.836C47.5365 118.09 47.8884 118.336 48.2424 118.591C48.2549 118.534 48.2757 118.475 48.2882 118.419C48.2389 118.418 48.1875 118.408 48.1382 118.407C48.0427 118.4 48.0136 118.532 48.0924 118.579C48.3024 118.705 48.5072 118.827 48.7204 118.948C48.8201 119.007 48.9142 118.85 48.8144 118.79C48.4164 118.538 48.0183 118.286 47.6256 118.037C47.5942 118.089 47.5629 118.141 47.5315 118.194C47.6103 118.241 47.689 118.288 47.7678 118.335C47.7991 118.283 47.8305 118.23 47.8618 118.178C47.7054 118.106 47.5542 118.037 47.3947 117.97C47.2886 117.921 47.1956 118.064 47.3006 118.127C47.6629 118.344 48.0168 118.562 48.3791 118.779C48.4789 118.839 48.573 118.682 48.4732 118.622C48.2842 118.509 48.0983 118.391 47.9093 118.277C47.8779 118.33 47.8466 118.382 47.8152 118.435C48.1418 118.616 48.4652 118.802 48.797 118.986C48.881 119.037 48.9888 118.916 48.9089 118.847C48.7933 118.742 48.6777 118.637 48.5622 118.533C48.5255 118.582 48.4837 118.628 48.4502 118.672C48.6329 118.76 48.8072 118.85 48.9899 118.938C49.1012 118.99 49.1774 118.851 49.0839 118.781C48.5965 118.404 48.1006 118.029 47.6132 117.652C47.5871 117.708 47.5662 117.766 47.5433 117.817C48.9121 118.365 50.2809 118.913 51.6497 119.461C51.7484 119.499 51.812 119.345 51.7196 119.297C51.3374 119.089 50.9521 118.887 50.5698 118.68C50.4607 118.636 50.3666 118.794 50.4695 118.848Z" fill="#2B59DB"/>
<path d="M54.1729 121.63C53.8002 121.443 53.4222 121.253 53.0495 121.065C52.9466 121.011 52.8525 121.168 52.9554 121.223C53.3281 121.41 53.7061 121.6 54.0789 121.788C54.1849 121.837 54.2789 121.68 54.1729 121.63Z" fill="#2B59DB"/>
<path d="M49.3229 119.764C49.8952 120.106 50.4706 120.443 51.0377 120.782C51.1375 120.842 51.2315 120.685 51.1318 120.625C50.5594 120.283 49.984 119.946 49.4169 119.607C49.3171 119.547 49.2231 119.704 49.3229 119.764Z" fill="#2B59DB"/>
<path d="M55.4818 120.669C53.2821 124.847 51.0823 129.026 48.8857 133.199C48.8314 133.302 48.9889 133.396 49.0433 133.293C51.243 129.115 53.4427 124.936 55.6393 120.763C55.6937 120.66 55.5361 120.566 55.4818 120.669Z" fill="#FFDB13"/>
<path d="M47.411 115.951C44.7702 119.866 42.1294 123.781 39.4917 127.69C39.4269 127.787 39.5844 127.881 39.6492 127.784C42.29 123.87 44.9309 119.955 47.5685 116.045C47.6333 115.949 47.4758 115.854 47.411 115.951Z" fill="#FFDB13"/>
</svg>
