<svg width="158" height="153" viewBox="0 0 158 153" fill="none" xmlns="http://www.w3.org/2000/svg">
<path d="M93.2426 46.6076C92.1543 47.3621 90.7914 46.761 89.7142 45.995L85.6608 49.0922L50.2528 147.01L58.838 150.002L94.0962 52.0452L93.3785 46.403C93.4331 46.4976 93.3379 46.5526 93.2426 46.6076Z" fill="#2B5ADC"/>
<path d="M88.5392 45.2858L85.5631 49.1491L50.2502 147.012L54.5702 148.555L89.8284 50.5981L90.2706 46.3051C89.6164 46.0519 89.0981 45.594 88.5392 45.2858Z" fill="#2B5ADC"/>
<path d="M107.29 11.1179L108.648 24.4664C108.799 25.3885 109.236 26.1456 109.999 26.5881L121.832 33.0055C123.863 34.1041 123.636 37.0109 121.622 37.9213L109.292 43.3997C108.476 43.7449 107.878 44.4687 107.689 45.4611L105.151 58.6612C104.692 60.9452 101.928 61.6575 100.359 60.0397L91.4215 50.0582C90.7939 49.4111 89.9352 49.0236 89.0094 49.1796L75.6244 50.8508C73.3776 51.1385 71.7119 48.6934 72.8799 46.7572L79.738 35.1007C80.1861 34.3373 80.2799 33.3999 79.8834 32.4932L74.17 20.3978C73.2131 18.3005 75.0072 16.1291 77.296 16.5741L90.498 19.4249C91.3973 19.6628 92.3637 19.3572 93.0164 18.728L102.916 9.47962C104.343 7.7724 107.109 8.82494 107.29 11.1179Z" fill="#FFDB13"/>
</svg>
