<svg width="142" height="180" viewBox="0 0 142 180" fill="none" xmlns="http://www.w3.org/2000/svg">
<path d="M18.1366 112.803H56.6932H91.5815H122.775L126.202 133.522C126.202 133.522 130.647 153.786 130.647 160.657C130.647 167.527 122.4 170.04 122.4 170.04L116.242 172.66L107.807 175.093L102.747 176.35L95.9459 177.526L87.0564 178.328L76.6944 179.103H68.6082H62.557L55.3008 178.676L48.0447 177.767L40.3334 176.59L33.4521 175.494L28.0435 173.783L21.6977 171.511L16.3694 168.784L12.1389 165.442L9.94336 161.539L18.1366 112.803Z" fill="#2B5ADC"/>
<path d="M70.7515 138.947C109.421 138.947 140.769 108.054 140.769 69.9461C140.769 31.838 109.421 0.945312 70.7515 0.945312C32.0818 0.945312 0.733887 31.838 0.733887 69.9461C0.733887 108.054 32.0818 138.947 70.7515 138.947Z" fill="#FC3824"/>
<path d="M61.3804 68.9825C61.3804 92.8026 91.2349 114.805 109.576 127.37C129.577 115.473 141.358 94.0591 141.358 70.2122C141.358 46.3654 130.059 23.7483 110.379 13.0547C92.0382 25.6197 61.3804 45.1356 61.3804 68.9825Z" fill="#FFDB13"/>
<path d="M76.5618 13.2694L72.3848 22.3055C72.1171 22.9204 72.1439 23.6155 72.4919 24.1769L77.6596 32.6784C78.5432 34.122 77.365 35.9132 75.6514 35.726L65.6642 34.6032C64.9948 34.523 64.3254 34.7904 63.8703 35.2983L57.2567 42.7839C56.1322 44.0404 54.0437 43.5057 53.6956 41.8482L51.6875 32.1437C51.5536 31.5021 51.0984 30.9407 50.4826 30.6733L41.2183 26.7969C39.6385 26.1285 39.5314 23.9898 41.0041 23.161L49.7596 18.2687C50.3487 17.9479 50.7236 17.3597 50.8039 16.6914L51.6875 6.82646C51.8481 5.14221 53.8563 4.36691 55.1147 5.51648L62.5315 12.2268C63.0402 12.6813 63.7096 12.8684 64.379 12.708L74.1788 10.4891C75.8924 10.0613 77.258 11.7455 76.5618 13.2694Z" fill="#F3F3F3"/>
<path d="M49.9471 58.0233L45.7701 67.0594C45.5023 67.6743 45.5291 68.3694 45.8772 68.9308L51.0448 77.4322C51.9284 78.8759 50.7503 80.6671 49.0367 80.4799L39.0495 79.3571C38.3801 79.2769 37.7107 79.5443 37.2555 80.0522L30.642 87.5378C29.5174 88.7943 27.429 88.2596 27.0809 86.6021L25.0727 76.8976C24.9389 76.2559 24.4837 75.6945 23.8678 75.4272L14.6036 71.5507C13.0238 70.8824 12.9167 68.7437 14.3893 67.9149L23.1449 63.0226C23.734 62.7018 24.1088 62.1136 24.1891 61.4453L25.0727 51.5804C25.2334 49.8961 27.2415 49.1208 28.5 50.2704L35.9168 56.9806C36.4255 57.4351 37.0949 57.6223 37.7643 57.4619L47.564 55.2429C49.2777 54.8419 50.6432 56.4994 49.9471 58.0233Z" fill="#F3F3F3"/>
<path d="M71.2351 102.937L67.0582 111.973C66.7904 112.588 66.8172 113.283 67.1653 113.845L72.3329 122.346C73.2165 123.79 72.0384 125.581 70.3248 125.394L60.3376 124.271C59.6682 124.191 58.9988 124.458 58.5436 124.966L51.9301 132.452C50.8055 133.708 48.717 133.174 48.369 131.516L46.3608 121.812C46.2269 121.17 45.7718 120.609 45.1559 120.341L35.8916 116.465C34.3119 115.796 34.2048 113.658 35.6774 112.829L44.433 107.937C45.022 107.616 45.3969 107.028 45.4772 106.359L46.3608 96.4944C46.5215 94.8102 48.5296 94.0349 49.7881 95.1844L57.2048 101.895C57.7136 102.349 58.383 102.536 59.0523 102.376L68.8521 100.157C70.5658 99.7292 71.9581 101.387 71.2351 102.937Z" fill="#F3F3F3"/>
</svg>
