<svg width="188" height="463" viewBox="0 0 188 463" fill="none" xmlns="http://www.w3.org/2000/svg">
<path d="M136.658 102.912L134.154 109.902C133.68 110.917 133.003 112.315 132.056 113.961C131.266 115.337 130.905 115.855 131.086 116.103C131.537 116.667 134.335 115.292 136.117 114.119C136.613 113.803 138.418 112.586 140.336 110.286C142.028 108.256 142.885 107.242 142.705 106.204C142.479 104.536 139.952 103.25 136.658 102.912Z" fill="#FC3824"/>
<path d="M57.0622 109.518C56.3628 109.744 51.8731 111.164 46.0749 113.352C36.1254 117.072 30.8911 119.034 24.6191 122.822C20.152 125.528 14.7598 128.865 9.63843 135.134C7.65304 137.569 5.05849 140.816 3.14078 145.777C0.0724512 153.782 0.77185 161.156 1.65174 165.395C3.00542 171.934 5.93838 176.76 7.63048 179.533C11.5561 185.937 14.0604 186.884 15.7751 192.341C16.9483 196.062 16.0909 196.625 16.9483 203.142C17.9184 210.628 19.2495 211.576 20.7837 219.265C22.0922 225.872 20.8965 224.135 22.4532 237.056C23.5136 245.873 24.3709 249.187 22.7916 254.171C21.7989 257.26 21.077 257.237 20.2873 260.485C19.5428 263.574 19.8361 265.085 20.1294 273.946C20.3325 280.643 20.2197 280.891 20.6258 282.267C22.0697 287.002 25.0478 288.513 27.1234 291.422C31.207 297.172 28.7704 304.297 27.2813 313.362C26.1533 320.307 25.2283 330.477 26.6271 343.623V368.224L26.1307 373.704L31.6131 374.042C31.6131 374.042 38.4266 375.71 38.4266 376.207C38.4266 376.703 48.2407 378.371 48.2407 378.371L86.8431 380.356C94.6041 380.401 102.388 380.468 110.149 380.513C114.909 380.288 119.692 380.062 124.453 379.86C133.094 377.965 141.757 376.094 150.398 374.2C147.668 357.288 144.961 340.399 142.231 323.487C141.283 312.212 140.561 302.494 139.885 294.218C139.524 289.889 139.14 285.424 141.554 280.914C143.224 277.802 144.645 277.644 146.202 273.924C147.307 271.308 146.901 270.654 148.368 263.461C149.451 258.117 149.699 258.32 149.857 256.155C150.24 250.946 148.751 250.337 149.518 247C150.285 243.64 152.474 241.34 155.001 238.68C157.776 235.771 159.468 235.139 161.16 232.028C162.085 230.314 162.017 229.592 162.829 227.698C163.8 225.443 165.514 222.286 168.808 218.881L176.795 202.421C179.683 198.159 183.608 191.191 185.774 181.811C187.918 172.475 187.308 165.124 186.947 161.02C186.225 153.128 185.571 145.958 180.63 138.742C177.02 133.488 172.847 130.692 169.485 128.437C161.385 123.003 153.602 121.199 146.021 119.462C140.697 118.222 136.185 117.613 133.049 117.298C130.386 116.644 76.9838 103.295 57.0622 109.518Z" fill="#FC3824" stroke="black" stroke-miterlimit="10"/>
<path d="M30.101 459.165L30.6199 458.894C44.4499 451.904 43.7505 452.265 44.5627 451.836C53.9482 447.033 58.641 444.621 60.1977 443.2C61.1227 442.366 62.4538 441.08 64.6874 440.201C67.8009 438.983 70.8692 439.254 73.0125 439.705C74.8851 439.976 77.7052 440.179 80.9992 439.547C86.5944 438.442 89.7981 435.601 90.9713 436.729C91.8737 437.608 90.0237 439.322 90.1365 443.38C90.2493 447.011 91.806 448.386 90.8133 450.19C90.317 451.07 89.1438 451.566 86.82 452.513C83.4358 453.911 81.473 454.723 79.3297 454.001C78.0662 453.573 76.7351 452.626 76.329 452.332C74.84 451.25 74.6144 450.664 73.8247 450.506C72.3131 450.19 70.9594 451.972 69.6734 453.167C68.2972 454.43 65.1612 455.399 58.8666 457.316C54.7153 458.579 51.0378 459.458 48.2628 460.089C47.6762 460.225 46.9091 460.428 45.8939 460.631C43.5024 461.127 41.4944 461.397 39.3962 461.623C31.0486 462.547 30.3266 461.848 30.0784 461.465C29.8528 461.104 29.6498 460.428 30.101 459.165Z" fill="#2B5ADC"/>
<path d="M42.1487 458.263L48.6463 455.918L55.4598 452.761L59.6111 449.785L58.6184 447.936L54.2866 449.942L45.1493 454.091L40.998 457.248L42.1487 458.263Z" fill="#FFDB13"/>
<path d="M99.4102 440.335C98.4627 441.282 98.8462 443.402 99.5682 447.641C100.019 450.257 100.516 451.226 101.057 451.971C102.118 453.369 103.426 454.023 104.374 454.474C106.337 455.398 110.916 456.841 113.195 454.812C114.03 454.068 114.368 453.03 115.699 452.647C116.489 452.422 117.189 452.557 117.527 452.647C121.453 453.594 125.672 456.48 125.672 456.48C127.206 457.518 131.244 457.946 139.321 458.803C146.857 459.592 144.352 458.871 153.129 459.637C153.129 459.637 155.385 459.84 163.935 458.645C164.454 458.577 165.628 458.397 166.259 457.473C166.891 456.571 166.643 455.421 166.598 455.15C166.034 452.467 160.461 451.362 152.79 448.836C144.984 446.266 146.586 446.04 139.66 443.853C138.283 443.424 136.185 442.455 132.011 440.538C129.823 439.523 127.725 438.509 127.183 436.547C126.89 435.487 127.251 434.811 126.845 434.563C125.92 433.976 123.754 437.517 119.941 439.614C115.903 441.823 111.548 441.575 109.089 441.418C103.336 441.034 100.854 438.892 99.4102 440.335Z" fill="#2B5ADC"/>
<path d="M150.105 454.182L143.63 451.859L136.794 448.702L132.643 445.703L133.635 443.877L137.967 445.861L147.127 450.033L151.278 453.19L150.105 454.182Z" fill="#FFDB13"/>
<path d="M124.79 372.982C125.535 373.659 125.219 374.876 124.971 380.378C124.858 382.678 124.881 384.978 124.79 387.278C124.565 392.239 125.309 397.358 126.776 407.392C127.746 413.909 127.949 420.493 128.919 427.01C129.077 428.024 129.528 431.001 128.175 434.113C127.701 435.172 127.159 435.984 126.776 436.48C125.67 437.675 123.82 439.389 121.113 440.629C117.48 442.32 114.277 442.253 109.471 442.118C106.561 442.027 102.477 441.712 97.6717 440.629L95.8442 439.299C95.032 433.346 94.1972 427.393 93.385 421.417C91.6929 413.413 90.1362 405.16 88.7374 396.636C88.2636 393.795 87.835 390.954 87.4063 388.158C86.9551 384.933 86.5264 381.731 86.0752 378.507C88.8954 379.251 91.7155 379.995 94.5357 380.761L103.019 380.108L111.998 378.281C121.835 371.494 124.136 372.373 124.79 372.982Z" fill="#FFDB13"/>
<path d="M62.7475 439.661C60.8975 438.128 61.2359 436.55 60.0853 427.688C58.8895 418.398 58.5962 420.675 56.5883 406.244C55.7535 400.223 55.8212 399.975 55.0992 394.946C54.1291 388.227 53.1364 382.77 52.437 379.162L65.4097 380.493L76.3971 381.327H83.549L85.038 389.151L88.1966 407.1C89.3021 414.316 90.4076 420.044 91.1973 423.9C92.4156 429.898 93.9046 436.324 91.6485 437.654C91.0619 437.993 90.7912 437.654 88.3771 438.038C86.7076 438.286 85.8954 438.602 83.7295 439.21C83.7295 439.21 82.5563 439.526 78.9014 440.383C75.6977 441.059 66.8988 443.111 62.7475 439.661Z" fill="#FFDB13"/>
<path d="M66.1089 138.156C65.3192 136.217 67.1016 133.082 69.4254 131.504C74.5694 128.031 79.6682 134.052 92.5507 133.578C96.0026 133.443 99.4544 133.33 103.854 132C108.953 130.467 113.081 127.986 114.164 129.249C114.39 129.497 114.277 129.677 114.164 133.15C114.074 135.608 114.119 135.675 114.006 135.969C113.307 137.637 111.051 137.863 107.012 138.877C101.665 140.208 102.252 140.636 99.3642 141.132C95.2355 141.809 92.0543 141.29 89.8885 140.974C74.9529 138.81 67.4174 141.425 66.1089 138.156Z" fill="#FFDB13"/>
<path d="M115.022 135.744C114.796 135.834 111.705 137.209 107.464 138.743C104.847 139.69 103.538 140.163 102.297 140.411C100.56 140.772 97.9429 140.682 92.7312 140.501C85.6019 140.253 85.6921 140.253 85.3311 140.253C82.7591 140.298 81.6762 140.456 79.6682 140.118C78.4499 139.915 77.3896 139.622 74.795 138.63C68.9065 136.397 68.9516 135.924 67.1919 135.518C63.8754 134.751 62.9955 136.262 57.5356 137.096C52.3014 137.908 52.2789 136.668 44.3147 137.096C36.6214 137.502 34.2299 138.788 33.3725 139.306C32.4475 139.847 29.6725 141.516 27.845 144.831C25.9048 148.371 26.198 151.866 26.8523 158.721C27.1231 161.495 27.6194 165.351 28.6798 169.928L34.0042 187.133L39.0805 202.511L41.9909 207.427L42.4873 226.459L43.7281 256.471L44.2245 290.633L43.8861 310.837L43.48 334.942L43.2318 355.552C43.5702 363.084 43.9086 370.615 44.2245 378.169C49.8422 379.161 55.46 380.153 61.0778 381.168L91.0166 381.799C98.4618 381.754 105.907 381.709 113.352 381.664C119.85 380.582 126.325 379.499 132.823 378.417C131.491 363.196 130.16 347.998 128.829 332.778C128.829 321.481 128.829 310.161 128.829 298.864C129.235 290.881 129.664 282.899 130.07 274.917C131.446 266.979 132.823 259.042 134.176 251.105L137.042 214.936L143.787 200.211L154.143 178.023L158.881 157.075L154.639 142.486L148.412 138.743C126.708 134.188 118.248 134.345 115.022 135.744Z" fill="#2B5ADC"/>
<path d="M84.6322 156.377C82.9175 158.249 80.8193 158.812 79.1273 159.263C77.3224 159.737 74.9309 160.391 72.968 159.083C71.9076 158.384 71.4113 157.392 71.2759 157.099C70.8247 156.106 70.6442 154.844 72.6747 149.206C74.1863 145.035 74.7955 144.268 75.6979 143.93C76.4425 143.659 77.1193 143.772 78.6083 144.155C83.3236 145.418 85.67 146.027 86.392 147.064C88.1969 149.657 86.8206 153.964 84.6322 156.377Z" fill="#FC3824"/>
<path d="M88.5128 145.486C90.611 143.998 93.6117 143.547 96.0934 144.787C96.5446 145.012 97.8532 145.689 98.688 147.177C100.312 150.018 98.8459 153.22 98.4398 154.077C98.0337 154.956 96.9959 157.144 94.4464 158.316C92.0775 159.421 89.8665 158.948 89.2348 158.79C88.2647 158.542 85.3542 157.82 84.3841 155.114C83.6847 153.175 84.2262 150.92 85.7152 149.229C86.0085 148.417 86.7531 146.726 88.5128 145.486Z" fill="#FC3824"/>
<path d="M109.269 143.705C108.254 142.916 106.494 143.592 102.997 145.035C99.5904 146.433 99.1617 147.065 98.9587 147.403C98.3721 148.44 98.8007 148.914 98.4623 151.575C98.0788 154.596 97.4019 154.754 97.7404 155.904C98.2141 157.55 99.9288 158.407 102.591 159.715C104.373 160.594 105.298 161.023 106.314 160.752C107.758 160.369 108.48 158.971 109.269 157.482C110.51 155.137 110.691 152.995 110.758 151.958C110.916 149.996 110.623 148.666 110.081 146.005C109.72 144.201 109.517 143.908 109.269 143.705Z" fill="#FC3824"/>
<path d="M28.1836 167.92C28.6799 171.009 29.4244 175.023 30.5074 179.713C33.0342 190.605 35.4708 196.332 36.8696 199.331C37.2757 200.188 37.569 200.819 37.8172 201.315C40.0508 205.848 45.488 216.874 53.9485 227.247C60.2431 234.959 65.8609 239.423 75.2464 246.865C80.6611 251.171 86.8203 256.02 95.8674 261.003C102.906 264.881 109.179 267.474 113.826 269.143L119.985 261.003L124.475 253.178L123.482 250.36C120.121 248.556 115.812 246.12 110.916 242.964C100.492 236.244 93.3405 230.043 91.1295 228.081C86.4142 223.932 80.0519 218.272 73.3287 209.636C66.3798 200.707 62.5218 193.017 57.6937 183.457C54.2869 176.669 51.3089 170.784 48.0375 162.351C42.2167 147.265 41.4045 139.441 36.7343 138.629C33.2373 138.02 29.65 141.741 28.1159 143.996C25.0927 148.483 26.0854 155.022 28.1836 167.92Z" fill="#FFDB13"/>
<path d="M136.974 163.096C132.44 171.146 130.071 176.828 127.815 181.721C125.062 187.742 120.64 197.37 114.684 206.322C111.074 211.734 104.058 221.182 93.2281 230.089C86.1439 235.907 83.6171 236.426 66.9443 248.377C61.868 252.03 57.7167 255.096 54.9642 257.193L51.8057 259.358L52.302 266.01L56.2954 273.834L62.2741 271.85C67.5083 270.069 74.8858 267.183 83.2335 262.537C86.4823 260.733 88.8287 259.245 91.2202 257.712C96.7251 254.194 104.937 248.918 114.007 240.755C121.362 234.148 126.303 228.308 127.972 226.301C136.456 216.086 141.329 207.112 144.939 200.37C149.225 192.342 151.098 187.381 151.639 185.916C153.173 181.744 152.767 181.947 155.43 173.446C158.746 162.87 159.649 161.698 159.761 157.662C159.806 156.128 159.806 151.37 157.438 146.184C156.264 143.659 154.505 139.983 150.94 139.036C150.15 138.833 149.361 138.63 148.436 138.878C144.69 139.893 145.187 146.793 141.126 155.835C139.975 158.338 139.84 157.977 136.974 163.096Z" fill="#FFDB13"/>
<path d="M53.7234 258.705C55.0545 256.517 57.4911 256.472 57.4686 255.706C57.446 254.713 53.3624 254.24 51.738 254.037C49.5947 253.789 48.9179 253.969 48.4215 254.375C47.4514 255.187 47.9703 256.292 47.0904 257.036C46.0751 257.893 44.7891 256.923 42.6007 257.036C40.4799 257.149 38.0659 258.276 36.9378 260.035C36.0579 261.433 36.6671 262.155 36.5994 266.529C36.5317 270.791 35.9451 270.926 36.1031 274.354C36.261 277.894 37.0055 280.081 37.2762 280.848C38.0208 282.922 38.6074 284.546 40.2769 285.673C42.33 287.049 44.6763 286.711 44.9245 286.666C46.8873 286.35 47.3386 285.313 51.9185 282.021C53.8362 280.622 54.8289 279.923 55.5734 279.698C58.3485 278.819 59.6119 280.171 62.229 279.202C62.7705 278.999 65.0943 278.142 65.726 276.045C66.3352 274.038 65.2297 271.468 63.5601 270.881C62.5223 270.52 61.3491 270.971 60.3113 271.377C58.5741 272.054 58.4161 272.753 57.6491 272.708C56.3405 272.64 55.5283 270.52 54.2423 267.228C52.7533 263.372 52.8435 261.681 53.0691 260.576C53.1594 259.99 53.2947 259.381 53.7234 258.705Z" fill="#F5F4F1"/>
<path d="M117.165 247.135C117.346 246.279 120.031 245.873 122.174 245.58C122.896 245.467 123.189 245.467 123.325 245.467C125.13 245.489 126.596 246.369 127.318 246.955C130.161 249.323 129.258 253.855 130.815 254.103C131.176 254.148 131.153 253.968 132.642 253.449C134.47 252.795 135.508 252.434 136.297 252.863C136.997 253.246 137.2 254.081 137.471 255.185C137.899 257.012 137.696 258.5 137.628 259.019C137.11 263.19 137.786 263.055 137.29 265.829C136.794 268.557 136.297 271.421 134.131 273.315C132.236 274.961 129.755 275.029 124.814 275.141C124.069 275.164 120.459 275.209 115.992 274.059C113.262 273.36 111.909 272.638 111.006 271.398C110.284 270.406 109.54 268.715 110.171 267.903C110.781 267.114 112.089 267.971 113.668 267.565C116.286 266.888 116.218 263.619 119.647 257.914C121.881 254.216 123.167 253.494 122.806 251.938C122.151 249.052 116.917 248.376 117.165 247.135Z" fill="#F5F4F1"/>
<path d="M155.294 67.3275C156.354 68.3422 154.572 70.0334 152.97 78.0158C151.594 84.8707 152.203 87.1031 149.969 89.2452C147.894 91.2295 146.901 89.7413 142.795 92.2668C139.591 94.2511 138.734 96.0325 135.259 97.0923C134.853 97.205 131.943 98.107 131.401 97.205C131.108 96.7541 131.582 95.9874 133.139 93.7099C135.395 90.4629 135.665 90.2825 136.455 89.0197C137.448 87.4864 138.779 85.3893 139.365 82.6158C139.839 80.4285 139.523 79.3236 139.614 78.1285C140.133 71.4314 152.835 64.9824 155.294 67.3275Z" fill="#FC3824"/>
<path d="M136.14 105.708C136.817 106.565 137.155 106.993 137.629 107.332C139.073 108.346 140.945 107.963 142.75 107.58C145.39 107.016 147.465 105.933 148.977 104.964C151.684 103.228 153.557 102.032 154.347 99.5972C155.204 96.9815 154.256 94.6138 153.963 93.9825C153.602 93.1707 152.767 91.2766 150.85 90.4874C149.541 89.9462 148.39 90.1942 146.473 90.6227C145.48 90.8481 142.885 91.5021 139.479 93.6217C136.952 95.2001 135.688 95.9893 134.854 97.6129C134.651 97.9962 133.432 100.522 134.357 102.98C134.763 103.972 135.463 104.851 136.14 105.708Z" fill="#FFDB13"/>
<path d="M139.253 98.8348C140.855 98.3162 141.058 97.3015 142.367 96.8505C143.427 96.4671 144.465 96.7152 144.984 96.8505C145.457 96.9632 145.796 97.0534 146.112 97.3466C146.721 97.9328 146.834 99.0377 146.495 99.8495C146.112 100.706 145.435 100.639 144.871 101.721C144.781 101.879 144.329 102.781 144.623 103.097C144.961 103.435 146.157 102.871 146.879 102.352C147.217 102.104 148.503 101.135 148.864 99.3534C148.954 98.9024 149.203 97.775 148.616 96.6024C148.165 95.7005 147.465 95.2495 147.24 95.1142C145.525 94.0318 143.449 94.6407 142.254 94.9789C141.735 95.1367 138.982 95.9485 138.396 97.7299C138.328 97.9103 138.102 98.5868 138.396 98.8573C138.576 99.0152 138.96 98.9475 139.253 98.8348Z" fill="#FC3824"/>
<path d="M54.1742 114.796C54.3547 110.67 57.784 103.319 57.784 103.319C57.784 103.319 60.1304 99.4853 62.0707 96.0804C64.8457 91.2549 65.3646 89.8568 68.275 84.8509C69.1775 83.295 69.922 82.0774 70.3958 81.2656C72.0653 78.5146 72.8775 77.1391 73.1483 76.8685C74.5696 75.3352 75.5623 75.6058 83.0075 73.6215C87.0009 72.5617 88.1515 72.0881 89.618 72.7872C90.0466 72.9901 90.904 73.4862 92.6186 76.3725C95.0552 80.4764 94.5815 81.5813 95.8674 83.1146C96.3412 83.6784 97.8303 85.1892 106.968 85.4823C112.924 85.6627 115.902 85.7754 119.196 84.9862C122.76 84.1519 126.822 82.4382 134.921 79.0107C137.064 78.1087 139.366 77.094 140.2 77.9734C140.516 78.3117 140.606 78.9205 139.027 83.8813C138.057 86.948 137.561 88.4813 137.155 89.1127C135.869 91.097 134.718 91.3902 132.913 94.2313C131.537 96.3961 131.808 96.847 131.92 96.9823C132.394 97.501 134.041 96.148 134.786 96.7343C135.44 97.2529 134.65 98.6284 134.65 100.838C134.65 102.958 135.395 103.747 135.643 105.213C135.936 106.859 135.643 109.407 132.642 113.06C132.056 114.548 131.108 116.6 129.529 118.787C128.649 120.005 124.926 124.921 114.48 129.273C111.322 130.58 104.486 133.106 94.7619 133.918C88.9186 134.414 79.7587 134.459 68.8165 131.505C56.7236 124.402 53.9937 118.832 54.1742 114.796Z" fill="#2B5ADC"/>
<path d="M44.4058 95.3135C44.09 94.8175 44.3156 94.0959 44.4058 93.8253C44.7668 92.6527 45.8949 92.089 46.3912 91.841C48.6699 90.7135 51.2193 91.3449 55.6188 91.7057C58.8225 91.9763 60.4018 92.1116 62.2292 91.841C64.0341 91.5704 66.7189 91.1645 69.336 89.338C70.9153 88.2331 71.4793 87.3086 73.5775 86.339C74.7959 85.7753 76.8038 85.0988 77.1422 85.64C77.255 85.8204 77.0745 86.0684 75.4727 88.5488C74.9989 89.2704 74.6154 89.8792 74.3672 90.8037C74.1867 91.4351 74.0062 92.1792 74.2995 92.4273C74.6379 92.6978 75.3373 92.2469 77.5483 91.0518C79.9849 89.7214 79.624 90.0145 80.4136 89.5184C82.7825 88.0753 82.9405 87.4439 84.0009 87.3988C84.5198 87.3762 85.332 87.7821 86.9113 88.5714C88.671 89.4508 89.5509 89.9017 90.2729 90.5557C91.2881 91.4576 91.8522 92.4047 92.3936 93.3067C93.3638 94.9302 93.1382 95.2008 93.7699 96.0577C94.4467 97.0047 95.101 97.1851 98.3949 98.6733C102.636 100.59 101.305 100.162 103.381 101.041C104.486 101.515 106.133 102.168 107.126 103.161C108.006 104.04 108.548 105.077 108.548 105.077C108.638 105.235 108.705 105.37 108.728 105.461C108.773 105.528 108.818 105.641 108.863 105.776C109.112 106.43 109.36 107.693 108.863 108.144C108.232 108.708 106.675 107.828 106.359 107.648C104.915 106.814 104.712 105.821 103.855 105.032C103.133 104.356 102.118 103.995 97.7407 104.153C91.3107 104.401 90.5662 105.325 88.5131 104.401C88.3777 104.356 88.5357 104.401 84.407 101.154C80.91 98.4028 80.91 98.4253 80.5715 98.042C79.7368 97.0724 79.3081 96.238 78.4508 96.1704C77.9996 96.1253 77.7965 96.3282 76.4654 97.1626C74.5026 98.4028 75.0891 97.9292 72.8556 99.4175C71.547 100.274 71.6147 100.274 71.3665 100.41C68.5238 102.078 64.5756 100.793 63.0189 100.274C62.5 100.116 62.4774 100.071 57.1529 97.5233C54.6035 96.3057 53.3401 95.6969 53.1596 95.6518C48.7376 94.4792 45.2406 96.6665 44.4058 95.3135Z" fill="#FFDB13"/>
<path d="M84.4969 75.8965L77.9992 84.4877L73.8931 90.9818L74.1412 92.4701L77.3675 92.222L82.8725 88.1181L87.7231 85.7504L87.3621 83.3828L87.8585 81.0151L84.4969 75.8965Z" fill="#FC3824"/>
<path d="M151.955 69.7428C147.217 73.6212 144.487 75.1545 144.487 75.1545C138.937 78.2663 134.019 80.4085 131.762 81.3781C124.678 84.4448 121.113 85.9781 119.151 86.3615C113.871 87.4213 110.058 86.9252 103.177 85.9781C97.4467 85.2114 95.8674 84.3095 94.9424 82.9791C93.8595 81.4006 94.3784 80.2055 92.8216 76.8683C91.7161 74.5232 91.107 73.1702 89.7082 72.4938C87.9258 71.6369 85.9179 72.3585 82.3532 73.6212C80.0745 74.433 79.5105 74.9291 77.2318 75.4928C75.2013 75.9889 74.1183 76.2369 72.8549 75.8761C70.2152 75.0869 69.0421 72.1555 68.7488 71.3888C67.6207 68.5702 68.2299 66.0222 68.8841 63.2937C69.561 60.4525 69.8994 59.0319 71.0049 58.3104C73.1933 56.9123 75.9909 59.528 81.8569 62.0535C87.4295 64.4437 92.9796 65.3457 104.057 67.1722C105.14 67.3526 106.404 67.5555 108.163 67.8035C111.728 68.2996 119.241 69.179 129.123 69.0437C132.304 68.9986 135.485 68.9761 139.862 68.5477C148.255 67.7359 153.805 66.2026 154.211 67.3075C154.346 67.6006 154.03 68.029 151.955 69.7428Z" fill="#FFDB13"/>
<path d="M114.436 74.0286C114.661 73.9835 115.045 73.9384 115.316 74.1639C115.812 74.5923 115.541 75.7874 115.18 76.5315C114.346 78.2678 112.383 78.9443 111.074 79.3953C110.081 79.7335 109.337 79.8463 108.209 80.0267C106.449 80.2972 105.547 80.4325 104.464 80.162C103.832 80.0041 102.456 79.6659 101.598 78.4257C100.177 76.3512 101.576 73.6904 101.847 73.1943C102.072 72.7658 102.681 71.6384 103.336 71.706C103.922 71.7511 104.261 72.6756 104.464 73.1943C105.253 75.2913 104.441 76.5992 105.253 77.2757C105.569 77.5463 106.066 77.5688 107.058 77.5914C107.464 77.6139 108.277 77.6365 109.224 77.3659C110.826 76.9149 111.977 75.8551 112.428 75.4492C113.127 74.7727 113.556 74.1639 114.436 74.0286Z" fill="#FC3824"/>
<path d="M81.8796 65.5493C82.1955 65.414 82.4211 65.3238 82.6241 65.414C83.0302 65.6169 83.0979 66.4963 82.8723 67.1503C82.6241 67.8493 82.0375 68.2326 81.3833 68.6385C80.6162 69.112 79.9619 69.3375 79.3979 69.5179C76.9613 70.2846 75.7204 70.6679 74.7728 70.3973C74.4118 70.3071 73.171 69.9463 72.6521 68.9091C72.0655 67.7365 73.0807 66.9924 72.6521 64.9179C72.4716 64.0159 72.1106 63.2718 72.4039 63.0463C72.6069 62.8885 73.013 63.0689 73.2838 63.1816C73.3515 63.2042 73.8478 63.4071 74.1637 63.813C74.9082 64.7375 74.0057 65.7748 74.66 67.263C74.7954 67.5787 75.0661 68.1875 75.6527 68.4356C76.2393 68.6836 76.9161 68.3228 78.2698 67.6914C79.646 67.0601 80.3229 66.7218 80.8869 66.2032C80.9095 66.1355 81.293 65.7748 81.8796 65.5493Z" fill="#FC3824"/>
<path d="M78.3833 44.6001C79.3083 43.2246 78.7443 42.3452 79.0827 37.5648C79.5113 31.8598 80.4364 31.702 82.2413 22.0961C83.3919 15.9627 84.362 9.08525 84.362 9.08525C85.1742 3.22248 84.9937 3.13228 85.4675 2.52346C88.6712 -1.71577 96.6805 2.56856 113.85 1.73424C117.301 1.5764 118.542 1.32836 121.633 1.46365C125.491 1.64404 127.589 2.23032 137.471 4.89111C148.955 7.98034 151.211 8.54407 155.295 10.1676C158.318 11.3627 160.754 12.5127 162.424 13.3245C161.747 20.6078 160.8 26.403 160.055 30.349C159.062 35.603 158.589 40.9471 157.415 46.1785C156.468 50.4403 155.678 53.0109 156.896 53.958C158.318 55.0629 161.837 53.507 167.049 51.1844C167.049 51.1844 169.35 50.1697 173.524 49.7413C174.201 49.6736 175.058 49.606 175.645 50.1472C176.683 51.0942 176.074 53.2364 175.916 53.8452C175.036 56.9795 172.238 59.0541 168.516 61.2413C163.439 64.2403 160.867 65.7286 155.971 67.1717C149.88 68.9531 144.623 69.359 136.975 69.4041C128.402 69.4717 119.67 69.5168 107.555 67.8257C99.9744 66.7658 90.1151 65.3903 78.3833 61.2413C65.749 56.7766 61.1239 52.6952 54.3555 52.5374C53.4305 52.5148 50.1366 52.5148 49.3469 50.8236C48.625 49.2903 50.3847 47.1707 50.5427 46.9903C52.7311 44.4197 56.4989 44.8256 57.0178 44.8707C71.66 48.7266 76.6912 47.103 78.3833 44.6001Z" fill="#2B5ADC"/>
<path d="M86.3915 7.34876C87.2714 10.0772 91.2873 11.0919 96.2508 12.2645C105.072 14.3841 109.472 15.4213 110.555 15.5792C115.338 16.2106 115.879 16.0076 133.387 16.5037C137.651 16.6164 141.96 16.2106 146.179 16.7743C150.781 17.3831 155.384 18.5557 159.106 16.1204C160.28 15.3537 160.438 14.8351 160.438 14.5419C160.438 13.0311 156.85 12.039 149.608 9.91935C137.403 6.37914 138.057 6.44679 134.966 5.70267C129.1 4.28208 126.167 3.56051 123.099 3.19972C119.173 2.72619 114.683 2.92913 105.681 3.33501C100.921 3.53796 96.1605 4.57521 91.4226 3.98894C90.3848 3.85364 87.5872 3.47031 86.572 4.8909C85.9403 5.79287 86.3012 7.05562 86.3915 7.34876Z" fill="#FC3824"/>
<path d="M81.2482 37.6088C84.0909 36.0078 87.3848 38.9392 93.2508 41.4421C97.5825 43.2912 103.448 43.9451 115.158 45.2755C127.679 46.6735 133.951 47.3951 139.05 46.4706C144.059 45.5686 153.58 43.0206 155.159 45.5461C155.227 45.6588 155.655 46.4029 155.903 47.4627C156.219 48.8833 155.949 49.7853 155.813 51.2059C155.542 54.1373 156.332 54.4981 155.949 55.8285C155.768 56.4373 155.046 58.2412 150.534 59.7745C145.074 61.6236 140.156 61.0373 138.26 60.8344C128.334 59.7294 131.808 61.2853 118.858 60.0451C103.809 58.602 107.667 57.3167 93.2508 55.6932C89.28 55.2422 83.0982 54.6784 79.917 50.4167C79.5561 49.9431 78.7439 48.7255 78.3378 46.9892C77.5255 43.4715 78.7213 39.0294 81.2482 37.6088Z" fill="#FC3824"/>
</svg>
