<svg width="535" height="691" viewBox="0 0 535 691" fill="none" xmlns="http://www.w3.org/2000/svg">
<path d="M86.8005 221.364L70.7841 208.914C56.7855 199.324 52.7079 190.407 51.8251 183.72C50.8582 176.569 52.9601 167.737 48.2098 164.75C45.8557 163.278 44.2583 164.75 40.6851 163.11C36.187 161.007 34.2112 156.507 32.4877 152.637C31.4788 150.282 28.8724 144.141 30.2176 136.612C30.68 134.004 31.3526 130.513 34.1271 128.116C36.3551 126.181 37.4481 127.106 38.7093 125.508C41.1474 122.437 39.6341 116.086 37.9105 108.81C37.5322 107.211 37.322 106.496 37.7424 105.866C39.2978 103.678 46.0659 107.127 54.8938 108.557C59.9383 109.399 61.9982 108.936 70.5319 108.81C83.4796 108.599 83.2273 109.483 105.928 110.114C118.875 110.492 125.307 110.66 131.949 110.282C146.915 109.441 154.397 109.02 159.904 106.581C160.577 106.286 167.429 103.258 176.593 101.996C180.335 101.491 182.268 101.575 183.614 102.753C185.295 104.225 185.043 106.37 184.58 115.834C184.118 125.592 184.16 127.19 182.773 129.756C182.058 131.102 180.545 133.836 177.56 135.981C175.963 137.117 175.626 136.864 175.122 137.621C173.398 140.019 175.963 143.552 177.392 150.239C177.939 152.805 178.149 154.95 178.191 156.296L185.589 163.11L191.811 167.19L211.905 168.326L219.766 169.966L225.147 174.046L224.18 176.485L215.016 176.822L203.413 180.103C203.413 180.103 190.003 181.238 189.499 181.238C188.994 181.238 180.335 179.766 180.335 179.766L190.298 198.567L193.24 219.345L192.904 232.931L183.74 242.605L169.657 247.694L145.275 245.717L122.365 239.997L101.262 230.996L86.8005 221.364Z" fill="#2B5ADC"/>
<path d="M57.1645 162.143C53.5913 164.919 45.7302 162.353 45.7302 162.353C45.7302 162.353 39.7188 159.619 36.1456 155.035C33.9176 152.175 33.2029 149.314 32.4463 146.412C31.6896 143.51 30.8068 140.019 31.8998 135.813C32.4042 133.92 33.1189 131.144 35.7252 129.252C38.2895 127.401 41.1481 127.569 42.0309 127.611C45.2258 127.822 47.4118 129.462 48.6729 130.429C51.8678 132.911 51.3633 134.425 54.9786 137.622C57.669 139.977 58.4677 139.556 59.4346 141.239C60.6116 143.216 60.3173 145.066 59.5606 150.408C58.0893 160.671 58.1734 161.344 57.1645 162.143Z" fill="#FFDB13"/>
<path d="M56.2809 146.202C56.407 144.94 55.4401 144.014 51.9089 140.523C49.849 138.462 49.5127 138.084 48.6299 137.579C46.7803 136.486 45.2249 136.233 44.7204 136.149C43.2491 135.981 41.8618 135.771 41.0211 136.57C40.3485 137.201 40.6428 137.789 40.2644 141.281C40.0122 143.594 39.8441 143.888 39.8441 145.445C39.8441 146.917 39.844 147.716 40.1803 148.725C41.0211 151.249 43.2071 152.679 43.123 152.763C43.0389 152.847 41.9879 151.838 41.9039 151.88C41.8198 151.964 43.0389 153.899 45.1828 154.95C46.5701 155.623 49.2185 156.38 50.3956 155.076C50.858 154.572 51.1943 153.646 50.8159 153.015C50.2274 151.964 48.3777 152.931 46.3599 151.796C44.8886 150.997 44.216 149.651 43.6275 148.515C42.6606 146.622 42.5765 144.898 42.5344 143.93C42.4924 142.837 42.4504 142.038 42.8708 141.112C43.2911 140.145 44.1739 138.925 44.1739 138.925C44.1739 138.925 45.8134 139.556 46.3599 139.808C47.6211 140.355 48.3777 141.238 49.723 142.879C51.6147 145.108 51.993 146.37 53.7586 147.337C54.4732 147.716 55.0617 147.884 55.4821 147.674C56.1547 147.337 56.2388 146.412 56.2809 146.202Z" fill="#F5F4F1"/>
<path d="M42.872 108.598L44.3853 114.276L58.6782 118.524L72.4246 124.497L84.4054 135.517L104.457 147.42L111.099 149.691H119.297L128.881 145.779L135.229 136.063L141.114 129.418L146.327 126.81L152.423 127.02L160.956 132.362L168.355 135.979L175.123 135.727L179.243 131.731L182.396 124.076L183.278 115.664L182.311 107.042L182.101 104.896L173.021 108.135L161.166 111.206L139.012 113.056L115.387 113.813L74.3583 113.729L59.0986 111.332L47.6643 108.808L42.872 108.598Z" fill="#FC3824"/>
<path d="M93.9047 125.383L94.283 125.804C101.261 133.627 101.261 133.585 101.556 133.879C105.171 137.37 109.501 138.506 111.35 139.011C114.966 139.936 118.707 140.946 121.692 138.885C123.794 137.455 124.466 135.225 125.727 131.019C126.4 128.706 127.283 125.762 125.937 124.584C125.349 124.079 124.298 123.827 123.541 124.248C121.986 125.089 123.205 127.949 121.355 131.987C120.809 133.122 120.431 134.006 119.506 134.721C117.025 136.613 113.368 135.52 111.771 135.057C107.945 133.921 105.339 131.524 104.456 130.683C101.64 128.033 100.589 127.15 98.5709 125.467C98.4868 125.383 97.7721 124.794 96.7212 124.5C96.2167 124.332 94.8715 123.911 94.1989 124.626C93.9887 124.878 93.9047 125.173 93.9047 125.383Z" fill="#FFDB13"/>
<path d="M157.887 120.588C157.887 120.083 158.055 119.116 158.644 118.864C159.442 118.485 160.325 119.495 163.982 121.934C165.117 122.691 165.916 123.154 167.051 123.574C168.817 124.205 169.826 124.037 170.12 123.995C170.498 123.911 171.591 123.743 172.39 122.901C172.852 122.439 172.978 122.018 173.693 119.621C174.366 117.265 174.492 116.761 174.996 116.55C175.669 116.298 176.678 116.761 177.182 117.434C178.654 119.326 176.426 123.028 176.089 123.532C175.543 124.458 174.366 126.393 171.927 127.36C169.531 128.327 167.387 127.781 166.252 127.486C164.445 127.023 163.226 126.098 160.787 124.205C158.265 122.229 157.887 121.345 157.887 120.588Z" fill="#FFDB13"/>
<path d="M157.341 134.553L167.934 151.335L176.089 164.458L176.426 168.159L174.45 169.673L168.355 167.697L157.551 157.476L148.302 151.882L145.99 149.274V145.236L148.639 143.932L153.851 146.204L154.188 147.549L157.341 134.553Z" fill="#FFDB13"/>
<path d="M152.213 156.004L147.126 157.224L137.583 162.902L126.527 167.866L113.622 168.454L105.382 169.254L101.179 171.314L99.1608 172.618L100.968 174.932L107.568 177.119L115.682 179.096L125.392 180.315L133.674 181.199L142.712 179.979L150.111 177.624L155.323 175.142L158.014 173.754L161.965 173.502L167.178 176.951L174.955 179.18L179.117 178.843L186.557 180.736L192.695 180.862L202.742 179.811L213.378 177.119L220.062 176.404L224.013 176.067L224.518 173.838L220.314 170.473L209.048 168.791L194.334 167.697L190.299 167.529L184.666 162.818L179.033 157.392L174.787 156.089L171.592 156.257L174.535 161.262L176.889 166.225L175.67 169.59L169.616 167.866L163.647 163.113L156.963 157.14L154.356 155.668L152.213 156.004Z" fill="#FC3824"/>
<path d="M169.404 15.5624L164.149 12.1135L141.112 7.69709L121.144 5.08933L104.96 3.28073L94.6605 0H73.8939L67.1678 0.336485L52.7909 4.07988L42.1553 9.5057L38.2458 12.1135L39.7171 15.5624L59.9793 24.8578L79.611 29.2742L106.936 30.1154L138.002 27.3394L161.375 22.5865L169.068 19.6423L169.404 15.5624Z" fill="#FC3824"/>
<path d="M166.294 18.8032L165.958 15.859L159.526 13.5877L141.113 10.5173L129.763 9.00309L113.41 7.15242L100.883 5.09145L95.4182 3.74551L89.1125 2.9043H69.6911L63.3854 4.75496L52.1613 8.03569L46.4862 11.1902L42.9971 13.2512L46.276 15.9851L58.3409 21.6633L67.421 23.7243L75.156 25.4908L82.3444 27.6359L98.487 27.4256L115.176 26.8788L133.378 25.1544L145.023 23.8505L155.49 21.6633L163.225 19.8127L166.294 18.8032Z" fill="#FFDB13"/>
<path d="M170.876 16.529V16.8654L170.666 29.736L168.69 36.8442L168.48 43.9525L168.606 52.1543L168.396 72.764L167.975 91.6492L163.519 96.5703L154.818 99.9351L140.735 101.365L105.423 101.912L67.7152 100.818L47.9995 95.6029L39.7181 90.5977L40.1384 71.418L40.8951 48.4109L40.6849 28.0115C40.0544 22.8381 39.4658 17.6646 38.8353 12.5332C40.811 14.2577 42.7448 16.0242 44.7206 17.7487L59.4338 23.8475L76.4591 28.0956L96.3009 29.063L121.482 28.0956L143.72 25.572L162.342 21.408L170.876 16.529Z" fill="#FC3824"/>
<path d="M44.5949 68.5596L64.4368 76.7194L88.1041 80.2104L122.449 80.4627L147.756 76.509L158.854 75.1211L166.715 73.7751L166.505 83.0705L166.294 90.389L162.343 94.8475L150.909 98.002L121.482 99.0115L89.1971 99.5162L65.8661 98.1282L47.2433 92.2397L41.9045 89.5058L41.5682 76.9717L42.1147 70.0738V67.3398L44.5949 68.5596Z" fill="#FFDB13"/>
<path d="M40.4319 82.0168C38.2879 79.0726 35.1351 79.9138 24.6257 77.5584C20.548 76.633 16.3863 76.0442 12.3086 75.0347C12.3086 75.0347 7.34813 73.815 4.36345 75.3712C4.32141 75.3712 4.11121 75.4974 3.77491 75.6656C1.25264 76.9695 1.04247 76.9695 0.748204 77.2219C-0.470893 78.2734 0.117637 80.797 0.327826 81.7644C1.00043 84.7087 2.97619 86.6014 3.9851 87.4006L23.9951 101.028L36.5224 105.991L61.8712 111.081L88.8595 111.291C98.6122 111.501 108.785 111.459 119.337 111.165C128.081 110.912 136.572 110.534 144.728 109.945C147.124 109.819 150.823 109.524 155.363 108.894C167.344 107.211 168.437 105.318 184.538 101.701C190.465 100.355 202.74 97.8316 209.76 96.1492C210.139 96.065 210.559 95.9389 210.937 95.8547C211.4 95.7285 221.405 93.3311 221.867 93.247C222.035 92.4899 222.119 91.3963 221.699 90.3027C220.228 86.4752 213.754 85.7181 209.046 85.2975C202.74 84.7507 192.357 84.2039 177.854 84.961L168.185 84.919L167.849 88.8306L164.738 92.9946L151.58 97.8316L128.922 98.9252L106.683 99.2616L78.9806 98.7569L69.48 97.9578L58.6763 95.7706L46.1491 91.3963L41.693 88.9568C41.9873 86.8538 41.9873 84.1619 40.4319 82.0168Z" fill="#2B5ADC"/>
<path d="M87.5158 221.576C85.5821 221.114 81.8408 220.23 79.6548 222.249C78.3937 223.427 78.1834 225.067 78.0153 226.834C77.4688 232.218 77.0484 236.718 76.7121 240.588C77.4688 252.028 78.2255 263.427 78.9822 274.867C81.1681 287.149 83.3121 299.43 85.498 311.712C88.8611 326.77 92.1821 341.827 95.5451 356.927L105.13 387.253C109.46 393.226 114.756 402.311 117.321 414.298C118.498 419.766 118.75 424.182 118.96 427.757C119.717 441.469 117.363 445.633 117.153 458.209C116.984 468.893 118.54 477.136 119.591 482.604C122.533 497.83 125.434 498.083 127.284 510.238C129.68 525.969 126.359 535.685 129.428 536.736C131.824 537.577 135.103 531.983 142.039 523.151C145.024 519.323 154.356 509.565 173.063 489.965C189.92 472.299 189.794 473.225 191.938 469.776C197.487 461.027 199 454.255 206.525 450.218C211.443 447.61 216.95 447.189 219.851 446.979C221.953 446.811 223.803 446.979 225.652 447.82C226.661 448.283 227.418 448.872 227.88 449.292C228.679 449.292 229.94 449.334 231.495 449.292C237.927 449.166 242.635 448.493 244.359 448.241C256.256 446.6 268.825 446.895 271.179 446.937C277.401 447.105 276.056 447.484 284.043 447.778C297.831 448.325 298.672 447.147 307.206 447.988C315.571 448.83 320.784 449.334 326.963 452.489C332.512 455.307 335.875 458.798 337.473 457.662C339.743 456.022 335.959 446.685 337.052 446.264C337.515 446.096 338.187 447.778 340.289 448.619C341.382 449.082 342.223 448.998 342.854 449.04C346.931 449.334 348.024 454.466 352.312 455.686C354.54 456.316 357.735 455.938 358.534 454.382C360.173 451.185 351.009 443.362 346.091 439.114C337.683 431.963 337.473 433.688 325.492 424.519C321.246 421.28 314.772 416.064 307.458 412.91C304.431 411.606 301.909 410.933 300.143 410.554C295.729 409.587 292.282 409.671 291.357 409.713C285.472 409.755 280.764 407.063 267.9 401.932C249.235 394.487 246.461 395.118 237.717 389.398C233.597 386.706 230.991 384.982 228.006 381.869C219.767 373.163 219.557 364.793 214.512 349.398C211.822 341.197 212.536 345.571 203.708 323.615C198.328 310.24 194.67 301.197 190.509 288.621C184.875 271.586 182.101 263.048 181.807 261.366C180.546 254.215 180.546 249.757 176.888 247.065C172.937 244.163 168.901 246.392 158.055 246.308C151.203 246.266 146.327 245.34 140.231 244.163C134.346 243.027 125.518 241.345 115.387 236.592C106.265 232.302 101.725 230.199 97.6049 226.876C96.1756 225.74 92.7285 222.838 87.5158 221.576Z" fill="#2B5ADC"/>
<path d="M105.465 252.576C108.87 266.54 110.636 265.573 113.747 277.98C116.311 288.159 115.218 288.958 117.824 307.086C120.179 323.406 122.953 335.603 124.509 342.417C127.283 354.531 129.343 361.134 132.832 372.533C137.288 386.917 139.768 392.848 145.443 398.063C148.512 400.881 151.665 402.48 157.887 405.592C167.177 410.219 175.963 414.593 185.842 416.738C208.374 421.533 224.222 411.985 227.543 418.042C229.015 420.776 225.736 422.627 225.567 431.796C225.441 439.535 227.669 442.437 225.736 444.877C223.297 447.905 217.244 446.433 210.182 445.213C194.628 442.479 200.471 445.508 180.251 442.269C161.586 439.283 152.253 437.811 140.693 432.133C136.027 429.819 130.772 427.211 125.139 421.996C119.884 417.117 115.933 411.397 110.762 400.377C105.634 389.441 102.481 380.061 98.7393 367.317C94.2833 352.259 90.4579 339.305 86.7165 320.924C85.5815 315.414 83.7738 304.31 80.1586 282.102C74.4835 247.276 77.5523 262.797 76.8376 259.053C76.123 255.394 73.4325 241.724 75.3242 229.863C75.6185 228.054 76.2491 224.942 78.7714 223.007C82.0924 220.399 86.6745 221.493 87.3891 221.661C89.6171 222.166 93.8209 223.806 98.6132 232.092C102.859 239.116 103.448 244.332 105.465 252.576Z" fill="#FFDB13"/>
<path d="M142.417 255.897C141.492 256.444 140.441 256.486 139.643 256.402C138.97 257.664 137.919 259.514 136.364 261.617C134.514 264.141 133.547 265.403 132.286 265.529C129.848 265.823 127.62 262.669 126.569 261.113C125.14 259.094 124.551 256.991 123.29 252.785C122.155 248.957 121.903 246.98 121.819 245.592C121.608 242.48 121.482 240.924 122.323 240.209C123.921 238.821 126.821 241.134 134.766 243.826C141.114 245.971 143.048 245.803 144.183 247.906C145.444 250.303 144.855 254.467 142.417 255.897Z" fill="#FC3824"/>
<path d="M154.65 250.81C154.146 249.927 153.6 249.043 152.507 248.37C151.582 247.782 150.447 247.613 148.261 247.403C146.243 247.193 145.234 247.067 144.645 247.403C143.174 248.244 142.964 250.347 142.796 252.156C142.586 254.385 142.375 256.656 143.847 258.171C145.15 259.559 147.084 259.601 148.933 259.643C151.287 259.727 153.095 259.096 154.146 258.675C154.735 258.128 155.659 257.077 155.954 255.563C156.332 253.586 155.365 251.988 154.65 250.81Z" fill="#FC3824"/>
<path d="M167.598 250.305C168.312 251.104 168.018 252.113 167.598 255.857C167.43 257.581 167.219 259.811 167.093 261.072C166.757 264.816 166.841 265.531 166.295 265.825C165.706 266.162 164.949 265.783 161.376 263.217C155.827 259.138 155.239 258.128 155.07 257.077C154.86 255.52 155.743 255.268 155.491 253.417C155.112 250.557 152.716 249.674 153.137 248.707C153.641 247.445 157.677 249.295 164.949 249.506C165.748 249.548 166.883 249.548 167.598 250.305Z" fill="#FC3824"/>
<path d="M150.237 277.473C148.303 276.716 147.546 274.949 147.462 274.697C147.336 274.319 146.579 272.468 147.63 270.785C148.681 269.061 150.699 268.851 151.246 268.809C151.75 268.767 153.263 268.64 154.524 269.608C156.416 271.122 156.038 273.772 155.996 274.192C155.912 274.823 155.744 275.959 154.861 276.8C153.558 278.062 151.54 277.978 150.237 277.473Z" fill="#F5F4F1"/>
<path d="M163.983 303.972C163.437 303.593 162.722 303.131 161.713 303.173C160.494 303.215 159.695 303.93 159.443 304.14C157.677 305.738 158.098 308.43 158.098 308.64C158.476 310.87 160.2 312.047 161.04 312.678C161.923 313.309 163.521 314.403 164.95 313.814C165.917 313.393 166.337 312.426 166.589 311.837C167.682 309.313 166.295 306.706 165.917 306.117C165.202 304.813 164.235 304.14 163.983 303.972Z" fill="#F5F4F1"/>
<path d="M169.869 258.59C170.29 264.436 171.004 268.642 171.173 269.61C171.341 270.535 171.509 271.502 172.896 278.106C173.401 280.587 174.409 285.34 174.788 287.107C176.89 296.907 180.589 308.221 182.144 312.974C183.195 316.255 185.886 324.246 190.174 335.392C198.917 358.189 199.716 355.876 204.382 369.924C206.568 376.486 207.829 381.323 211.739 388.094C214.135 392.258 216.784 396.843 221.702 401.007C225.99 404.666 227.545 404.203 241.67 410.681C253.483 416.107 253.861 417.074 258.695 418.041C266.01 419.514 266.724 417.495 274.039 419.261C282.405 421.28 285.347 424.855 288.962 422.962C289.509 422.668 289.425 422.584 295.016 415.77C297.37 412.868 297.748 412.447 297.664 411.774C297.244 409.209 290.602 408.956 282.447 407.106C278.705 406.264 272.568 403.867 260.335 399.072C249.615 394.908 245.453 392.847 242.511 391.333C234.397 387.127 231.623 384.645 229.647 382.08C226.41 378 225.401 374.088 224.476 370.891C221.828 361.891 217.12 353.605 213.547 344.898C203.373 320.082 201.944 319.914 195.933 303.426C192.486 294.005 190.804 289.294 189.291 283.658C186.853 274.657 183.195 265.95 181.346 256.823C180.841 254.426 179.874 249.378 175.965 247.149C175.628 246.939 172.854 245.383 171.046 246.518C170.332 246.939 169.113 248.075 169.869 258.59Z" fill="#FFDB13"/>
<path d="M230.697 414.089C234.522 411.817 238.012 415.645 249.025 417.832C250.959 418.211 255.373 418.589 264.243 419.304C273.66 420.061 275.299 419.977 279.923 420.776C285.136 421.66 288.541 422.248 292.829 424.225C298.672 426.917 302.119 430.282 304.095 432.259C304.978 433.142 307.374 435.582 308.929 439.409C309.686 441.26 310.106 442.311 309.644 443.195C308.677 444.919 305.104 443.91 298.672 443.868C293.081 443.784 293.586 444.541 286.229 444.667C282.53 444.751 281.983 444.541 274.542 444.33C270.675 444.204 266.177 444.078 260.796 444.12C254.701 444.162 250.118 444.204 244.065 444.961C239.231 445.592 236.792 445.887 234.228 446.938C230.613 448.41 229.268 449.882 227.838 449.209C226.493 448.62 226.199 446.686 225.863 438.904C225.4 426.959 225.863 424.52 226.367 422.711C227.712 418.084 228.385 415.477 230.697 414.089Z" fill="#FC3824"/>
<path d="M290.054 429.648C291.483 428.555 293.922 429.859 294.805 430.321C295.519 430.7 297.579 431.794 298.083 433.939C298.168 434.317 298.42 435.327 297.915 435.747C297.453 436.126 296.654 435.789 294.468 434.78C289.802 432.551 289.297 432.004 289.255 431.331C289.171 430.364 290.012 429.691 290.054 429.648Z" fill="#FFDB13"/>
<path d="M293.964 438.399C293.292 437.474 292.241 437.137 290.223 436.422C287.995 435.665 287.406 435.791 287.112 435.918C286.397 436.212 285.599 436.927 285.641 437.726C285.641 438.021 285.767 438.315 286.607 439.198C287.532 440.124 287.953 440.628 288.793 441.133C290.139 441.974 291.19 442.647 292.451 442.437C293.249 442.269 294.342 441.722 294.637 440.67C294.889 439.661 294.216 438.736 293.964 438.399Z" fill="#FFDB13"/>
<path d="M299.387 411.649C301.489 410.639 303.969 411.649 305.104 412.153C313.007 415.644 319.061 420.566 319.061 420.566C326.375 426.496 324.904 423.972 337.305 433.268C342.097 436.885 346.301 440.25 349.916 443.236C350.967 444.834 350.925 445.423 350.715 445.676C350.421 446.054 349.328 446.307 340.248 442.227C334.573 439.661 332.302 438.357 331.252 439.282C330.537 439.913 330.747 441.301 331.083 443.699C331.588 447.232 332.555 448.073 332.05 448.788C331.125 450.092 327.3 448.073 318.136 445.507C313.175 444.119 312.124 444.077 310.611 442.731C307.921 440.334 308.971 438.441 306.197 434.235C303.422 429.987 299.597 427.59 298.168 426.706C293.544 423.846 291.021 424.267 290.643 422.458C290.223 420.481 293.207 419.766 297.201 413.794C297.747 413.079 298.294 412.196 299.387 411.649Z" fill="#FC3824"/>
<path d="M437.23 657.578C436.893 657.578 436.263 657.578 435.927 657.62C415.16 657.998 409.905 657.788 400.615 658.251C398.597 658.335 394.898 658.629 387.541 659.218C375.897 660.143 363.79 661.237 347.983 661.489C341.552 661.616 340.921 661.447 340.122 661.153C329.907 657.283 331.294 640.922 325.409 616.653C317.59 584.561 308.678 586.411 303.507 560.376C302.12 553.436 299.892 538.799 291.737 535.181C290.139 534.466 285.599 532.994 283.876 528.956C282.867 526.601 283.666 525.297 282.909 523.741C280.555 518.862 267.775 520.544 265.589 520.797C250.75 522.647 235.743 519.535 220.777 519.156C210.226 518.904 196.017 518.273 178.571 514.908C162.344 511.754 158.057 509.062 157.3 505.739C156.375 501.491 161.42 496.948 169.071 490.05C179.706 480.461 184.54 480.418 189.333 472.385C191.813 468.221 191.098 467.296 194.545 461.239C198.119 455.014 200.557 450.766 204.677 447.821C210.057 443.952 214.471 445.172 248.816 445.214C249.321 445.214 249.825 445.214 250.33 445.214C280.261 445.214 280.681 445.256 284.801 445.214C309.645 445.088 306.828 444.204 310.948 444.877C317.044 445.887 328.688 447.779 338.357 456.402C343.822 461.281 347.815 469.819 355.55 486.685C360.132 496.696 359.628 496.612 363.495 505.15C365.765 510.155 370.768 520.839 384.304 544.014C397 565.717 395.823 561.848 401.498 572.363C403.642 576.359 403.81 576.906 422.306 619.176C430.378 637.599 434.413 646.81 435.59 648.366C436.851 650.049 441.181 655.559 439.836 657.199C439.374 657.872 438.155 657.746 437.23 657.578Z" fill="#FFDB13"/>
<path d="M479.225 648.322C482.588 643.4 476.324 634.778 466.698 618.29C456.398 600.583 464.133 611.224 445.763 578.711C434.37 558.522 433.656 558.228 421.549 536.819C405.028 507.629 409.148 513.013 402.59 502.455C390.903 483.654 386.405 480.121 385.565 470.405C385.27 466.914 385.354 461.657 381.655 457.661C378.124 453.833 372.617 452.74 369.548 452.109C364.714 451.141 364.672 452.193 359.081 451.436C351.43 450.426 344.83 447.482 342.728 446.515C337.683 444.244 335.792 442.267 334.236 443.234C332.513 444.328 332.555 448.155 333.69 450.889C335.161 454.422 338.44 456.147 339.281 456.609C347.184 461.026 351.976 474.527 357.735 487.987C359.964 493.16 364.756 502.624 374.34 521.635C389.642 551.919 393.804 551.372 407.55 578.922C416.883 597.639 421.591 606.976 425.879 619.72C432.353 638.942 434.497 653.789 443.913 656.229C446.309 656.86 446.603 656.019 459.551 653.327C475.189 650.046 477.585 650.719 479.225 648.322Z" fill="#FFDB13"/>
<path d="M489.567 684.409C488.726 682.138 486.162 681.213 484.985 680.792C477.797 678.268 471.029 677.049 466.657 675.576C464.807 674.945 460.519 672.001 451.943 666.071C441.224 658.668 441.056 658.037 438.281 657.07C432.438 655.009 429.201 656.397 418.103 657.364C414.782 657.659 407.299 657.701 392.334 657.785C375.308 657.911 366.985 657.49 365.556 661.234C365.009 662.706 365.556 664.683 366.565 668.048C367.489 671.244 368.036 673.053 369.507 674.609C371.903 677.133 373.627 675.576 384.22 677.89C386.617 678.394 388.466 678.899 390.106 677.89C391.997 676.712 391.703 674.777 393.385 673.642C395.403 672.296 398.345 673.431 401.246 674.609C408.434 677.553 412.05 679.067 414.32 680.498C420.667 684.493 426.553 685.839 437.861 688.363C447.487 690.508 444.545 688.489 474.812 690.34C479.31 690.634 488.012 691.181 489.525 687.732C489.946 686.849 489.988 685.545 489.567 684.409Z" fill="#FC3824"/>
<path d="M534.378 669.019C533.622 666.663 529.754 666.116 523.238 665.107C512.477 663.425 507.138 662.583 505.919 662.163C503.985 661.49 498.856 658.546 488.599 652.657C485.741 651.017 482.882 649.334 478.804 649.04C476.45 648.872 475.441 649.292 470.607 650.344C465.773 651.395 455.389 653.498 450.303 654.466C445.805 655.307 444.417 655.517 444.123 656.569C443.535 658.461 447.318 661.237 454.927 666.705C460.938 671.038 462.872 671.753 464.217 671.038C466.277 669.944 465.31 666.116 467.328 665.359C467.917 665.149 468.547 665.233 473.213 668.262C475.946 670.028 477.165 670.911 479.351 672.215C481.032 673.267 482.462 674.066 483.387 674.529C483.387 674.529 484.606 675.117 485.446 675.328C486.287 675.496 486.539 675.58 487.885 675.58C487.885 675.58 490.743 676.169 494.569 676.505C495.199 676.548 495.704 676.59 496.04 676.632C498.52 676.8 500.37 676.842 501.841 676.842C503.985 676.884 505.835 676.8 510.165 676.632C513.654 676.463 515.461 676.211 518.656 676.211C525.256 676.253 529.418 676.884 532.403 673.94C532.613 673.729 535.093 671.206 534.378 669.019Z" fill="#FC3824"/>
</svg>
