<svg width="536" height="692" viewBox="0 0 536 692" fill="none" xmlns="http://www.w3.org/2000/svg">
<path d="M87.5466 221.856L71.5302 209.406C57.5316 199.816 53.454 190.9 52.5712 184.212C51.6043 177.062 53.7062 168.229 48.9559 165.243C46.6018 163.77 45.0044 165.243 41.4312 163.602C36.9331 161.499 34.9573 156.999 33.2338 153.129C32.2249 150.774 29.6185 144.633 30.9637 137.104C31.4261 134.496 32.0987 131.005 34.8732 128.608C37.1012 126.673 38.1942 127.598 39.4553 126C41.8935 122.93 40.3802 116.578 38.6566 109.302C38.2783 107.704 38.0681 106.989 38.4885 106.358C40.0439 104.171 46.812 107.62 55.6399 109.05C60.6844 109.891 62.7443 109.428 71.278 109.302C84.2256 109.092 83.9734 109.975 106.674 110.606C119.621 110.984 126.053 111.153 132.695 110.774C147.661 109.933 155.143 109.512 160.65 107.073C161.323 106.778 168.175 103.75 177.339 102.488C181.081 101.983 183.014 102.068 184.36 103.245C186.041 104.717 185.789 106.862 185.327 116.326C184.864 126.084 184.906 127.682 183.519 130.248C182.804 131.594 181.291 134.328 178.306 136.473C176.709 137.609 176.373 137.356 175.868 138.113C174.145 140.511 176.709 144.044 178.138 150.732C178.685 153.297 178.895 155.442 178.937 156.788L186.335 163.602L192.557 167.682L212.651 168.818L220.512 170.458L225.893 174.538L224.926 176.978L215.762 177.314L204.16 180.595C204.16 180.595 190.749 181.73 190.245 181.73C189.741 181.73 181.081 180.258 181.081 180.258L191.044 199.059L193.986 219.837L193.65 233.423L184.486 243.097L170.403 248.186L146.021 246.209L123.111 240.489L102.008 231.488L87.5466 221.856Z" fill="#2B5ADC"/>
<path d="M57.9106 162.635C54.3374 165.411 46.4763 162.845 46.4763 162.845C46.4763 162.845 40.4649 160.112 36.8917 155.527C34.6637 152.667 33.949 149.807 33.1923 146.905C32.4357 144.002 31.5529 140.511 32.6459 136.305C33.1503 134.412 33.865 131.636 36.4713 129.744C39.0356 127.893 41.8942 128.061 42.777 128.103C45.9719 128.314 48.1579 129.954 49.419 130.921C52.6139 133.403 52.1094 134.917 55.7247 138.114C58.4151 140.469 59.2138 140.049 60.1807 141.731C61.3577 143.708 61.0634 145.559 60.3067 150.9C58.8354 161.163 58.9195 161.836 57.9106 162.635Z" fill="#FFDB13"/>
<path d="M57.027 146.694C57.1531 145.432 56.1862 144.507 52.655 141.016C50.5951 138.955 50.2588 138.576 49.376 138.071C47.5264 136.978 45.971 136.725 45.4665 136.641C43.9952 136.473 42.6079 136.263 41.7672 137.062C41.0946 137.693 41.3889 138.282 41.0105 141.773C40.7583 144.086 40.5901 144.38 40.5901 145.937C40.5901 147.409 40.5901 148.208 40.9264 149.217C41.7672 151.741 43.9531 153.171 43.8691 153.255C43.785 153.339 42.734 152.33 42.65 152.372C42.5659 152.456 43.785 154.391 45.9289 155.442C47.3162 156.115 49.9646 156.872 51.1416 155.569C51.6041 155.064 51.9404 154.139 51.562 153.508C50.9735 152.456 49.1238 153.423 47.106 152.288C45.6347 151.489 44.9621 150.143 44.3736 149.007C43.4067 147.114 43.3226 145.39 43.2805 144.423C43.2385 143.329 43.1965 142.53 43.6169 141.604C44.0372 140.637 44.92 139.417 44.92 139.417C44.92 139.417 46.5595 140.048 47.106 140.301C48.3672 140.847 49.1238 141.731 50.4691 143.371C52.3608 145.6 52.7391 146.862 54.5047 147.829C55.2193 148.208 55.8078 148.376 56.2282 148.166C56.9008 147.829 56.9849 146.904 57.027 146.694Z" fill="#F5F4F1"/>
<path d="M43.6181 109.09L45.1314 114.768L59.4243 119.016L73.1707 124.989L85.1515 136.009L105.203 147.912L111.845 150.183H120.043L129.627 146.272L135.975 136.556L141.86 129.91L147.073 127.302L153.169 127.513L161.702 132.854L169.101 136.471L175.869 136.219L179.989 132.223L183.142 124.568L184.024 116.156L183.058 107.534L182.847 105.389L173.767 108.627L161.913 111.698L139.759 113.548L116.133 114.306L75.1044 114.221L59.8447 111.824L48.4104 109.3L43.6181 109.09Z" fill="#FC3824"/>
<path d="M94.6508 125.875L95.0291 126.296C102.007 134.119 102.007 134.077 102.302 134.372C105.917 137.863 110.247 138.998 112.096 139.503C115.712 140.428 119.453 141.438 122.438 139.377C124.54 137.947 125.212 135.718 126.473 131.511C127.146 129.198 128.029 126.254 126.684 125.076C126.095 124.571 125.044 124.319 124.287 124.74C122.732 125.581 123.951 128.441 122.101 132.479C121.555 133.614 121.177 134.498 120.252 135.213C117.772 137.106 114.114 136.012 112.517 135.549C108.691 134.414 106.085 132.016 105.202 131.175C102.386 128.525 101.335 127.642 99.317 125.959C99.2329 125.875 98.5182 125.286 97.4673 124.992C96.9628 124.824 95.6176 124.403 94.945 125.118C94.7348 125.371 94.6508 125.665 94.6508 125.875Z" fill="#FFDB13"/>
<path d="M158.633 121.08C158.633 120.576 158.801 119.608 159.39 119.356C160.188 118.977 161.071 119.987 164.728 122.426C165.863 123.183 166.662 123.646 167.797 124.067C169.563 124.698 170.572 124.529 170.866 124.487C171.244 124.403 172.337 124.235 173.136 123.394C173.598 122.931 173.725 122.51 174.439 120.113C175.112 117.758 175.238 117.253 175.742 117.043C176.415 116.79 177.424 117.253 177.928 117.926C179.4 119.819 177.172 123.52 176.835 124.025C176.289 124.95 175.112 126.885 172.674 127.852C170.277 128.819 168.133 128.273 166.998 127.978C165.191 127.516 163.972 126.59 161.534 124.698C159.011 122.721 158.633 121.837 158.633 121.08Z" fill="#FFDB13"/>
<path d="M158.087 135.045L168.68 151.827L176.836 164.95L177.172 168.651L175.196 170.166L169.101 168.189L158.297 157.968L149.049 152.374L146.737 149.766V145.728L149.385 144.424L154.598 146.696L154.934 148.042L158.087 135.045Z" fill="#FFDB13"/>
<path d="M152.959 156.497L147.872 157.716L138.329 163.395L127.274 168.358L114.368 168.947L106.128 169.746L101.925 171.807L99.9069 173.111L101.714 175.424L108.314 177.611L116.428 179.588L126.138 180.808L134.42 181.691L143.458 180.471L150.857 178.116L156.069 175.634L158.76 174.246L162.711 173.994L167.924 177.443L175.701 179.672L179.863 179.336L187.304 181.228L193.441 181.354L203.488 180.303L214.124 177.611L220.808 176.896L224.759 176.56L225.264 174.33L221.06 170.965L209.794 169.283L195.081 168.189L191.045 168.021L185.412 163.31L179.779 157.885L175.533 156.581L172.338 156.749L175.281 161.754L177.635 166.717L176.416 170.082L170.362 168.358L164.393 163.605L157.709 157.632L155.103 156.16L152.959 156.497Z" fill="#FC3824"/>
<path d="M170.15 16.0546L164.895 12.6056L141.858 8.18928L121.89 5.58152L105.706 3.77291L95.4066 0.492188H74.64L67.9139 0.828672L53.537 4.57207L42.9014 9.99788L38.9919 12.6056L40.4632 16.0546L60.7254 25.35L80.3571 29.7664L107.682 30.6076L138.748 27.8316L162.121 23.0787L169.814 20.1345L170.15 16.0546Z" fill="#2B5ADC"/>
<path d="M167.04 19.2954L166.704 16.3512L160.272 14.0799L141.859 11.0095L130.509 9.49527L114.156 7.64461L101.629 5.58364L96.1643 4.2377L89.8586 3.39648H70.4372L64.1315 5.24715L52.9074 8.52788L47.2323 11.6824L43.7432 13.7434L47.0221 16.4773L59.087 22.1555L68.1671 24.2165L75.9021 25.983L83.0905 28.1281L99.2331 27.9178L115.922 27.371L134.124 25.6465L145.769 24.3427L156.236 22.1555L163.971 20.3049L167.04 19.2954Z" fill="#FFDB13"/>
<path d="M171.622 17.0211V17.3576L171.412 30.2282L169.436 37.3364L169.226 44.4447L169.352 52.6465L169.142 73.2562L168.721 92.1414L164.265 97.0625L155.564 100.427L141.481 101.857L106.169 102.404L68.4613 101.311L48.7456 96.0951L40.4641 91.0899L40.8845 71.9102L41.6412 48.9031L41.431 28.5037C40.8005 23.3302 40.2119 18.1568 39.5814 13.0254C41.5571 14.7499 43.4909 16.5164 45.4667 18.2409L60.1799 24.3397L77.2052 28.5878L97.047 29.5552L122.228 28.5878L144.466 26.0642L163.088 21.9002L171.622 17.0211Z" fill="#2B5ADC"/>
<path d="M45.341 69.0518L65.1829 77.2115L88.8502 80.7026L123.195 80.9549L148.502 77.0012L159.6 75.6132L167.461 74.2673L167.251 83.5627L167.041 90.8812L163.089 95.3397L151.655 98.4942L122.228 99.5037L89.9432 100.008L66.6122 98.6204L47.9894 92.7319L42.6506 89.998L42.3143 77.4639L42.8608 70.566V67.832L45.341 69.0518Z" fill="#FFDB13"/>
<path d="M41.178 82.509C39.034 79.5647 35.8812 80.4059 25.3718 78.0506C21.2941 77.1252 17.1324 76.5364 13.0547 75.5269C13.0547 75.5269 8.09422 74.3072 5.10954 75.8634C5.0675 75.8634 4.8573 75.9896 4.521 76.1578C1.99873 77.4617 1.78856 77.4617 1.49429 77.7141C0.275208 78.7656 0.863724 81.2892 1.07391 82.2566C1.74652 85.2009 3.72227 87.0936 4.73119 87.8927L24.7412 101.52L37.2685 106.484L62.6173 111.573L89.6056 111.783C99.3583 111.993 109.531 111.951 120.083 111.657C128.827 111.405 137.318 111.026 145.474 110.437C147.87 110.311 151.569 110.017 156.109 109.386C168.09 107.703 169.183 105.811 185.284 102.193C191.211 100.847 203.486 98.3238 210.506 96.6413C210.885 96.5572 211.305 96.431 211.683 96.3469C212.146 96.2207 222.151 93.8233 222.613 93.7392C222.781 92.9821 222.865 91.8885 222.445 90.7949C220.974 86.9674 214.5 86.2103 209.792 85.7897C203.486 85.2429 193.103 84.6961 178.6 85.4532L168.931 85.4112L168.595 89.3228L165.484 93.4868L152.326 98.3238L129.668 99.4173L107.43 99.7538L79.7267 99.2491L70.2261 98.4499L59.4224 96.2628L46.8952 91.8885L42.4391 89.449C42.7334 87.346 42.7334 84.6541 41.178 82.509Z" fill="#2B5ADC"/>
<path d="M88.2619 222.068C86.3282 221.606 82.5869 220.722 80.4009 222.741C79.1397 223.919 78.9295 225.559 78.7614 227.326C78.2149 232.71 77.7945 237.21 77.4582 241.08C78.2149 252.52 78.9716 263.919 79.7283 275.359C81.9142 287.641 84.0582 299.923 86.2441 312.204C89.6072 327.262 92.9282 342.32 96.2912 357.419L105.876 387.745C110.206 393.718 115.502 402.803 118.067 414.79C119.244 420.258 119.496 424.674 119.706 428.249C120.463 441.961 118.109 446.125 117.899 458.701C117.73 469.385 119.286 477.629 120.337 483.096C123.279 498.322 126.18 498.575 128.03 510.73C130.426 526.461 127.105 536.177 130.174 537.228C132.57 538.07 135.849 532.476 142.785 523.643C145.77 519.815 155.102 510.057 173.809 490.457C190.666 472.792 190.54 473.717 192.684 470.268C198.233 461.519 199.746 454.748 207.271 450.71C212.189 448.102 217.696 447.681 220.597 447.471C222.699 447.303 224.549 447.471 226.398 448.312C227.407 448.775 228.164 449.364 228.626 449.784C229.425 449.784 230.686 449.827 232.242 449.784C238.673 449.658 243.382 448.985 245.105 448.733C257.002 447.093 269.571 447.387 271.925 447.429C278.147 447.597 276.802 447.976 284.789 448.27C298.577 448.817 299.418 447.639 307.952 448.481C316.317 449.322 321.53 449.827 327.709 452.981C333.258 455.799 336.621 459.29 338.219 458.155C340.489 456.514 336.706 447.177 337.799 446.756C338.261 446.588 338.934 448.27 341.035 449.111C342.128 449.574 342.969 449.49 343.6 449.532C347.677 449.827 348.77 454.958 353.058 456.178C355.286 456.809 358.481 456.43 359.28 454.874C360.919 451.677 351.755 443.854 346.837 439.606C338.429 432.456 338.219 434.18 326.238 425.011C321.992 421.772 315.519 416.557 308.204 413.402C305.177 412.098 302.655 411.425 300.889 411.047C296.475 410.079 293.028 410.163 292.103 410.205C286.218 410.248 281.51 407.556 268.646 402.424C249.982 394.98 247.207 395.61 238.463 389.89C234.343 387.198 231.737 385.474 228.752 382.361C220.513 373.655 220.303 365.285 215.258 349.891C212.568 341.689 213.282 346.063 204.455 324.107C199.074 310.732 195.416 301.689 191.255 289.113C185.622 272.078 182.847 263.54 182.553 261.858C181.292 254.707 181.292 250.249 177.634 247.557C173.683 244.655 169.647 246.884 158.801 246.8C151.949 246.758 147.073 245.833 140.977 244.655C135.092 243.519 126.264 241.837 116.133 237.084C107.011 232.794 102.471 230.691 98.351 227.368C96.9217 226.232 93.4746 223.33 88.2619 222.068Z" fill="#FFDB13"/>
<path d="M106.211 253.068C109.617 267.032 111.382 266.065 114.493 278.473C117.057 288.651 115.964 289.45 118.571 307.579C120.925 323.898 123.699 336.096 125.255 342.909C128.029 355.023 130.089 361.626 133.578 373.025C138.034 387.41 140.514 393.34 146.189 398.556C149.258 401.374 152.411 402.972 158.633 406.084C167.923 410.711 176.709 415.085 186.588 417.23C209.12 422.025 224.968 412.478 228.289 418.534C229.761 421.268 226.482 423.119 226.313 432.288C226.187 440.027 228.415 442.93 226.482 445.369C224.043 448.397 217.99 446.925 210.928 445.706C195.374 442.972 201.217 446 180.997 442.761C162.332 439.775 153 438.303 141.439 432.625C136.773 430.311 131.518 427.704 125.885 422.488C120.63 417.609 116.679 411.889 111.508 400.869C106.38 389.933 103.227 380.554 99.4854 367.809C95.0294 352.752 91.204 339.797 87.4626 321.416C86.3276 315.907 84.5199 304.803 80.9047 282.595C75.2296 247.768 78.2984 263.289 77.5837 259.545C76.8691 255.886 74.1786 242.216 76.0703 230.355C76.3646 228.547 76.9952 225.434 79.5175 223.499C82.8385 220.892 87.4206 221.985 88.1352 222.153C90.3632 222.658 94.567 224.299 99.3593 232.584C103.605 239.609 104.194 244.824 106.211 253.068Z" fill="#2B5ADC"/>
<path d="M143.163 256.389C142.238 256.936 141.187 256.978 140.389 256.894C139.716 258.156 138.665 260.007 137.11 262.11C135.26 264.633 134.293 265.895 133.032 266.021C130.594 266.316 128.366 263.161 127.315 261.605C125.886 259.586 125.297 257.483 124.036 253.277C122.901 249.449 122.649 247.473 122.565 246.085C122.355 242.972 122.228 241.416 123.069 240.701C124.667 239.313 127.567 241.626 135.512 244.318C141.86 246.463 143.794 246.295 144.929 248.398C146.19 250.795 145.601 254.959 143.163 256.389Z" fill="#FC3824"/>
<path d="M155.397 251.302C154.892 250.419 154.346 249.536 153.253 248.863C152.328 248.274 151.193 248.106 149.007 247.895C146.989 247.685 145.98 247.559 145.392 247.895C143.92 248.736 143.71 250.839 143.542 252.648C143.332 254.877 143.122 257.149 144.593 258.663C145.896 260.051 147.83 260.093 149.679 260.135C152.034 260.219 153.841 259.588 154.892 259.167C155.481 258.621 156.405 257.569 156.7 256.055C157.078 254.078 156.111 252.48 155.397 251.302Z" fill="#FC3824"/>
<path d="M168.344 250.797C169.058 251.596 168.764 252.606 168.344 256.349C168.176 258.074 167.965 260.303 167.839 261.565C167.503 265.308 167.587 266.023 167.041 266.317C166.452 266.654 165.695 266.275 162.122 263.71C156.573 259.63 155.985 258.62 155.817 257.569C155.606 256.013 156.489 255.76 156.237 253.91C155.859 251.049 153.462 250.166 153.883 249.199C154.387 247.937 158.423 249.788 165.695 249.998C166.494 250.04 167.629 250.04 168.344 250.797Z" fill="#FC3824"/>
<path d="M150.983 277.965C149.049 277.208 148.292 275.442 148.208 275.189C148.082 274.811 147.325 272.96 148.376 271.278C149.427 269.553 151.445 269.343 151.992 269.301C152.496 269.259 154.009 269.133 155.271 270.1C157.162 271.614 156.784 274.264 156.742 274.685C156.658 275.315 156.49 276.451 155.607 277.292C154.304 278.554 152.286 278.47 150.983 277.965Z" fill="#F5F4F1"/>
<path d="M164.729 304.464C164.183 304.085 163.468 303.623 162.459 303.665C161.24 303.707 160.441 304.422 160.189 304.632C158.423 306.23 158.844 308.922 158.844 309.133C159.222 311.362 160.946 312.54 161.786 313.17C162.669 313.801 164.267 314.895 165.696 314.306C166.663 313.885 167.083 312.918 167.335 312.329C168.428 309.806 167.041 307.198 166.663 306.609C165.948 305.305 164.981 304.632 164.729 304.464Z" fill="#F5F4F1"/>
<path d="M170.615 259.082C171.036 264.928 171.75 269.134 171.919 270.102C172.087 271.027 172.255 271.995 173.642 278.598C174.147 281.08 175.156 285.832 175.534 287.599C177.636 297.399 181.335 308.713 182.89 313.466C183.941 316.747 186.632 324.738 190.92 335.885C199.664 358.681 200.462 356.368 205.128 370.416C207.314 376.978 208.576 381.815 212.485 388.586C214.881 392.75 217.53 397.335 222.448 401.499C226.736 405.158 228.291 404.696 242.416 411.173C254.229 416.599 254.607 417.566 259.441 418.534C266.756 420.006 267.471 417.987 274.785 419.753C283.151 421.772 286.093 425.347 289.709 423.455C290.255 423.16 290.171 423.076 295.762 416.262C298.116 413.36 298.494 412.94 298.41 412.267C297.99 409.701 291.348 409.449 283.193 407.598C279.451 406.757 273.314 404.359 261.081 399.564C250.361 395.4 246.199 393.339 243.257 391.825C235.143 387.619 232.369 385.137 230.393 382.572C227.156 378.492 226.147 374.58 225.223 371.384C222.574 362.383 217.866 354.097 214.293 345.39C204.12 320.574 202.69 320.406 196.679 303.918C193.232 294.497 191.55 289.786 190.037 284.15C187.599 275.149 183.941 266.442 182.092 257.315C181.587 254.918 180.62 249.871 176.711 247.641C176.375 247.431 173.6 245.875 171.792 247.01C171.078 247.431 169.859 248.567 170.615 259.082Z" fill="#2B5ADC"/>
<path d="M231.443 414.581C235.268 412.31 238.758 416.137 249.772 418.324C251.705 418.703 256.119 419.081 264.989 419.796C274.406 420.554 276.045 420.469 280.669 421.269C285.882 422.152 289.287 422.741 293.575 424.717C299.418 427.409 302.865 430.774 304.841 432.751C305.724 433.634 308.12 436.074 309.675 439.901C310.432 441.752 310.853 442.804 310.39 443.687C309.423 445.411 305.85 444.402 299.418 444.36C293.827 444.276 294.332 445.033 286.975 445.159C283.276 445.243 282.729 445.033 275.289 444.822C271.421 444.696 266.923 444.57 261.542 444.612C255.447 444.654 250.865 444.696 244.811 445.453C239.977 446.084 237.539 446.379 234.974 447.43C231.359 448.902 230.014 450.374 228.584 449.701C227.239 449.113 226.945 447.178 226.609 439.397C226.146 427.451 226.609 425.012 227.113 423.203C228.458 418.577 229.131 415.969 231.443 414.581Z" fill="#FC3824"/>
<path d="M290.8 430.141C292.23 429.047 294.668 430.351 295.551 430.814C296.265 431.192 298.325 432.286 298.83 434.431C298.914 434.809 299.166 435.819 298.661 436.239C298.199 436.618 297.4 436.282 295.214 435.272C290.548 433.043 290.044 432.496 290.002 431.823C289.917 430.856 290.758 430.183 290.8 430.141Z" fill="#FFDB13"/>
<path d="M294.71 438.891C294.038 437.966 292.987 437.63 290.969 436.915C288.741 436.157 288.152 436.284 287.858 436.41C287.143 436.704 286.345 437.419 286.387 438.218C286.387 438.513 286.513 438.807 287.354 439.691C288.278 440.616 288.699 441.121 289.54 441.625C290.885 442.467 291.936 443.139 293.197 442.929C293.996 442.761 295.089 442.214 295.383 441.163C295.635 440.153 294.962 439.228 294.71 438.891Z" fill="#FFDB13"/>
<path d="M300.133 412.141C302.235 411.131 304.715 412.141 305.85 412.646C313.753 416.137 319.807 421.058 319.807 421.058C327.121 426.988 325.65 424.465 338.051 433.76C342.843 437.377 347.047 440.742 350.662 443.728C351.713 445.327 351.671 445.915 351.461 446.168C351.167 446.546 350.074 446.799 340.994 442.719C335.319 440.153 333.049 438.849 331.998 439.775C331.283 440.406 331.493 441.794 331.829 444.191C332.334 447.724 333.301 448.565 332.796 449.28C331.872 450.584 328.046 448.565 318.882 446C313.921 444.612 312.87 444.57 311.357 443.224C308.667 440.826 309.718 438.933 306.943 434.727C304.169 430.479 300.343 428.082 298.914 427.199C294.29 424.338 291.767 424.759 291.389 422.95C290.969 420.974 293.953 420.259 297.947 414.286C298.493 413.571 299.04 412.688 300.133 412.141Z" fill="#FC3824"/>
<path d="M437.976 658.07C437.64 658.07 437.009 658.07 436.673 658.112C415.906 658.491 410.651 658.28 401.361 658.743C399.343 658.827 395.644 659.121 388.287 659.71C376.643 660.636 364.536 661.729 348.73 661.982C342.298 662.108 341.667 661.94 340.869 661.645C330.653 657.776 332.041 641.414 326.155 617.145C318.336 585.053 309.424 586.903 304.254 560.868C302.866 553.928 300.638 539.291 292.483 535.674C290.886 534.959 286.345 533.486 284.622 529.449C283.613 527.093 284.412 525.789 283.655 524.233C281.301 519.354 268.521 521.036 266.335 521.289C251.496 523.139 236.489 520.027 221.523 519.649C210.972 519.396 196.763 518.765 179.317 515.4C163.091 512.246 158.803 509.554 158.046 506.231C157.121 501.983 162.166 497.44 169.817 490.543C180.452 480.953 185.287 480.911 190.079 472.877C192.559 468.713 191.844 467.788 195.292 461.731C198.865 455.506 201.303 451.258 205.423 448.314C210.803 444.444 215.217 445.664 249.562 445.706C250.067 445.706 250.571 445.706 251.076 445.706C281.007 445.706 281.427 445.748 285.547 445.706C310.391 445.58 307.575 444.696 311.694 445.369C317.79 446.379 329.434 448.272 339.103 456.894C344.568 461.773 348.561 470.311 356.296 487.178C360.879 497.188 360.374 497.104 364.242 505.642C366.512 510.648 371.514 521.331 385.05 544.506C397.746 566.21 396.569 562.34 402.244 572.855C404.388 576.851 404.556 577.398 423.052 619.669C431.124 638.091 435.159 647.302 436.336 648.859C437.598 650.541 441.927 656.051 440.582 657.691C440.12 658.364 438.901 658.238 437.976 658.07Z" fill="#2B5ADC"/>
<path d="M479.971 648.814C483.334 643.893 477.07 635.27 467.444 618.782C457.144 601.075 464.879 611.716 446.509 579.203C435.117 559.014 434.402 558.72 422.295 537.311C405.774 508.121 409.894 513.505 403.336 502.948C391.649 484.146 387.151 480.613 386.311 470.897C386.016 467.406 386.1 462.149 382.401 458.153C378.87 454.326 373.363 453.232 370.294 452.601C365.46 451.634 365.418 452.685 359.827 451.928C352.176 450.919 345.576 447.974 343.474 447.007C338.43 444.736 336.538 442.759 334.982 443.726C333.259 444.82 333.301 448.647 334.436 451.381C335.907 454.914 339.186 456.639 340.027 457.102C347.93 461.518 352.722 475.019 358.482 488.479C360.71 493.652 365.502 503.116 375.087 522.127C390.388 552.411 394.55 551.864 408.296 579.414C417.629 598.131 422.337 607.468 426.625 620.213C433.099 639.434 435.243 654.282 444.659 656.721C447.055 657.352 447.35 656.511 460.297 653.819C475.935 650.538 478.331 651.211 479.971 648.814Z" fill="#2B5ADC"/>
<path d="M490.313 684.901C489.473 682.63 486.908 681.705 485.731 681.284C478.543 678.76 471.775 677.541 467.403 676.069C465.553 675.438 461.265 672.493 452.689 666.563C441.97 659.16 441.802 658.529 439.027 657.562C433.184 655.501 429.947 656.889 418.849 657.856C415.528 658.151 408.045 658.193 393.08 658.277C376.055 658.403 367.731 657.982 366.302 661.726C365.755 663.198 366.302 665.175 367.311 668.54C368.236 671.736 368.782 673.545 370.253 675.101C372.649 677.625 374.373 676.069 384.967 678.382C387.363 678.887 389.212 679.391 390.852 678.382C392.744 677.204 392.449 675.269 394.131 674.134C396.149 672.788 399.091 673.924 401.992 675.101C409.18 678.045 412.796 679.56 415.066 680.99C421.413 684.985 427.299 686.331 438.607 688.855C448.233 691 445.291 688.981 475.558 690.832C480.056 691.126 488.758 691.673 490.271 688.224C490.692 687.341 490.734 686.037 490.313 684.901Z" fill="#FC3824"/>
<path d="M535.125 669.511C534.368 667.155 530.5 666.609 523.984 665.599C513.223 663.917 507.884 663.076 506.665 662.655C504.731 661.982 499.603 659.038 489.345 653.149C486.487 651.509 483.628 649.826 479.551 649.532C477.196 649.364 476.187 649.784 471.353 650.836C466.519 651.887 456.135 653.99 451.049 654.958C446.551 655.799 445.164 656.009 444.869 657.061C444.281 658.954 448.064 661.73 455.673 667.197C461.684 671.53 463.618 672.245 464.963 671.53C467.023 670.436 466.056 666.609 468.074 665.852C468.663 665.641 469.293 665.725 473.959 668.754C476.692 670.52 477.911 671.404 480.097 672.707C481.779 673.759 483.208 674.558 484.133 675.021C484.133 675.021 485.352 675.61 486.192 675.82C487.033 675.988 487.285 676.072 488.631 676.072C488.631 676.072 491.489 676.661 495.315 676.998C495.945 677.04 496.45 677.082 496.786 677.124C499.266 677.292 501.116 677.334 502.587 677.334C504.731 677.376 506.581 677.292 510.911 677.124C514.4 676.956 516.207 676.703 519.402 676.703C526.002 676.745 530.164 677.376 533.149 674.432C533.359 674.222 535.839 671.698 535.125 669.511Z" fill="#FC3824"/>
</svg>
