<svg width="160" height="168" viewBox="0 0 160 168" fill="none" xmlns="http://www.w3.org/2000/svg">
<path d="M37.9723 83.4435L34.0866 83.1511C30.8275 83.1023 29.228 82.1078 28.3766 81.131C27.4627 80.0891 26.8613 78.452 25.7839 78.4783C25.2507 78.4926 25.1513 78.8979 24.4051 79.0147C23.4618 79.1556 22.6677 78.6449 21.9809 78.2085C21.5694 77.9386 20.5001 77.2323 19.9161 75.8843C19.7133 75.4177 19.4503 74.7875 19.6398 74.1091C19.7911 73.5628 20.0643 73.5949 20.0965 73.2052C20.1608 72.4548 19.2442 71.5988 18.1957 70.617C17.9654 70.4013 17.8559 70.3091 17.8562 70.1635C17.8729 69.6483 19.3226 69.4818 20.8876 68.7734C21.7844 68.3724 22.065 68.0797 23.4177 67.1534C25.468 65.745 25.5214 65.9132 29.2222 63.604C31.335 62.2899 32.3825 61.6339 33.4055 60.8681C35.7118 59.1445 36.865 58.2827 37.4875 57.3075C37.5639 57.1889 38.3393 55.9767 39.6723 54.8017C40.2176 54.3236 40.5361 54.1318 40.8765 54.1775C41.302 54.2346 41.4893 54.6047 42.4201 56.1688C43.3821 57.7799 43.5586 58.0313 43.6089 58.5893C43.6374 58.8806 43.6854 59.479 43.4354 60.1392C43.3003 60.4906 43.2196 60.4859 43.2193 60.6607C43.1979 61.2275 43.9835 61.5208 44.9224 62.4396C45.2823 62.7923 45.5437 63.1133 45.6933 63.3243L47.6011 63.6295L49.0303 63.622L52.3674 61.6703L53.8 61.0983L55.0945 61.1801L55.1988 61.6732L53.7675 62.7001L52.2585 64.4572C52.2585 64.4572 50.2325 66.0628 50.1517 66.1163C50.071 66.1699 48.5284 66.8537 48.5284 66.8537L52.1195 68.8055L54.7966 71.8192L56.1852 74.0296L55.7453 76.5512L54.0314 78.8611L49.9185 81.1334L45.6436 82.6503L41.3099 83.45L37.9723 83.4435Z" fill="#2B5ADC"/>
<path d="M26.9403 77.1122C26.6631 77.936 25.1323 78.3599 25.1323 78.3599C25.1323 78.3599 23.8797 78.5605 22.8209 78.206C22.1606 77.9847 21.7425 77.6028 21.3133 77.2185C20.884 76.8343 20.372 76.3692 20.1004 75.5798C19.9802 75.2233 19.7999 74.7031 20.0161 74.1233C20.2301 73.5548 20.7056 73.2782 20.8514 73.1913C21.3851 72.8857 21.9092 72.9162 22.2138 72.9372C22.9887 72.9952 23.0687 73.2911 23.9869 73.419C24.6676 73.5104 24.7508 73.3582 25.0842 73.5249C25.4825 73.7164 25.6319 74.0439 26.0779 74.9793C26.9321 76.7784 27.017 76.8772 26.9403 77.1122Z" fill="#FFDB13"/>
<path d="M25.1067 74.655C24.9929 74.4396 24.7399 74.3941 23.804 74.2102C23.2554 74.099 23.1614 74.0741 22.9665 74.087C22.5543 74.1084 22.2785 74.2331 22.1888 74.2732C21.9354 74.4025 21.691 74.5161 21.6413 74.7333C21.6006 74.9057 21.7102 74.9687 22.0203 75.5677C22.2256 75.9648 22.2299 76.0298 22.3951 76.2789C22.5514 76.5146 22.6363 76.6425 22.7973 76.7684C23.1998 77.0831 23.7016 77.0799 23.6971 77.1023C23.6925 77.1247 23.4171 77.0747 23.4081 77.0904C23.4036 77.1128 23.8042 77.2931 24.259 77.2338C24.5525 77.1942 25.0569 77.0342 25.1069 76.7005C25.1273 76.5706 25.0829 76.3868 24.9553 76.3259C24.7495 76.2201 24.5561 76.5714 24.1125 76.6038C23.7921 76.6321 23.5416 76.4881 23.3268 76.3687C22.971 76.1684 22.7745 75.9013 22.665 75.7509C22.5422 75.5803 22.4506 75.4568 22.4197 75.2641C22.3843 75.0646 22.3961 74.7756 22.3961 74.7756C22.3961 74.7756 22.7255 74.7025 22.8398 74.6849C23.0997 74.6385 23.3146 74.6996 23.7041 74.8193C24.2436 74.9753 24.4382 75.1372 24.8235 75.1046C24.9781 75.0893 25.0902 75.0537 25.1351 74.9754C25.2071 74.8501 25.1223 74.6931 25.1067 74.655Z" fill="#F5F4F1"/>
<path d="M18.9673 70.0587L19.8125 70.807L22.5515 69.9694L25.3861 69.466L28.474 69.958L32.9477 69.7344L34.2521 69.3928L35.5643 68.5224L36.6833 66.8786L36.6678 64.6493L36.9043 62.9607L37.4619 61.9898L38.46 61.3762L40.3932 61.3253L41.9616 61.1188L43.0182 60.3598L43.2534 59.2827L42.9454 57.7226L42.1935 56.2822L41.1233 55.0046L40.8619 54.6836L39.7522 56.1661L38.1805 57.9163L34.8307 60.5647L31.1292 63.1943L24.5524 67.5371L21.8551 68.7735L19.7568 69.5835L18.9673 70.0587Z" fill="#FC3824"/>
<path d="M28.9186 67.3262L29.0238 67.3533C30.9715 67.8647 30.9671 67.858 31.0454 67.8739C31.9948 68.0489 32.8085 67.771 33.1582 67.6554C33.8352 67.4196 34.5412 67.184 34.8002 66.5372C34.9848 66.0851 34.8558 65.6568 34.6111 64.8496C34.4732 64.4079 34.3019 63.8429 33.9615 63.7972C33.8137 63.7789 33.6187 63.85 33.5422 63.9977C33.3825 64.2975 33.8814 64.6259 34.014 65.4687C34.0471 65.7085 34.0803 65.8901 34.0082 66.1027C33.8121 66.669 33.1105 66.8823 32.8057 66.9778C32.0727 67.2022 31.401 67.0952 31.1703 67.0542C30.4381 66.9291 30.1761 66.8993 29.6745 66.8442C29.6521 66.8397 29.4752 66.8213 29.2757 66.8857C29.1771 66.9124 28.9171 66.9879 28.8853 67.1737C28.8785 67.2365 28.8963 67.2925 28.9186 67.3262Z" fill="#FFDB13"/>
<path d="M38.6515 59.7669C38.5979 59.6861 38.5221 59.5134 38.5896 59.4105C38.6772 59.2651 38.9257 59.3329 39.7702 59.3351C40.0323 59.3358 40.2092 59.3251 40.4356 59.2719C40.7852 59.1854 40.9288 59.0514 40.9715 59.0134C41.0231 58.9598 41.1802 58.8168 41.2188 58.5973C41.2437 58.4742 41.2192 58.3934 41.079 57.9338C40.9366 57.4853 40.9032 57.3911 40.9616 57.3039C41.0425 57.1921 41.2531 57.159 41.4054 57.2132C41.8418 57.36 41.8782 58.189 41.8779 58.3055C41.8887 58.5117 41.9057 58.9464 41.6181 59.3601C41.3372 59.7694 40.936 59.9095 40.723 59.9829C40.3846 60.1007 40.0912 60.082 39.4999 60.0379C38.8863 59.9893 38.7319 59.8881 38.6515 59.7669Z" fill="#FFDB13"/>
<path d="M40.0469 62.0596L43.5246 63.6213L46.2234 64.8561L46.6702 65.4129L46.5147 65.865L45.329 66.1958L42.5144 65.7067L40.44 65.7932L39.793 65.6212L39.3643 64.9748L39.6498 64.4849L40.7254 64.2951L40.9222 64.4748L40.0469 62.0596Z" fill="#FFDB13"/>
<path d="M41.5038 66.0355L40.819 66.7708L39.8943 68.693L38.6515 70.6613L36.6481 72.1258L35.414 73.1286L34.9599 73.9048L34.7753 74.3278L35.3103 74.5062L36.599 74.1555L38.1077 73.6106L39.7917 72.7748L41.2111 72.0369L42.5284 70.882L43.4627 69.7194L44.0337 68.7687L44.317 68.2609L44.9227 67.8009L46.1234 67.7996L47.605 67.3307L48.2354 66.835L49.6275 66.3479L50.6234 65.7165L52.12 64.4814L53.5367 62.9213L54.5308 62.0972L55.1276 61.6237L54.9717 61.2133L53.9415 61.121L51.9594 62.0479L49.488 63.435L48.8242 63.8365L47.4223 63.6805L45.9444 63.4101L45.1263 63.6522L44.6328 64.0183L45.6353 64.5071L46.5391 65.0516L46.7012 65.7197L45.5491 66.0864L44.0889 65.9594L42.3848 65.7129L41.8112 65.754L41.5038 66.0355Z" fill="#FC3824"/>
<path d="M29.3442 41.7314L28.1369 41.7372L23.9803 43.4762L20.507 45.1788L17.7242 46.6077L15.7271 47.1761L12.4029 49.381L11.3619 50.149L9.45792 52.2747L8.33149 54.2724L7.98253 55.105L8.58425 55.5009L12.8147 54.8375L16.4262 53.4601L20.8896 50.6936L25.5678 46.9508L28.8047 43.7083L29.7236 42.4202L29.3442 41.7314Z" fill="#2B5ADC"/>
<path d="M29.1905 42.5783L28.8241 42.1427L27.5533 42.462L24.2799 43.9254L22.3022 44.8881L19.488 46.3281L17.2638 47.3283L16.2461 47.6931L15.1474 48.2279L12.0385 50.29L11.2255 51.2557L9.77714 52.9726L9.20362 54.0801L8.86391 54.7805L9.67907 54.87L12.2133 54.498L13.8856 53.8638L15.3114 53.3253L16.6898 52.9055L19.2516 51.1579L21.8651 49.2984L24.5958 47.0897L26.3214 45.6447L27.7647 44.1832L28.8064 43.0657L29.1905 42.5783Z" fill="#FFDB13"/>
<path d="M29.6825 41.7275L29.7183 41.7814L31.0512 43.864L31.4896 45.2116L32.2107 46.3718L33.1017 47.6714L35.2562 50.9928L37.1941 54.0606L37.0033 55.3215L35.9676 56.784L33.8651 58.5082L28.2705 62.3449L22.1182 66.1735L18.4084 67.4319L16.5513 67.5099L14.5822 64.3951L12.2605 60.6318L10.061 57.3886C9.41076 56.6274 8.76726 55.8617 8.1215 55.1073C8.62087 55.1735 9.11798 55.251 9.61736 55.3173L12.6202 54.7314L15.7966 53.6038L19.0755 51.6519L23.0037 48.8235L26.2955 46.0584L28.8345 43.4146L29.6825 41.7275Z" fill="#2B5ADC"/>
<path d="M14.9914 63.466L19.0341 62.6655L23.1933 60.7114L28.718 57.1053L32.3493 53.7854L33.9784 52.3849L35.0939 51.3348L36.0472 52.8451L36.7906 54.039L36.6314 55.1722L35.136 56.8912L30.5326 60.1772L25.4181 63.6858L21.5359 65.9408L17.9296 66.9754L16.7847 67.1047L15.4001 65.1339L14.7552 63.9717L14.4649 63.5341L14.9914 63.466Z" fill="#FFDB13"/>
<path d="M15.755 66.0626C15.0992 65.819 14.6838 66.2884 12.7514 67.0272C12.0004 67.312 11.2717 67.6596 10.5118 67.9309C10.5118 67.9309 9.58821 68.2624 9.27566 68.8284C9.26893 68.8328 9.24868 68.8754 9.2127 68.938C8.94738 69.4145 8.91374 69.4368 8.89343 69.5085C8.80992 69.8062 9.17208 70.1477 9.30844 70.2803C9.72871 70.6802 10.2459 70.7734 10.4923 70.7942L15.1424 70.8511L17.6747 70.3155L22.2728 68.4388L26.6154 65.607C28.1989 64.6052 29.8229 63.5183 31.4807 62.3509C32.8536 61.3821 34.1728 60.4199 35.4157 59.4598C35.7859 59.1852 36.3468 58.7453 37.0066 58.1622C38.7458 56.6208 38.7198 56.2018 40.9131 53.9133C41.7191 53.0685 43.4161 51.3613 44.3612 50.3466C44.4129 50.2929 44.4668 50.2281 44.5184 50.1745C44.579 50.1052 45.9261 48.6591 45.9911 48.5965C45.9377 48.4575 45.835 48.2735 45.6516 48.1431C45.0097 47.6866 43.893 48.2528 43.0947 48.6853C42.0272 49.2673 40.307 50.2822 38.0658 51.9433L36.5136 52.9631L36.8751 53.625L36.8192 54.6218L35.2265 56.7931L31.7155 59.3739L28.1914 61.7889L23.7032 64.6495L22.0975 65.5303L20.1358 66.3272L17.6661 66.9571L16.6937 67.0397C16.5176 66.6718 16.2317 66.2409 15.755 66.0626Z" fill="#2B5ADC"/>
<path d="M38.1092 83.4029C37.7505 83.5341 37.0578 83.79 36.9223 84.3452C36.8454 84.6677 36.9859 84.9526 37.1466 85.2532C37.6307 86.173 38.0413 86.9381 38.3983 87.5932C39.7341 89.3443 41.0654 91.0886 42.4013 92.8396C44.0552 94.5735 45.7024 96.3119 47.3563 98.0459C49.4934 100.099 51.6238 102.157 53.7653 104.217L58.5194 108.054C59.8467 108.55 61.6592 109.442 63.3424 111.089C64.1114 111.839 64.6207 112.519 65.0339 113.069C66.6109 115.184 66.6761 116.1 67.9778 118.136C69.0852 119.864 70.2094 121.018 70.9582 121.782C73.0459 123.907 73.537 123.639 75.1237 125.389C77.1775 127.653 77.6774 129.561 78.2803 129.403C78.7532 129.283 78.6841 128.04 78.8567 125.889C78.9281 124.96 79.3859 122.407 80.2994 117.283C81.1223 112.665 81.2003 112.827 81.1773 112.047C81.1367 110.058 80.66 108.813 81.4358 107.368C81.9463 106.428 82.7832 105.776 83.2252 105.434C83.5438 105.184 83.8577 105.015 84.2431 104.953C84.4537 104.92 84.6374 104.934 84.7561 104.952C84.8839 104.867 85.0903 104.74 85.3348 104.568C86.351 103.865 87.0332 103.258 87.2823 103.034C89.0126 101.508 91.0559 100.221 91.4372 99.9778C92.451 99.3441 92.2759 99.5475 93.5857 98.7466C95.851 97.3702 95.8605 97.0924 97.3159 96.321C98.7443 95.5675 99.6324 95.0948 100.957 94.9437C102.144 94.8056 103.053 95.0074 103.188 94.656C103.377 94.1524 101.78 93.0594 101.911 92.876C101.967 92.7999 102.253 92.9979 102.679 92.9093C102.903 92.8674 103.029 92.7646 103.134 92.7044C103.818 92.3186 104.538 93.024 105.354 92.764C105.777 92.6284 106.249 92.2286 106.211 91.8947C106.134 91.2089 103.837 90.9296 102.598 90.7718C100.493 90.5198 100.643 90.8182 97.7512 90.6224C96.7277 90.5548 95.1376 90.4073 93.6318 90.6789C93.0089 90.7916 92.5336 90.9516 92.2108 91.0785C91.4015 91.3923 90.8587 91.7718 90.7151 91.8767C89.7774 92.5083 88.7379 92.5773 86.1339 93.1216C82.3557 93.9116 81.9785 94.3072 79.9715 94.3199C79.0262 94.3264 78.4259 94.3271 77.6176 94.1457C75.3743 93.6268 74.4519 92.3093 72.01 90.3806C70.7085 89.3533 71.2873 89.9777 67.543 87.4004C65.2615 85.8306 63.7159 84.7713 61.7145 83.2C59.0041 81.0713 57.6534 79.999 57.4277 79.761C56.4666 78.7503 55.9933 78.0366 55.122 77.994C54.1813 77.9489 53.772 78.7343 52.0269 79.8724C50.9255 80.5931 50.0467 80.9628 48.9459 81.4214C47.8832 81.8645 46.2914 82.5325 44.165 82.8473C42.2492 83.1291 41.2992 83.2745 40.2869 83.18C39.9375 83.15 39.0776 83.0514 38.1092 83.4029Z" fill="#FFDB13"/>
<path d="M44.2733 86.4609C46.301 88.3348 46.4809 87.9924 48.2963 89.6484C49.7875 91.0055 49.6974 91.2495 52.0393 93.8747C54.1489 96.2371 55.8881 97.8951 56.8605 98.8207C58.5908 100.465 59.6217 101.304 61.3904 102.758C63.631 104.587 64.6577 105.273 66.1199 105.506C66.9104 105.631 67.5848 105.552 68.9112 105.39C70.8896 105.144 72.7605 104.911 74.5696 104.206C78.6856 102.581 80.2089 99.37 81.3836 99.9869C81.9094 100.268 81.581 100.913 82.5276 102.398C83.3291 103.651 83.9939 103.879 83.9433 104.474C83.8746 105.218 82.7493 105.625 81.4892 106.18C78.7091 107.394 79.966 107.258 76.3853 108.886C73.0805 110.39 71.4302 111.145 68.9768 111.464C67.9842 111.589 66.8662 111.729 65.4107 111.493C64.0515 111.269 62.8116 110.773 60.8139 109.558C58.8318 108.352 57.3312 107.185 55.3792 105.543C53.0671 103.605 51.0793 101.938 48.5289 99.3927C47.7622 98.6312 46.2938 97.0456 43.3572 93.8744C38.7511 88.9021 40.8902 91.0607 40.3783 90.5374C39.8754 90.0275 37.9933 88.1249 37.0368 86.0254C36.8919 85.7046 36.6624 85.1394 36.8607 84.5619C37.1155 83.7918 37.9651 83.4804 38.0973 83.4314C38.5076 83.2757 39.3547 83.0919 41.0016 83.9095C42.427 84.5831 43.075 85.3555 44.2733 86.4609Z" fill="#2B5ADC"/>
<path d="M50.5418 83.0663C50.4518 83.252 50.288 83.3703 50.1512 83.4417C50.1775 83.7151 50.2058 84.1229 50.1801 84.6247C50.1519 85.2251 50.1311 85.5297 49.9427 85.6838C49.5836 85.9898 48.892 85.7214 48.5586 85.5839C48.1154 85.4124 47.7979 85.1383 47.1495 84.5989C46.5614 84.1067 46.3111 83.817 46.1503 83.6037C45.7862 83.1278 45.6008 82.8921 45.6594 82.6884C45.7678 82.2966 46.4777 82.3589 48.0354 81.9463C49.2792 81.6157 49.5709 81.3834 49.9759 81.5996C50.4323 81.8494 50.7802 82.5785 50.5418 83.0663Z" fill="#FC3824"/>
<path d="M51.9599 80.9526C51.7854 80.8647 51.6041 80.7814 51.3577 80.7897C51.1471 80.7936 50.9476 80.8872 50.5753 81.0856C50.23 81.2662 50.0551 81.3531 49.9966 81.4695C49.8504 81.7603 50.04 82.1193 50.2052 82.4267C50.4082 82.8058 50.6157 83.1917 51.012 83.2779C51.368 83.3617 51.682 83.1632 51.9825 82.9735C52.3683 82.737 52.5907 82.4441 52.7143 82.2652C52.7504 82.1152 52.7868 81.8487 52.6732 81.575C52.5238 81.2184 52.1994 81.0652 51.9599 80.9526Z" fill="#FC3824"/>
<path d="M53.9789 79.4987C54.1781 79.5507 54.2382 79.7436 54.5684 80.3874C54.7246 80.6814 54.9276 81.0605 55.0414 81.2759C55.385 81.9108 55.4744 82.0164 55.4181 82.1215C55.3597 82.2379 55.1983 82.2576 54.3539 82.2263C53.0325 82.1624 52.8311 82.0633 52.6925 81.9128C52.4937 81.686 52.6082 81.5519 52.3713 81.2824C52.0071 80.8647 51.5297 80.9777 51.4943 80.7782C51.4411 80.5227 52.2836 80.3905 53.4701 79.652C53.6024 79.5739 53.7841 79.4534 53.9789 79.4987Z" fill="#FC3824"/>
<path d="M54.0841 85.6929C53.6941 85.7771 53.3855 85.5746 53.3452 85.5432C53.2848 85.4959 52.9672 85.28 52.9568 84.8991C52.9419 84.5115 53.2426 84.2636 53.3256 84.1988C53.4019 84.1385 53.6308 83.9577 53.9354 83.9786C54.399 84.0202 54.6197 84.4845 54.6577 84.5563C54.7112 84.6662 54.8049 84.8659 54.7529 85.0943C54.6782 85.4346 54.3463 85.6354 54.0841 85.6929Z" fill="#F5F4F1"/>
<path d="M59.0986 88.4742C58.9709 88.4716 58.8074 88.4734 58.6504 88.5873C58.4597 88.7234 58.4078 88.9227 58.3897 88.9831C58.2768 89.4265 58.6299 89.8127 58.6522 89.8464C58.9495 90.1631 59.3504 90.1686 59.552 90.1803C59.7603 90.1876 60.1321 90.193 60.2984 89.947C60.4085 89.777 60.3731 89.5776 60.3509 89.4565C60.2579 88.9365 59.759 88.6663 59.6359 88.6122C59.3831 88.4794 59.1568 88.4743 59.0986 88.4742Z" fill="#F5F4F1"/>
<path d="M55.2214 80.5815C55.9095 81.4728 56.4705 82.0702 56.6001 82.2072C56.7252 82.3374 56.8549 82.4745 57.7781 83.3842C58.1223 83.7279 58.7884 84.3816 59.0366 84.6242C60.4136 85.9699 62.207 87.3883 62.9606 87.9839C63.4772 88.3975 64.7564 89.3911 66.6262 90.7201C70.4463 93.441 70.3286 92.9859 72.5671 94.7393C73.6137 95.5575 74.3291 96.1979 75.6739 96.8668C76.4996 97.279 77.4103 97.7317 78.6398 97.876C79.7147 98.0065 79.9146 97.7673 82.8633 97.3045C85.3304 96.9189 85.4936 97.0336 86.3702 96.6751C87.6974 96.1342 87.5975 95.7351 88.9559 95.2413C90.5094 94.6763 91.3601 94.9361 91.7378 94.2493C91.7941 94.1441 91.7717 94.1396 91.9432 92.4552C92.0119 91.7407 92.0278 91.6332 91.9429 91.5344C91.6032 91.1683 90.5132 91.8331 89.0112 92.4028C88.323 92.6654 87.0859 92.9332 84.6186 93.4645C82.4605 93.9361 81.5755 94.0481 80.9437 94.1181C79.1983 94.3062 78.4907 94.2036 77.902 94.0026C76.9507 93.6932 76.3739 93.1742 75.8864 92.7606C74.5068 91.601 72.8734 90.7745 71.377 89.7601C67.1137 86.8678 66.867 86.9926 64.1541 84.9916C62.602 83.8494 61.8327 83.2738 60.992 82.5323C59.646 81.3503 58.1362 80.3449 56.871 79.0802C56.5357 78.75 55.845 78.0447 54.9825 78.1029C54.9063 78.105 54.297 78.1504 54.1282 78.5242C54.0585 78.6674 53.9839 78.9786 55.2214 80.5815Z" fill="#2B5ADC"/>
<path d="M81.4693 99.018C81.8405 98.2482 82.8055 98.4905 84.8008 97.6712C85.1505 97.5265 85.8973 97.1184 87.3931 96.2911C88.9808 95.4125 89.2343 95.225 90.0594 94.862C90.9876 94.4499 91.5952 94.1826 92.4915 94.0438C93.7127 93.8543 94.6218 94.027 95.1479 94.1336C95.383 94.1813 96.0256 94.3174 96.681 94.7649C96.9986 94.9809 97.1775 95.1045 97.1973 95.295C97.2256 95.6737 96.5465 95.8915 95.5124 96.5677C94.6085 97.1479 94.7696 97.2155 93.6054 98.0168C93.0221 98.423 92.9123 98.4474 91.6989 99.2037C91.0664 99.5942 90.333 100.052 89.4761 100.63C88.5048 101.283 87.7758 101.777 86.8871 102.541C86.1802 103.155 85.8212 103.461 85.5223 103.902C85.0999 104.521 85.0409 104.9 84.7406 104.944C84.4628 104.992 84.2102 104.714 83.3302 103.504C81.9879 101.641 81.803 101.201 81.6917 100.858C81.4158 99.9745 81.2466 99.4857 81.4693 99.018Z" fill="#FC3824"/>
<path d="M92.6236 95.2048C92.7363 94.878 93.265 94.8279 93.4555 94.8082C93.6101 94.7929 94.0559 94.7493 94.3644 95.0391C94.4181 95.0908 94.5656 95.2256 94.5295 95.3465C94.4957 95.4562 94.3321 95.4871 93.875 95.5576C92.8914 95.6962 92.7526 95.6622 92.6744 95.559C92.5582 95.413 92.6213 95.216 92.6236 95.2048Z" fill="#FFDB13"/>
<path d="M94.1785 96.193C93.9726 96.1163 93.7686 96.174 93.3697 96.2737C92.9327 96.3891 92.8519 96.4718 92.8181 96.5232C92.735 96.6463 92.6831 96.8455 92.7746 96.969C92.8059 97.0161 92.8574 97.0498 93.0857 97.102C93.332 97.1519 93.4529 97.1881 93.6411 97.1796C93.9457 97.1714 94.1854 97.1676 94.365 97C94.475 96.8883 94.5919 96.6847 94.5273 96.4851C94.4605 96.2967 94.2546 96.22 94.1785 96.193Z" fill="#FFDB13"/>
<path d="M92.2066 91.3344C92.4359 90.9496 92.9401 90.8479 93.1754 90.8081C94.8112 90.5279 96.3027 90.6729 96.3027 90.6729C98.1033 90.8456 97.5998 90.5979 100.572 90.7692C101.723 90.8394 102.753 90.9317 103.649 91.0259C103.987 91.1701 104.043 91.2689 104.036 91.3316C104.029 91.4234 103.881 91.5799 101.994 91.8908C100.813 92.0827 100.311 92.115 100.241 92.3747C100.194 92.5516 100.375 92.7514 100.683 93.0995C101.139 93.6115 101.383 93.6435 101.379 93.8115C101.369 94.1185 100.542 94.2014 98.8028 94.7637C97.8614 95.0682 97.6887 95.1731 97.3036 95.1183C96.6183 95.0202 96.5856 94.6056 95.6949 94.2269C94.7997 93.8414 93.9328 93.8638 93.6102 93.8742C92.5663 93.9073 92.2072 94.2425 91.9546 93.9931C91.6775 93.7213 92.0793 93.2899 92.0845 91.9098C92.096 91.7373 92.0897 91.5379 92.2066 91.3344Z" fill="#FC3824"/>
<path d="M140.383 116.066C140.329 116.102 140.228 116.169 140.179 116.212C136.894 118.477 136.031 119.001 134.593 120.062C134.279 120.289 133.718 120.729 132.603 121.605C130.837 122.989 129.015 124.45 126.512 126.168C125.495 126.871 125.377 126.911 125.218 126.949C123.171 127.414 121.656 124.648 118.137 121.388C113.478 117.081 112.248 118.323 108.656 114.704C107.697 113.741 105.787 111.634 104.097 111.921C103.765 111.976 102.882 112.223 102.178 111.759C101.766 111.489 101.756 111.196 101.469 111.027C100.574 110.496 98.7073 112.122 98.3842 112.395C96.2052 114.267 93.4724 115.362 91.0366 116.89C89.3207 117.97 86.9792 119.378 83.8293 120.691C80.8968 121.909 79.9246 121.933 79.4507 121.482C78.8516 120.9 79.1768 119.637 79.6692 117.721C80.3535 115.056 81.1229 114.536 81.0371 112.742C80.992 111.812 80.7794 111.739 80.6881 110.404C80.5991 109.028 80.5384 108.089 80.8853 107.18C81.3358 105.99 82.1719 105.716 87.6742 102.076C87.7549 102.023 87.8357 101.969 87.9164 101.916C92.7077 98.7378 92.7795 98.6999 93.4345 98.2558C97.3981 95.5977 96.8535 95.7554 97.5844 95.4257C98.6673 94.9401 100.732 94.0068 103.196 94.3604C104.588 94.5612 106.134 95.504 109.163 97.3827C110.96 98.4986 110.87 98.5387 112.396 99.4949C113.29 100.055 115.225 101.234 119.853 103.507C124.189 105.633 123.59 105.139 125.615 106.219C126.383 106.631 126.468 106.701 133.917 111.504C137.165 113.596 138.789 114.642 139.142 114.766C139.523 114.901 140.801 115.324 140.76 115.729C140.757 115.886 140.549 115.995 140.383 116.066Z" fill="#2B5ADC"/>
<path d="M146.123 110.124C146.139 108.979 144.221 108.264 140.929 106.647C137.4 104.906 139.769 105.788 133.376 102.534C129.409 100.511 129.263 100.54 125.052 98.3986C119.308 95.48 120.539 95.9044 118.368 94.9107C114.501 93.1419 113.406 93.0539 112.24 91.5878C111.822 91.0602 111.277 90.2097 110.261 89.9628C109.289 89.725 108.292 90.1347 107.734 90.3595C106.857 90.7179 106.962 90.8907 105.986 91.3632C104.655 92.0139 103.285 92.2433 102.846 92.3116C101.798 92.4837 101.285 92.3681 101.139 92.6881C100.979 93.0461 101.392 93.6544 101.864 93.9715C102.475 94.3808 103.183 94.3087 103.366 94.2935C105.1 94.1614 107.301 95.8139 109.652 97.3569C110.558 97.9485 112.33 98.9546 115.883 100.98C121.547 104.203 122.156 103.674 127.281 106.625C130.762 108.63 132.507 109.625 134.547 111.21C137.624 113.599 139.544 115.748 141.31 115.139C141.761 114.986 141.718 114.82 143.505 113.014C145.66 110.828 146.115 110.682 146.123 110.124Z" fill="#2B5ADC"/>
<path d="M151.61 114.803C151.234 114.529 150.726 114.653 150.492 114.711C149.074 115.07 147.861 115.593 147.005 115.822C146.642 115.917 145.643 115.901 143.64 115.862C141.138 115.816 141.044 115.732 140.497 115.872C139.343 116.163 138.972 116.729 137.299 118.062C136.798 118.461 135.605 119.263 133.218 120.865C130.506 122.693 129.129 123.509 129.298 124.26C129.367 124.554 129.664 124.812 130.183 125.244C130.67 125.657 130.95 125.889 131.351 125.982C132.002 126.131 132.113 125.699 134.054 124.945C134.491 124.771 134.841 124.656 134.996 124.32C135.174 123.931 134.921 123.652 135.07 123.292C135.25 122.862 135.842 122.731 136.431 122.612C137.894 122.32 138.634 122.179 139.149 122.167C140.59 122.132 141.675 121.723 143.753 120.926C145.521 120.247 144.836 120.237 149.878 117.319C150.629 116.889 152.08 116.052 151.956 115.34C151.93 115.154 151.798 114.94 151.61 114.803Z" fill="#FFDB13"/>
<path d="M157.148 107.583C156.777 107.286 156.1 107.609 154.95 108.139C153.048 109.013 152.105 109.445 151.865 109.507C151.484 109.605 150.35 109.678 148.083 109.824C147.451 109.865 146.815 109.899 146.131 110.285C145.736 110.508 145.619 110.683 144.957 111.364C144.295 112.046 142.856 113.485 142.145 114.18C141.514 114.792 141.314 114.973 141.379 115.173C141.485 115.538 142.386 115.581 144.184 115.648C145.607 115.703 145.992 115.613 146.131 115.355C146.345 114.962 145.784 114.452 146.027 114.116C146.098 114.02 146.208 113.966 147.277 113.956C147.902 113.948 148.191 113.96 148.679 113.937C149.06 113.927 149.374 113.903 149.571 113.879C149.571 113.879 149.828 113.844 149.985 113.788C150.138 113.726 150.187 113.712 150.402 113.57C150.402 113.57 150.923 113.36 151.571 113.008C151.676 112.948 151.761 112.901 151.82 112.872C152.234 112.636 152.535 112.446 152.77 112.29C153.118 112.069 153.405 111.859 154.081 111.372C154.621 110.975 154.884 110.743 155.395 110.403C156.456 109.709 157.189 109.369 157.355 108.58C157.366 108.524 157.495 107.857 157.148 107.583Z" fill="#FFDB13"/>
<path d="M116.26 136.894L120.741 133.921C117.579 130.075 114.282 125.626 111.057 120.58C108.817 117.079 106.863 113.673 105.167 110.441C103.669 111.435 102.185 112.42 100.686 113.414C103.041 116.35 105.447 119.578 107.843 123.099C111.115 127.91 113.899 132.536 116.26 136.894Z" fill="#FFDB13"/>
<path d="M93.7828 152.108L98.2781 149.127C95.1069 145.266 91.8006 140.803 88.5663 135.743C86.3164 132.228 84.3626 128.822 82.6577 125.576C81.1593 126.57 79.6609 127.564 78.1625 128.558C80.5266 131.508 82.9325 134.737 85.3377 138.271C88.6337 143.087 91.422 147.751 93.7828 152.108Z" fill="#FFDB13"/>
<path d="M79.8452 119.278C81.8778 119.212 83.6676 118.351 87.238 116.553C92.9985 113.668 95.8765 112.207 98.0265 110.232C98.5404 109.748 99.5024 108.805 100.99 108.592C102.792 108.333 105.138 109.138 105.333 110.291C105.565 111.684 102.495 112.58 94.927 117.865C93.829 118.634 93.2399 119.065 91.1004 120.566C87.5379 123.051 87.0998 123.28 85.6482 124.345C80.8648 127.843 81.3855 128.475 80.0533 128.829C77.2852 129.566 75.5606 126.72 64.8649 117.592C61.7567 114.931 56.5916 110.703 53.6847 108.438C50.9376 106.291 50.7447 106.277 47.839 103.522C42.0746 98.0841 31.1292 87.1059 32.0727 86.012C32.6954 85.2936 38.4547 88.9439 42.6947 92.4824C46.6952 95.8133 46.5378 96.7115 50.9418 100.528C55.1673 104.198 55.5592 103.592 61.1096 108.032C66.3642 112.241 66.7286 113.343 70.7827 115.865C76.2838 119.279 78.9936 119.314 79.8452 119.278Z" fill="#FC3824"/>
</svg>
