<svg width="535" height="692" viewBox="0 0 535 692" fill="none" xmlns="http://www.w3.org/2000/svg">
<path d="M86.8005 221.856L70.7841 209.406C56.7855 199.816 52.7079 190.9 51.8251 184.212C50.8582 177.062 52.9601 168.229 48.2098 165.243C45.8557 163.77 44.2583 165.243 40.6851 163.602C36.187 161.499 34.2112 156.999 32.4877 153.129C31.4788 150.774 28.8724 144.633 30.2176 137.104C30.68 134.496 31.3526 131.005 34.1271 128.608C36.3551 126.673 37.4481 127.598 38.7093 126C41.1474 122.93 39.6341 116.578 37.9105 109.302C37.5322 107.704 37.322 106.989 37.7424 106.358C39.2978 104.171 46.0659 107.62 54.8938 109.05C59.9383 109.891 61.9982 109.428 70.5319 109.302C83.4796 109.092 83.2273 109.975 105.928 110.606C118.875 110.984 125.307 111.153 131.949 110.774C146.915 109.933 154.397 109.512 159.904 107.073C160.577 106.778 167.429 103.75 176.593 102.488C180.335 101.983 182.268 102.068 183.614 103.245C185.295 104.717 185.043 106.862 184.58 116.326C184.118 126.084 184.16 127.682 182.773 130.248C182.058 131.594 180.545 134.328 177.56 136.473C175.963 137.609 175.626 137.356 175.122 138.113C173.398 140.511 175.963 144.044 177.392 150.732C177.939 153.297 178.149 155.442 178.191 156.788L185.589 163.602L191.811 167.682L211.905 168.818L219.766 170.458L225.147 174.538L224.18 176.977L215.016 177.314L203.413 180.595C203.413 180.595 190.003 181.73 189.499 181.73C188.994 181.73 180.335 180.258 180.335 180.258L190.298 199.059L193.24 219.837L192.904 233.423L183.74 243.097L169.657 248.186L145.275 246.209L122.365 240.489L101.262 231.488L86.8005 221.856Z" fill="#FFDB13"/>
<path d="M57.1645 162.635C53.5913 165.411 45.7302 162.845 45.7302 162.845C45.7302 162.845 39.7188 160.112 36.1456 155.527C33.9176 152.667 33.2029 149.807 32.4463 146.905C31.6896 144.002 30.8068 140.511 31.8998 136.305C32.4042 134.412 33.1189 131.636 35.7252 129.744C38.2895 127.893 41.1481 128.061 42.0309 128.103C45.2258 128.314 47.4118 129.954 48.6729 130.921C51.8678 133.403 51.3633 134.917 54.9786 138.114C57.669 140.469 58.4677 140.049 59.4346 141.731C60.6116 143.708 60.3173 145.559 59.5606 150.9C58.0893 161.163 58.1734 161.836 57.1645 162.635Z" fill="#FFDB13"/>
<path d="M56.2809 146.694C56.407 145.432 55.4401 144.507 51.9089 141.016C49.849 138.955 49.5127 138.576 48.6299 138.071C46.7803 136.978 45.2249 136.725 44.7204 136.641C43.2491 136.473 41.8618 136.263 41.0211 137.062C40.3485 137.693 40.6428 138.282 40.2644 141.773C40.0122 144.086 39.8441 144.38 39.8441 145.937C39.8441 147.409 39.844 148.208 40.1803 149.217C41.0211 151.741 43.2071 153.171 43.123 153.255C43.0389 153.339 41.9879 152.33 41.9039 152.372C41.8198 152.456 43.0389 154.391 45.1828 155.442C46.5701 156.115 49.2185 156.872 50.3956 155.569C50.858 155.064 51.1943 154.139 50.8159 153.508C50.2274 152.456 48.3777 153.423 46.3599 152.288C44.8886 151.489 44.216 150.143 43.6275 149.007C42.6606 147.114 42.5765 145.39 42.5344 144.423C42.4924 143.329 42.4504 142.53 42.8708 141.604C43.2911 140.637 44.1739 139.417 44.1739 139.417C44.1739 139.417 45.8134 140.048 46.3599 140.301C47.6211 140.847 48.3777 141.731 49.723 143.371C51.6147 145.6 51.993 146.862 53.7586 147.829C54.4732 148.208 55.0617 148.376 55.4821 148.166C56.1547 147.829 56.2388 146.904 56.2809 146.694Z" fill="#FC3824"/>
<path d="M42.872 109.09L44.3853 114.768L58.6782 119.016L72.4246 124.989L84.4054 136.009L104.457 147.912L111.099 150.183H119.297L128.881 146.272L135.229 136.556L141.114 129.91L146.327 127.302L152.423 127.513L160.956 132.854L168.355 136.471L175.123 136.219L179.243 132.223L182.396 124.568L183.278 116.156L182.311 107.534L182.101 105.389L173.021 108.627L161.166 111.698L139.012 113.548L115.387 114.306L74.3583 114.221L59.0986 111.824L47.6643 109.3L42.872 109.09Z" fill="#FC3824"/>
<path d="M93.9047 125.875L94.283 126.296C101.261 134.119 101.261 134.077 101.556 134.372C105.171 137.863 109.501 138.998 111.35 139.503C114.966 140.428 118.707 141.438 121.692 139.377C123.794 137.947 124.466 135.718 125.727 131.511C126.4 129.198 127.283 126.254 125.937 125.076C125.349 124.571 124.298 124.319 123.541 124.74C121.986 125.581 123.205 128.441 121.355 132.479C120.809 133.614 120.431 134.498 119.506 135.213C117.025 137.106 113.368 136.012 111.771 135.549C107.945 134.414 105.339 132.016 104.456 131.175C101.64 128.525 100.589 127.642 98.5709 125.959C98.4868 125.875 97.7721 125.286 96.7212 124.992C96.2167 124.824 94.8715 124.403 94.1989 125.118C93.9887 125.371 93.9047 125.665 93.9047 125.875Z" fill="#FFDB13"/>
<path d="M157.887 121.08C157.887 120.576 158.055 119.608 158.644 119.356C159.442 118.977 160.325 119.987 163.982 122.426C165.117 123.183 165.916 123.646 167.051 124.067C168.817 124.698 169.826 124.529 170.12 124.487C170.498 124.403 171.591 124.235 172.39 123.394C172.852 122.931 172.978 122.51 173.693 120.113C174.366 117.758 174.492 117.253 174.996 117.043C175.669 116.79 176.678 117.253 177.182 117.926C178.654 119.819 176.426 123.52 176.089 124.025C175.543 124.95 174.366 126.885 171.927 127.852C169.531 128.819 167.387 128.273 166.252 127.978C164.445 127.516 163.226 126.59 160.787 124.698C158.265 122.721 157.887 121.837 157.887 121.08Z" fill="#FFDB13"/>
<path d="M157.341 135.045L167.934 151.827L176.089 164.95L176.426 168.651L174.45 170.166L168.355 168.189L157.551 157.968L148.302 152.374L145.99 149.766V145.728L148.639 144.424L153.851 146.696L154.188 148.042L157.341 135.045Z" fill="#FFDB13"/>
<path d="M152.213 156.497L147.126 157.716L137.583 163.395L126.527 168.358L113.622 168.947L105.382 169.746L101.179 171.807L99.1608 173.111L100.968 175.424L107.568 177.611L115.682 179.588L125.392 180.808L133.674 181.691L142.712 180.471L150.111 178.116L155.323 175.634L158.014 174.246L161.965 173.994L167.178 177.443L174.955 179.672L179.117 179.336L186.557 181.228L192.695 181.354L202.742 180.303L213.378 177.611L220.062 176.896L224.013 176.56L224.518 174.33L220.314 170.965L209.048 169.283L194.334 168.189L190.299 168.021L184.666 163.31L179.033 157.885L174.787 156.581L171.592 156.749L174.535 161.754L176.889 166.717L175.67 170.082L169.616 168.358L163.647 163.605L156.963 157.632L154.356 156.16L152.213 156.497Z" fill="#FC3824"/>
<path d="M169.404 16.0546L164.149 12.6056L141.112 8.18928L121.144 5.58152L104.96 3.77291L94.6605 0.492188H73.8939L67.1678 0.828672L52.7909 4.57207L42.1553 9.99788L38.2458 12.6056L39.7171 16.0546L59.9793 25.35L79.611 29.7664L106.936 30.6076L138.002 27.8316L161.375 23.0787L169.068 20.1345L169.404 16.0546Z" fill="#2B5ADC"/>
<path d="M166.294 19.2954L165.958 16.3512L159.526 14.0799L141.113 11.0095L129.763 9.49527L113.41 7.64461L100.883 5.58364L95.4182 4.2377L89.1125 3.39648H69.6911L63.3854 5.24715L52.1613 8.52788L46.4862 11.6824L42.9971 13.7434L46.276 16.4773L58.3409 22.1555L67.421 24.2165L75.156 25.983L82.3444 28.1281L98.487 27.9178L115.176 27.371L133.378 25.6465L145.023 24.3427L155.49 22.1555L163.225 20.3049L166.294 19.2954Z" fill="#FFDB13"/>
<path d="M170.876 17.0211V17.3576L170.666 30.2282L168.69 37.3364L168.48 44.4447L168.606 52.6465L168.396 73.2562L167.975 92.1414L163.519 97.0625L154.818 100.427L140.735 101.857L105.423 102.404L67.7152 101.311L47.9995 96.0951L39.7181 91.0899L40.1384 71.9102L40.8951 48.9031L40.6849 28.5037C40.0544 23.3302 39.4658 18.1568 38.8353 13.0254C40.811 14.7499 42.7448 16.5164 44.7206 18.2409L59.4338 24.3397L76.4591 28.5878L96.3009 29.5552L121.482 28.5878L143.72 26.0642L162.342 21.9002L170.876 17.0211Z" fill="#2B5ADC"/>
<path d="M44.5949 69.0518L64.4368 77.2115L88.1041 80.7026L122.449 80.9549L147.756 77.0012L158.854 75.6132L166.715 74.2673L166.505 83.5627L166.294 90.8812L162.343 95.3397L150.909 98.4942L121.482 99.5037L89.1971 100.008L65.8661 98.6204L47.2433 92.7319L41.9045 89.998L41.5682 77.4639L42.1147 70.566V67.832L44.5949 69.0518Z" fill="#FFDB13"/>
<path d="M40.4319 82.509C38.2879 79.5647 35.1351 80.4059 24.6257 78.0506C20.548 77.1252 16.3863 76.5364 12.3086 75.5269C12.3086 75.5269 7.34813 74.3072 4.36345 75.8634C4.32141 75.8634 4.11121 75.9896 3.77491 76.1578C1.25264 77.4617 1.04247 77.4617 0.748204 77.7141C-0.470893 78.7656 0.117637 81.2892 0.327826 82.2566C1.00043 85.2009 2.97619 87.0936 3.9851 87.8927L23.9951 101.52L36.5224 106.484L61.8712 111.573L88.8595 111.783C98.6122 111.993 108.785 111.951 119.337 111.657C128.081 111.405 136.572 111.026 144.728 110.437C147.124 110.311 150.823 110.017 155.363 109.386C167.344 107.703 168.437 105.811 184.538 102.193C190.465 100.847 202.74 98.3238 209.76 96.6413C210.139 96.5572 210.559 96.431 210.937 96.3469C211.4 96.2207 221.405 93.8233 221.867 93.7392C222.035 92.9821 222.119 91.8885 221.699 90.7949C220.228 86.9674 213.754 86.2103 209.046 85.7897C202.74 85.2429 192.357 84.6961 177.854 85.4532L168.185 85.4112L167.849 89.3228L164.738 93.4868L151.58 98.3238L128.922 99.4173L106.683 99.7538L78.9806 99.2491L69.48 98.4499L58.6763 96.2628L46.1491 91.8885L41.693 89.449C41.9873 87.346 41.9873 84.6541 40.4319 82.509Z" fill="#2B5ADC"/>
<path d="M87.5158 222.068C85.5821 221.606 81.8408 220.722 79.6548 222.741C78.3936 223.919 78.1834 225.559 78.0153 227.326C77.4688 232.71 77.0484 237.21 76.7121 241.08C77.4688 252.52 78.2255 263.919 78.9822 275.359C81.1682 287.641 83.3121 299.923 85.4981 312.204C88.8611 327.262 92.1821 342.32 95.5451 357.419L105.13 387.745C109.46 393.718 114.756 402.803 117.321 414.79C118.498 420.258 118.75 424.674 118.96 428.249C119.717 441.961 117.363 446.125 117.153 458.701C116.984 469.385 118.54 477.629 119.591 483.096C122.533 498.322 125.434 498.575 127.284 510.73C129.68 526.461 126.359 536.177 129.428 537.228C131.824 538.07 135.103 532.476 142.039 523.643C145.024 519.815 154.356 510.057 173.063 490.457C189.92 472.792 189.794 473.717 191.938 470.268C197.487 461.519 199 454.748 206.525 450.71C211.443 448.102 216.95 447.681 219.851 447.471C221.953 447.303 223.803 447.471 225.652 448.312C226.661 448.775 227.418 449.364 227.88 449.784C228.679 449.784 229.94 449.827 231.495 449.784C237.927 449.658 242.635 448.985 244.359 448.733C256.256 447.093 268.825 447.387 271.179 447.429C277.401 447.597 276.056 447.976 284.043 448.27C297.831 448.817 298.672 447.639 307.206 448.481C315.571 449.322 320.784 449.827 326.963 452.981C332.512 455.799 335.875 459.29 337.473 458.155C339.743 456.514 335.959 447.177 337.052 446.756C337.515 446.588 338.187 448.27 340.289 449.112C341.382 449.574 342.223 449.49 342.854 449.532C346.931 449.827 348.024 454.958 352.312 456.178C354.54 456.809 357.735 456.43 358.534 454.874C360.173 451.677 351.009 443.854 346.091 439.606C337.683 432.456 337.473 434.18 325.492 425.011C321.246 421.772 314.772 416.557 307.458 413.402C304.431 412.098 301.909 411.425 300.143 411.047C295.729 410.079 292.282 410.163 291.357 410.205C285.472 410.248 280.764 407.556 267.9 402.424C249.235 394.98 246.461 395.61 237.717 389.89C233.597 387.198 230.991 385.474 228.006 382.361C219.767 373.655 219.557 365.285 214.512 349.891C211.822 341.689 212.536 346.063 203.708 324.107C198.328 310.732 194.67 301.689 190.509 289.113C184.875 272.078 182.101 263.54 181.807 261.858C180.546 254.707 180.546 250.249 176.888 247.557C172.937 244.655 168.901 246.884 158.055 246.8C151.203 246.758 146.327 245.833 140.231 244.655C134.346 243.519 125.518 241.837 115.387 237.084C106.265 232.794 101.725 230.691 97.6049 227.368C96.1756 226.232 92.7285 223.33 87.5158 222.068Z" fill="#FFDB13"/>
<path d="M105.465 253.068C108.87 267.032 110.636 266.065 113.747 278.473C116.311 288.651 115.218 289.45 117.824 307.579C120.179 323.898 122.953 336.096 124.509 342.909C127.283 355.023 129.343 361.626 132.832 373.025C137.288 387.41 139.768 393.34 145.443 398.556C148.512 401.374 151.665 402.972 157.887 406.084C167.177 410.711 175.963 415.085 185.842 417.231C208.374 422.025 224.222 412.478 227.543 418.534C229.015 421.268 225.736 423.119 225.567 432.288C225.441 440.027 227.669 442.93 225.736 445.369C223.297 448.397 217.244 446.925 210.182 445.706C194.628 442.972 200.471 446 180.251 442.761C161.586 439.775 152.253 438.303 140.693 432.625C136.027 430.311 130.772 427.704 125.139 422.488C119.884 417.609 115.933 411.889 110.762 400.869C105.634 389.933 102.481 380.554 98.7393 367.809C94.2833 352.752 90.4579 339.797 86.7165 321.416C85.5815 315.907 83.7738 304.803 80.1586 282.595C74.4835 247.768 77.5523 263.289 76.8376 259.545C76.123 255.886 73.4325 242.216 75.3242 230.355C75.6185 228.547 76.2491 225.434 78.7714 223.499C82.0924 220.892 86.6745 221.985 87.3891 222.153C89.6171 222.658 93.8209 224.299 98.6132 232.584C102.859 239.609 103.448 244.824 105.465 253.068Z" fill="#FC3824"/>
<path d="M142.417 256.389C141.492 256.936 140.441 256.978 139.643 256.894C138.97 258.156 137.919 260.007 136.364 262.11C134.514 264.633 133.547 265.895 132.286 266.021C129.848 266.316 127.62 263.161 126.569 261.605C125.14 259.586 124.551 257.483 123.29 253.277C122.155 249.449 121.903 247.473 121.819 246.085C121.608 242.972 121.482 241.416 122.323 240.701C123.921 239.313 126.821 241.626 134.766 244.318C141.114 246.463 143.048 246.295 144.183 248.398C145.444 250.795 144.855 254.959 142.417 256.389Z" fill="#FC3824"/>
<path d="M154.65 251.302C154.146 250.419 153.6 249.536 152.507 248.863C151.582 248.274 150.447 248.106 148.261 247.895C146.243 247.685 145.234 247.559 144.645 247.895C143.174 248.736 142.964 250.839 142.796 252.648C142.586 254.877 142.375 257.149 143.847 258.663C145.15 260.051 147.084 260.093 148.933 260.135C151.287 260.219 153.095 259.588 154.146 259.167C154.735 258.621 155.659 257.569 155.954 256.055C156.332 254.078 155.365 252.48 154.65 251.302Z" fill="#FC3824"/>
<path d="M167.598 250.797C168.312 251.596 168.018 252.606 167.598 256.349C167.43 258.074 167.219 260.303 167.093 261.565C166.757 265.308 166.841 266.023 166.295 266.317C165.706 266.654 164.949 266.275 161.376 263.71C155.827 259.63 155.239 258.62 155.07 257.569C154.86 256.013 155.743 255.76 155.491 253.91C155.112 251.049 152.716 250.166 153.137 249.199C153.641 247.937 157.677 249.788 164.949 249.998C165.748 250.04 166.883 250.04 167.598 250.797Z" fill="#FC3824"/>
<path d="M150.237 277.965C148.303 277.208 147.546 275.442 147.462 275.189C147.336 274.811 146.579 272.96 147.63 271.278C148.681 269.553 150.699 269.343 151.246 269.301C151.75 269.259 153.263 269.133 154.524 270.1C156.416 271.614 156.038 274.264 155.996 274.685C155.912 275.315 155.744 276.451 154.861 277.292C153.558 278.554 151.54 278.47 150.237 277.965Z" fill="#F5F4F1"/>
<path d="M163.983 304.464C163.437 304.085 162.722 303.623 161.713 303.665C160.494 303.707 159.695 304.422 159.443 304.632C157.677 306.23 158.098 308.922 158.098 309.133C158.476 311.362 160.2 312.54 161.04 313.17C161.923 313.801 163.521 314.895 164.95 314.306C165.917 313.885 166.337 312.918 166.589 312.329C167.682 309.806 166.295 307.198 165.917 306.609C165.202 305.305 164.235 304.632 163.983 304.464Z" fill="#F5F4F1"/>
<path d="M169.869 259.082C170.29 264.928 171.004 269.134 171.173 270.102C171.341 271.027 171.509 271.995 172.896 278.598C173.401 281.08 174.409 285.832 174.788 287.599C176.89 297.399 180.589 308.713 182.144 313.466C183.195 316.747 185.886 324.738 190.174 335.885C198.917 358.681 199.716 356.368 204.382 370.416C206.568 376.978 207.829 381.815 211.739 388.586C214.135 392.75 216.784 397.335 221.702 401.499C225.99 405.158 227.545 404.696 241.67 411.173C253.483 416.599 253.861 417.566 258.695 418.534C266.01 420.006 266.724 417.987 274.039 419.753C282.405 421.772 285.347 425.347 288.962 423.455C289.509 423.16 289.425 423.076 295.016 416.262C297.37 413.36 297.748 412.94 297.664 412.267C297.244 409.701 290.602 409.449 282.447 407.598C278.705 406.757 272.568 404.359 260.335 399.564C249.615 395.4 245.453 393.339 242.511 391.825C234.397 387.619 231.623 385.137 229.647 382.572C226.41 378.492 225.401 374.58 224.476 371.384C221.828 362.383 217.12 354.097 213.547 345.39C203.373 320.574 201.944 320.406 195.933 303.918C192.486 294.497 190.804 289.786 189.291 284.15C186.853 275.149 183.195 266.442 181.346 257.315C180.841 254.918 179.874 249.871 175.965 247.641C175.629 247.431 172.854 245.875 171.046 247.01C170.332 247.431 169.113 248.567 169.869 259.082Z" fill="#FC3824"/>
<path d="M230.697 414.581C234.522 412.31 238.012 416.137 249.025 418.324C250.959 418.703 255.373 419.081 264.243 419.796C273.66 420.554 275.299 420.469 279.923 421.269C285.136 422.152 288.541 422.741 292.829 424.717C298.672 427.409 302.119 430.774 304.095 432.751C304.978 433.634 307.374 436.074 308.929 439.901C309.686 441.752 310.106 442.804 309.644 443.687C308.677 445.411 305.104 444.402 298.672 444.36C293.081 444.276 293.586 445.033 286.229 445.159C282.53 445.243 281.983 445.033 274.542 444.822C270.675 444.696 266.177 444.57 260.796 444.612C254.701 444.654 250.118 444.696 244.065 445.453C239.231 446.084 236.792 446.379 234.228 447.43C230.613 448.902 229.268 450.374 227.838 449.701C226.493 449.113 226.199 447.178 225.863 439.397C225.4 427.451 225.863 425.012 226.367 423.203C227.712 418.577 228.385 415.969 230.697 414.581Z" fill="#2B5ADC"/>
<path d="M290.054 430.141C291.483 429.047 293.922 430.351 294.805 430.814C295.519 431.192 297.579 432.286 298.083 434.431C298.168 434.809 298.42 435.819 297.915 436.239C297.453 436.618 296.654 436.282 294.468 435.272C289.802 433.043 289.297 432.496 289.255 431.823C289.171 430.856 290.012 430.183 290.054 430.141Z" fill="#FFDB13"/>
<path d="M293.964 438.891C293.292 437.966 292.241 437.63 290.223 436.915C287.995 436.157 287.406 436.284 287.112 436.41C286.397 436.704 285.599 437.419 285.641 438.218C285.641 438.513 285.767 438.807 286.607 439.691C287.532 440.616 287.953 441.121 288.793 441.625C290.139 442.467 291.19 443.139 292.451 442.929C293.249 442.761 294.342 442.214 294.637 441.163C294.889 440.153 294.216 439.228 293.964 438.891Z" fill="#FFDB13"/>
<path d="M299.387 412.141C301.489 411.131 303.969 412.141 305.104 412.646C313.007 416.137 319.061 421.058 319.061 421.058C326.375 426.988 324.904 424.465 337.305 433.76C342.097 437.377 346.301 440.742 349.916 443.728C350.967 445.327 350.925 445.915 350.715 446.168C350.421 446.546 349.328 446.799 340.248 442.719C334.573 440.153 332.302 438.849 331.252 439.775C330.537 440.406 330.747 441.794 331.083 444.191C331.588 447.724 332.555 448.565 332.05 449.28C331.125 450.584 327.3 448.565 318.136 446C313.175 444.612 312.124 444.57 310.611 443.224C307.921 440.826 308.971 438.933 306.197 434.727C303.422 430.479 299.597 428.082 298.168 427.199C293.544 424.338 291.021 424.759 290.643 422.95C290.223 420.974 293.207 420.259 297.201 414.286C297.747 413.571 298.294 412.688 299.387 412.141Z" fill="#2B5ADC"/>
<path d="M437.23 658.07C436.893 658.07 436.263 658.07 435.927 658.112C415.16 658.491 409.905 658.28 400.615 658.743C398.597 658.827 394.898 659.121 387.541 659.71C375.897 660.636 363.79 661.729 347.983 661.982C341.552 662.108 340.921 661.94 340.122 661.645C329.907 657.776 331.294 641.414 325.409 617.145C317.59 585.053 308.678 586.903 303.507 560.868C302.12 553.928 299.892 539.291 291.737 535.674C290.139 534.959 285.599 533.486 283.876 529.449C282.867 527.093 283.666 525.789 282.909 524.233C280.555 519.354 267.775 521.036 265.589 521.289C250.75 523.139 235.743 520.027 220.777 519.649C210.226 519.396 196.017 518.765 178.571 515.4C162.344 512.246 158.057 509.554 157.3 506.231C156.375 501.983 161.42 497.44 169.071 490.543C179.706 480.953 184.54 480.911 189.333 472.877C191.813 468.713 191.098 467.788 194.545 461.731C198.119 455.506 200.557 451.258 204.677 448.314C210.057 444.444 214.471 445.664 248.816 445.706C249.321 445.706 249.825 445.706 250.33 445.706C280.261 445.706 280.681 445.748 284.801 445.706C309.645 445.58 306.828 444.696 310.948 445.369C317.044 446.379 328.688 448.272 338.357 456.894C343.822 461.773 347.815 470.311 355.55 487.178C360.132 497.188 359.628 497.104 363.495 505.642C365.765 510.648 370.768 521.331 384.304 544.506C397 566.21 395.823 562.34 401.498 572.855C403.642 576.851 403.81 577.398 422.306 619.669C430.378 638.091 434.413 647.302 435.59 648.859C436.851 650.541 441.181 656.051 439.836 657.691C439.374 658.364 438.155 658.238 437.23 658.07Z" fill="#FC3824"/>
<path d="M479.225 648.814C482.588 643.893 476.324 635.27 466.698 618.782C456.398 601.075 464.133 611.716 445.763 579.203C434.37 559.014 433.656 558.72 421.549 537.311C405.028 508.121 409.148 513.505 402.59 502.948C390.903 484.146 386.405 480.613 385.565 470.897C385.27 467.406 385.354 462.149 381.655 458.153C378.124 454.326 372.617 453.232 369.548 452.601C364.714 451.634 364.672 452.685 359.081 451.928C351.43 450.919 344.83 447.974 342.728 447.007C337.683 444.736 335.792 442.759 334.236 443.726C332.513 444.82 332.555 448.647 333.69 451.381C335.161 454.914 338.44 456.639 339.281 457.102C347.184 461.518 351.976 475.019 357.735 488.479C359.964 493.652 364.756 503.116 374.34 522.127C389.642 552.411 393.804 551.864 407.55 579.414C416.883 598.131 421.591 607.468 425.879 620.213C432.353 639.434 434.497 654.282 443.913 656.721C446.309 657.352 446.603 656.511 459.551 653.819C475.189 650.538 477.585 651.211 479.225 648.814Z" fill="#FC3824"/>
<path d="M489.567 684.901C488.726 682.63 486.162 681.705 484.985 681.284C477.797 678.76 471.029 677.541 466.657 676.069C464.807 675.438 460.519 672.493 451.943 666.563C441.224 659.16 441.056 658.529 438.281 657.562C432.438 655.501 429.201 656.889 418.103 657.856C414.782 658.151 407.299 658.193 392.334 658.277C375.308 658.403 366.985 657.982 365.556 661.726C365.009 663.198 365.556 665.175 366.565 668.54C367.489 671.736 368.036 673.545 369.507 675.101C371.903 677.625 373.627 676.069 384.22 678.382C386.617 678.887 388.466 679.391 390.106 678.382C391.997 677.204 391.703 675.269 393.385 674.134C395.403 672.788 398.345 673.924 401.246 675.101C408.434 678.045 412.05 679.56 414.32 680.99C420.667 684.985 426.553 686.331 437.861 688.855C447.487 691 444.545 688.981 474.812 690.832C479.31 691.126 488.012 691.673 489.525 688.224C489.946 687.341 489.988 686.037 489.567 684.901Z" fill="#2B5ADC"/>
<path d="M534.378 669.511C533.622 667.155 529.754 666.609 523.238 665.599C512.477 663.917 507.138 663.076 505.919 662.655C503.985 661.982 498.856 659.038 488.599 653.149C485.741 651.509 482.882 649.826 478.804 649.532C476.45 649.364 475.441 649.784 470.607 650.836C465.773 651.887 455.389 653.99 450.303 654.958C445.805 655.799 444.417 656.009 444.123 657.061C443.535 658.954 447.318 661.73 454.927 667.197C460.938 671.53 462.872 672.245 464.217 671.53C466.277 670.436 465.31 666.609 467.328 665.852C467.917 665.641 468.547 665.725 473.213 668.754C475.946 670.52 477.165 671.404 479.351 672.707C481.032 673.759 482.462 674.558 483.387 675.021C483.387 675.021 484.606 675.61 485.446 675.82C486.287 675.988 486.539 676.072 487.885 676.072C487.885 676.072 490.743 676.661 494.569 676.998C495.199 677.04 495.704 677.082 496.04 677.124C498.52 677.292 500.37 677.334 501.841 677.334C503.985 677.376 505.835 677.292 510.165 677.124C513.654 676.956 515.461 676.703 518.656 676.703C525.256 676.745 529.418 677.376 532.403 674.432C532.613 674.222 535.093 671.698 534.378 669.511Z" fill="#2B5ADC"/>
</svg>
