<svg width="113" height="142" viewBox="0 0 113 142" fill="none" xmlns="http://www.w3.org/2000/svg">
<path d="M62.1339 119.615C62.5671 118.965 62.6212 118.748 63.0002 118.044C63.4333 117.34 63.7581 116.906 64.5702 115.877C66.6275 113.223 67.6562 111.869 67.981 111.219C68.2517 110.677 68.4683 110.244 68.9555 109.377C69.5511 108.239 69.7135 108.077 69.93 107.969C70.7421 107.535 72.0956 108.185 72.8536 108.889C73.5574 109.539 73.4491 109.973 74.3154 111.706C74.9109 112.952 75.5064 113.819 76.2644 114.956C77.293 116.527 77.4555 116.527 78.2134 117.773C78.9714 119.073 79.0255 119.452 79.6752 120.59C80.1624 121.402 80.9204 122.594 82.1115 123.84C82.5987 124.327 83.3567 125.14 84.0605 126.169C85.035 127.578 84.9809 128.011 86.0095 129.907C87.7961 133.211 88.6082 133.211 88.9331 135.053C89.1496 136.407 88.8248 137.003 89.4203 137.87C89.9617 138.628 90.828 138.845 92.3439 139.278C93.5349 139.603 95.3215 140.036 97.7037 139.765C98.6782 139.657 100.681 139.278 101.114 138.357C101.277 138.032 100.79 137.274 100.627 136.949C100.411 136.461 99.9776 135.486 99.6527 135.107C99.5444 134.999 95.9712 131.748 96.7292 132.778C96.7292 132.778 95.0508 131.098 93.8056 129.528C92.5604 127.957 91.8025 126.548 91.3694 125.79C90.5031 124.165 90.7738 124.273 89.4203 121.565C88.3375 119.344 87.7961 118.261 87.6879 118.152C87.363 117.665 86.8216 116.906 86.6592 115.877C86.6051 115.606 86.6051 115.39 86.4968 115.01C86.2802 114.252 86.0095 114.09 86.0095 113.602C86.0095 113.548 86.0637 112.898 86.4968 112.681C87.1465 112.356 88.0127 113.169 88.121 113.223C88.5 113.548 88.6082 113.819 88.9331 114.577C89.3662 115.498 89.7993 116.473 90.3948 117.394C90.6655 117.881 90.9362 118.152 91.3694 118.802C92.019 119.669 92.2356 119.94 92.8311 120.644C93.6974 121.781 94.2388 122.432 94.7802 123.461C95.484 124.707 95.4298 125.086 96.0795 125.519C96.4585 125.79 96.8375 125.898 97.433 126.44C97.6496 126.657 97.812 126.819 98.1909 127.198C99.003 128.119 99.5986 128.661 100.14 129.528C100.248 129.744 100.465 130.015 100.681 130.34C100.844 130.503 101.223 131.044 101.602 131.369C102.251 131.965 103.064 132.182 103.551 132.29C105.229 132.724 105.662 132.128 107.936 132.29C109.398 132.399 109.993 132.669 110.372 132.29C110.914 131.748 110.427 130.611 110.372 130.448C109.777 128.932 108.532 128.553 106.474 127.198C103.713 125.357 104.525 125.032 101.114 122.54C99.8693 121.619 99.1655 121.24 98.6782 120.211C98.1368 119.019 98.6241 118.477 98.1909 116.961C97.7578 115.444 97.1623 115.606 96.2419 113.71C95.3757 111.869 95.7005 111.273 94.7802 109.052C94.2929 107.806 93.6974 106.885 93.3184 106.235V102.01C93.1018 99.5182 93.4267 97.6765 93.8056 96.4306C94.4012 94.4264 95.1591 93.5055 95.7547 90.8512C96.0795 89.4428 95.9712 89.2803 96.2419 87.6011C96.4585 86.1927 96.8375 84.7302 98.1909 80.6134C98.7865 78.7717 98.8948 78.6092 100.627 73.6257C101.548 70.9172 102.197 69.1297 102.576 66.6379C102.847 65.0129 102.901 63.8211 102.576 62.4127C102.414 61.6002 101.981 60.4085 101.602 59.596C101.277 59.0001 100.952 58.3501 100.627 57.7543C100.194 56.9417 100.14 56.9418 100.14 56.8334C100.14 56.2917 100.627 55.6959 101.114 55.4251C102.089 54.8834 102.793 55.5876 104.038 55.4251C105.392 55.2625 105.879 54.3417 107.449 53.0958C108.369 52.3916 109.777 51.4707 111.834 50.7665C112.105 49.4665 112.213 48.3289 112.321 47.5164C112.484 45.9997 112.592 44.8622 112.321 43.2913C112.159 42.3704 112.105 41.9371 111.834 41.4495C111.13 40.1495 110.156 39.9328 108.423 38.6328C107.449 37.8744 107.774 37.9828 105.987 36.3035C104.417 34.841 103.009 33.7034 102.089 33.0534C99.9234 31.4284 98.8406 30.6159 97.7037 30.2367C96.0254 29.695 95.8088 30.2908 93.3184 29.7491C92.0732 29.4783 92.3439 29.4241 88.9331 28.3408C86.3885 27.5282 85.9554 27.474 85.035 26.9323C84.656 26.6615 83.465 25.9573 82.5987 24.6031C81.6242 23.1406 81.8408 22.1655 81.4077 19.8905C81.137 18.4279 80.5956 17.0195 79.4586 14.0944C78.5383 11.6568 77.7262 9.92345 77.0223 8.51506C76.6434 7.7567 76.2103 6.83583 75.5606 5.69829C74.4778 3.85656 73.774 3.0982 73.6115 2.88152C72.8536 2.06899 72.2581 1.41899 71.1753 1.03981C70.688 0.877305 69.2804 0.335619 68.2517 1.03981C67.5479 1.52733 67.3855 2.33984 67.2772 2.88152C67.2772 2.88152 67.0606 3.8024 67.2772 4.72327C67.5479 6.13165 75.6689 28.6116 76.6975 28.1782C77.672 27.7449 66.032 8.02753 63.9205 5.21076C63.4874 4.66908 62.946 3.96491 61.9715 3.36905C60.618 2.55652 60.1308 2.93568 58.5607 1.96065C57.6403 1.3648 57.2072 0.877305 56.6117 1.03981C55.962 1.20232 55.6913 1.90648 55.6372 1.96065C55.4748 2.394 55.5289 2.7732 55.6372 3.36905C55.6913 3.74823 55.8537 4.23574 56.1244 4.77742C56.4493 5.37327 56.7741 6.02331 57.0989 6.61917C57.6403 7.7567 58.1276 8.84008 58.5607 9.86928C59.7518 13.2819 61.0511 15.7736 61.9715 17.3445C62.3505 17.9404 62.7295 18.6446 63.3792 19.5654C64.8951 21.7322 65.4365 21.8405 66.6817 23.6823C67.8186 25.3615 67.4938 25.3615 68.739 27.149C69.2804 27.8532 69.8759 28.6116 70.688 29.9658C71.1211 30.6159 71.3918 31.1575 71.6625 31.8075C71.7708 32.1325 71.9874 32.7826 72.1498 33.6493C72.3663 34.9493 72.2039 35.5452 72.1498 37.3869C72.0956 39.7161 72.2581 39.337 72.1498 40.637C71.9332 42.5871 71.5542 42.9121 71.6625 44.3747C71.7708 45.5122 72.0415 45.3496 72.1498 46.7039C72.2581 47.7872 72.0956 48.0581 72.1498 49.954C72.2039 51.1457 72.2581 51.1457 72.1498 51.3624C71.8791 52.0666 71.1211 52.3916 68.2517 53.2041C66.6817 53.6374 65.4906 53.9625 64.8409 54.125C62.6212 54.7208 61.5384 54.9917 60.9429 55.0458C59.2104 55.2625 59.048 54.9917 56.5576 55.0458C54.7168 55.1 54.8792 55.2625 51.685 55.5334C48.6532 55.8042 48.1659 55.6417 46.8124 56.0209C45.2965 56.4001 44.2137 56.9959 43.4016 57.4293C36.3635 61.2211 35.3348 60.896 31.7616 63.4961C31.0578 63.9836 29.8667 65.067 27.3763 67.2338C22.9368 71.1339 20.663 73.1381 18.6598 75.6299C17.577 76.9299 15.8987 79.0425 14.2745 82.1843C13.3541 84.026 12.8127 85.4344 11.8382 88.2512C10.972 90.6888 11.1344 90.5804 9.40192 96.2139C8.04843 100.656 7.66945 101.631 7.45289 103.689C7.29047 105.26 7.12805 106.56 7.45289 108.348C7.88601 110.839 8.58982 111.002 9.88917 115.335C10.4847 117.394 10.3223 117.286 10.8637 119.073C10.9178 119.181 11.0261 119.94 11.3509 121.402C11.4592 121.998 11.5675 122.377 11.3509 122.811C11.0802 123.407 10.5389 123.677 10.3764 123.732C9.5102 124.165 8.75224 123.894 7.45289 123.732C6.0994 123.515 4.36693 123.407 2.58032 123.732C1.28097 123.948 0.847853 124.273 0.631295 124.652C0.306457 125.248 0.577155 125.952 0.631295 126.061C0.956133 126.873 2.09307 127.469 2.09307 127.469C4.31279 128.607 7.18219 132.724 12.7586 133.536C14.0579 133.699 15.8445 133.969 18.1184 133.536C19.8509 133.211 21.0961 132.561 21.5292 133.049C22.0706 133.644 20.5005 135.053 21.0419 136.299C21.3668 137.057 22.3413 137.274 23.9655 137.707C27.647 138.628 29.4877 139.061 29.8126 139.115C33.873 139.657 35.6596 139.711 38.529 140.036C44.3761 140.686 45.4048 141.174 49.1946 141.445C51.5767 141.607 54.1213 141.607 55.4206 141.824C55.5289 141.824 55.962 141.932 56.5034 141.878C57.2614 141.824 57.8569 141.553 58.1276 141.445C58.7773 141.12 59.1563 140.957 59.427 140.524C59.7518 139.928 59.5894 139.278 59.427 138.682C59.3728 138.411 59.1563 137.707 58.4524 136.84C57.5862 135.703 56.5576 135.107 55.5289 134.511C54.5544 133.969 54.0671 133.644 53.5799 133.59C52.0098 133.319 50.927 134.186 50.1691 133.59C49.8984 133.374 49.8442 133.103 49.6818 132.669C49.4653 132.019 49.4653 131.261 49.6818 130.828C49.7901 130.557 50.2232 129.69 54.5544 128.986C56.5034 128.661 58.0193 128.553 58.3983 128.553C61.4843 128.39 62.0798 128.607 64.2995 128.553C69.9842 128.336 70.0383 126.657 73.5033 127.144C73.8822 127.198 75.723 127.469 77.4013 126.657C78.1051 126.332 78.3217 126.007 78.3758 125.736C78.43 125.248 77.9969 124.923 77.4013 124.327C75.723 122.648 76.1561 122.269 74.965 121.511C73.9364 120.806 72.9077 120.644 72.5288 120.59C71.7167 120.427 71.1753 120.481 70.0925 120.59C69.4969 120.644 68.4683 120.752 67.1689 121.077C65.1658 121.565 64.9492 121.998 63.7581 121.998C62.6753 121.998 61.4301 121.619 61.3218 121.077C61.376 120.481 61.5925 120.373 62.1339 119.615Z" fill="#FFDB13"/>
<path d="M98.083 41.2647C99.1674 41.2647 100.046 40.3857 100.046 39.3013C100.046 38.217 99.1674 37.3379 98.083 37.3379C96.9987 37.3379 96.1196 38.217 96.1196 39.3013C96.1196 40.3857 96.9987 41.2647 98.083 41.2647Z" fill="#2B5ADC"/>
</svg>
