<svg width="237" height="228" viewBox="0 0 237 228" fill="none" xmlns="http://www.w3.org/2000/svg">
<path d="M226.213 135.484C226.338 136.186 226.405 136.958 226.405 136.958C226.449 137.473 226.442 137.765 226.459 137.958C226.371 139.196 224.929 140.125 224.313 140.499C223.176 141.209 222.193 141.452 220.952 141.717C218.09 142.342 216.657 142.623 214.914 142.703C213.686 142.739 212.903 142.675 208.533 141.968C204.035 141.271 201.768 140.908 200.875 140.691C198.994 140.296 197.762 139.912 192.467 138.245C186.337 136.291 183.273 135.314 182.432 134.963C179.718 133.925 176.738 132.422 170.782 129.482C168.717 128.455 166.174 127.143 161.257 124.603C155.051 121.393 151.966 119.802 151.033 119.134C146.785 116.085 144.472 114.431 141.878 111.407C140.616 109.924 139.452 108.822 138.369 109.042C136.842 109.362 136.643 111.937 134.574 115.736C133.425 117.807 132.192 118.913 129.525 121.789C126.417 125.188 126.769 124.77 124.536 127.417C122.214 130.167 120.906 131.15 119.896 132.205C119.69 132.449 119.019 133.314 117.485 133.927C116.952 134.133 116.963 134.262 116.892 134.559C116.552 135.883 119.386 137.559 122.761 139.87C124.725 141.23 128.234 143.595 131.252 147.037C132.724 148.697 132.507 148.812 135.9 153.583C138.369 157.039 139.34 158.157 141.211 160.69C142.274 162.124 146.051 167.22 150.067 173.948C153.699 179.995 155.993 184.793 156.797 186.604C159.455 192.246 160.718 195.996 161.439 198.333C161.439 198.333 163.34 204.588 163.054 209.534C162.998 210.381 162.877 211.233 162.877 211.233C162.804 211.887 162.67 212.967 162.439 213.666C162.059 214.896 161.059 216.436 159.588 217.044C157.62 217.887 151.187 215.796 153.208 216.309C153.208 216.309 146.297 212.444 141.369 208.642C137.861 205.92 135.518 203.167 130.836 197.725C129.65 196.366 125.358 191.312 120.031 183.657C116.895 179.22 113.345 174.138 109.449 166.914C105.13 158.916 102.938 154.92 102.564 150.967C102.235 147.529 101.411 143.613 100.851 142.008C100.632 141.346 99.6786 142.688 97.4897 143.226C97.1386 143.287 96.6938 143.389 95.0212 143.527C92.5765 143.729 91.3836 143.796 90.0858 143.774C88.8818 143.711 87.2163 143.558 85.2307 143.074L79.4028 141.614L74.269 139.189L69.5872 136.37L64.7776 132.072L59.5241 126.386L55.1428 119.17L52.3054 111.826L50.634 105.228L50.2212 100.826L50.0723 94.9759L49.6879 94.6515L47.607 94.5647L47.9817 97.0274L48.4278 101.816L48.0526 107.223L46.3524 116.044L43.8343 122.147L41.3696 125.492L38.4285 128.197L34.883 128.782L31.564 127.114L29.2442 124.261L27.247 119.892L26.1115 114.999L25.5074 110.256L25.2432 105.322L26.3309 98.7874L26.3135 97.4609L27.2176 94.0503L28.232 90.7924L29.2678 89.2816L28.9493 88.5955L27.5428 88.0642L24.5637 86.2057L20.8159 83.6983L20.4077 83.473L22.1154 80.7407L23.2077 78.3832L25.0219 75.383L27.9362 70.8667L29.6074 68.4612L31.3667 65.9514L34.397 61.6522L38.2541 56.7987L42.4273 51.8543L47.8641 45.4127L51.6997 41.4355L54.8554 37.8384L57.2581 35.2753L60.745 32.1366L64.2962 28.9926L67.9061 25.7789L70.7814 23.4358L71.9021 22.5333L74.5229 24.7454C74.5229 24.7454 75.9985 26.8255 76.2026 26.9382C76.4067 27.0508 78.5867 29.7852 78.5867 29.7852L78.8424 30.1202L80.4905 28.9474C80.4905 28.9474 83.585 27.2663 83.6493 27.2609C83.7136 27.2556 86.8287 26.1881 86.8287 26.1881L93.0016 23.7662L97.9457 22.8711L104.852 22.5585L111.547 23.5588L116.657 26.083L119.155 29.5035L118.874 32.2473L118.48 34.0612L116.944 36.1638L112.881 40.1276L109.581 42.0525L104.027 44.5202L98.9403 46.0101L95.5052 46.7479L91.2004 47.169L87.423 47.3198L87.4548 48.062L87.9487 50.0291L90.3711 49.5695L93.3781 49.1262L96.4899 48.7715L98.4604 48.7055L100.225 48.8833L101.949 48.9672L105.836 49.3257L108.786 49.7291L111.893 50.4435L117.083 52.0218L119.895 53.4408L125.044 56.4152L129.553 59.8635L133.128 63.0005L135.838 66.2416L138.569 70.0963L140.91 74.6957L142.648 79.4422L143.41 84.14L143.579 89.4698C143.496 89.6386 142.97 91.0424 143.639 91.6671C143.814 91.8146 143.983 91.8977 144.345 91.9649C145.566 92.2201 146.625 92.1001 146.625 92.1001C146.625 92.1001 147.729 92.1382 149.91 92.2492C151.698 92.3278 153.351 92.7092 156.557 93.4477C157.217 93.5874 159.565 94.138 163.179 95.1018C166.064 95.867 167.524 96.2643 169.392 96.887C170.991 97.4023 173.139 98.2609 177.364 99.9191C180.615 101.172 182.26 101.846 183.941 102.549C186.905 103.858 188.999 104.85 189.507 105.1C191.875 106.264 193.607 107.189 195.036 107.978C197.52 109.359 199.328 110.408 201.409 111.628C204.686 113.559 206.325 114.525 208.289 115.884C210.218 117.214 211.674 118.324 212.822 119.233C214.768 120.756 216.12 121.778 217.773 123.293C219.671 125.014 221.29 126.5 223.05 128.88C223.109 128.81 225.759 132.477 226.213 135.484Z" fill="#FFDB13"/>
<path d="M151.884 198.734C151.722 199.493 151.368 200.267 150.745 200.934C150.416 201.252 150.005 201.74 149.303 201.863C148.794 201.97 148.362 201.844 147.562 201.586C146.996 201.406 146.593 201.245 146.051 200.966C145.846 200.853 145.275 200.609 144.423 200.129C144.085 199.963 143.298 199.477 142.371 198.874C141.444 198.271 140.85 197.769 139.243 196.413C137.356 194.82 136.412 194.024 136.063 193.729C135.678 193.404 134.165 192.007 132.344 190.053C131.133 188.793 130.267 187.763 129.395 186.67C129.104 186.305 128.889 186.064 126.935 183.699C125.162 181.547 124.255 180.424 123.964 180.059C123.639 179.665 122.36 177.989 120.908 175.81C119.427 173.666 119.365 173.315 117.263 169.991C114.936 166.297 115.039 166.742 113.826 164.705C112.689 162.791 112.852 162.81 110.469 158.473C108.776 155.375 108.671 155.286 108.04 153.978C107.171 152.172 106.652 150.66 105.906 148.779C104.514 145.04 104.991 145.68 104.313 144.214C103.566 142.689 102.973 141.831 103.339 141.186C103.592 140.744 104.193 140.953 105.522 140.584C105.932 140.453 106.553 140.142 107.731 139.527C108.598 139.066 109.559 138.566 111.136 137.69C112.062 137.16 112.486 136.445 113.082 136.59C113.415 136.692 113.595 136.904 113.88 137.204C114.45 137.805 114.539 137.7 116.071 138.934C116.589 139.312 117.842 140.309 119.181 141.559C119.955 142.272 120.49 142.843 121.59 143.95C122.411 144.821 123.621 146.081 125.023 147.682C125.418 148.135 126.535 149.435 129.151 152.716C131.732 155.968 133.04 157.609 134.701 159.965C136.618 162.656 137.965 164.747 138.348 165.428C140.414 168.722 141.8 171.263 142.617 172.847C144.316 176.01 145.468 178.473 146.313 180.379C146.869 181.563 148.113 184.343 149.559 187.948C149.559 187.948 150.512 190.363 151.472 193.975C151.946 195.329 152.342 196.915 151.884 198.734Z" fill="#2B5ADC"/>
<path d="M209.764 127.324C209.989 128.05 210.161 128.911 209.981 129.832C209.891 130.293 209.783 130.918 209.243 131.416C208.885 131.769 208.44 131.871 207.62 132.133C207.053 132.31 206.602 132.347 205.994 132.43C205.771 132.48 205.192 132.528 204.192 132.579C203.806 132.611 202.871 132.656 201.795 132.583C200.691 132.545 199.937 132.445 197.839 132.165C195.415 131.848 194.2 131.657 193.738 131.566C193.212 131.48 191.238 131.125 188.616 130.403C186.923 129.928 185.691 129.544 184.325 129.106C183.893 128.98 183.56 128.878 180.688 127.885C178.05 126.97 176.684 126.533 176.246 126.342C175.744 126.157 173.801 125.411 171.409 124.346C169.017 123.281 168.737 123.045 165.219 121.328C161.299 119.45 161.614 119.716 159.514 118.659C157.548 117.656 157.671 117.581 153.345 115.121C150.277 113.367 150.114 113.348 148.913 112.573C147.199 111.485 145.947 110.487 144.35 109.259C138.559 104.848 138.719 105.58 140.929 100.409C141.337 99.501 141.178 98.413 142.045 96.8191C142.546 95.8708 142.04 95.2649 142.637 95.0535C142.953 94.9626 144.479 94.9982 144.882 95.1592C145.711 95.382 145.7 95.2534 147.628 95.45C148.248 95.4959 149.854 95.7191 151.665 96.055C152.687 96.2619 153.481 96.4553 155.006 96.8473C156.197 97.1373 157.855 97.583 159.916 98.1896C160.482 98.3695 162.111 98.85 166.057 100.272C169.968 101.665 171.941 102.376 174.596 103.484C177.653 104.753 179.887 105.864 180.594 106.162C184.076 107.849 186.601 109.324 188.169 110.23C191.266 111.95 193.533 113.446 195.317 114.594C196.384 115.315 198.925 116.983 202.107 119.311C202.107 119.311 204.216 120.853 206.964 123.41C207.954 124.365 209.158 125.561 209.764 127.324Z" fill="#2B5ADC"/>
<path d="M80.3816 57.6452L75.786 60.3251L70.2611 64.2478L66.6384 67.6892L64.64 70.0569L61.8854 74.1714L58.8741 79.4406L56.4005 86.058L53.8637 85.9441L49.7202 85.607L44.9216 84.061L39.7052 81.8048L35.3601 79.5088L34.172 78.506L34.153 77.5359L35.5113 74.5087L38.0984 69.9547L41.2573 65.6449L45.6633 59.6448L49.7189 54.8397L55.1852 48.3633L59.3297 44.5872L63.838 40.5219L68.6298 37.1132L73.0097 42.0621L76.6676 47.6536L80.3816 57.6452Z" fill="#FC3824"/>
<path d="M115.065 89.4313C113.799 90.9312 113.993 93.1772 115.498 94.4477C117.004 95.7183 119.25 95.5323 120.516 94.0323C121.782 92.5324 121.588 90.2864 120.083 89.0159C118.578 87.7453 116.331 87.9313 115.065 89.4313Z" fill="#2B5ADC"/>
<path d="M98.7517 119.186L98.6016 117.449L98.5986 115.539L98.4986 114.381L98.4995 112.891L98.459 112.798L98.4423 112.605L97.2906 113.898L95.7624 115.709L95.057 116.545L94.7338 116.928L94.4049 117.246L94.2874 117.386L94.1476 117.268L93.9252 117.318C93.9252 117.318 93.6973 117.305 93.6623 117.275C93.6568 117.211 93.4415 116.97 93.4415 116.97L93.3089 116.56L93.5734 116.246C93.5734 116.246 94.3193 115.504 94.4662 115.33C94.5838 115.191 95.2303 114.425 95.2303 114.425C95.2303 114.425 96.3288 113.265 96.3526 113.166C96.3765 113.067 97.3923 112.076 97.3923 112.076L98.1858 111.136L98.9317 110.394L99.2001 110.502L99.5146 110.767L99.7997 111.067L99.7854 111.651C99.7909 111.716 99.7694 112.592 99.7694 112.592L99.7718 113.369L99.8623 114.042L99.8225 115.081L99.836 115.987L99.9137 116.887L99.9001 118.605L99.8691 118.996L99.634 119.275L99.5165 119.414L99.2242 119.406L98.9319 119.398" fill="#2B5ADC"/>
<path d="M102.879 94.5873L99.8515 98.1737L97.7649 100.646L96.576 101.133L96.0907 101.141L95.252 100.433L94.639 98.9615L94.4778 97.0964L94.6717 95.5905L95.0204 94.752L95.7845 93.8467L96.4605 93.0458L97.3334 92.6497L98.5446 92.4199L99.9432 92.1098L101.048 92.1479L102.32 92.6255L103.007 93.4432L102.879 94.5873Z" fill="#2B5ADC"/>
<path d="M95.3137 94.3967L93.9509 93.2465L91.994 91.5948L90.3865 90.2381L90.2118 90.0906L89.3977 90.4171L88.3795 90.6309L87.3136 91.043L86.5051 91.4338L85.8069 91.9774L85.3073 92.5694L84.7195 93.2658L84.1611 93.9273L83.9006 94.6614L83.5042 95.6982L83.2786 96.4618L82.9998 97.3593L82.7853 98.2515L82.7527 98.9991L82.6962 99.8458L82.724 100.167L82.5477 100.376L82.3031 100.17L82.1522 99.9233L82.1665 99.3391L82.1403 98.6612L82.1324 97.8198L82.1079 96.7854L82.2891 95.5073L82.5989 94.2186L82.9659 93.2166L83.2669 92.5764L83.8253 91.9148L84.56 91.0443L85.1406 90.64L85.9897 90.343L87.2192 89.9497L88.4248 89.6556L89.976 89.2357L90.0935 89.0964L90.1206 88.2845L90.2652 87.3333C90.2652 87.3333 90.5345 85.9508 90.494 85.857C90.4591 85.8275 90.7522 84.3458 90.7522 84.3458L90.8126 83.9198L90.7904 83.6625L91.437 82.8965L92.4179 81.8761L93.3623 81.1826L94.7038 80.5857L96.027 80.1523L97.7235 79.9147L98.8521 79.8536L99.2786 79.9155L99.4771 79.9638L99.4644 80.1916L98.7035 80.3841L97.5622 80.6729C97.5622 80.6729 96.7076 80.9056 96.6433 80.9109C96.5789 80.9163 95.4304 81.4971 95.4304 81.4971L94.1001 82.2226L93.1485 83.2082L91.9674 84.5367L91.3105 86.3076L91.0268 88.2743L91.0347 89.1157L91.3309 89.5445L92.7692 90.8181L94.2662 92.022L95.4194 92.9953L96.0135 93.4967L95.2787 94.3672L95.3137 94.3967Z" fill="#2B5ADC"/>
<path d="M98.0836 84.4536C97.7915 84.7998 97.8362 85.3181 98.1836 85.6113C98.531 85.9045 99.0495 85.8616 99.3416 85.5154C99.6338 85.1693 99.589 84.651 99.2416 84.3578C98.8942 84.0646 98.3758 84.1075 98.0836 84.4536Z" fill="#2B5ADC"/>
<path d="M96.7706 87.9966C96.4785 88.3428 96.5233 88.8611 96.8706 89.1543C97.218 89.4475 97.7365 89.4045 98.0286 89.0584C98.3208 88.7122 98.276 88.194 97.9286 87.9008C97.5812 87.6076 97.0628 87.6505 96.7706 87.9966Z" fill="#2B5ADC"/>
<path d="M86.2071 98.524C85.915 98.8701 85.9598 99.3884 86.3071 99.6816C86.6545 99.9748 87.173 99.9319 87.4651 99.5857C87.7573 99.2396 87.7125 98.7213 87.3651 98.4281C87.0177 98.1349 86.4993 98.1778 86.2071 98.524Z" fill="#2B5ADC"/>
<path d="M89.5113 96.5962C89.2192 96.9424 89.264 97.4607 89.6114 97.7539C89.9587 98.0471 90.4772 98.0042 90.7693 97.658C91.0615 97.3119 91.0167 96.7936 90.6693 96.5004C90.322 96.2072 89.8035 96.2501 89.5113 96.5962Z" fill="#2B5ADC"/>
<path d="M95.0895 85.8072C94.7973 86.1533 94.8421 86.6716 95.1895 86.9648C95.5369 87.258 96.0553 87.2151 96.3475 86.8689C96.6396 86.5228 96.5949 86.0045 96.2475 85.7113C95.9001 85.4181 95.3816 85.461 95.0895 85.8072Z" fill="#2B5ADC"/>
<path d="M86.8927 95.1685C87.1866 94.8203 87.7013 94.7777 88.0507 95.0726C88.4001 95.3676 88.4446 95.8821 88.1507 96.2303C87.8568 96.5785 87.3421 96.6211 86.9927 96.3261C86.6433 96.0312 86.5988 95.5167 86.8927 95.1685Z" fill="#2B5ADC"/>
<path d="M33.065 107.325C31.0361 109.728 31.347 113.328 33.7594 115.364C36.1718 117.4 39.7722 117.102 41.801 114.698C43.8299 112.294 43.519 108.695 41.1066 106.659C38.6942 104.623 35.0938 104.921 33.065 107.325Z" fill="#FC3824"/>
<path d="M38.1848 118.982C37.3407 119.981 37.4701 121.479 38.4736 122.326C39.4772 123.173 40.975 123.049 41.819 122.049C42.663 121.049 42.5336 119.552 41.5301 118.705C40.5265 117.858 39.0288 117.982 38.1848 118.982Z" fill="#FC3824"/>
<path d="M32.5676 121.458C31.7235 122.458 31.8529 123.955 32.8564 124.802C33.86 125.649 35.3578 125.525 36.2018 124.525C37.0458 123.525 36.9164 122.028 35.9129 121.181C34.9093 120.334 33.4116 120.458 32.5676 121.458Z" fill="#FC3824"/>
<path d="M29.0036 116.179C28.1596 117.179 28.2889 118.676 29.2925 119.523C30.2961 120.37 31.7938 120.246 32.6378 119.246C33.4818 118.246 33.3525 116.749 32.3489 115.902C31.3453 115.055 29.8476 115.179 29.0036 116.179Z" fill="#FC3824"/>
<path d="M95.874 31.063C93.8452 33.4667 94.1561 37.066 96.5685 39.1021C98.9809 41.1383 102.581 40.8402 104.61 38.4364C106.639 36.0326 106.328 32.4334 103.916 30.3972C101.503 28.3611 97.9029 28.6592 95.874 31.063Z" fill="#FC3824"/>
<path d="M104.983 25.9425C104.139 26.9425 104.268 28.4398 105.272 29.2868C106.275 30.1338 107.773 30.0098 108.617 29.0098C109.461 28.0099 109.331 26.5126 108.328 25.6655C107.324 24.8185 105.827 24.9425 104.983 25.9425Z" fill="#FC3824"/>
<path d="M110.132 29.2706C109.288 30.2706 109.417 31.7679 110.421 32.6149C111.424 33.4619 112.922 33.3379 113.766 32.338C114.61 31.338 114.481 29.8407 113.477 28.9937C112.474 28.1466 110.976 28.2706 110.132 29.2706Z" fill="#FC3824"/>
<path d="M107.688 35.1417C106.844 36.1417 106.974 37.639 107.977 38.486C108.981 39.333 110.478 39.209 111.322 38.2091C112.166 37.2091 112.037 35.7118 111.033 34.8648C110.03 34.0177 108.532 34.1417 107.688 35.1417Z" fill="#FC3824"/>
<path d="M93.0377 56.4748C88.8339 61.4555 89.4781 68.9132 94.4766 73.132C99.4751 77.3509 106.935 76.7333 111.139 71.7527C115.343 66.772 114.698 59.3143 109.7 55.0955C104.701 50.8766 97.2415 51.4942 93.0377 56.4748Z" fill="#2B5ADC"/>
<path d="M57.0084 99.1623C52.8046 104.143 53.4488 111.601 58.4473 115.82C63.4458 120.038 70.9057 119.421 75.1095 114.44C79.3133 109.459 78.6691 102.002 73.6706 97.783C68.6721 93.5641 61.2122 94.1817 57.0084 99.1623Z" fill="#2B5ADC"/>
</svg>
