<svg width="136" height="199" viewBox="0 0 136 199" fill="none" xmlns="http://www.w3.org/2000/svg">
<path d="M15.9133 2.9641C16.375 2.42049 16.9279 1.8779 16.9279 1.8779C17.2965 1.51617 17.5263 1.33581 17.6645 1.20016C18.6751 0.479757 20.3097 1.00103 20.9905 1.23728C22.2616 1.66304 23.0751 2.26661 24.0688 3.05512C26.3725 4.86431 27.5014 5.79151 28.6717 7.08502C29.4816 8.00866 29.93 8.65389 32.1657 12.4745C34.4916 16.3875 35.6542 18.3669 36.0551 19.1945C36.9474 20.8965 37.4353 22.0909 39.5196 27.2359C41.9135 33.2076 43.1105 36.1934 43.3742 37.0652C44.3004 39.8194 45.0387 43.0745 46.5614 49.5394C47.0831 51.7861 47.6899 54.5824 48.8598 59.9916C50.3329 66.8219 51.0696 70.2141 51.148 71.3583C51.4999 76.5754 51.6961 79.4129 51.0143 83.3381C50.674 85.255 50.565 86.8543 51.423 87.5498C52.6424 88.5238 54.7551 87.0383 59.002 86.2168C61.3307 85.7855 62.9684 86.0324 66.8846 86.259C71.4843 86.4933 70.9375 86.4872 74.4002 86.5258C77.9996 86.566 79.5901 86.9496 81.0471 87.0573C81.366 87.0609 82.46 87.0273 83.9093 87.8209C84.4074 88.1009 84.4995 88.0104 84.7744 87.8763C86.0112 87.2956 85.5007 84.0431 85.1361 79.969C84.9348 77.5888 84.5261 73.377 85.2601 68.8579C85.6035 66.6667 85.8303 66.7607 87.3515 61.1071C88.4453 57.0036 88.6895 55.543 89.4526 52.4875C89.8821 50.7546 91.4089 44.598 94.0431 37.2191C96.3956 30.5688 98.6367 25.7464 99.5222 23.9728C102.182 18.3319 104.271 14.9712 105.615 12.9283C105.615 12.9283 109.23 7.481 113.227 4.55314C113.916 4.05779 114.65 3.60868 114.65 3.60868C115.201 3.24899 116.119 2.66474 116.805 2.39802C117.995 1.90827 119.82 1.69998 121.225 2.44734C123.127 3.42891 125.609 9.72165 124.719 7.83677C124.719 7.83677 126.135 15.6267 126.339 21.8483C126.472 26.2856 125.84 29.8456 124.622 36.9202C124.329 38.7004 123.162 45.2268 120.647 54.2076C119.221 59.4506 117.56 65.4228 114.468 73.0252C111.047 81.4472 109.36 85.6812 106.549 88.4851C104.106 90.9273 101.611 94.0549 100.729 95.5084C100.358 96.0987 101.999 95.9799 103.807 97.3262C104.078 97.5579 104.439 97.8363 105.611 99.0384C107.323 100.795 108.133 101.673 108.942 102.688C109.66 103.657 110.602 105.039 111.492 106.878L114.075 112.303L115.472 117.806L116.277 123.212L116.023 129.657L114.98 137.328L112.203 145.3L108.344 152.162L104.319 157.65L101.185 160.771L96.768 164.608L96.7624 165.111L98.0197 166.772L99.6809 164.915L103.091 161.524L107.5 158.372L115.386 154.07L121.696 152.128L125.845 151.9L129.803 152.447L132.511 154.809L133.336 158.431L132.612 162.036L130.514 166.357L127.462 170.347L124.188 173.832L120.55 177.175L114.818 180.495L113.805 181.353L110.599 182.826L107.441 184.117L105.616 184.28L105.29 184.962L105.775 186.385L106.237 189.866L106.689 194.352L106.775 194.811L103.58 195.232L101.067 195.89L97.598 196.4L92.2596 197.027L89.3406 197.268L86.285 197.509L81.0403 197.907L74.8419 198.021L68.3722 197.949L59.9433 197.855L54.4345 197.428L49.6516 197.283L46.1454 197.061L41.5053 196.369L36.8201 195.63L32.0438 194.891L28.4066 194.165L26.9972 193.875L27.0355 190.445C27.0355 190.445 27.7009 187.983 27.6579 187.754C27.6149 187.525 28.3366 184.103 28.3366 184.103L28.4323 183.693L26.4788 183.168C26.4788 183.168 23.2126 181.851 23.1676 181.805C23.1225 181.759 20.3166 180.035 20.3166 180.035L14.52 176.815L10.683 173.571L6.04679 168.443L2.5573 162.642L1.2522 157.094L2.30048 152.99L4.59589 151.461L6.2458 150.611L8.84484 150.457L14.4883 151.069L18.0734 152.389L23.5112 155.102L27.8979 158.078L30.6532 160.258L33.7177 163.31L36.238 166.128L36.7904 165.631L37.9933 163.998L36.0971 162.422L33.8415 160.385L31.5874 158.21L30.2824 156.732L29.2964 155.258L28.2638 153.875L26.067 150.649L24.5005 148.116L23.0741 145.265L20.9884 140.257L20.2936 137.186L19.311 131.321L19.1009 125.648L19.2451 120.894L20.0205 116.741L21.2561 112.182L23.3139 107.449L25.8687 103.087L29.0072 99.5097L33.0109 95.9874C33.1936 95.9437 34.6116 95.4565 34.6674 94.5425C34.67 94.3139 34.6264 94.1305 34.4478 93.8084C33.8677 92.7044 33.1013 91.9641 33.1013 91.9641C33.1013 91.9641 32.4276 91.0877 31.1257 89.3355C30.0481 87.9058 29.2904 86.3882 27.8195 83.4451C27.5072 82.8471 26.4377 80.6858 24.8808 77.2844C23.6352 74.5724 23.0127 73.1936 22.3041 71.3565C21.6836 69.7947 20.9791 67.5918 19.5691 63.2774C18.4668 59.9725 17.9389 58.2746 17.4116 56.531C16.5351 53.4115 15.9678 51.1644 15.8372 50.6142C15.2279 48.0465 14.8393 46.1215 14.5382 44.5176C14.0226 41.7223 13.6811 39.6606 13.2976 37.2784C12.7016 33.5218 12.4036 31.6436 12.2023 29.2633C12.0005 26.9288 11.9298 25.0988 11.9006 23.6351C11.837 21.165 11.7648 19.4722 11.8809 17.2327C12.0006 14.6731 12.1162 12.4794 12.8318 9.60633C12.7406 9.60532 13.8831 5.22796 15.9133 2.9641Z" fill="#FFDB13"/>
<path d="M112.007 20.0416C112.695 19.6835 113.517 19.464 114.428 19.5199C114.883 19.5707 115.521 19.5778 116.063 20.0412C116.469 20.3658 116.647 20.7794 116.957 21.5603C117.179 22.1115 117.311 22.5245 117.441 23.1205C117.484 23.3496 117.659 23.9461 117.831 24.9083C117.918 25.2751 118.045 26.1912 118.169 27.2901C118.293 28.389 118.285 29.1663 118.261 31.2696C118.234 33.7388 118.22 34.9733 118.215 35.4306C118.209 35.9335 118.095 37.9901 117.747 40.6386C117.545 42.3741 117.302 43.6976 117.014 45.0662C116.917 45.5225 116.868 45.842 116.288 48.8538C115.756 51.5916 115.467 53.0061 115.371 53.4623C115.274 53.9642 114.795 56.0168 114.038 58.5235C113.327 61.0307 113.096 61.3025 111.87 65.0387C110.502 69.1849 110.779 68.8221 109.98 71.054C109.227 73.1492 109.138 73.011 107.309 77.6094C105.997 80.8873 105.995 81.0245 105.388 82.3439C104.548 84.1637 103.712 85.5263 102.736 87.2989C100.738 90.7521 100.929 89.9768 100.229 91.4324C99.528 92.9794 99.2434 93.9822 98.5129 94.1113C98.0107 94.1971 97.7896 93.6002 96.6592 92.8102C96.2973 92.5775 95.6625 92.296 94.4379 91.7793C93.5308 91.4033 92.533 90.9806 90.8544 90.3217C89.8561 89.9447 89.0345 90.0727 88.7672 89.521C88.6341 89.1994 88.6827 88.9255 88.7329 88.5145C88.8332 87.6925 88.6965 87.691 88.6729 85.7243C88.6345 85.0836 88.6068 83.4828 88.7183 81.6548C88.7756 80.6037 88.8754 79.8274 89.0295 78.2742C89.1794 77.0869 89.381 75.3514 89.7234 73.2517C89.8212 72.6583 90.1134 70.9695 90.9795 66.8634C91.845 62.8031 92.278 60.7501 93.0381 57.969C93.8939 54.7774 94.6495 52.4079 94.931 51.6793C96.1569 47.9889 97.2349 45.3028 97.9367 43.6644C99.2953 40.3412 100.462 37.8848 101.394 36.0203C101.954 34.8375 103.306 32.1088 105.167 28.6998C105.167 28.6998 106.422 26.4273 108.598 23.3876C109.341 22.1612 110.312 20.8459 112.007 20.0416Z" fill="#2B5ADC"/>
<path d="M20.0876 20.8429C20.5048 20.2073 21.0592 19.5276 21.8844 19.0795C22.297 18.8554 22.8473 18.5415 23.5752 18.641C24.0759 18.6924 24.4373 18.9708 25.1612 19.4362C25.6588 19.7618 25.9742 20.0855 26.4252 20.5021C26.6059 20.6413 27.0114 21.0574 27.6866 21.7966C27.9569 22.074 28.5871 22.767 29.2153 23.6429C29.889 24.5192 30.2919 25.164 31.4111 26.9599C32.7094 29.0323 33.3355 30.0911 33.5587 30.5051C33.827 30.9654 34.81 32.7142 35.9214 35.196C36.6326 36.8045 37.1205 37.9989 37.6524 39.331C37.8301 39.7446 37.9632 40.0662 39.025 42.9133C39.9983 45.5308 40.5302 46.8629 40.6618 47.3217C40.8384 47.8267 41.4999 49.8005 42.2008 52.3235C42.9017 54.8464 42.8976 55.2122 43.8121 59.0181C44.8586 63.2369 44.8632 62.8254 45.3844 65.1177C45.8616 67.2724 45.7254 67.2251 46.5821 72.1278C47.1811 75.61 47.2707 75.7482 47.4372 77.1677C47.6881 79.1826 47.7158 80.7835 47.7845 82.7964C48.0678 90.0707 48.5301 89.4813 43.1354 91.0674C42.1756 91.3311 41.4374 92.146 39.6565 92.492C38.606 92.7089 38.4606 93.4847 37.9175 93.1585C37.6461 92.9726 36.7026 91.7731 36.5705 91.36C36.2147 90.5786 36.1226 90.6691 35.047 89.0565C34.6881 88.5495 33.8377 87.1681 32.9444 85.5575C32.4534 84.6374 32.0971 83.9018 31.4295 82.4767C30.895 81.3732 30.1833 79.8104 29.3396 77.8346C29.1179 77.2834 28.4519 75.7211 27.0378 71.7725C25.6232 67.8697 24.9161 65.8954 24.0811 63.1422C23.114 59.9761 22.5487 57.546 22.3291 56.8119C21.4141 53.0518 20.9451 50.1656 20.6461 48.3788C20.0014 44.8961 19.7126 42.1948 19.4627 40.0884C19.3403 38.8066 19.0095 35.7847 18.78 31.8493C18.78 31.8493 18.6268 29.241 18.8509 25.4936C18.9574 24.1229 19.1129 22.4326 20.0876 20.8429Z" fill="#2B5ADC"/>
<path d="M48.6856 164.987L53.6775 166.826L60.2194 168.591L65.1795 169.195L68.2777 169.23L73.2044 168.736L79.1852 167.705L85.8637 165.402L87.3903 167.431L89.7673 170.842L91.6289 175.527L93.2083 180.986L94.2027 185.799L94.1853 187.354L93.4492 187.986L90.2497 188.865L85.0905 189.768L79.7558 190.074L72.3237 190.494L66.0362 190.424L57.5618 190.329L52.0115 189.536L46.0065 188.645L40.3277 187.119L41.3574 180.591L43.3425 174.211L48.6856 164.987Z" fill="#FC3824"/>
<path d="M51.1319 118.003C53.0946 118.025 54.7035 116.446 54.7255 114.476C54.7475 112.506 53.1742 110.892 51.2115 110.87C49.2488 110.848 47.6399 112.427 47.6179 114.397C47.5959 116.366 49.1692 117.981 51.1319 118.003Z" fill="#2B5ADC"/>
<path d="M84.4626 111.651L83.2186 112.872L81.7469 114.09L80.9176 114.904L79.7679 115.851L79.7213 115.942L79.5831 116.078L81.3139 116.143L83.6831 116.169L84.7765 116.181L85.2777 116.187L85.7328 116.238L85.9151 116.24L85.913 116.423L86.0937 116.562C86.0937 116.562 86.2284 116.746 86.2279 116.792C86.1818 116.837 86.1327 117.157 86.1327 117.157L85.9008 117.52L85.4907 117.516C85.4907 117.516 84.4438 117.413 84.216 117.41C84.0338 117.408 83.0314 117.397 83.0314 117.397C83.0314 117.397 81.4378 117.287 81.3462 117.332C81.2545 117.377 79.8437 117.224 79.8437 117.224L78.6135 117.21L77.5666 117.107L77.4786 116.832L77.4832 116.42L77.5333 116.009L77.993 115.648C78.0391 115.603 78.7286 115.062 78.7286 115.062L79.3265 114.566L79.7878 114.068L80.615 113.437L81.3051 112.85L81.9501 112.217L83.2836 111.134L83.6051 110.909L83.9696 110.913L84.1518 110.916L84.3315 111.146L84.5112 111.377" fill="#2B5ADC"/>
<path d="M62.8627 124.122L67.5555 124.174L70.7903 124.211L71.9227 124.818L72.2376 125.187L72.2253 126.284L71.4805 127.694L70.1445 129.005L68.8596 129.814L67.9908 130.079L66.8062 130.065L65.7583 130.054L64.8973 129.632L63.9491 128.844L62.8198 127.963L62.1461 127.087L61.7048 125.801L61.8987 124.752L62.8627 124.122Z" fill="#2B5ADC"/>
<path d="M67.5318 130.079L67.5119 131.862L67.4834 134.423L67.4599 136.526L67.4573 136.755L68.2273 137.175L69.0402 137.824L70.0365 138.384L70.8525 138.759L71.7161 138.951L72.4907 138.96L73.4019 138.97L74.2676 138.98L74.9996 138.714L76.0516 138.36L76.7842 138.048L77.6539 137.692L78.4786 137.289L79.076 136.839L79.765 136.343L79.9954 136.117L80.2688 136.12L80.2652 136.44L80.171 136.714L79.7113 137.074L79.205 137.526L78.561 138.068L77.7788 138.745L76.6777 139.418L75.4865 140L74.4801 140.354L73.7946 140.529L72.9289 140.52L71.7899 140.507L71.1085 140.317L70.3391 139.851L69.2533 139.153L68.2591 138.41L66.948 137.481L66.7658 137.479L66.1223 137.974L65.2966 138.468C65.2966 138.468 64.0588 139.14 64.0122 139.231C64.0117 139.277 62.6822 139.994 62.6822 139.994L62.3152 140.218L62.1309 140.399L61.1285 140.388L59.7172 140.281L58.5812 139.994L57.267 139.339L56.0906 138.594L54.8277 137.437L54.0623 136.605L53.8386 136.237L53.7495 136.053L53.9333 135.918L54.566 136.382L55.5152 137.079C55.5152 137.079 56.2385 137.59 56.2836 137.636C56.3286 137.682 57.5076 138.198 57.5076 138.198L58.9139 138.763L60.2797 138.87L62.0561 138.935L63.8401 138.315L65.5376 137.282L66.1816 136.74L66.3239 136.239L66.3909 134.319L66.3668 132.398L66.3836 130.889L66.3923 130.112L67.5313 130.125L67.5318 130.079Z" fill="#2B5ADC"/>
<path d="M58.0986 134.269C58.5515 134.274 58.9228 133.909 58.9279 133.455C58.933 133 58.5699 132.627 58.117 132.622C57.664 132.617 57.2928 132.982 57.2877 133.436C57.2826 133.891 57.6457 134.263 58.0986 134.269Z" fill="#2B5ADC"/>
<path d="M61.6665 133.03C62.1194 133.035 62.4907 132.671 62.4958 132.216C62.5008 131.762 62.1378 131.389 61.6848 131.384C61.2319 131.379 60.8606 131.743 60.8556 132.198C60.8505 132.653 61.2135 133.025 61.6665 133.03Z" fill="#2B5ADC"/>
<path d="M76.5107 134.476C76.9637 134.481 77.3349 134.116 77.34 133.662C77.3451 133.207 76.982 132.835 76.5291 132.829C76.0762 132.824 75.7049 133.189 75.6998 133.643C75.6947 134.098 76.0578 134.471 76.5107 134.476Z" fill="#2B5ADC"/>
<path d="M72.9209 133.153C73.3738 133.158 73.7451 132.794 73.7502 132.339C73.7552 131.885 73.3922 131.512 72.9393 131.507C72.4863 131.502 72.115 131.867 72.11 132.321C72.1049 132.776 72.4679 133.148 72.9209 133.153Z" fill="#2B5ADC"/>
<path d="M61.0483 135.718C61.5012 135.723 61.8725 135.358 61.8776 134.904C61.8827 134.449 61.5196 134.077 61.0667 134.072C60.6138 134.067 60.2425 134.431 60.2374 134.886C60.2323 135.34 60.5954 135.713 61.0483 135.718Z" fill="#2B5ADC"/>
<path d="M73.4848 136.085C73.0292 136.08 72.6688 135.71 72.6739 135.253C72.679 134.795 73.0476 134.434 73.5032 134.439C73.9588 134.444 74.3192 134.814 74.3141 135.271C74.309 135.728 73.9405 136.09 73.4848 136.085Z" fill="#2B5ADC"/>
<path d="M117.116 169.868C120.262 169.903 122.84 167.372 122.875 164.216C122.911 161.059 120.389 158.472 117.244 158.437C114.099 158.402 111.52 160.932 111.485 164.089C111.45 167.245 113.971 169.833 117.116 169.868Z" fill="#FC3824"/>
<path d="M122.852 158.499C124.161 158.513 125.233 157.461 125.248 156.147C125.263 154.834 124.214 153.758 122.905 153.743C121.597 153.729 120.524 154.781 120.51 156.094C120.495 157.408 121.544 158.484 122.852 158.499Z" fill="#FC3824"/>
<path d="M128.337 161.254C129.645 161.269 130.718 160.216 130.732 158.903C130.747 157.59 129.698 156.514 128.39 156.499C127.081 156.484 126.009 157.537 125.994 158.85C125.979 160.164 127.028 161.24 128.337 161.254Z" fill="#FC3824"/>
<path d="M126.531 167.366C127.84 167.38 128.913 166.328 128.927 165.015C128.942 163.701 127.893 162.625 126.585 162.61C125.276 162.596 124.203 163.649 124.189 164.962C124.174 166.275 125.223 167.351 126.531 167.366Z" fill="#FC3824"/>
<path d="M18.3244 169.952C21.4698 169.987 24.0482 167.456 24.0834 164.3C24.1186 161.143 21.5974 158.556 18.452 158.521C15.3066 158.485 12.7283 161.016 12.6931 164.173C12.6578 167.329 15.1791 169.917 18.3244 169.952Z" fill="#FC3824"/>
<path d="M8.57735 166.186C9.88582 166.201 10.9584 165.148 10.9731 163.835C10.9877 162.522 9.93889 161.445 8.63042 161.431C7.32195 161.416 6.24935 162.469 6.2347 163.782C6.22004 165.095 7.26888 166.171 8.57735 166.186Z" fill="#FC3824"/>
<path d="M7.86788 160.096C9.17635 160.111 10.249 159.058 10.2636 157.745C10.2783 156.432 9.22942 155.355 7.92095 155.341C6.61248 155.326 5.53988 156.379 5.52522 157.692C5.51057 159.005 6.55941 160.082 7.86788 160.096Z" fill="#FC3824"/>
<path d="M13.9528 158.245C15.2613 158.259 16.3339 157.207 16.3486 155.893C16.3632 154.58 15.3144 153.504 14.0059 153.489C12.6974 153.475 11.6248 154.527 11.6102 155.841C11.5955 157.154 12.6444 158.23 13.9528 158.245Z" fill="#FC3824"/>
<path d="M39.7289 155.969C46.2461 156.042 51.5885 150.799 51.6615 144.258C51.7345 137.718 46.5105 132.357 39.9933 132.284C33.4761 132.211 28.1337 137.454 28.0607 143.995C27.9877 150.536 33.2118 155.897 39.7289 155.969Z" fill="#2B5ADC"/>
<path d="M95.5849 156.592C102.102 156.665 107.444 151.422 107.517 144.881C107.59 138.341 102.366 132.98 95.8492 132.907C89.332 132.834 83.9897 138.078 83.9167 144.618C83.8437 151.159 89.0677 156.52 95.5849 156.592Z" fill="#2B5ADC"/>
</svg>
