<svg width="96" height="133" viewBox="0 0 96 133" fill="none" xmlns="http://www.w3.org/2000/svg">
<path d="M13.3504 132.346L82.3861 132.281C89.4325 132.281 95.1476 126.631 95.1476 119.649L95.0502 12.9764C95.0502 5.99475 89.3352 0.376953 82.2562 0.376953L13.2205 0.441922C6.17405 0.441922 0.458984 6.09214 0.458984 13.0738L0.556377 119.747C0.588849 126.696 6.30395 132.346 13.3504 132.346Z" fill="#FC3824"/>
<path d="M81.9953 9.66443V5.31312H79.2676C78.6506 5.31312 78.1311 4.89097 78.1311 4.3714C78.1311 3.85184 78.6506 3.42969 79.2676 3.42969H86.996C87.613 3.42969 88.1325 3.85184 88.1325 4.3714C88.1325 4.89097 87.613 5.31312 86.996 5.31312H84.2683V9.66443C85.0477 8.72272 86.2816 7.87846 88.0351 8.26813C91.5745 9.07995 89.6912 16.3863 83.1318 18.8542C81.8329 18.3671 80.6964 17.6852 79.7872 16.9059C76.0204 13.7235 75.4034 8.91758 78.2285 8.26813C79.982 7.87846 81.2159 8.72272 81.9953 9.66443Z" fill="#F3F3F3"/>
<path d="M15.6875 123.776V128.127H18.4152C19.0321 128.127 19.5517 128.549 19.5517 129.069C19.5517 129.588 19.0321 130.01 18.4152 130.01H10.6868C10.0699 130.01 9.5503 129.588 9.5503 129.069C9.5503 128.549 10.0699 128.127 10.6868 128.127H13.4145V123.776C12.6352 124.717 11.4012 125.562 9.64769 125.172C6.10823 124.36 7.99164 117.054 14.551 114.586C15.8499 115.073 16.9864 115.755 17.8956 116.534C21.6624 119.717 22.2794 124.523 19.4543 125.172C17.7008 125.562 16.4669 124.717 15.6875 123.776Z" fill="#F3F3F3"/>
<path d="M52.301 90.928L53.0248 91.1813L52.9998 96.7312L52.2236 96.9777L52.1008 96.5022C51.9535 95.9015 51.7469 95.5089 51.4811 95.3244C51.1987 95.1231 50.7075 95.0209 50.0075 95.0177L41.3826 94.9787L49.6729 102.666L50.1229 102.668C50.7729 102.671 51.2316 102.582 51.4991 102.4C51.7499 102.217 51.9599 101.852 52.1291 101.302L52.2561 100.853L52.9802 101.056L52.955 106.631L52.1788 106.903L52.0563 106.352C51.8756 105.768 51.6606 105.384 51.4115 105.199C51.1456 105.015 50.6627 104.921 49.9627 104.918L39.7128 104.871C39.0128 104.868 38.529 104.966 38.2615 105.165C37.9773 105.347 37.759 105.721 37.6064 106.287L37.4789 106.836L36.7052 106.558L36.7277 101.583L37.079 101.284L37.5026 101.586C37.9842 101.972 38.508 102.241 39.074 102.393C39.6233 102.546 40.348 102.624 41.248 102.628L47.8229 102.658L39.5326 94.9704C38.9325 94.9843 38.507 95.0991 38.256 95.3146C37.9884 95.5134 37.7867 95.8875 37.6509 96.4369L37.5238 96.9113L36.7499 96.6578L36.7723 91.7078L37.1238 91.3844L37.5473 91.7113C38.0122 92.0968 38.5277 92.3658 39.0937 92.5183C39.643 92.6708 40.376 92.7491 41.2926 92.7533L50.1675 92.7934C50.8175 92.7963 51.2763 92.7068 51.5438 92.5246C51.8113 92.3258 52.0214 91.9518 52.1738 91.4025L52.301 90.928ZM53.3633 88.2111C53.3606 88.8111 53.175 89.2936 52.8067 89.6586C52.4217 90.0236 51.9209 90.2046 51.3043 90.2018C50.8709 90.1999 50.5297 90.0983 50.2806 89.8972C50.0315 89.6961 49.9077 89.4289 49.9092 89.0955C49.9106 88.7955 50.1447 88.6216 50.6116 88.5737C50.8451 88.5414 51.0538 88.4674 51.2376 88.3515C51.4049 88.2189 51.4891 88.0277 51.4902 87.7777C51.4959 86.5277 49.1162 85.7086 44.3512 85.3204L43.9264 85.2934C43.4764 85.2914 43.1676 85.39 43 85.5893C42.8325 85.7885 42.7056 86.1879 42.6196 86.7875L42.4675 87.2619L41.7936 87.0088L41.8344 77.9839L42.1607 77.6854L42.5344 77.9871C42.9995 78.3392 43.49 78.5914 44.006 78.7437C44.522 78.8794 45.1967 78.9491 46.0301 78.9529L50.48 78.973C51.0633 78.9756 51.4721 78.8858 51.7062 78.7035C51.9404 78.5213 52.1336 78.1805 52.2859 77.6811L52.3878 77.2566L53.0868 77.4848L53.0637 82.5847L52.3626 82.8315L52.2147 82.3559C52.0671 81.8219 51.8688 81.4626 51.6196 81.2782C51.3704 81.0937 50.9208 81 50.2709 80.9971L44.5959 80.9714C43.9459 80.9685 43.5205 81.0582 43.3197 81.2407C43.1189 81.4064 43.0173 81.7643 43.0148 82.3143L43.013 82.7143C43.0111 83.1476 43.0679 83.4729 43.1836 83.6901C43.2827 83.8905 43.4989 83.9998 43.8321 84.018C46.4311 84.2464 48.4296 84.5805 49.8277 85.0201C51.2258 85.4431 52.1653 85.9224 52.6462 86.4579C53.1272 86.9767 53.3662 87.5611 53.3633 88.2111ZM52.3925 76.2127L52.2449 75.687C52.0972 75.1697 51.8904 74.8271 51.6245 74.6592C51.3587 74.4746 50.9343 74.3311 50.3515 74.2284L44.2056 73.3006C44.139 73.2837 44.039 73.2749 43.9057 73.2743C43.5724 73.2728 43.3135 73.3799 43.1292 73.5958C42.945 73.7949 42.7936 74.1109 42.6749 74.5437L42.523 74.968L41.8489 74.765L41.8661 70.965L48.7807 67.7463L41.8957 64.4151L41.9091 61.4651L42.2106 61.1165L42.5843 61.4182C43.2985 61.9547 43.989 62.2245 44.6556 62.2276C44.8556 62.2285 45.0558 62.2044 45.256 62.1553L49.1094 61.3977C49.2429 61.3649 49.4264 61.3324 49.6599 61.3002C50.5441 61.1042 51.2032 60.9321 51.6372 60.7841C52.0546 60.636 52.4558 60.3711 52.8408 59.9895L53.1647 60.241L53.144 64.816L52.4429 65.0628L52.2949 64.6121C52.1802 64.1783 51.9983 63.8608 51.7492 63.6596C51.5001 63.4585 51.1673 63.357 50.7506 63.3551C50.5339 63.3541 50.2922 63.378 50.0253 63.4268L44.3713 64.3013L51.6308 67.7341L51.6277 68.4341L44.3372 71.8262L49.7834 72.7008C50.0165 72.7352 50.1831 72.7526 50.2831 72.7531C50.9664 72.7562 51.6759 72.5094 52.4115 72.0127L52.7877 71.7394L53.1114 72.0409L53.0937 75.9408L52.3925 76.2127ZM53.5168 54.2462C53.5135 54.9796 53.3021 55.662 52.8826 56.2934C52.4464 56.9081 51.8192 57.4053 51.0008 57.7849C50.1658 58.1478 49.1567 58.3266 47.9733 58.3212C46.0234 58.3124 44.4841 57.7804 43.3555 56.7253C42.227 55.6536 41.6668 54.2177 41.675 52.4177C41.6777 51.8177 41.773 51.0015 41.961 49.969C42.0978 49.2029 42.1926 48.5117 42.2454 47.8952L42.5218 47.5965L42.9453 47.9234C43.1448 48.041 43.3027 48.125 43.4192 48.1755C43.519 48.2093 43.6606 48.2266 43.8439 48.2275L51.2188 48.2608C51.6855 48.2629 51.9199 48.0223 51.9221 47.539C51.9238 47.1723 51.7921 46.7967 51.5272 46.4122L52.1041 45.9898C52.5523 46.3918 52.9087 46.8184 53.1733 47.2696C53.4213 47.7207 53.5445 48.1296 53.5428 48.4963C53.5399 49.1296 53.3545 49.5871 52.9866 49.8688C52.602 50.1504 51.9847 50.2893 51.1347 50.2854C52.0153 50.8894 52.6375 51.5172 53.0012 52.1689C53.3483 52.8038 53.5202 53.4962 53.5168 54.2462ZM51.7458 53.3632C51.7515 52.0966 51.0728 51.0685 49.7097 50.279L43.5848 50.2513C43.1485 50.8993 42.9285 51.6317 42.9248 52.4483C42.9199 53.5317 43.3244 54.3835 44.1383 55.0039C44.9356 55.6075 46.0759 55.9126 47.5592 55.9193C48.9925 55.9258 50.0519 55.6889 50.7374 55.2087C51.4064 54.7117 51.7425 54.0966 51.7458 53.3632ZM52.8854 44.5958L52.5366 44.3442C52.0715 43.9921 51.6142 43.7484 51.1649 43.613C50.7155 43.461 50.0826 43.3831 49.2659 43.3795L46.3159 43.3661C45.4826 43.3624 44.8073 43.4343 44.2899 43.582C43.756 43.7129 43.2632 43.9523 42.8117 44.3003L42.4105 44.5485L42.1117 44.2971L42.1368 38.7472C42.1396 38.1139 42.1085 37.6137 42.0435 37.2467C41.9786 36.8631 41.8716 36.5626 41.7226 36.3453L41.4242 35.9939L41.7257 35.6703L45.4506 35.6871L45.6476 36.363L45.1968 36.536C44.6629 36.6502 44.2706 36.7901 44.0199 36.9557C43.7692 37.1045 43.5932 37.3204 43.4919 37.6033C43.3907 37.8695 43.339 38.2609 43.3366 38.7776L43.3312 39.9776C43.3287 40.5276 43.4271 40.8947 43.6262 41.0789C43.8088 41.2464 44.2251 41.3316 44.8751 41.3346L50.5 41.36C51.1334 41.3629 51.5754 41.2815 51.8262 41.116C52.0603 40.9337 52.2536 40.5679 52.4061 40.0186L52.5582 39.5693L53.257 39.8225L53.2366 44.3474L52.8854 44.5958ZM53.6324 28.6754C53.6247 30.3754 53.0853 31.723 52.0141 32.7181C50.9263 33.7132 49.474 34.2067 47.6574 34.1985C45.8407 34.1902 44.4097 33.6838 43.3642 32.679C42.3021 31.6742 41.7748 30.3218 41.7825 28.6218C41.7876 27.5052 42.0336 26.5313 42.5207 25.7001C43.0078 24.869 43.6941 24.2304 44.5794 23.7844C45.4648 23.3384 46.5075 23.1181 47.7074 23.1236C48.9074 23.129 49.9564 23.3671 50.8542 23.8378C51.7522 24.2919 52.441 24.9367 52.9205 25.7722C53.4001 26.6077 53.6374 27.5754 53.6324 28.6754ZM52.4072 28.7199C52.4115 27.7699 51.99 27.0013 51.1426 26.4141C50.2787 25.8102 49.1467 25.5051 47.7467 25.4988C47.03 25.4955 46.3129 25.5923 45.5954 25.789C44.8611 25.9857 44.243 26.3163 43.7409 26.7807C43.2222 27.2283 42.9612 27.8188 42.9579 28.5522C42.9534 29.5355 43.3832 30.3291 44.2471 30.933C45.1111 31.5203 46.2598 31.8171 47.6931 31.8236C49.1264 31.8301 50.2693 31.5602 51.1218 31.0141C51.9744 30.4513 52.4028 29.6865 52.4072 28.7199Z" fill="#F3F3F3"/>
</svg>
