<svg width="100" height="139" viewBox="0 0 100 139" fill="none" xmlns="http://www.w3.org/2000/svg">
<path d="M13.5914 138.71L86.3755 138.642C93.8046 138.642 99.83 132.703 99.83 125.365L99.7273 13.243C99.7273 5.90475 93.7019 0 86.2386 0L13.4544 0.0682878C6.02538 0.0682878 0 6.00712 0 13.3454L0.102681 125.467C0.136916 132.771 6.16233 138.71 13.5914 138.71Z" fill="#FC3824"/>
<path d="M85.9648 9.7622V5.18862H83.089C82.4385 5.18862 81.8908 4.74491 81.8908 4.1988C81.8908 3.6527 82.4385 3.20898 83.089 3.20898H91.237C91.8875 3.20898 92.4353 3.6527 92.4353 4.1988C92.4353 4.74491 91.8875 5.18862 91.237 5.18862H88.3613V9.7622C89.1829 8.77239 90.4838 7.88499 92.3325 8.29457C96.0642 9.14786 94.0785 16.8274 87.163 19.4214C85.7936 18.9094 84.5954 18.1927 83.6368 17.3735C79.6655 14.0286 79.015 8.9772 81.9935 8.29457C83.8422 7.88499 85.1431 8.77239 85.9648 9.7622Z" fill="#F3F3F3"/>
<path d="M16.0554 129.7V134.274H18.9311C19.5816 134.274 20.1293 134.718 20.1293 135.264C20.1293 135.81 19.5816 136.253 18.9311 136.253H10.7831C10.1326 136.253 9.58488 135.81 9.58488 135.264C9.58488 134.718 10.1326 134.274 10.7831 134.274H13.6589V129.7C12.8372 130.69 11.5363 131.577 9.68756 131.168C5.95592 130.315 7.9416 122.635 14.8571 120.041C16.2265 120.553 17.4247 121.27 18.3833 122.089C22.3546 125.434 23.0051 130.485 20.0266 131.168C18.1779 131.577 16.877 130.69 16.0554 129.7Z" fill="#F3F3F3"/>
<path d="M54.4345 74.1515V90.7957H65.0782C67.4857 90.7957 69.5131 92.4105 69.5131 94.3979C69.5131 96.3852 67.4857 98 65.0782 98H34.9208C32.5133 98 30.4859 96.3852 30.4859 94.3979C30.4859 92.4105 32.5133 90.7957 34.9208 90.7957H45.5647V74.1515C42.5236 77.7536 37.7084 80.9831 30.8659 79.4926C17.0543 76.3873 24.4037 48.44 49.9996 39C55.0681 40.8632 59.5029 43.4716 63.0509 46.4526C77.7495 58.6253 80.1571 77.0084 69.1331 79.4926C62.2906 80.9831 57.4756 77.7536 54.4345 74.1515Z" fill="#F3F3F3"/>
</svg>
