<svg width="95" height="133" viewBox="0 0 95 133" fill="none" xmlns="http://www.w3.org/2000/svg">
<path d="M12.8914 132.004L81.9271 131.939C88.9736 131.939 94.6887 126.289 94.6887 119.307L94.5912 12.6346C94.5912 5.65295 88.8762 0.0351562 81.7973 0.0351562L12.7615 0.100125C5.71507 0.100125 0 5.75034 0 12.732L0.0973925 119.405C0.129865 126.354 5.84496 132.004 12.8914 132.004Z" fill="#FC3824"/>
<path d="M14.7426 120.605L11.3979 129.081H18.1197L14.7426 120.605Z" fill="#F3F3F3"/>
<path d="M10.8146 125.574C12.6797 125.574 14.1917 123.902 14.1917 121.84C14.1917 119.777 12.6797 118.105 10.8146 118.105C8.94945 118.105 7.4375 119.777 7.4375 121.84C7.4375 123.902 8.94945 125.574 10.8146 125.574Z" fill="#F3F3F3"/>
<path d="M14.7428 122.166C16.608 122.166 18.1199 120.276 18.1199 117.944C18.1199 115.613 16.608 113.723 14.7428 113.723C12.8777 113.723 11.3657 115.613 11.3657 117.944C11.3657 120.276 12.8777 122.166 14.7428 122.166Z" fill="#F3F3F3"/>
<path d="M18.6075 125.574C20.4727 125.574 21.9846 123.902 21.9846 121.84C21.9846 119.777 20.4727 118.105 18.6075 118.105C16.7424 118.105 15.2305 119.777 15.2305 121.84C15.2305 123.902 16.7424 125.574 18.6075 125.574Z" fill="#F3F3F3"/>
<path d="M46.8 61.5449L34.3867 93.0002H59.3335L46.8 61.5449Z" fill="#F3F3F3"/>
<path d="M32.2216 79.9868C39.1437 79.9868 44.7553 73.7817 44.7553 66.1272C44.7553 58.4727 39.1437 52.2676 32.2216 52.2676C25.2994 52.2676 19.688 58.4727 19.688 66.1272C19.688 73.7817 25.2994 79.9868 32.2216 79.9868Z" fill="#F3F3F3"/>
<path d="M46.8008 67.3348C53.723 67.3348 59.3344 60.3203 59.3344 51.6674C59.3344 43.0145 53.723 36 46.8008 36C39.8786 36 34.2671 43.0145 34.2671 51.6674C34.2671 60.3203 39.8786 67.3348 46.8008 67.3348Z" fill="#F3F3F3"/>
<path d="M61.1439 79.9868C68.0661 79.9868 73.6777 73.7817 73.6777 66.1272C73.6777 58.4727 68.0661 52.2676 61.1439 52.2676C54.2218 52.2676 48.6104 58.4727 48.6104 66.1272C48.6104 73.7817 54.2218 79.9868 61.1439 79.9868Z" fill="#F3F3F3"/>
<path d="M82.641 12.5047L85.9856 4.0293H79.2964L82.641 12.5047Z" fill="#F3F3F3"/>
<path d="M86.5646 15.0058C88.4297 15.0058 89.9417 13.3339 89.9417 11.2715C89.9417 9.20904 88.4297 7.53711 86.5646 7.53711C84.6995 7.53711 83.1875 9.20904 83.1875 11.2715C83.1875 13.3339 84.6995 15.0058 86.5646 15.0058Z" fill="#F3F3F3"/>
<path d="M82.6354 19.357C84.5005 19.357 86.0125 17.467 86.0125 15.1355C86.0125 12.8041 84.5005 10.9141 82.6354 10.9141C80.7703 10.9141 79.2583 12.8041 79.2583 15.1355C79.2583 17.467 80.7703 19.357 82.6354 19.357Z" fill="#F3F3F3"/>
<path d="M78.7751 15.0058C80.6402 15.0058 82.1522 13.3339 82.1522 11.2715C82.1522 9.20904 80.6402 7.53711 78.7751 7.53711C76.9099 7.53711 75.3979 9.20904 75.3979 11.2715C75.3979 13.3339 76.9099 15.0058 78.7751 15.0058Z" fill="#F3F3F3"/>
</svg>
