<svg width="98" height="135" viewBox="0 0 98 135" fill="none" xmlns="http://www.w3.org/2000/svg">
<path d="M13.9271 134.555L84.4011 134.489C91.5944 134.489 97.4286 128.738 97.4286 121.633L97.3291 13.0689C97.3291 5.96348 91.495 0.246094 84.2686 0.246094L13.7945 0.312215C6.60123 0.312215 0.76709 6.0626 0.76709 13.168L0.866512 121.732C0.89966 128.804 6.73383 134.555 13.9271 134.555Z" fill="#FC3824"/>
<path d="M15.8147 122.953L12.4004 131.579H19.2621L15.8147 122.953Z" fill="#F3F3F3"/>
<path d="M11.8039 128.007C13.7079 128.007 15.2513 126.306 15.2513 124.207C15.2513 122.108 13.7079 120.406 11.8039 120.406C9.89989 120.406 8.35645 122.108 8.35645 124.207C8.35645 126.306 9.89989 128.007 11.8039 128.007Z" fill="#F3F3F3"/>
<path d="M15.8132 124.538C17.7172 124.538 19.2606 122.614 19.2606 120.242C19.2606 117.869 17.7172 115.945 15.8132 115.945C13.9092 115.945 12.3657 117.869 12.3657 120.242C12.3657 122.614 13.9092 124.538 15.8132 124.538Z" fill="#F3F3F3"/>
<path d="M19.7604 128.007C21.6644 128.007 23.2079 126.306 23.2079 124.207C23.2079 122.108 21.6644 120.406 19.7604 120.406C17.8564 120.406 16.313 122.108 16.313 124.207C16.313 126.306 17.8564 128.007 19.7604 128.007Z" fill="#F3F3F3"/>
<path d="M85.1277 12.9342L88.542 4.30859H81.7134L85.1277 12.9342Z" fill="#F3F3F3"/>
<path d="M89.1403 15.4761C91.0443 15.4761 92.5878 13.7746 92.5878 11.6756C92.5878 9.57657 91.0443 7.875 89.1403 7.875C87.2364 7.875 85.6929 9.57657 85.6929 11.6756C85.6929 13.7746 87.2364 15.4761 89.1403 15.4761Z" fill="#F3F3F3"/>
<path d="M85.1272 19.909C87.0311 19.909 88.5746 17.9855 88.5746 15.6127C88.5746 13.2399 87.0311 11.3164 85.1272 11.3164C83.2232 11.3164 81.6797 13.2399 81.6797 15.6127C81.6797 17.9855 83.2232 19.909 85.1272 19.909Z" fill="#F3F3F3"/>
<path d="M81.1833 15.4761C83.0873 15.4761 84.6308 13.7746 84.6308 11.6756C84.6308 9.57657 83.0873 7.875 81.1833 7.875C79.2793 7.875 77.7358 9.57657 77.7358 11.6756C77.7358 13.7746 79.2793 15.4761 81.1833 15.4761Z" fill="#F3F3F3"/>
<path d="M55.3717 100.463L56.0967 100.713L56.0967 106.263L55.3217 106.513L55.1967 106.038C55.0467 105.438 54.8383 105.047 54.5717 104.863C54.2883 104.663 53.7967 104.563 53.0967 104.563L44.4717 104.563L52.7967 112.213L53.2467 112.213C53.8967 112.213 54.355 112.122 54.6217 111.938C54.8717 111.755 55.08 111.388 55.2467 110.838L55.3717 110.388L56.0967 110.588L56.0967 116.163L55.3217 116.438L55.1967 115.888C55.0133 115.305 54.7967 114.922 54.5467 114.738C54.28 114.555 53.7967 114.463 53.0967 114.463L42.8467 114.463C42.1467 114.463 41.6633 114.563 41.3967 114.763C41.1133 114.947 40.8967 115.322 40.7467 115.888L40.6217 116.438L39.8467 116.163L39.8467 111.188L40.1967 110.888L40.6217 111.188C41.105 111.572 41.63 111.838 42.1967 111.988C42.7467 112.138 43.4717 112.213 44.3717 112.213L50.9467 112.213L42.6217 104.563C42.0217 104.58 41.5967 104.697 41.3467 104.913C41.08 105.113 40.88 105.488 40.7467 106.038L40.6217 106.513L39.8467 106.263L39.8467 101.313L40.1967 100.988L40.6217 101.313C41.0883 101.697 41.605 101.963 42.1717 102.113C42.7217 102.263 43.455 102.338 44.3717 102.338L53.2467 102.338C53.8967 102.338 54.355 102.247 54.6217 102.063C54.8883 101.863 55.0967 101.488 55.2467 100.938L55.3717 100.463ZM55.3967 98.3917L55.2467 97.9167C55.0967 97.4 54.905 97.0584 54.6717 96.8917C54.4217 96.7084 53.98 96.6167 53.3467 96.6167L47.5967 96.6167C46.9633 96.6167 46.5217 96.7084 46.2717 96.8917C46.0217 97.0584 45.8217 97.4 45.6717 97.9167L45.5217 98.3917L44.8467 98.1417L44.8467 93.6417L45.1467 93.3667L45.5217 93.6417C45.9717 93.975 46.4633 94.2167 46.9967 94.3667C47.5133 94.5 48.1967 94.5667 49.0467 94.5667L49.7717 94.5667L49.7717 89.1167L47.5967 89.1167C46.9633 89.1167 46.5217 89.2084 46.2717 89.3917C46.0217 89.5584 45.8217 89.9084 45.6717 90.4417L45.5217 90.9417L44.8467 90.6667L44.8467 86.1667L45.1467 85.8667L45.5217 86.1667C45.9717 86.5 46.455 86.7334 46.9717 86.8667C47.4883 87 48.18 87.0667 49.0467 87.0667L53.4967 87.0667C54.0967 87.0667 54.5133 86.9834 54.7467 86.8167C54.9633 86.65 55.1467 86.3167 55.2967 85.8167L55.4217 85.4167L56.0967 85.6167L56.0967 90.6667L55.3967 90.9417L55.2467 90.4417C55.0967 89.9084 54.905 89.5584 54.6717 89.3917C54.4217 89.2084 53.98 89.1167 53.3467 89.1167L51.0967 89.1167L51.0967 94.5667L53.4967 94.5667C54.0967 94.5667 54.5133 94.4834 54.7467 94.3167C54.9633 94.1334 55.1467 93.7917 55.2967 93.2917L55.4217 92.8417L56.0967 93.0667L56.0967 98.1417L55.3967 98.3917ZM55.3967 83.2062L55.2467 82.7562C55.0967 82.2228 54.905 81.8728 54.6717 81.7062C54.4217 81.5228 53.98 81.4312 53.3467 81.4312L47.5967 81.4312C46.9633 81.4312 46.5217 81.5228 46.2717 81.7062C46.0217 81.8728 45.8217 82.2228 45.6717 82.7562L45.5217 83.2062L44.8467 82.9812L44.8467 78.4812L45.1467 78.2062L45.5217 78.4812C46.005 78.8145 46.505 79.0562 47.0217 79.2062C47.5383 79.3395 48.2133 79.4062 49.0467 79.4062L53.4967 79.4062C54.0967 79.4062 54.505 79.3228 54.7217 79.1562C54.9383 78.9895 55.13 78.6478 55.2967 78.1312L55.4217 77.6812L56.0967 77.9062L56.0967 82.9812L55.3967 83.2062ZM56.4217 73.0562C56.4217 73.6728 56.255 74.1895 55.9217 74.6062C55.5883 75.0062 55.0717 75.4145 54.3717 75.8312L51.7467 77.4062C51.5467 77.5228 51.3883 77.6645 51.2717 77.8312C51.155 77.9978 51.0633 78.1728 50.9967 78.3562C50.9133 78.5228 50.855 78.6312 50.8217 78.6812C50.7883 78.7478 50.6967 78.7812 50.5467 78.7812C50.2467 78.7812 50.0967 78.6562 50.0967 78.4062L50.0967 77.9812L47.6217 75.9562C47.255 75.6395 46.8217 75.4812 46.3217 75.4812C46.055 75.4812 45.7967 75.5395 45.5467 75.6562L45.1717 75.8312L44.8467 75.4562L44.8467 71.7812L45.5467 71.5312L45.6717 71.9812C45.7717 72.3145 45.9133 72.6145 46.0967 72.8812C46.2633 73.1312 46.505 73.3812 46.8217 73.6312L50.3717 76.4812C50.7383 75.7312 51.205 75.1812 51.7717 74.8312L54.6217 73.0812C54.8383 72.9478 54.9967 72.8312 55.0967 72.7312C55.1967 72.6145 55.2467 72.4812 55.2467 72.3312C55.2467 72.0312 55.1467 71.7478 54.9467 71.4812L55.5717 71.1312C56.1383 71.6812 56.4217 72.3228 56.4217 73.0562ZM56.4217 65.9005C56.4217 66.6338 56.2133 67.3172 55.7967 67.9505C55.3633 68.5672 54.7383 69.0672 53.9217 69.4505C53.0883 69.8172 52.08 70.0005 50.8967 70.0005C48.9467 70.0005 47.405 69.4755 46.2717 68.4255C45.1383 67.3588 44.5717 65.9255 44.5717 64.1255C44.5717 63.5255 44.6633 62.7088 44.8467 61.6755C44.98 60.9088 45.0717 60.2172 45.1217 59.6005L45.3967 59.3005L45.8217 59.6255C46.0217 59.7422 46.18 59.8255 46.2967 59.8755C46.3967 59.9088 46.5383 59.9255 46.7217 59.9255L54.0967 59.9255C54.5633 59.9255 54.7967 59.6838 54.7967 59.2005C54.7967 58.8338 54.6633 58.4588 54.3967 58.0755L54.9717 57.6505C55.4217 58.0505 55.78 58.4755 56.0467 58.9255C56.2967 59.3755 56.4217 59.7838 56.4217 60.1505C56.4217 60.7838 56.2383 61.2422 55.8717 61.5255C55.4883 61.8088 54.8717 61.9505 54.0217 61.9505C54.905 62.5505 55.53 63.1755 55.8967 63.8255C56.2467 64.4588 56.4217 65.1505 56.4217 65.9005ZM54.6467 65.0255C54.6467 63.7588 53.9633 62.7338 52.5967 61.9505L46.4717 61.9505C46.0383 62.6005 45.8217 63.3338 45.8217 64.1505C45.8217 65.2338 46.23 66.0838 47.0467 66.7005C47.8467 67.3005 48.9883 67.6005 50.4717 67.6005C51.905 67.6005 52.9633 67.3588 53.6467 66.8755C54.3133 66.3755 54.6467 65.7588 54.6467 65.0255ZM55.3967 56.253L55.2467 55.778C55.0967 55.2614 54.905 54.9197 54.6717 54.753C54.4217 54.5697 53.98 54.478 53.3467 54.478L47.5967 54.478C46.9633 54.478 46.5217 54.5697 46.2717 54.753C46.0217 54.9197 45.8217 55.2614 45.6717 55.778L45.5217 56.253L44.8467 56.003L44.8467 51.503L45.1467 51.228L45.5217 51.503C45.9717 51.8364 46.4633 52.078 46.9967 52.228C47.5133 52.3614 48.1967 52.428 49.0467 52.428L49.7717 52.428L49.7717 46.978L47.5967 46.978C46.9633 46.978 46.5217 47.0697 46.2717 47.253C46.0217 47.4197 45.8217 47.7697 45.6717 48.303L45.5217 48.803L44.8467 48.528L44.8467 44.028L45.1467 43.728L45.5217 44.028C45.9717 44.3614 46.455 44.5947 46.9717 44.728C47.4883 44.8614 48.18 44.928 49.0467 44.928L53.4967 44.928C54.0967 44.928 54.5133 44.8447 54.7467 44.678C54.9633 44.5114 55.1467 44.178 55.2967 43.678L55.4217 43.278L56.0967 43.478L56.0967 48.528L55.3967 48.803L55.2467 48.303C55.0967 47.7697 54.905 47.4197 54.6717 47.253C54.4217 47.0697 53.98 46.978 53.3467 46.978L51.0967 46.978L51.0967 52.428L53.4967 52.428C54.0967 52.428 54.5133 52.3447 54.7467 52.178C54.9633 51.9947 55.1467 51.653 55.2967 51.153L55.4217 50.703L56.0967 50.928L56.0967 56.003L55.3967 56.253ZM55.7467 38.8425L55.3967 38.5675C54.9467 38.2175 54.4633 37.9758 53.9467 37.8425C53.43 37.7091 52.7467 37.6425 51.8967 37.6425L47.7217 37.6425C47.0883 37.6425 46.6717 37.6925 46.4717 37.7925C46.2717 37.8758 46.1717 38.0675 46.1717 38.3675L46.1717 38.5925C46.1717 39.1091 46.2217 39.5091 46.3217 39.7925C46.4217 40.0591 46.5967 40.2758 46.8467 40.4425C47.0967 40.5925 47.4883 40.7341 48.0217 40.8675L48.4717 41.0175L48.2717 41.7175L44.5467 41.7175L44.2467 41.3675L44.5467 41.0175C44.6967 40.8175 44.805 40.5258 44.8717 40.1425C44.9383 39.7591 44.9717 39.2508 44.9717 38.6175L44.9717 34.5925C44.9717 33.9591 44.9383 33.4591 44.8717 33.0925C44.805 32.7258 44.6967 32.4425 44.5467 32.2425L44.2467 31.8925L44.5467 31.5175L48.2717 31.5175L48.4717 32.2425L48.0217 32.3425C47.4883 32.4925 47.0967 32.6508 46.8467 32.8175C46.5967 32.9675 46.4217 33.1758 46.3217 33.4425C46.2217 33.7091 46.1717 34.0925 46.1717 34.5925L46.1717 34.8925C46.1717 35.1758 46.2717 35.3675 46.4717 35.4675C46.6717 35.5508 47.0883 35.5925 47.7217 35.5925L53.3467 35.5925C53.98 35.5925 54.4217 35.5091 54.6717 35.3425C54.905 35.1758 55.0967 34.8258 55.2467 34.2925L55.3967 33.7675L56.0967 34.0425L56.0967 38.5675L55.7467 38.8425ZM56.4217 24.5335C56.4217 26.2335 55.8883 27.5835 54.8217 28.5835C53.7383 29.5835 52.2883 30.0835 50.4717 30.0835C48.655 30.0835 47.2217 29.5835 46.1717 28.5835C45.105 27.5835 44.5717 26.2335 44.5717 24.5335C44.5717 23.4168 44.8133 22.4418 45.2967 21.6085C45.78 20.7752 46.4633 20.1335 47.3467 19.6835C48.23 19.2335 49.2717 19.0085 50.4717 19.0085C51.6717 19.0085 52.7217 19.2418 53.6217 19.7085C54.5217 20.1585 55.2133 20.8002 55.6967 21.6335C56.18 22.4668 56.4217 23.4335 56.4217 24.5335ZM55.1967 24.5835C55.1967 23.6335 54.7717 22.8668 53.9217 22.2835C53.055 21.6835 51.9217 21.3835 50.5217 21.3835C49.805 21.3835 49.0883 21.4835 48.3717 21.6835C47.6383 21.8835 47.0217 22.2168 46.5217 22.6835C46.005 23.1335 45.7467 23.7252 45.7467 24.4585C45.7467 25.4418 46.18 26.2335 47.0467 26.8335C47.9133 27.4168 49.0633 27.7085 50.4967 27.7085C51.93 27.7085 53.0717 27.4335 53.9217 26.8835C54.7717 26.3168 55.1967 25.5502 55.1967 24.5835Z" fill="#F3F3F3"/>
</svg>
