<svg width="1057" height="400" viewBox="0 0 1057 400" fill="none" xmlns="http://www.w3.org/2000/svg">
<path d="M26.2223 312.229L39.5582 267.69L64.1553 208.031L84.0973 120.517L112.763 52.7401L148.79 20.8349L179.86 3.4743L246.958 7.24834L342.267 4.41781L442.532 0.64378L542.035 3.2856L589.689 6.11613L666.508 1.20988L787.36 0.455078L835.968 5.36132L860.367 0.455078C860.367 0.455078 882.669 1.39859 885.719 2.34209C888.769 3.2856 947.098 10.0789 947.098 10.0789L973.403 18.7591L989.034 37.0632L998.756 76.5018L1010.37 137.018L1022.2 208.031V251.731L1036.88 299.17L1045.17 331.848L1056.77 370.499L989.034 378.047L936.917 390.69H885.719H846.064L805.278 371.254L768.87 362.762H733.797L689.487 390.69H641.347L582.065 399.37L500.289 397.483L422.727 390.69H368.601L305.668 376.349L259.92 370.499L221.587 371.254L179.86 378.047H112.763L64.1553 362.762L0.828613 352.895L26.2223 312.229Z" fill="#FC3824"/>
</svg>
