<svg width="126" height="125" viewBox="0 0 126 125" fill="none" xmlns="http://www.w3.org/2000/svg">
<path d="M71.2935 13.4575L79.1923 36.6345C79.7146 38.1781 80.9884 39.4176 82.5556 39.8326L106.162 46.4853C110.164 47.5883 111.123 52.8244 107.815 55.2912L88.1838 69.9901C86.8648 70.9854 86.1305 72.5462 86.1821 74.2081L87.156 98.6715C87.3278 102.806 82.6345 105.351 79.2765 102.941L59.2059 88.8647C57.8623 87.922 56.1209 87.6951 54.5977 88.2604L31.6002 96.759C27.696 98.1917 23.8521 94.5368 25.082 90.58L32.3485 67.1564C32.8269 65.6117 32.5217 63.8595 31.4834 62.561L16.2868 43.3244C13.7339 40.0575 16.0022 35.2914 20.1343 35.226L44.6278 34.8701C46.2467 34.839 47.7968 33.9974 48.7395 32.6538L62.3534 12.2757C64.7023 8.78874 69.9468 9.5124 71.2935 13.4575Z" fill="#FFDB13"/>
<path d="M35.3308 47.0321L50.697 46.3212C51.7204 46.2567 52.6685 45.701 53.2178 44.8604L61.36 31.824C62.7457 29.6376 66.0177 29.9806 66.9485 32.3842L72.3634 46.7811C72.7267 47.7679 73.5426 48.487 74.539 48.6988L89.4751 52.408C91.9754 53.0122 92.6761 56.2629 90.6627 57.9042L78.609 67.476C77.8082 68.1199 77.3835 69.112 77.448 70.1354L78.5212 85.4876C78.7027 88.089 75.8584 89.7561 73.6946 88.307L60.8774 79.8499C60.0369 79.3006 58.9318 79.193 57.988 79.5359L43.7116 85.3152C41.3284 86.289 38.8604 84.0885 39.5281 81.6108L43.6177 66.8102C43.893 65.8363 43.6382 64.7453 43.0148 63.9874L33.0969 52.2035C31.4351 50.1471 32.752 47.1502 35.3308 47.0321Z" fill="#2B5ADC"/>
<path d="M41.8994 50.7643L52.939 50.2639C53.6635 50.236 54.3741 49.8458 54.7493 49.1933L60.6242 39.8159C61.6143 38.239 63.9942 38.4788 64.6616 40.217L68.5395 50.601C68.8029 51.2664 69.3876 51.8318 70.0874 51.9738L80.8495 54.6615C82.65 55.1238 83.1777 57.4554 81.7072 58.5754L73.0289 65.4901C72.4656 65.9684 72.1109 66.6639 72.2022 67.411L72.9789 78.4775C73.1122 80.3113 71.0643 81.5474 69.51 80.4939L60.2863 74.3879C59.6768 73.9923 58.891 73.8912 58.1826 74.175L47.9211 78.3109C46.2033 79.0213 44.404 77.4519 44.9093 75.6309L47.8508 64.9591C48.0357 64.2389 47.8809 63.4692 47.4026 62.906L40.2707 54.4362C39.0647 53.0065 40.0452 50.8545 41.8994 50.7643Z" fill="#2B5ADC"/>
</svg>
