<svg width="132" height="131" viewBox="0 0 132 131" fill="none" xmlns="http://www.w3.org/2000/svg">
<path d="M74.6522 13.903L82.9104 38.1348C83.4565 39.7486 84.7882 41.0445 86.4268 41.4784L111.107 48.4339C115.292 49.5871 116.294 55.0614 112.836 57.6405L92.3111 73.0084C90.9321 74.049 90.1644 75.6808 90.2183 77.4183L91.2365 102.995C91.4161 107.317 86.5093 109.979 82.9985 107.459L62.0145 92.742C60.6097 91.7563 58.7891 91.5191 57.1965 92.1102L33.1524 100.996C29.0705 102.493 25.0517 98.6722 26.3376 94.5353L33.9348 70.0457C34.4349 68.4307 34.1158 66.5988 33.0303 65.2412L17.142 45.1291C14.473 41.7136 16.8446 36.7305 21.1647 36.6621L46.7729 36.2901C48.4654 36.2576 50.086 35.3777 51.0717 33.9729L65.3051 12.6674C67.7609 9.02175 73.2442 9.77834 74.6522 13.903Z" fill="#FFDB13"/>
<path d="M37.0533 49.0039L53.1189 48.2606C54.1888 48.1932 55.1801 47.6122 55.7544 46.7334L64.2671 33.1036C65.7158 30.8177 69.1368 31.1764 70.1099 33.6894L75.7713 48.7414C76.1511 49.7731 77.0041 50.525 78.0459 50.7465L93.6617 54.6244C96.2758 55.2561 97.0084 58.6547 94.9033 60.3708L82.3011 70.3782C81.4638 71.0513 81.0198 72.0886 81.0872 73.1585L82.2093 89.2095C82.3991 91.9292 79.4253 93.6722 77.163 92.1572L63.7626 83.3152C62.8837 82.7409 61.7284 82.6285 60.7416 82.9869L45.8155 89.0293C43.3238 90.0474 40.7435 87.7467 41.4416 85.1563L45.7174 69.6821C46.0051 68.6639 45.7388 67.5232 45.087 66.7308L34.7177 54.4107C32.9803 52.2607 34.3572 49.1274 37.0533 49.0039Z" fill="#2B5ADC"/>
<path d="M43.9208 52.9099L55.4628 52.3866C56.2203 52.3575 56.9632 51.9495 57.3554 51.2674L63.4977 41.4631C64.5328 39.8145 67.021 40.0652 67.7189 41.8825L71.7733 52.7391C72.0486 53.4348 72.66 54.026 73.3916 54.1743L84.6435 56.9844C86.5259 57.4678 87.0777 59.9054 85.5402 61.0764L76.467 68.3058C75.8781 68.8059 75.5072 69.533 75.6027 70.3141L76.4147 81.8843C76.554 83.8016 74.413 85.0939 72.7879 83.9925L63.1444 77.6085C62.5072 77.1949 61.6857 77.0893 60.945 77.3859L50.2165 81.7101C48.4206 82.4529 46.5393 80.812 47.0676 78.9082L50.1429 67.7507C50.3363 66.9977 50.1745 66.193 49.6744 65.6041L42.218 56.7489C40.9571 55.2541 41.9821 53.0042 43.9208 52.9099Z" fill="#2B5ADC"/>
</svg>
