<svg width="227" height="264" viewBox="0 0 227 264" fill="none" xmlns="http://www.w3.org/2000/svg">
<path d="M176.637 34.4105C178.026 34.4373 179.763 34.3303 180.271 33.3678C180.779 32.432 179.897 31.0951 179.549 30.5604C177.518 27.5391 173.804 26.4696 170.998 25.6675C158.358 21.9778 160.977 22.2184 157.717 21.6302C150.983 20.4271 147.215 20.8014 134.335 21.0688C130.246 21.149 123.913 21.2559 116.056 21.2827C116.056 21.2827 95.6669 19.9458 74.0215 21.0955C70.7614 21.2827 65.5504 22.8334 55.1019 25.6408C54.514 25.8012 50.0513 27.0579 47.0851 30.5337C45.8825 31.9507 45.8024 32.6726 45.9894 33.1539C46.5239 34.5709 49.7573 34.5442 50.5323 34.5442C54.1131 34.5442 56.0639 33.1539 60.7136 31.3892C60.7136 31.3892 61.9161 30.9347 67.2607 29.277C74.9835 26.8974 82.8133 27.86 86.3674 28.2343C87.3561 28.3412 100.958 28.1808 128.215 27.8867C132.945 27.8332 142.726 24.4376 153.388 27.8867C153.575 27.9402 154.029 28.1006 154.938 28.4214C164.798 31.8705 170.357 34.3303 176.637 34.4105Z" fill="#2B5ADC"/>
<path d="M159.427 104.542C157.156 108.231 151.598 108.846 145.612 109.274C132.224 110.21 124.18 109.648 113.037 109.461C93.2353 109.114 83.3212 108.927 79.5533 109.461C79.2059 109.515 77.3621 109.782 75.0105 109.461C71.1089 108.953 65.711 106.895 65.0162 103.686C64.455 101.093 67.1273 98.6328 68.3031 97.3762C71.7236 93.7399 74.77 87.3498 72.8459 47.8593C72.1511 33.4213 70.1469 31.5498 72.4718 28.6087C77.9232 21.8175 89.4674 27.5125 115.763 27.0312C139.252 26.6034 149.406 21.7373 154.163 27.7264C155.9 29.9188 154.885 31.3894 154.35 50.2924C153.923 65.2651 153.361 65.6127 153.976 70.7729C154.965 78.8475 157.984 90.8791 158.332 92.2961C160.069 99.1675 161.057 101.895 159.427 104.542Z" fill="#FC3824"/>
<path d="M75.5713 30.1849C72.4714 33.9013 72.7119 40.4786 75.7583 43.1256C79.1254 46.0399 84.5234 42.9652 95.3995 41.2006C105.821 39.5161 113.998 40.2113 123.592 41.0134C141.55 42.5374 148.658 46.8153 152.158 42.9385C154.857 39.9439 154.136 33.4468 150.715 29.8106C144.81 23.5274 134.735 29.7036 112.502 29.8106C90.8566 29.9443 80.5684 24.1691 75.5713 30.1849Z" fill="#FFDB13"/>
<path d="M74.663 99.3011C76.4535 98.9536 77.4155 95.6382 78.6714 83.2055C80.2481 67.5109 78.9387 70.5322 80.1145 59.9444C80.6489 55.1585 81.4773 49.5972 79.9274 49.0892C79.4197 48.9287 78.7783 49.3565 78.2973 49.7843C78.324 58.9818 77.8163 66.7355 77.2017 72.6979C76.0793 83.8739 75.5181 89.462 74.1018 91.7613C73.3002 93.0715 71.0287 96.4136 72.2847 98.2317C72.7657 98.9536 73.8079 99.4616 74.663 99.3011Z" fill="#2B5ADC"/>
<path d="M59.325 263.678C73.488 259.293 87.6243 254.882 101.787 250.497C101.867 248.919 101.948 247.315 102.028 245.737C102.028 244.561 102.028 243.411 102.028 242.235C102.081 239.909 102.161 237.556 102.215 235.23C101.761 220.418 101.28 205.579 100.825 190.766L114.641 189.59H122.15C121.91 205.712 121.642 221.835 121.402 237.93C121.402 240.952 121.428 243.946 121.428 246.967L120.947 250.229L139.627 254.668C147.216 257.234 154.832 259.801 162.421 262.368C159.642 262.475 156.836 262.608 154.057 262.715C140.829 263.143 127.628 263.571 114.4 263.999L68.3038 263.544C65.3108 263.598 62.3179 263.624 59.325 263.678Z" fill="#FC3824"/>
<path d="M12.7467 108.418L85.0316 109.353L174.793 108.872L206.326 107.027L208.624 107.134L217.122 118.792L221.13 143.63L226.341 187.506L218.324 190.286L188.021 191.008H180.138L172.121 193.923L159.615 195.42L145.933 194.725L139.118 193.094L130.166 191.944L107.746 192.024L91.6321 195.179H65.7111L38.935 191.463L19.0533 189.939L7.29529 192.158L0 192.987L2.56539 162.881L6.68067 125.984L12.7467 108.418Z" fill="#FFDB13"/>
<path opacity="0.55" d="M100.637 3.10096C101.359 6.57677 102.027 11.6835 101.359 17.8063C100.584 24.9183 98.3927 30.0785 97.7247 31.5758C93.0482 42.0032 87.7838 42.0834 80.0075 54.1953C76.2663 60.0239 73.8613 63.9008 73.4605 69.5958C72.9527 76.9484 76.106 82.7771 78.324 86.8678C80.061 90.0763 83.1074 95.5574 89.4941 100.156C95.6937 104.648 101.706 105.878 106.73 106.921C113.144 108.257 119.717 109.621 127.36 107.161C134.549 104.835 138.824 100.37 141.683 97.3755C149.059 89.6485 151.811 81.0124 152.96 75.7987C152.747 68.4461 152.56 61.0934 152.346 53.7407C150.288 41.8695 145.719 34.4901 141.924 29.9448C136.553 23.528 131.395 21.1216 119.851 9.89212C115.789 5.93505 112.636 2.53948 110.632 0.320312" fill="#F5F4F1"/>
<path d="M116.216 87.9117C116.456 87.5641 116.483 87.4572 116.67 87.0829C116.884 86.7085 117.071 86.4679 117.499 85.9332C118.594 84.5161 119.129 83.821 119.316 83.4466C119.449 83.1525 119.583 82.9386 119.823 82.4574C120.144 81.8691 120.224 81.7622 120.331 81.7087C120.786 81.4948 121.48 81.8157 121.881 82.2167C122.255 82.5643 122.202 82.7782 122.656 83.714C122.977 84.3824 123.297 84.837 123.698 85.4519C124.259 86.3075 124.34 86.2808 124.74 86.9492C125.168 87.6443 125.168 87.8315 125.515 88.4464C125.756 88.8742 126.157 89.4892 126.798 90.1843C127.065 90.4517 127.439 90.8528 127.84 91.4142C128.348 92.1629 128.348 92.4035 128.882 93.3928C129.818 95.1574 130.272 95.1307 130.432 96.1199C130.566 96.8418 130.352 97.1627 130.7 97.6172C130.994 98.0183 131.448 98.1519 132.25 98.3658C132.891 98.5263 133.826 98.7669 135.082 98.6065C135.59 98.553 136.659 98.3391 136.899 97.8578C136.979 97.6707 136.712 97.2964 136.632 97.1092C136.525 96.8419 136.285 96.3338 136.124 96.1199C136.071 96.0397 134.174 94.3286 134.574 94.89C134.574 94.89 133.693 93.981 133.025 93.1521C132.356 92.3233 131.956 91.5747 131.742 91.1736C131.288 90.318 131.421 90.3715 130.7 88.9545C130.112 87.778 129.845 87.2165 129.791 87.1363C129.631 86.869 129.337 86.4679 129.257 85.9332C129.23 85.7995 129.23 85.6925 129.15 85.4786C129.016 85.0776 128.882 84.9706 128.882 84.73C128.882 84.7033 128.909 84.3557 129.15 84.222C129.47 84.0616 129.951 84.4627 130.005 84.5161C130.192 84.6765 130.272 84.837 130.432 85.2113C130.646 85.6925 130.913 86.2005 131.207 86.7085C131.368 86.9492 131.475 87.1363 131.715 87.4572C132.062 87.9385 132.169 88.0454 132.49 88.4464C132.944 89.0347 133.238 89.409 133.532 89.9437C133.906 90.6121 133.88 90.826 134.227 91.0399C134.414 91.1736 134.628 91.2538 134.949 91.5212C135.055 91.6281 135.162 91.7084 135.349 91.9222C135.804 92.4035 136.098 92.6976 136.392 93.1521C136.445 93.2591 136.552 93.4195 136.686 93.5799C136.766 93.6869 136.953 93.9543 137.167 94.1414C137.514 94.4623 137.942 94.5692 138.209 94.6494C139.117 94.89 139.331 94.5692 140.534 94.6494C141.309 94.7029 141.629 94.8633 141.816 94.6494C142.084 94.382 141.843 93.7671 141.816 93.6601C141.496 92.858 140.828 92.6709 139.759 91.9222C138.289 90.933 138.716 90.7725 136.926 89.4357C136.258 88.9544 135.884 88.7405 135.643 88.2058C135.349 87.5909 135.617 87.27 135.376 86.4679C135.162 85.6658 134.842 85.746 134.334 84.73C133.853 83.7675 134.04 83.4466 133.559 82.2435C133.292 81.5751 132.998 81.0938 132.784 80.7462V78.527C132.677 77.2169 132.837 76.2277 133.051 75.5592C133.372 74.4898 133.773 74.0085 134.093 72.5914C134.254 71.8428 134.2 71.7626 134.361 70.8535C134.494 70.1049 134.655 69.3295 135.403 67.1371C135.724 66.1478 135.777 66.0676 136.686 63.4207C137.193 61.9769 137.514 61.0143 137.728 59.7042C137.861 58.8486 137.888 58.2069 137.728 57.485C137.648 57.0572 137.407 56.4156 137.22 55.9878C137.06 55.6669 136.899 55.3194 136.712 54.9985C136.472 54.544 136.445 54.5707 136.445 54.4905C136.445 54.1964 136.686 53.9023 136.953 53.7418C137.461 53.4477 137.835 53.8221 138.503 53.7418C139.224 53.6616 139.465 53.1536 140.32 52.512C140.801 52.1376 141.549 51.6564 142.645 51.2821C142.778 50.5869 142.858 49.9987 142.912 49.5442C142.992 48.7421 143.046 48.1271 142.912 47.325C142.832 46.8437 142.805 46.6031 142.645 46.3357C142.297 45.6406 141.736 45.5336 140.828 44.8385C140.32 44.4374 140.507 44.4909 139.545 43.6086C138.69 42.8332 137.968 42.245 137.487 41.8707C136.338 41.0151 135.777 40.5605 135.162 40.3734C134.254 40.106 134.174 40.4001 132.837 40.1328C132.169 39.9991 132.303 39.9456 130.513 39.3841C129.15 38.9563 128.909 38.9296 128.455 38.6355C128.241 38.5018 127.627 38.1007 127.172 37.4056C126.665 36.6302 126.771 36.0955 126.531 34.9191C126.371 34.1437 126.077 33.395 125.489 31.8443C124.981 30.5609 124.553 29.6518 124.206 28.8765C124.019 28.4754 123.778 27.9942 123.431 27.3792C122.87 26.3899 122.496 25.9889 122.389 25.8819C121.988 25.4542 121.667 25.1066 121.106 24.8927C120.866 24.8125 120.091 24.5184 119.556 24.8927C119.182 25.1333 119.102 25.5878 119.049 25.8819C119.049 25.8819 118.942 26.3632 119.049 26.8712C119.209 27.6198 123.485 39.5445 124.046 39.3039C124.58 39.0633 118.407 28.6091 117.258 27.1118C117.044 26.8177 116.75 26.4434 116.216 26.1226C115.494 25.6948 115.227 25.8819 114.399 25.3739C113.891 25.0798 113.677 24.8125 113.357 24.8659C113.009 24.9461 112.849 25.3205 112.849 25.3739C112.742 25.6146 112.795 25.8017 112.849 26.1226C112.876 26.3097 112.956 26.5771 113.116 26.8712C113.276 27.192 113.464 27.5129 113.624 27.8605C113.918 28.4487 114.185 29.0369 114.399 29.5984C115.04 31.4165 115.708 32.7266 116.216 33.5554C116.403 33.8763 116.617 34.2506 116.964 34.7319C117.766 35.8548 118.06 35.9351 118.728 36.9243C119.342 37.8066 119.155 37.8066 119.823 38.7692C120.091 39.1435 120.411 39.5446 120.866 40.2664C121.079 40.614 121.24 40.9081 121.373 41.2557C121.427 41.4161 121.56 41.7637 121.641 42.245C121.748 42.9401 121.667 43.261 121.641 44.2235C121.587 45.4534 121.721 45.2662 121.641 45.9614C121.534 47.0041 121.32 47.1646 121.373 47.9399C121.427 48.5549 121.56 48.4479 121.641 49.1698C121.694 49.758 121.614 49.8917 121.641 50.9077C121.667 51.5227 121.694 51.5227 121.641 51.6564C121.48 52.0307 121.106 52.2178 119.583 52.6456C118.755 52.8863 118.14 53.0467 117.766 53.1537C116.59 53.4478 116.002 53.6082 115.708 53.6617C114.8 53.7953 114.719 53.6349 113.383 53.6617C112.395 53.6884 112.475 53.7686 110.818 53.9023C109.188 54.036 108.974 53.9557 108.253 54.1429C107.424 54.3568 106.89 54.6509 106.435 54.8916C102.694 56.8968 102.16 56.7364 100.236 58.1267C99.8617 58.3941 99.2203 58.9556 97.9109 60.1053C95.5593 62.164 94.3568 63.2335 93.2611 64.5703C92.7 65.2655 91.7914 66.3884 90.9363 68.0461C90.4285 69.0354 90.1613 69.7841 89.6536 71.2813C89.1993 72.5647 89.2795 72.5112 88.3709 75.5057C87.6494 77.8586 87.4623 78.3934 87.3287 79.4628C87.2485 80.2917 87.1684 80.9868 87.3287 81.9493C87.5425 83.2595 87.9433 83.3664 88.6114 85.6658C88.9321 86.762 88.8252 86.6818 89.1191 87.6443C89.1458 87.6978 89.226 88.0989 89.3864 88.8742C89.4398 89.1683 89.4932 89.3822 89.3864 89.6229C89.2527 89.917 88.9588 90.0774 88.8786 90.1309C88.4243 90.3448 88.0235 90.2378 87.3287 90.1309C86.6072 90.0239 85.6986 89.9705 84.7633 90.1309C84.0685 90.2646 83.828 90.425 83.7211 90.6389C83.5608 90.9597 83.6944 91.334 83.7211 91.3875C83.9082 91.8153 84.4961 92.1362 84.4961 92.1362C85.6719 92.7511 87.1951 94.9435 90.1613 95.3713C90.8294 95.4783 91.7914 95.612 92.9939 95.3713C93.9025 95.1842 94.5706 94.8633 94.8111 95.1307C95.105 95.4515 94.2499 96.2002 94.5438 96.8686C94.7309 97.2696 95.2386 97.4033 96.0938 97.6172C98.0445 98.0985 99.0332 98.3391 99.1936 98.3658C101.331 98.6332 102.293 98.6867 103.843 98.8739C106.943 99.2214 107.478 99.4888 109.509 99.6225C110.791 99.7027 112.127 99.7027 112.822 99.8364C112.876 99.8364 113.089 99.8898 113.383 99.8631C113.784 99.8364 114.105 99.7027 114.238 99.6225C114.586 99.4621 114.8 99.3551 114.933 99.1145C115.12 98.7936 115.013 98.4461 114.933 98.1252C114.907 97.9915 114.773 97.5905 114.426 97.136C113.971 96.5477 113.437 96.2269 112.876 95.9061C112.368 95.612 112.101 95.4515 111.833 95.398C110.978 95.2376 110.417 95.7189 110.016 95.398C109.883 95.2911 109.829 95.1307 109.749 94.89C109.642 94.5425 109.642 94.1682 109.749 93.9008C109.802 93.7404 110.043 93.2858 112.314 92.9115C113.357 92.7243 114.158 92.6976 114.345 92.6709C115.975 92.5639 116.296 92.6976 117.472 92.6709C120.492 92.5639 120.518 91.6816 122.362 91.9222C122.576 91.949 123.538 92.1094 124.42 91.6816C124.794 91.4945 124.901 91.334 124.928 91.1736C124.954 90.933 124.74 90.7458 124.42 90.425C123.538 89.5427 123.752 89.3555 123.137 88.9277C122.603 88.5534 122.042 88.4732 121.854 88.4197C121.427 88.3395 121.133 88.3662 120.572 88.4197C120.251 88.4464 119.717 88.4999 119.022 88.6604C117.953 88.9277 117.846 89.1683 117.205 89.1683C116.644 89.1683 115.975 88.9812 115.922 88.6604C115.788 88.3662 115.922 88.3128 116.216 87.9117Z" fill="#2B5ADC"/>
<path d="M135.377 45.612C135.849 45.612 136.232 45.2529 136.232 44.8099C136.232 44.3669 135.849 44.0078 135.377 44.0078C134.905 44.0078 134.522 44.3669 134.522 44.8099C134.522 45.2529 134.905 45.612 135.377 45.612Z" fill="#FFDB13"/>
<path d="M101.754 243.431C108.324 243.404 114.923 243.377 121.492 243.35C121.492 245.564 121.463 247.779 121.463 249.993C114.806 250.074 108.178 250.155 101.521 250.236C101.579 247.995 101.667 245.699 101.754 243.431Z" fill="#2B5ADC"/>
</svg>
