<svg width="221" height="273" viewBox="0 0 221 273" fill="none" xmlns="http://www.w3.org/2000/svg">
<path d="M25.4785 36.6319C24.551 35.7312 23.3234 34.6667 22.3141 34.9942C21.332 35.2944 20.9774 36.741 20.841 37.3415C20.1044 40.6987 21.8503 43.8102 23.1597 46.1575C29.0794 56.8021 27.4972 54.9188 29.2703 57.4299C32.9258 62.5885 35.7355 64.772 44.5741 72.9056C47.3839 75.4985 51.694 79.4834 56.9862 84.5601C56.9862 84.5601 69.7257 98.6165 85.084 111.8C87.4028 113.792 91.9857 116.085 100.961 120.97C101.452 121.243 105.325 123.29 109.745 122.854C111.518 122.69 112.091 122.226 112.309 121.789C112.936 120.506 110.754 118.405 110.236 117.913C107.835 115.593 105.544 115.266 101.206 113.464C101.206 113.464 100.06 113 95.3411 110.653C88.494 107.269 83.911 101.564 81.7832 99.026C81.1831 98.3163 71.9354 89.6368 53.4399 72.2505C50.2209 69.2482 41.2733 65.1814 36.5266 56.0106C36.4448 55.8468 36.2538 55.4374 35.8447 54.6459C31.6436 45.9664 29.6249 40.726 25.4785 36.6319Z" fill="#FC3824"/>
<path d="M85.9566 0.631784C90.0485 -0.378094 94.2223 2.78801 98.5324 6.39082C108.162 14.4153 113.181 19.9832 120.52 27.298C133.586 40.3173 140.106 46.8405 142.998 48.9149C143.271 49.1059 144.689 50.1158 146.053 51.8626C148.317 54.7285 150.5 59.5868 148.727 62.2071C147.308 64.3087 143.789 64.2541 142.125 64.3087C137.297 64.5543 130.804 66.847 104.507 94.605C94.9042 104.758 94.9315 107.324 91.3306 107.761C82.9286 108.798 79.1367 97.5255 61.1596 80.8762C45.092 66.0009 34.8895 62.7257 35.8715 55.6292C36.2262 53.0363 37.9448 52.7088 51.5026 40.3719C62.2508 30.6006 62.8782 30.7371 66.0426 26.8613C71.0075 20.8021 77.3908 10.7852 78.1274 9.61152C81.7828 3.85248 83.0104 1.36872 85.9566 0.631784Z" fill="#FC3824"/>
<path d="M90.3483 104.701C95.0131 104.21 99.4596 99.6248 99.2687 95.8855C99.0504 91.7641 93.2945 90.3448 84.7287 84.5039C76.5449 78.9087 71.5527 73.1769 65.6877 66.408C54.6941 53.7982 52.8936 46.3469 47.8469 46.6744C43.9459 46.9474 39.9086 51.7784 39.6631 56.4184C39.2539 64.4428 50.3293 66.7901 65.3058 81.0922C79.9275 94.9848 82.7919 105.493 90.3483 104.701Z" fill="#FFDB13"/>
<path d="M139.206 58.9029C137.761 57.9749 134.787 59.5852 125.294 67.1184C113.291 76.644 116.264 75.443 108.081 81.8025C104.371 84.6684 99.9512 87.8618 100.633 89.1992C100.851 89.6359 101.588 89.7724 102.215 89.7997C108.599 83.604 114.382 78.7456 118.938 75.1155C127.476 68.3466 131.759 64.9621 134.323 64.3071C135.769 63.9522 139.643 63.1607 140.052 61.141C140.216 60.3494 139.888 59.3396 139.206 58.9029Z" fill="#FFDB13"/>
<path d="M62.1145 272.673C75.536 268.497 88.9847 264.321 102.406 260.172C102.488 258.671 102.57 257.17 102.624 255.668C102.624 254.549 102.624 253.458 102.624 252.339C102.679 250.128 102.734 247.917 102.788 245.706C102.352 231.622 101.915 217.566 101.451 203.482L114.573 202.363H121.72C121.475 217.648 121.229 232.96 121.011 248.244C121.011 251.11 121.038 253.976 121.038 256.815L120.574 259.926L138.306 264.13C145.508 266.559 152.737 268.988 159.939 271.444C157.292 271.554 154.646 271.663 152 271.772C139.452 272.181 126.903 272.591 114.355 273L70.5984 272.563C67.7886 272.618 64.9516 272.645 62.1145 272.673Z" fill="#2B5ADC"/>
<path d="M17.8946 125.312L86.5024 126.185L171.723 125.749L201.649 123.975L203.831 124.084L211.879 135.165L215.698 158.747L220.635 200.371L213.052 203.045L184.272 203.7H176.77L169.186 206.457L157.32 207.904L144.308 207.249L137.87 205.693L129.331 204.601L108.08 204.683L92.7767 207.658H68.1706L42.7735 204.137L23.8961 202.718L12.7115 204.82L5.80981 205.584L8.23768 177.007L12.1386 141.989L17.8946 125.312Z" fill="#2B5ADC"/>
<path opacity="0.55" d="M25.8325 130.964C26.5145 134.266 27.1419 139.125 26.5145 144.911C25.7779 151.68 23.7047 156.566 23.05 157.985C18.6307 167.865 13.6386 167.947 6.27314 179.465C2.72681 185.006 0.435338 188.663 0.0534263 194.068C-0.437604 201.055 2.56313 206.568 4.66365 210.444C6.3277 213.501 9.19204 218.687 15.2481 223.054C21.1404 227.312 26.8418 228.485 31.5885 229.468C37.6718 230.723 43.9188 232.006 51.1478 229.686C57.9677 227.475 62.0323 223.245 64.733 220.379C71.7165 213.037 74.3626 204.849 75.4538 199.908C75.2628 192.921 75.0719 185.961 74.8809 178.974C72.9441 167.702 68.5794 160.687 64.9785 156.375C59.9045 150.288 54.9942 147.995 44.0279 137.323C40.1542 133.557 37.1807 130.336 35.2712 128.234" fill="#F5F4F1"/>
<path d="M39.3628 206.157C39.5811 205.829 39.6083 205.72 39.7993 205.365C40.0175 205.01 40.1812 204.792 40.5904 204.273C41.627 202.936 42.1453 202.253 42.309 201.926C42.4454 201.653 42.5545 201.435 42.8 200.998C43.1001 200.425 43.1819 200.343 43.2911 200.288C43.7003 200.07 44.3822 200.397 44.7642 200.752C45.1188 201.08 45.0642 201.298 45.5007 202.172C45.8008 202.799 46.1008 203.236 46.4828 203.809C47.0011 204.601 47.0829 204.601 47.4648 205.229C47.8467 205.884 47.874 206.075 48.2014 206.648C48.4469 207.057 48.8288 207.658 49.4289 208.285C49.6745 208.531 50.0564 208.941 50.411 209.459C50.902 210.169 50.8748 210.387 51.3931 211.342C52.2933 213.007 52.7025 213.007 52.8662 213.935C52.9753 214.618 52.8116 214.918 53.1117 215.355C53.3845 215.737 53.8209 215.846 54.5848 216.064C55.1849 216.228 56.0851 216.446 57.2854 216.31C57.7765 216.255 58.7858 216.064 59.004 215.6C59.0859 215.436 58.8403 215.054 58.7585 214.891C58.6494 214.645 58.4312 214.154 58.2675 213.963C58.2129 213.908 56.4125 212.27 56.7944 212.789C56.7944 212.789 55.9487 211.943 55.3213 211.151C54.6939 210.36 54.312 209.65 54.0937 209.268C53.6573 208.449 53.7937 208.504 53.1117 207.139C52.5661 206.02 52.2933 205.474 52.2387 205.42C52.075 205.174 51.8023 204.792 51.7204 204.273C51.6931 204.137 51.6931 204.028 51.6386 203.837C51.5295 203.454 51.3931 203.373 51.3931 203.127C51.3931 203.1 51.4203 202.772 51.6386 202.663C51.9659 202.499 52.4024 202.909 52.457 202.936C52.6479 203.1 52.7025 203.236 52.8662 203.618C53.0844 204.082 53.3026 204.573 53.6027 205.037C53.7391 205.283 53.8755 205.42 54.0937 205.747C54.4211 206.184 54.5302 206.32 54.8303 206.675C55.2667 207.248 55.5395 207.576 55.8123 208.094C56.167 208.722 56.1397 208.913 56.467 209.132C56.658 209.268 56.8489 209.323 57.149 209.596C57.2581 209.705 57.34 209.787 57.5309 209.978C57.9401 210.442 58.2402 210.715 58.513 211.151C58.5676 211.26 58.6767 211.397 58.7858 211.561C58.8676 211.643 59.0586 211.916 59.2495 212.079C59.5769 212.38 59.9861 212.489 60.2316 212.543C61.0773 212.762 61.2955 212.461 62.4412 212.543C63.1778 212.598 63.4779 212.734 63.6688 212.543C63.9416 212.27 63.6961 211.697 63.6688 211.615C63.3687 210.851 62.7413 210.66 61.7047 209.978C60.3134 209.05 60.7226 208.886 59.004 207.63C58.3766 207.166 58.022 206.975 57.7765 206.457C57.5037 205.856 57.7492 205.583 57.5309 204.819C57.3127 204.055 57.0126 204.137 56.5489 203.181C56.1124 202.253 56.2761 201.953 55.8123 200.834C55.5668 200.206 55.2667 199.742 55.0758 199.415V197.286C54.9667 196.03 55.1303 195.102 55.3213 194.475C55.6214 193.465 56.0033 193.001 56.3034 191.663C56.467 190.954 56.4125 190.872 56.5489 190.026C56.658 189.316 56.8489 188.579 57.5309 186.505C57.831 185.577 57.8856 185.495 58.7585 182.984C59.2223 181.619 59.5496 180.719 59.7406 179.463C59.877 178.644 59.9042 178.044 59.7406 177.334C59.6587 176.925 59.4405 176.324 59.2495 175.915C59.0859 175.615 58.9222 175.287 58.7585 174.987C58.5403 174.577 58.513 174.577 58.513 174.523C58.513 174.25 58.7585 173.95 59.004 173.813C59.4951 173.54 59.8497 173.895 60.4771 173.813C61.1591 173.731 61.4046 173.267 62.1957 172.639C62.6595 172.285 63.3687 171.821 64.4054 171.466C64.5418 170.811 64.5963 170.238 64.6509 169.828C64.7327 169.064 64.7873 168.491 64.6509 167.699C64.569 167.235 64.5418 167.017 64.4054 166.771C64.0507 166.116 63.5597 166.007 62.6868 165.352C62.1957 164.97 62.3594 165.024 61.4592 164.178C60.6681 163.441 59.9588 162.868 59.4951 162.541C58.4039 161.722 57.8583 161.312 57.2854 161.121C56.4398 160.848 56.3306 161.149 55.0758 160.876C54.4484 160.739 54.5848 160.712 52.8662 160.166C51.584 159.757 51.3658 159.729 50.902 159.456C50.7111 159.32 50.1109 158.965 49.6745 158.283C49.1834 157.546 49.2925 157.055 49.0743 155.908C48.9379 155.171 48.6651 154.462 48.0923 152.988C47.6285 151.76 47.2193 150.886 46.8647 150.177C46.6737 149.794 46.4555 149.33 46.1281 148.757C45.5825 147.829 45.2279 147.447 45.1461 147.338C44.7642 146.929 44.4641 146.601 43.9185 146.41C43.673 146.328 42.9637 146.055 42.4454 146.41C42.0908 146.656 42.0089 147.065 41.9544 147.338C41.9544 147.338 41.8453 147.802 41.9544 148.266C42.0908 148.976 46.1827 160.303 46.701 160.084C47.192 159.866 41.327 149.931 40.2631 148.512C40.0448 148.239 39.772 147.884 39.281 147.584C38.599 147.174 38.3535 147.365 37.5624 146.874C37.0986 146.574 36.8804 146.328 36.5803 146.41C36.253 146.492 36.1166 146.847 36.0893 146.874C36.0075 147.092 36.0347 147.283 36.0893 147.584C36.1166 147.775 36.1984 148.02 36.3348 148.293C36.4985 148.593 36.6622 148.921 36.8258 149.221C37.0986 149.794 37.3441 150.34 37.5624 150.859C38.1625 152.578 38.8172 153.834 39.281 154.625C39.4719 154.926 39.6629 155.28 39.9903 155.744C40.7541 156.836 41.0269 156.891 41.6543 157.819C42.2272 158.665 42.0635 158.665 42.6909 159.566C42.9637 159.92 43.2638 160.303 43.673 160.985C43.8912 161.312 44.0276 161.585 44.164 161.913C44.2186 162.077 44.3277 162.404 44.4095 162.841C44.5186 163.496 44.4368 163.796 44.4095 164.724C44.3822 165.898 44.4641 165.707 44.4095 166.362C44.3004 167.344 44.1095 167.508 44.164 168.245C44.2186 168.818 44.355 168.736 44.4095 169.419C44.4641 169.965 44.3822 170.101 44.4095 171.056C44.4368 171.657 44.4641 171.657 44.4095 171.766C44.2731 172.121 43.8912 172.285 42.4454 172.694C41.6543 172.912 41.0542 173.076 40.7268 173.158C39.6083 173.458 39.0628 173.595 38.7627 173.622C37.8897 173.731 37.8079 173.595 36.553 173.622C35.6255 173.649 35.7074 173.731 34.0979 173.868C32.5702 174.004 32.3247 173.922 31.6427 174.113C30.8789 174.304 30.3333 174.605 29.9241 174.823C26.3778 176.734 25.8595 176.57 24.0591 177.88C23.7044 178.126 23.1043 178.671 21.8494 179.763C19.6125 181.728 18.4668 182.738 17.4574 183.994C16.9118 184.649 16.0662 185.713 15.2478 187.296C14.7841 188.224 14.5113 188.934 14.0202 190.353C13.5838 191.582 13.6656 191.527 12.7927 194.365C12.1107 196.604 11.9197 197.095 11.8106 198.132C11.7288 198.924 11.6469 199.579 11.8106 200.479C12.0288 201.735 12.3835 201.817 13.0382 204C13.3382 205.037 13.2564 204.983 13.5292 205.884C13.5565 205.938 13.611 206.32 13.7747 207.057C13.8293 207.357 13.8838 207.548 13.7747 207.767C13.6383 208.067 13.3655 208.204 13.2837 208.231C12.8472 208.449 12.4653 208.313 11.8106 208.231C11.1286 208.122 10.2557 208.067 9.35544 208.231C8.70074 208.34 8.4825 208.504 8.37338 208.695C8.20971 208.995 8.34611 209.35 8.37338 209.404C8.53706 209.814 9.10993 210.114 9.10993 210.114C10.2284 210.687 11.6742 212.762 14.484 213.171C15.1387 213.253 16.0389 213.389 17.1846 213.171C18.0576 213.007 18.685 212.68 18.9032 212.925C19.176 213.226 18.3849 213.935 18.6577 214.563C18.8214 214.945 19.3124 215.054 20.1308 215.273C21.9858 215.737 22.9133 215.955 23.077 215.982C25.123 216.255 26.0232 216.283 27.469 216.446C30.4152 216.774 30.9335 217.02 32.843 217.156C34.0433 217.238 35.3255 217.238 35.9802 217.347C36.0347 217.347 36.253 217.402 36.5258 217.374C36.9077 217.347 37.2078 217.211 37.3441 217.156C37.6715 216.992 37.8625 216.91 37.9989 216.692C38.1625 216.392 38.0807 216.064 37.9989 215.764C37.9716 215.628 37.8625 215.273 37.5078 214.836C37.0714 214.263 36.553 213.963 36.0347 213.662C35.5437 213.389 35.2982 213.226 35.0527 213.198C34.2616 213.062 33.716 213.499 33.3341 213.198C33.1977 213.089 33.1704 212.953 33.0886 212.734C32.9794 212.407 32.9794 212.025 33.0886 211.806C33.1431 211.67 33.3614 211.233 35.5437 210.878C36.5258 210.715 37.2896 210.66 37.4805 210.66C39.0355 210.578 39.3355 210.687 40.454 210.66C43.3183 210.551 43.3456 209.705 45.0915 209.95C45.2825 209.978 46.21 210.114 47.0556 209.705C47.4103 209.541 47.5194 209.377 47.5467 209.241C47.5739 208.995 47.3557 208.831 47.0556 208.531C46.21 207.685 46.4282 207.494 45.8281 207.112C45.3097 206.757 44.7914 206.675 44.6005 206.648C44.1913 206.566 43.9185 206.593 43.3729 206.648C43.0728 206.675 42.5545 206.73 41.8998 206.893C40.8905 207.139 40.7814 207.357 40.1812 207.357C39.6356 207.357 39.0082 207.166 38.9536 206.893C38.9809 206.593 39.09 206.539 39.3628 206.157Z" fill="#FC3824"/>
<path d="M57.5587 166.007C57.9956 166.007 58.3498 165.665 58.3498 165.243C58.3498 164.821 57.9956 164.479 57.5587 164.479C57.1218 164.479 56.7676 164.821 56.7676 165.243C56.7676 165.665 57.1218 166.007 57.5587 166.007Z" fill="#FFDB13"/>
<path d="M102.623 253.264C108.761 253.236 114.926 253.209 121.064 253.182C121.064 255.42 121.037 257.658 121.037 259.896C114.817 259.978 108.625 260.06 102.405 260.142C102.459 257.876 102.541 255.556 102.623 253.264Z" fill="#FFDB13"/>
</svg>
