<svg width="222" height="273" viewBox="0 0 222 273" fill="none" xmlns="http://www.w3.org/2000/svg">
<path d="M26.0791 36.6319C25.1516 35.7312 23.924 34.6667 22.9146 34.9942C21.9326 35.2944 21.578 36.741 21.4416 37.3415C20.705 40.6987 22.4509 43.8102 23.7603 46.1575C29.6799 56.8021 28.0977 54.9188 29.8709 57.4299C33.5263 62.5885 36.3361 64.772 45.1747 72.9056C47.9844 75.4985 52.2946 79.4834 57.5868 84.5601C57.5868 84.5601 70.3263 98.6165 85.6846 111.8C88.0034 113.792 92.5863 116.085 101.561 120.97C102.052 121.243 105.926 123.29 110.345 122.854C112.118 122.69 112.691 122.226 112.91 121.789C113.537 120.506 111.355 118.405 110.836 117.913C108.436 115.593 106.144 115.266 101.807 113.464C101.807 113.464 100.661 113 95.9417 110.653C89.0946 107.269 84.5116 101.564 82.3838 99.026C81.7837 98.3163 72.5359 89.6368 54.0405 72.2505C50.8215 69.2482 41.8739 65.1814 37.1272 56.0106C37.0454 55.8468 36.8544 55.4374 36.4452 54.6459C32.2442 45.9664 30.2255 40.726 26.0791 36.6319Z" fill="#FFD740"/>
<path d="M86.5569 0.631784C90.6488 -0.378094 94.8226 2.78801 99.1328 6.39082C108.762 14.4153 113.782 19.9832 121.12 27.298C134.187 40.3173 140.707 46.8405 143.598 48.9149C143.871 49.1059 145.29 50.1158 146.654 51.8626C148.918 54.7285 151.1 59.5868 149.327 62.2071C147.908 64.3087 144.389 64.2541 142.725 64.3087C137.897 64.5543 131.404 66.847 105.107 94.605C95.5046 104.758 95.5319 107.324 91.931 107.761C83.5289 108.798 79.7371 97.5255 61.7599 80.8762C45.6923 66.0009 35.4898 62.7257 36.4719 55.6292C36.8265 53.0363 38.5451 52.7088 52.103 40.3719C62.8511 30.6006 63.4785 30.7371 66.6429 26.8613C71.6078 20.8021 77.9912 10.7852 78.7277 9.61152C82.3832 3.85248 83.6108 1.36872 86.5569 0.631784Z" fill="#FFDB13"/>
<path d="M90.9491 104.701C95.6139 104.21 100.06 99.6248 99.8695 95.8855C99.6512 91.7641 93.8953 90.3448 85.3295 84.5039C77.1457 78.9087 72.1536 73.1769 66.2885 66.408C55.2949 53.7982 53.4944 46.3469 48.4477 46.6744C44.5468 46.9474 40.5094 51.7784 40.2639 56.4184C39.8547 64.4428 50.9302 66.7901 65.9066 81.0922C80.5284 94.9848 83.3927 105.493 90.9491 104.701Z" fill="#2B5ADC"/>
<path d="M139.807 58.9029C138.361 57.9749 135.388 59.5852 125.894 67.1184C113.891 76.644 116.865 75.443 108.681 81.8025C104.971 84.6684 100.552 87.8618 101.234 89.1992C101.452 89.6359 102.189 89.7724 102.816 89.7997C109.199 83.604 114.983 78.7456 119.538 75.1155C128.077 68.3466 132.36 64.9621 134.924 64.3071C136.37 63.9522 140.243 63.1607 140.653 61.141C140.816 60.3494 140.489 59.3396 139.807 58.9029Z" fill="#2B5ADC"/>
<path d="M62.7148 272.673C76.1363 268.497 89.5851 264.321 103.007 260.172C103.088 258.671 103.17 257.17 103.225 255.668C103.225 254.549 103.225 253.458 103.225 252.339C103.279 250.128 103.334 247.917 103.388 245.706C102.952 231.622 102.516 217.566 102.052 203.482L115.173 202.363H122.32C122.075 217.648 121.829 232.96 121.611 248.245C121.611 251.11 121.638 253.976 121.638 256.815L121.175 259.926L138.906 264.13C146.108 266.559 153.337 268.988 160.539 271.444C157.893 271.554 155.247 271.663 152.601 271.772C140.052 272.181 127.504 272.591 114.955 273L71.1987 272.563C68.389 272.618 65.5519 272.645 62.7148 272.673Z" fill="#FFDB13"/>
<path d="M18.4954 125.312L87.1032 126.185L172.324 125.749L202.25 123.975L204.432 124.084L212.48 135.165L216.299 158.747L221.236 200.371L213.653 203.045L184.873 203.7H177.371L169.787 206.457L157.921 207.904L144.908 207.249L138.47 205.693L129.932 204.601L108.681 204.683L93.3775 207.658H68.7714L43.3743 204.137L24.4969 202.718L13.3123 204.82L6.41064 205.584L8.83852 177.007L12.7395 141.989L18.4954 125.312Z" fill="#2B5ADC"/>
<path opacity="0.55" d="M26.4331 130.964C27.1151 134.266 27.7425 139.125 27.1151 144.911C26.3785 151.68 24.3053 156.566 23.6506 157.985C19.2313 167.865 14.2392 167.947 6.87372 179.465C3.3274 185.006 1.03592 188.663 0.654012 194.068C0.162982 201.055 3.16372 206.568 5.26424 210.444C6.92828 213.501 9.79263 218.687 15.8487 223.054C21.741 227.312 27.4424 228.485 32.189 229.468C38.2724 230.723 44.5194 232.006 51.7484 229.686C58.5683 227.475 62.6329 223.245 65.3336 220.379C72.3171 213.037 74.9632 204.849 76.0544 199.908C75.8634 192.921 75.6725 185.961 75.4815 178.974C73.5447 167.702 69.18 160.687 65.5791 156.375C60.5051 150.288 55.5948 147.995 44.6285 137.323C40.7548 133.557 37.7813 130.336 35.8718 128.234" fill="#F5F4F1"/>
<path d="M39.9632 206.157C40.1814 205.829 40.2087 205.72 40.3996 205.365C40.6179 205.01 40.7816 204.792 41.1907 204.273C42.2274 202.936 42.7457 202.253 42.9094 201.926C43.0457 201.653 43.1549 201.435 43.4004 200.998C43.7005 200.425 43.7823 200.343 43.8914 200.288C44.3006 200.07 44.9826 200.397 45.3645 200.752C45.7191 201.08 45.6646 201.298 46.101 202.172C46.4011 202.799 46.7012 203.236 47.0831 203.809C47.6014 204.601 47.6833 204.601 48.0652 205.229C48.4471 205.884 48.4744 206.075 48.8017 206.648C49.0472 207.057 49.4291 207.658 50.0293 208.285C50.2748 208.531 50.6567 208.941 51.0113 209.459C51.5024 210.169 51.4751 210.387 51.9934 211.342C52.8936 213.007 53.3028 213.007 53.4665 213.935C53.5756 214.618 53.4119 214.918 53.712 215.355C53.9848 215.737 54.4213 215.846 55.1851 216.064C55.7852 216.228 56.6855 216.446 57.8858 216.31C58.3768 216.255 59.3861 216.064 59.6044 215.6C59.6862 215.436 59.4407 215.054 59.3589 214.891C59.2497 214.645 59.0315 214.154 58.8678 213.963C58.8133 213.908 57.0128 212.27 57.3947 212.789C57.3947 212.789 56.5491 211.943 55.9216 211.151C55.2942 210.36 54.9123 209.65 54.6941 209.268C54.2576 208.449 54.394 208.504 53.712 207.139C53.1664 206.02 52.8936 205.474 52.8391 205.42C52.6754 205.174 52.4026 204.792 52.3208 204.273C52.2935 204.137 52.2935 204.028 52.2389 203.837C52.1298 203.454 51.9934 203.373 51.9934 203.127C51.9934 203.1 52.0207 202.772 52.2389 202.663C52.5663 202.499 53.0027 202.909 53.0573 202.936C53.2483 203.1 53.3028 203.236 53.4665 203.618C53.6847 204.082 53.903 204.573 54.203 205.037C54.3394 205.283 54.4758 205.42 54.6941 205.747C55.0214 206.184 55.1305 206.32 55.4306 206.675C55.8671 207.248 56.1399 207.576 56.4127 208.094C56.7673 208.722 56.74 208.913 57.0674 209.132C57.2583 209.268 57.4493 209.323 57.7494 209.596C57.8585 209.705 57.9403 209.787 58.1313 209.978C58.5405 210.442 58.8405 210.715 59.1133 211.151C59.1679 211.26 59.277 211.397 59.3861 211.561C59.468 211.643 59.6589 211.916 59.8499 212.079C60.1772 212.38 60.5864 212.489 60.8319 212.543C61.6776 212.762 61.8958 212.461 63.0416 212.543C63.7781 212.598 64.0782 212.734 64.2692 212.543C64.5419 212.27 64.2964 211.697 64.2692 211.615C63.9691 210.851 63.3417 210.66 62.305 209.978C60.9138 209.05 61.323 208.886 59.6044 207.63C58.9769 207.166 58.6223 206.975 58.3768 206.457C58.104 205.856 58.3495 205.583 58.1313 204.819C57.913 204.055 57.613 204.137 57.1492 203.181C56.7127 202.253 56.8764 201.953 56.4127 200.834C56.1672 200.206 55.8671 199.742 55.6761 199.415V197.286C55.567 196.03 55.7307 195.102 55.9216 194.475C56.2217 193.465 56.6036 193.001 56.9037 191.663C57.0674 190.954 57.0128 190.872 57.1492 190.026C57.2583 189.316 57.4493 188.579 58.1313 186.505C58.4314 185.577 58.4859 185.495 59.3589 182.984C59.8226 181.619 60.15 180.719 60.3409 179.463C60.4773 178.644 60.5046 178.044 60.3409 177.334C60.2591 176.925 60.0408 176.324 59.8499 175.915C59.6862 175.615 59.5225 175.287 59.3589 174.987C59.1406 174.577 59.1133 174.577 59.1133 174.523C59.1133 174.25 59.3589 173.95 59.6044 173.813C60.0954 173.54 60.45 173.895 61.0775 173.813C61.7594 173.731 62.005 173.267 62.7961 172.639C63.2598 172.285 63.9691 171.821 65.0057 171.466C65.1421 170.811 65.1967 170.238 65.2512 169.828C65.3331 169.064 65.3876 168.491 65.2512 167.699C65.1694 167.235 65.1421 167.017 65.0057 166.771C64.6511 166.116 64.16 166.007 63.2871 165.352C62.7961 164.97 62.9597 165.024 62.0595 164.178C61.2684 163.441 60.5591 162.868 60.0954 162.541C59.0042 161.722 58.4586 161.312 57.8858 161.121C57.0401 160.848 56.931 161.149 55.6761 160.876C55.0487 160.739 55.1851 160.712 53.4665 160.166C52.1844 159.757 51.9661 159.729 51.5024 159.456C51.3114 159.32 50.7113 158.965 50.2748 158.283C49.7838 157.546 49.8929 157.055 49.6747 155.908C49.5383 155.171 49.2655 154.462 48.6926 152.988C48.2288 151.76 47.8197 150.886 47.465 150.177C47.2741 149.794 47.0558 149.33 46.7285 148.757C46.1829 147.829 45.8283 147.447 45.7464 147.338C45.3645 146.929 45.0644 146.601 44.5188 146.41C44.2733 146.328 43.5641 146.055 43.0457 146.41C42.6911 146.656 42.6093 147.065 42.5547 147.338C42.5547 147.338 42.4456 147.802 42.5547 148.266C42.6911 148.976 46.783 160.303 47.3013 160.084C47.7924 159.866 41.9273 149.931 40.8634 148.512C40.6452 148.239 40.3724 147.884 39.8813 147.584C39.1993 147.174 38.9538 147.365 38.1627 146.874C37.699 146.574 37.4807 146.328 37.1807 146.41C36.8533 146.492 36.7169 146.847 36.6896 146.874C36.6078 147.092 36.6351 147.283 36.6896 147.584C36.7169 147.775 36.7988 148.02 36.9352 148.293C37.0988 148.593 37.2625 148.921 37.4262 149.221C37.699 149.794 37.9445 150.34 38.1627 150.859C38.7629 152.578 39.4176 153.834 39.8813 154.625C40.0723 154.926 40.2632 155.28 40.5906 155.744C41.3544 156.836 41.6272 156.891 42.2546 157.819C42.8275 158.665 42.6638 158.665 43.2913 159.566C43.5641 159.92 43.8641 160.303 44.2733 160.985C44.4916 161.312 44.628 161.585 44.7644 161.913C44.8189 162.077 44.928 162.404 45.0099 162.841C45.119 163.496 45.0371 163.796 45.0099 164.724C44.9826 165.898 45.0644 165.707 45.0099 166.362C44.9008 167.344 44.7098 167.508 44.7644 168.245C44.8189 168.818 44.9553 168.736 45.0099 169.419C45.0644 169.965 44.9826 170.101 45.0099 171.056C45.0371 171.657 45.0644 171.657 45.0099 171.766C44.8735 172.121 44.4916 172.285 43.0457 172.694C42.2546 172.912 41.6545 173.076 41.3271 173.158C40.2087 173.458 39.6631 173.595 39.363 173.622C38.4901 173.731 38.4082 173.595 37.1534 173.622C36.2259 173.649 36.3077 173.731 34.6982 173.868C33.1706 174.004 32.9251 173.922 32.2431 174.113C31.4793 174.304 30.9337 174.605 30.5245 174.823C26.9782 176.734 26.4598 176.57 24.6594 177.88C24.3048 178.126 23.7046 178.671 22.4498 179.763C20.2129 181.728 19.0671 182.738 18.0578 183.994C17.5122 184.649 16.6665 185.713 15.8481 187.296C15.3844 188.224 15.1116 188.934 14.6206 190.353C14.1841 191.582 14.2659 191.527 13.393 194.365C12.711 196.604 12.5201 197.095 12.4109 198.132C12.3291 198.924 12.2473 199.579 12.4109 200.479C12.6292 201.735 12.9838 201.817 13.6385 204C13.9386 205.037 13.8567 204.983 14.1295 205.884C14.1568 205.938 14.2114 206.32 14.3751 207.057C14.4296 207.357 14.4842 207.548 14.3751 207.767C14.2387 208.067 13.9659 208.204 13.884 208.231C13.4476 208.449 13.0656 208.313 12.4109 208.231C11.7289 208.122 10.856 208.067 9.95579 208.231C9.30108 208.34 9.08284 208.504 8.97373 208.695C8.81005 208.995 8.94645 209.35 8.97373 209.404C9.1374 209.814 9.71027 210.114 9.71027 210.114C10.8287 210.687 12.2745 212.762 15.0843 213.171C15.739 213.253 16.6392 213.389 17.785 213.171C18.6579 213.007 19.2854 212.68 19.5036 212.925C19.7764 213.226 18.9853 213.935 19.2581 214.563C19.4218 214.945 19.9128 215.054 20.7312 215.273C22.5862 215.737 23.5137 215.955 23.6773 215.982C25.7233 216.255 26.6235 216.283 28.0693 216.446C31.0155 216.774 31.5338 217.02 33.4434 217.156C34.6437 217.238 35.9258 217.238 36.5805 217.347C36.6351 217.347 36.8533 217.402 37.1261 217.374C37.508 217.347 37.8081 217.211 37.9445 217.156C38.2718 216.992 38.4628 216.91 38.5992 216.692C38.7629 216.392 38.681 216.064 38.5992 215.764C38.5719 215.628 38.4628 215.273 38.1082 214.836C37.6717 214.263 37.1534 213.963 36.6351 213.662C36.144 213.389 35.8985 213.226 35.653 213.198C34.8619 213.062 34.3163 213.499 33.9344 213.198C33.798 213.089 33.7707 212.953 33.6889 212.734C33.5798 212.407 33.5798 212.025 33.6889 211.806C33.7435 211.67 33.9617 211.233 36.144 210.878C37.1261 210.715 37.8899 210.66 38.0809 210.66C39.6358 210.578 39.9359 210.687 41.0543 210.66C43.9187 210.551 43.946 209.705 45.6919 209.95C45.8828 209.978 46.8103 210.114 47.656 209.705C48.0106 209.541 48.1197 209.377 48.147 209.241C48.1743 208.995 47.956 208.831 47.656 208.531C46.8103 207.685 47.0285 207.494 46.4284 207.112C45.9101 206.757 45.3918 206.675 45.2008 206.648C44.7916 206.566 44.5188 206.593 43.9732 206.648C43.6732 206.675 43.1549 206.73 42.5002 206.893C41.4908 207.139 41.3817 207.357 40.7816 207.357C40.236 207.357 39.6085 207.166 39.554 206.893C39.5813 206.593 39.6904 206.539 39.9632 206.157Z" fill="#FFDB13"/>
<path d="M58.1593 166.007C58.5962 166.007 58.9504 165.665 58.9504 165.243C58.9504 164.821 58.5962 164.479 58.1593 164.479C57.7224 164.479 57.3682 164.821 57.3682 165.243C57.3682 165.665 57.7224 166.007 58.1593 166.007Z" fill="#2B5ADC"/>
<path d="M103.224 253.264C109.361 253.236 115.527 253.209 121.665 253.182C121.665 255.42 121.637 257.658 121.637 259.896C115.418 259.978 109.225 260.06 103.005 260.142C103.06 257.876 103.142 255.556 103.224 253.264Z" fill="#2B5ADC"/>
</svg>
