<svg width="228" height="264" viewBox="0 0 228 264" fill="none" xmlns="http://www.w3.org/2000/svg">
<path d="M177.622 34.4105C179.012 34.4373 180.749 34.3303 181.256 33.3678C181.764 32.432 180.882 31.0951 180.535 30.5604C178.504 27.5391 174.789 26.4696 171.984 25.6675C159.344 21.9778 161.963 22.2184 158.702 21.6302C151.968 20.4271 148.2 20.8014 135.32 21.0688C131.231 21.149 124.898 21.2559 117.042 21.2827C117.042 21.2827 96.6523 19.9458 75.0069 21.0955C71.7467 21.2827 66.5358 22.8334 56.0872 25.6408C55.4993 25.8012 51.0366 27.0579 48.0704 30.5337C46.8679 31.9507 46.7877 32.6726 46.9748 33.1539C47.5092 34.5709 50.7427 34.5442 51.5176 34.5442C55.0985 34.5442 57.0492 33.1539 61.699 31.3892C61.699 31.3892 62.9015 30.9347 68.246 29.277C75.9689 26.8974 83.7986 27.86 87.3528 28.2343C88.3415 28.3412 101.943 28.1808 129.2 27.8867C133.93 27.8332 143.711 24.4376 154.373 27.8867C154.56 27.9402 155.015 28.1006 155.923 28.4214C165.784 31.8705 171.342 34.3303 177.622 34.4105Z" fill="#FFD740"/>
<path d="M160.413 104.542C158.142 108.231 152.583 108.846 146.597 109.274C133.209 110.21 125.166 109.648 114.022 109.461C94.2209 109.114 84.3068 108.927 80.5389 109.461C80.1915 109.515 78.3477 109.782 75.9961 109.461C72.0945 108.953 66.6966 106.895 66.0018 103.686C65.4406 101.093 68.1129 98.6328 69.2887 97.3762C72.7092 93.7399 75.7556 87.3498 73.8315 47.8593C73.1367 33.4213 71.1325 31.5498 73.4574 28.6087C78.9088 21.8175 90.453 27.5125 116.748 27.0312C140.237 26.6034 150.392 21.7373 155.149 27.7264C156.886 29.9188 155.87 31.3894 155.336 50.2924C154.908 65.2651 154.347 65.6127 154.962 70.7729C155.95 78.8475 158.97 90.8791 159.317 92.2961C161.054 99.1675 162.043 101.895 160.413 104.542Z" fill="#FFDB13"/>
<path d="M76.5569 30.1849C73.457 33.9013 73.6975 40.4786 76.7439 43.1256C80.111 46.0399 85.509 42.9652 96.3851 41.2006C106.807 39.5161 114.984 40.2113 124.578 41.0134C142.535 42.5374 149.643 46.8153 153.144 42.9385C155.843 39.9439 155.122 33.4468 151.701 29.8106C145.795 23.5274 135.721 29.7036 113.488 29.8106C91.8422 29.9443 81.554 24.1691 76.5569 30.1849Z" fill="#2B5ADC"/>
<path d="M75.6486 99.3011C77.4391 98.9536 78.4011 95.6382 79.657 83.2055C81.2337 67.5109 79.9243 70.5322 81.1001 59.9444C81.6345 55.1585 82.4629 49.5972 80.913 49.0892C80.4053 48.9287 79.7639 49.3565 79.2829 49.7843C79.3096 58.9818 78.8019 66.7355 78.1873 72.6979C77.0649 83.8739 76.5037 89.462 75.0874 91.7613C74.2858 93.0715 72.0143 96.4136 73.2703 98.2317C73.7513 98.9536 74.7935 99.4616 75.6486 99.3011Z" fill="#2B5ADC"/>
<path d="M60.3101 263.678C74.4731 259.293 88.6094 254.881 102.772 250.497C102.853 248.919 102.933 247.315 103.013 245.737C103.013 244.561 103.013 243.411 103.013 242.235C103.066 239.909 103.147 237.556 103.2 235.23C102.746 220.418 102.265 205.579 101.81 190.766L115.626 189.59H123.135C122.895 205.712 122.627 221.835 122.387 237.93C122.387 240.952 122.414 243.946 122.414 246.967L121.933 250.229L140.612 254.668C148.201 257.234 155.817 259.801 163.406 262.368C160.627 262.475 157.821 262.608 155.042 262.715C141.814 263.143 128.613 263.571 115.386 263.999L69.2889 263.544C66.296 263.598 63.303 263.624 60.3101 263.678Z" fill="#FFDB13"/>
<path d="M13.7321 108.418L86.0169 109.353L175.778 108.872L207.311 107.027L209.609 107.134L218.107 118.792L222.116 143.63L227.326 187.506L219.31 190.286L189.006 191.008H181.123L173.106 193.923L160.6 195.42L146.918 194.725L140.104 193.094L131.152 191.944L108.731 192.024L92.6174 195.179H66.6964L39.9203 191.463L20.0386 189.939L8.28064 192.158L0.985352 192.987L3.55074 162.881L7.66602 125.984L13.7321 108.418Z" fill="#2B5ADC"/>
<path opacity="0.55" d="M101.623 3.10096C102.345 6.57677 103.013 11.6835 102.345 17.8063C101.57 24.9183 99.3783 30.0785 98.7103 31.5758C94.0338 42.0032 88.7694 42.0834 80.9931 54.1953C77.2519 60.0239 74.8469 63.9008 74.4461 69.5958C73.9383 76.9484 77.0916 82.7771 79.3096 86.8678C81.0466 90.0763 84.0929 95.5573 90.4797 100.156C96.6793 104.648 102.692 105.878 107.716 106.921C114.129 108.257 120.703 109.621 128.346 107.161C135.534 104.835 139.81 100.37 142.669 97.3755C150.045 89.6485 152.797 81.0124 153.946 75.7987C153.732 68.4461 153.545 61.0934 153.331 53.7407C151.274 41.8695 146.704 34.4901 142.91 29.9448C137.538 23.528 132.381 21.1216 120.837 9.89212C116.775 5.93505 113.622 2.53948 111.617 0.320312" fill="#F5F4F1"/>
<path d="M117.201 87.9117C117.442 87.5641 117.469 87.4572 117.656 87.0829C117.869 86.7085 118.056 86.4679 118.484 85.9332C119.58 84.5161 120.114 83.821 120.301 83.4466C120.435 83.1525 120.568 82.9386 120.809 82.4574C121.13 81.8691 121.21 81.7622 121.317 81.7087C121.771 81.4948 122.466 81.8157 122.867 82.2167C123.241 82.5643 123.187 82.7782 123.641 83.714C123.962 84.3824 124.283 84.837 124.684 85.4519C125.245 86.3075 125.325 86.2808 125.726 86.9492C126.153 87.6443 126.153 87.8315 126.501 88.4464C126.741 88.8742 127.142 89.4892 127.784 90.1843C128.051 90.4517 128.425 90.8528 128.826 91.4142C129.333 92.1629 129.333 92.4035 129.868 93.3928C130.803 95.1574 131.257 95.1307 131.418 96.1199C131.551 96.8418 131.338 97.1627 131.685 97.6172C131.979 98.0183 132.433 98.152 133.235 98.3658C133.876 98.5263 134.812 98.7669 136.068 98.6065C136.575 98.553 137.644 98.3391 137.885 97.8578C137.965 97.6707 137.698 97.2964 137.617 97.1092C137.511 96.8419 137.27 96.3338 137.11 96.1199C137.056 96.0397 135.159 94.3286 135.56 94.89C135.56 94.89 134.678 93.981 134.01 93.1521C133.342 92.3233 132.941 91.5747 132.727 91.1736C132.273 90.318 132.407 90.3715 131.685 88.9545C131.097 87.778 130.83 87.2165 130.776 87.1363C130.616 86.869 130.322 86.4679 130.242 85.9332C130.215 85.7995 130.215 85.6925 130.135 85.4786C130.001 85.0776 129.868 84.9706 129.868 84.73C129.868 84.7033 129.895 84.3557 130.135 84.222C130.456 84.0616 130.937 84.4626 130.99 84.5161C131.177 84.6765 131.257 84.837 131.418 85.2113C131.632 85.6925 131.899 86.2005 132.193 86.7085C132.353 86.9492 132.46 87.1363 132.7 87.4572C133.048 87.9385 133.155 88.0454 133.475 88.4464C133.93 89.0347 134.224 89.409 134.518 89.9437C134.892 90.6121 134.865 90.826 135.212 91.0399C135.399 91.1736 135.613 91.2538 135.934 91.5212C136.041 91.6281 136.148 91.7084 136.335 91.9222C136.789 92.4035 137.083 92.6976 137.377 93.1521C137.43 93.2591 137.537 93.4195 137.671 93.5799C137.751 93.6869 137.938 93.9543 138.152 94.1414C138.499 94.4623 138.927 94.5692 139.194 94.6494C140.103 94.89 140.316 94.5692 141.519 94.6494C142.294 94.7029 142.615 94.8633 142.802 94.6494C143.069 94.382 142.828 93.7671 142.802 93.6601C142.481 92.858 141.813 92.6709 140.744 91.9222C139.274 90.933 139.702 90.7725 137.911 89.4357C137.243 88.9544 136.869 88.7405 136.629 88.2058C136.335 87.5909 136.602 87.27 136.361 86.4679C136.148 85.6658 135.827 85.746 135.319 84.73C134.838 83.7675 135.025 83.4466 134.544 82.2435C134.277 81.5751 133.983 81.0938 133.769 80.7462V78.527C133.662 77.2169 133.823 76.2277 134.037 75.5592C134.357 74.4898 134.758 74.0085 135.079 72.5914C135.239 71.8428 135.186 71.7626 135.346 70.8535C135.48 70.1049 135.64 69.3295 136.388 67.1371C136.709 66.1478 136.762 66.0676 137.671 63.4207C138.179 61.9769 138.499 61.0143 138.713 59.7042C138.847 58.8486 138.873 58.2069 138.713 57.485C138.633 57.0572 138.392 56.4156 138.205 55.9878C138.045 55.6669 137.885 55.3194 137.698 54.9985C137.457 54.544 137.43 54.5707 137.43 54.4905C137.43 54.1964 137.671 53.9023 137.938 53.7419C138.446 53.4477 138.82 53.8221 139.488 53.7419C140.21 53.6616 140.45 53.1536 141.305 52.512C141.786 52.1376 142.534 51.6564 143.63 51.2821C143.764 50.5869 143.844 49.9987 143.897 49.5442C143.977 48.7421 144.031 48.1271 143.897 47.325C143.817 46.8437 143.79 46.6031 143.63 46.3357C143.283 45.6406 142.721 45.5336 141.813 44.8385C141.305 44.4374 141.492 44.4909 140.53 43.6086C139.675 42.8332 138.954 42.245 138.473 41.8707C137.324 41.0151 136.762 40.5605 136.148 40.3734C135.239 40.106 135.159 40.4001 133.823 40.1328C133.155 39.9991 133.288 39.9456 131.498 39.3841C130.135 38.9563 129.895 38.9296 129.44 38.6355C129.227 38.5018 128.612 38.1007 128.158 37.4056C127.65 36.6302 127.757 36.0955 127.516 34.9191C127.356 34.1437 127.062 33.395 126.474 31.8443C125.966 30.5609 125.539 29.6518 125.191 28.8765C125.004 28.4754 124.764 27.9942 124.416 27.3792C123.855 26.3899 123.481 25.9889 123.374 25.8819C122.973 25.4542 122.653 25.1066 122.092 24.8927C121.851 24.8125 121.076 24.5184 120.542 24.8927C120.168 25.1333 120.087 25.5878 120.034 25.8819C120.034 25.8819 119.927 26.3632 120.034 26.8712C120.194 27.6198 124.47 39.5445 125.031 39.3039C125.566 39.0633 119.393 28.6091 118.243 27.1118C118.03 26.8177 117.736 26.4434 117.201 26.1226C116.48 25.6948 116.213 25.8819 115.384 25.3739C114.876 25.0798 114.663 24.8125 114.342 24.8659C113.995 24.9461 113.834 25.3205 113.834 25.3739C113.727 25.6146 113.781 25.8017 113.834 26.1226C113.861 26.3097 113.941 26.5771 114.101 26.8712C114.262 27.192 114.449 27.5129 114.609 27.8605C114.903 28.4487 115.17 29.0369 115.384 29.5984C116.026 31.4165 116.694 32.7266 117.201 33.5554C117.388 33.8763 117.602 34.2506 117.95 34.7319C118.751 35.8548 119.045 35.9351 119.713 36.9243C120.328 37.8066 120.141 37.8066 120.809 38.7692C121.076 39.1435 121.397 39.5446 121.851 40.2664C122.065 40.614 122.225 40.9081 122.359 41.2557C122.412 41.4161 122.546 41.7637 122.626 42.245C122.733 42.9401 122.653 43.261 122.626 44.2235C122.573 45.4534 122.706 45.2662 122.626 45.9614C122.519 47.0041 122.305 47.1646 122.359 47.9399C122.412 48.5549 122.546 48.4479 122.626 49.1698C122.679 49.758 122.599 49.8917 122.626 50.9077C122.653 51.5227 122.679 51.5227 122.626 51.6564C122.466 52.0307 122.092 52.2179 120.568 52.6456C119.74 52.8863 119.125 53.0467 118.751 53.1537C117.575 53.4478 116.988 53.6082 116.694 53.6617C115.785 53.7953 115.705 53.6349 114.369 53.6617C113.38 53.6884 113.46 53.7686 111.803 53.9023C110.173 54.036 109.959 53.9557 109.238 54.1429C108.41 54.3568 107.875 54.6509 107.421 54.8916C103.68 56.8968 103.145 56.7364 101.221 58.1267C100.847 58.3941 100.206 58.9556 98.8962 60.1053C96.5447 62.164 95.3421 63.2335 94.2465 64.5703C93.6853 65.2655 92.7767 66.3884 91.9216 68.0461C91.4139 69.0354 91.1467 69.7841 90.6389 71.2813C90.1846 72.5647 90.2648 72.5112 89.3562 75.5057C88.6347 77.8586 88.4477 78.3934 88.3141 79.4628C88.2339 80.2917 88.1537 80.9868 88.3141 81.9493C88.5278 83.2595 88.9287 83.3664 89.5968 85.6658C89.9174 86.762 89.8105 86.6818 90.1045 87.6443C90.1312 87.6978 90.2114 88.0989 90.3717 88.8742C90.4251 89.1683 90.4786 89.3822 90.3717 89.6229C90.2381 89.917 89.9441 90.0774 89.864 90.1309C89.4097 90.3448 89.0088 90.2378 88.3141 90.1309C87.5925 90.0239 86.684 89.9705 85.7487 90.1309C85.0539 90.2646 84.8134 90.425 84.7065 90.6389C84.5461 90.9597 84.6798 91.334 84.7065 91.3875C84.8935 91.8153 85.4815 92.1362 85.4815 92.1362C86.6572 92.7511 88.1804 94.9435 91.1467 95.3713C91.8147 95.4783 92.7767 95.612 93.9793 95.3713C94.8878 95.1842 95.5559 94.8633 95.7964 95.1307C96.0904 95.4515 95.2352 96.2002 95.5292 96.8686C95.7162 97.2696 96.224 97.4033 97.0791 97.6172C99.0299 98.0985 100.019 98.3391 100.179 98.3658C102.317 98.6332 103.279 98.6867 104.829 98.8739C107.929 99.2214 108.463 99.4888 110.494 99.6225C111.777 99.7027 113.113 99.7027 113.808 99.8364C113.861 99.8364 114.075 99.8898 114.369 99.8631C114.77 99.8364 115.09 99.7027 115.224 99.6225C115.571 99.4621 115.785 99.3551 115.919 99.1145C116.106 98.7937 115.999 98.4461 115.919 98.1252C115.892 97.9915 115.758 97.5905 115.411 97.136C114.957 96.5477 114.422 96.2269 113.861 95.9061C113.353 95.612 113.086 95.4515 112.819 95.398C111.964 95.2376 111.402 95.7189 111.002 95.398C110.868 95.2911 110.815 95.1307 110.734 94.89C110.628 94.5425 110.628 94.1682 110.734 93.9008C110.788 93.7404 111.028 93.2858 113.3 92.9115C114.342 92.7243 115.144 92.6976 115.331 92.6709C116.961 92.5639 117.281 92.6976 118.457 92.6709C121.477 92.5639 121.504 91.6816 123.348 91.9222C123.561 91.949 124.523 92.1094 125.405 91.6816C125.779 91.4945 125.886 91.334 125.913 91.1736C125.94 90.933 125.726 90.7458 125.405 90.425C124.523 89.5427 124.737 89.3555 124.122 88.9277C123.588 88.5534 123.027 88.4732 122.84 88.4197C122.412 88.3395 122.118 88.3662 121.557 88.4197C121.236 88.4465 120.702 88.4999 120.007 88.6604C118.938 88.9277 118.831 89.1683 118.19 89.1683C117.629 89.1683 116.961 88.9812 116.907 88.6604C116.774 88.3662 116.907 88.3128 117.201 87.9117Z" fill="#2B5ADC"/>
<path d="M136.362 45.612C136.835 45.612 137.218 45.2529 137.218 44.8099C137.218 44.3669 136.835 44.0078 136.362 44.0078C135.89 44.0078 135.507 44.3669 135.507 44.8099C135.507 45.2529 135.89 45.612 136.362 45.612Z" fill="#FFDB13"/>
<path d="M102.739 243.431C109.309 243.404 115.908 243.377 122.478 243.35C122.478 245.564 122.448 247.779 122.448 249.993C115.791 250.074 109.163 250.155 102.506 250.236C102.564 247.995 102.652 245.699 102.739 243.431Z" fill="#2B5ADC"/>
</svg>
