<svg width="226" height="237" viewBox="0 0 226 237" fill="none" xmlns="http://www.w3.org/2000/svg">
<path d="M53.492 72.9971C52.2576 72.9651 50.7066 73.0123 50.2099 73.8957C49.7147 74.7422 50.4021 75.9875 50.695 76.4974C52.351 79.3315 55.5911 80.3862 58.03 81.1868C69.0773 84.8292 66.7472 84.5311 69.6178 85.1464C75.5238 86.4024 78.9102 86.1167 90.3816 86.1065C94.033 86.1083 99.6391 86.1163 106.641 86.2552C106.641 86.2552 124.686 87.8786 144.004 87.1934C146.922 87.0915 151.624 85.7347 161.089 83.3555C161.61 83.2292 165.655 82.1591 168.476 78.9917C169.615 77.7289 169.717 77.0322 169.587 76.5843C169.197 75.2774 166.305 75.2144 165.623 75.2049C162.435 75.1299 160.614 76.3832 156.402 77.9261C156.402 77.9261 155.298 78.342 150.464 79.7487C143.465 81.8046 136.555 80.7658 133.418 80.3608C132.537 80.251 120.425 80.1429 96.1829 79.9074C91.9791 79.8829 83.0637 82.8194 73.7942 79.4526C73.6307 79.3906 73.2316 79.2267 72.4319 78.9358C63.8635 75.5607 59.0538 73.1878 53.492 72.9971Z" fill="#2B5ADC"/>
<path d="M65.1971 5.18403C67.4116 1.61289 72.7785 1.01336 78.6143 0.59629C91.6147 -0.316045 99.4045 0.231356 110.216 0.413823C129.443 0.752691 139.057 0.909091 142.704 0.413823C143.043 0.36169 144.815 0.12709 147.107 0.413823C150.911 0.909091 156.147 2.91623 156.825 6.01817C157.372 8.52057 154.793 10.9187 153.646 12.1178C150.312 15.6628 147.368 21.8407 149.243 60.1587C149.921 74.1565 151.875 75.9812 149.608 78.8225C144.32 85.3913 133.117 79.8912 107.611 80.3604C84.8409 80.7775 74.993 85.4956 70.3816 79.6827C68.7143 77.5713 69.6782 76.1376 70.1993 57.7867C70.6161 43.2675 71.1632 42.9026 70.564 37.9238C69.6 30.0777 66.6821 18.4259 66.3174 17.0444C64.5718 10.3974 63.6079 7.76464 65.1971 5.18403Z" fill="#2B5ADC"/>
<path d="M146.56 77.3367C149.556 73.7395 149.321 67.3532 146.377 64.7726C143.121 61.9313 137.884 64.929 127.307 66.6494C117.198 68.2916 109.278 67.6138 99.9512 66.8318C82.5219 65.346 75.6179 61.2275 72.2311 64.955C69.5997 67.8745 70.3292 74.1566 73.6379 77.6756C79.3695 83.7491 89.1393 77.7799 110.711 77.6756C131.736 77.5713 141.688 83.1496 146.56 77.3367Z" fill="#FC3824"/>
<path d="M147.446 10.2927C145.701 10.6316 144.763 13.8378 143.565 25.9067C142.027 41.1296 143.304 38.2101 142.158 48.4804C141.637 53.1203 140.855 58.5161 142.34 59.0114C142.835 59.1678 143.46 58.7507 143.929 58.3336C143.903 49.4188 144.398 41.8856 144.997 36.0987C146.092 25.255 146.613 19.8331 147.994 17.5914C148.775 16.3402 150.964 13.0818 149.765 11.3093C149.27 10.6316 148.28 10.1363 147.446 10.2927Z" fill="#FC3824"/>
<path d="M72.2199 233.992C83.0318 230.578 93.8437 227.163 104.63 223.748C104.708 222.21 104.786 220.672 104.864 219.134C104.864 218.013 104.864 216.867 104.864 215.746C104.916 213.478 104.994 211.21 105.046 208.968C104.604 194.579 104.135 180.217 103.692 165.828L117.109 164.707H124.404C124.169 180.347 123.909 195.987 123.674 211.601C123.674 214.521 123.7 217.44 123.7 220.359L123.231 223.54L141.364 227.841L157.36 233.262C158.819 233.966 160.252 234.67 161.711 235.348C146.757 235.869 131.829 236.364 116.874 236.886C99.9401 236.781 82.9797 236.651 66.0454 236.547C68.1036 235.687 70.1618 234.853 72.2199 233.992Z" fill="#2B5ADC"/>
<path d="M18.2641 85.9336L88.3982 86.8199L175.467 86.3767L206.053 84.5781L208.293 84.6824L216.526 95.9953L220.408 120.107L225.462 162.648L217.698 165.359L188.285 166.037H180.651L172.887 168.878L160.747 170.338L147.46 169.66L140.869 168.07L132.167 166.949L110.413 167.027L94.8072 170.077H69.6662L43.6916 166.48L24.3865 165.02L12.9753 167.184L5.91504 167.966L8.39005 138.771L12.3761 102.955L18.2641 85.9336Z" fill="#FC3824"/>
<path opacity="0.55" d="M26.3929 91.6901C27.0963 95.0788 27.7476 100.031 27.0963 105.949C26.3408 112.856 24.2044 117.861 23.5792 119.295C19.046 129.409 13.9396 129.487 6.41036 141.243C2.78902 146.899 0.444276 150.653 0.0534843 156.179C-0.441519 163.321 2.60665 168.952 4.76904 172.914C6.46247 176.042 9.40643 181.334 15.607 185.817C21.6252 190.17 27.461 191.369 32.3069 192.386C38.5335 193.663 44.9164 194.993 52.3154 192.62C59.2976 190.379 63.4139 186.026 66.2015 183.106C73.34 175.599 76.0495 167.231 77.1437 162.175C76.9353 155.058 76.7529 147.916 76.5445 140.8C74.5645 129.278 70.1095 122.11 66.436 117.705C61.2255 111.475 56.2233 109.129 45.0206 98.2329C41.0606 94.4011 38.0124 91.0906 36.0845 88.9531" fill="#F5F4F1"/>
<path d="M40.2008 168.534C40.4353 168.195 40.4613 168.091 40.6437 167.726C40.8521 167.361 41.0345 167.153 41.4514 166.605C42.5195 165.224 43.0406 164.546 43.1969 164.207C43.3272 163.92 43.4574 163.712 43.6919 163.243C44.0045 162.669 44.0827 162.591 44.1869 162.513C44.6037 162.304 45.2811 162.617 45.698 162.982C46.0627 163.321 46.0106 163.529 46.4535 164.416C46.7661 165.041 47.0527 165.51 47.4435 166.11C47.9906 166.918 48.0688 166.918 48.4335 167.544C48.8243 168.221 48.8503 168.404 49.189 168.977C49.4235 169.394 49.8143 169.994 50.4396 170.672C50.7001 170.932 51.0648 171.323 51.4296 171.871C51.9246 172.601 51.9246 172.835 52.4196 173.8C53.3314 175.52 53.7743 175.494 53.9306 176.458C54.0349 177.162 53.8785 177.475 54.1912 177.892C54.4778 178.283 54.9207 178.413 55.7022 178.622C56.3275 178.778 57.2393 179.013 58.4638 178.857C58.9588 178.804 60.0009 178.622 60.2094 178.127C60.2875 177.944 60.027 177.579 59.9488 177.397C59.8446 177.136 59.6102 176.641 59.4538 176.432C59.4017 176.354 57.578 174.712 57.9428 175.233C57.9428 175.233 57.083 174.373 56.4317 173.539C55.7804 172.731 55.3896 172.027 55.1812 171.61C54.7383 170.776 54.8685 170.828 54.1912 169.446C53.6441 168.326 53.3575 167.752 53.3054 167.674C53.1491 167.413 52.8625 167.022 52.7843 166.501C52.7583 166.371 52.7583 166.266 52.6801 166.058C52.5499 165.667 52.4196 165.589 52.4196 165.328C52.4196 165.302 52.4456 164.963 52.6801 164.859C52.9928 164.702 53.4617 165.093 53.5138 165.145C53.6962 165.302 53.7743 165.458 53.9306 165.823C54.1391 166.292 54.3735 166.788 54.6862 167.257C54.8425 167.491 54.9467 167.648 55.1812 167.987C55.5199 168.456 55.6241 168.56 55.9367 168.951C56.3796 169.525 56.6662 169.89 56.9267 170.385C57.2915 171.037 57.2654 171.245 57.578 171.454C57.7604 171.584 57.9688 171.662 58.2815 171.923C58.3857 172.027 58.4899 172.105 58.6723 172.314C59.1152 172.783 59.4017 173.07 59.6623 173.513C59.7144 173.617 59.8186 173.774 59.9488 173.93C60.027 174.034 60.2094 174.295 60.4178 174.477C60.7565 174.79 61.1733 174.894 61.4078 174.947C62.2676 175.155 62.476 174.868 63.6483 174.947C64.3778 174.999 64.6905 175.155 64.8989 174.947C65.1594 174.686 64.9249 174.086 64.8989 173.982C64.5862 173.2 63.961 173.018 62.8928 172.288C61.486 171.323 61.8768 171.167 60.1312 169.89C59.4799 169.42 59.1152 169.212 58.8807 168.691C58.5941 168.091 58.8546 167.778 58.6202 166.996C58.4117 166.214 58.0991 166.292 57.6301 165.302C57.1873 164.363 57.3436 164.051 56.8746 162.904C56.6141 162.278 56.3275 161.783 56.1191 161.47V159.307C56.0149 158.029 56.1712 157.065 56.3796 156.413C56.6922 155.37 57.057 154.901 57.3696 153.52C57.5259 152.79 57.4738 152.712 57.6301 151.825C57.7604 151.096 57.9167 150.34 58.6202 148.228C58.9328 147.264 58.9849 147.186 59.8707 144.631C60.3657 143.249 60.6783 142.311 60.8607 141.034C60.991 140.2 61.017 139.574 60.8607 138.87C60.7825 138.453 60.5481 137.828 60.3657 137.437C60.2094 137.124 60.0531 136.811 59.8707 136.472C59.6362 136.055 59.6102 136.055 59.6102 136.003C59.6102 135.716 59.8446 135.429 60.1052 135.273C60.6002 134.986 60.9649 135.351 61.6162 135.273C62.3197 135.195 62.5541 134.7 63.3618 134.074C63.8307 133.709 64.5602 133.24 65.6023 132.875C65.7326 132.197 65.8107 131.624 65.8628 131.181C65.941 130.399 65.9931 129.799 65.8628 129.017C65.7847 128.548 65.7586 128.313 65.6023 128.053C65.2636 127.401 64.7165 127.297 63.8568 126.619C63.3618 126.254 63.5441 126.28 62.6062 125.42C61.7986 124.664 61.0691 124.09 60.6002 123.725C59.5059 122.891 58.9328 122.474 58.3596 122.292C57.4999 122.031 57.3957 122.318 56.1191 122.057C55.4938 121.927 55.598 121.875 53.8785 121.327C52.5498 120.91 52.3414 120.884 51.8725 120.597C51.664 120.467 51.0648 120.076 50.6219 119.398C50.1269 118.642 50.2311 118.147 49.9967 116.974C49.8404 116.244 49.5538 115.488 48.9806 113.977C48.5117 112.725 48.0948 111.839 47.7301 111.083C47.5477 110.692 47.3132 110.223 46.9745 109.649C46.4274 108.685 46.0627 108.32 45.9845 108.216C45.5938 107.799 45.2811 107.46 44.734 107.251C44.4995 107.173 43.744 106.886 43.2229 107.251C42.8843 107.486 42.78 107.929 42.7279 108.216C42.7279 108.216 42.6237 108.685 42.7279 109.18C42.8843 109.91 47.0527 121.484 47.5738 121.249C48.0948 121.015 42.1027 110.875 40.9824 109.415C40.774 109.128 40.4874 108.763 39.9924 108.45C39.315 108.033 39.0284 108.216 38.2469 107.721C37.7779 107.434 37.5434 107.173 37.2569 107.251C36.9442 107.33 36.7618 107.694 36.7618 107.721C36.6576 107.955 36.7097 108.138 36.7618 108.45C36.7879 108.633 36.8661 108.894 37.0224 109.18C37.1787 109.493 37.3611 109.806 37.5174 110.145C37.804 110.718 38.0645 111.292 38.2729 111.839C38.8982 113.612 39.5495 114.889 40.0184 115.697C40.2008 116.01 40.4092 116.375 40.7479 116.844C41.5295 117.939 41.79 118.017 42.4674 118.955C43.0666 119.815 42.8843 119.815 43.5356 120.728C43.7961 121.093 44.1087 121.484 44.5256 122.161C44.734 122.5 44.8903 122.761 45.0206 123.126C45.0727 123.282 45.203 123.621 45.2811 124.09C45.3853 124.742 45.3072 125.081 45.2811 126.019C45.229 127.218 45.3593 127.036 45.2811 127.714C45.1769 128.73 44.9685 128.887 45.0206 129.643C45.0727 130.242 45.203 130.138 45.2811 130.842C45.3332 131.415 45.2551 131.545 45.2811 132.536C45.3072 133.136 45.3332 133.136 45.2811 133.266C45.1248 133.631 44.7601 133.787 43.275 134.23C42.4674 134.465 41.8682 134.621 41.5295 134.7C40.3832 134.986 39.81 135.143 39.5235 135.169C38.6377 135.299 38.5595 135.143 37.2829 135.169C36.3189 135.195 36.4232 135.273 34.7818 135.403C33.2187 135.534 32.9842 135.456 32.2808 135.638C31.4992 135.847 30.9521 136.133 30.5352 136.368C26.9139 138.323 26.3668 138.166 24.5431 139.496C24.1783 139.757 23.5531 140.304 22.3025 141.425C20.0099 143.432 18.8636 144.475 17.7954 145.752C17.2483 146.43 16.3625 147.524 15.5549 149.114C15.0599 150.079 14.8254 150.783 14.3043 152.242C13.8614 153.494 13.9396 153.442 13.0538 156.335C12.3504 158.603 12.168 159.124 12.0638 160.193C11.9856 161.001 11.9075 161.679 12.0638 162.591C12.2722 163.868 12.663 163.972 13.3143 166.188C13.627 167.257 13.5227 167.179 13.8093 168.117C13.8354 168.169 13.9135 168.56 14.0699 169.316C14.122 169.603 14.1741 169.811 14.0699 170.046C13.9396 170.333 13.653 170.489 13.5748 170.515C13.1319 170.724 12.7412 170.62 12.0638 170.515C11.3604 170.411 10.4746 170.359 9.56272 170.515C8.88535 170.646 8.65086 170.802 8.5727 170.984C8.41639 171.297 8.54665 171.636 8.5727 171.714C8.75507 172.131 9.32824 172.444 9.32824 172.444C10.4746 173.018 11.9335 175.155 14.8254 175.572C15.4767 175.676 16.4146 175.807 17.587 175.572C18.4728 175.39 19.1241 175.077 19.3325 175.338C19.6191 175.65 18.7854 176.38 19.072 177.032C19.2544 177.423 19.7233 177.553 20.5831 177.762C22.4849 178.231 23.4228 178.466 23.5791 178.492C25.6634 178.752 26.6013 178.804 28.0863 178.961C31.1084 179.3 31.6294 179.56 33.5834 179.691C34.8339 179.769 36.1366 179.769 36.7879 179.899C36.84 179.899 37.0484 179.951 37.335 179.925C37.7258 179.899 38.0384 179.769 38.1687 179.691C38.5074 179.534 38.7158 179.43 38.8461 179.195C39.0284 178.883 38.9242 178.544 38.8461 178.231C38.82 178.101 38.6898 177.71 38.3511 177.267C37.9082 176.693 37.3871 176.38 36.84 176.067C36.345 175.781 36.0845 175.624 35.85 175.598C35.0424 175.442 34.4952 175.911 34.1045 175.598C33.9742 175.494 33.9221 175.338 33.8439 175.129C33.7397 174.79 33.7397 174.425 33.8439 174.165C33.896 174.008 34.1305 173.565 36.345 173.2C37.3611 173.018 38.1426 172.992 38.325 172.965C39.9142 172.887 40.2269 172.992 41.3471 172.965C44.2651 172.861 44.3172 172.001 46.0887 172.236C46.2972 172.262 47.2351 172.418 48.0948 172.001C48.4596 171.819 48.5638 171.662 48.5898 171.532C48.6159 171.297 48.4074 171.115 48.0948 170.802C47.2351 169.942 47.4435 169.759 46.8443 169.368C46.3232 169.029 45.8022 168.925 45.5938 168.899C45.1769 168.821 44.8903 168.847 44.3432 168.899C44.0306 168.925 43.5095 168.977 42.8321 169.134C41.79 169.394 41.6858 169.629 41.0866 169.603C40.5395 169.603 39.8882 169.42 39.8361 169.134C39.81 169.003 39.9403 168.925 40.2008 168.534Z" fill="#FFDB13"/>
<path d="M58.8023 127.533C59.2483 127.533 59.6099 127.183 59.6099 126.751C59.6099 126.319 59.2483 125.969 58.8023 125.969C58.3562 125.969 57.9946 126.319 57.9946 126.751C57.9946 127.183 58.3562 127.533 58.8023 127.533Z" fill="#2B5ADC"/>
<path d="M104.842 217.362C111.327 217.338 117.842 217.313 124.327 217.289C124.327 219.291 124.298 221.293 124.298 223.295C117.726 223.369 111.183 223.442 104.611 223.515C104.669 221.489 104.755 219.413 104.842 217.362Z" fill="#FC3824"/>
</svg>
