<svg width="882" height="386" viewBox="0 0 882 386" fill="none" xmlns="http://www.w3.org/2000/svg">
<path d="M226.689 385.37C241.35 385.37 253.235 373.469 253.235 358.789C253.235 344.109 241.35 332.209 226.689 332.209C212.029 332.209 200.144 344.109 200.144 358.789C200.144 373.469 212.029 385.37 226.689 385.37Z" fill="#FFDB13"/>
<path d="M226.689 367.174C231.313 367.174 235.061 363.421 235.061 358.791C235.061 354.161 231.313 350.408 226.689 350.408C222.066 350.408 218.317 354.161 218.317 358.791C218.317 363.421 222.066 367.174 226.689 367.174Z" fill="#F5F4F1"/>
<path d="M638.551 385.37C653.212 385.37 665.097 373.469 665.097 358.789C665.097 344.109 653.212 332.209 638.551 332.209C623.891 332.209 612.006 344.109 612.006 358.789C612.006 373.469 623.891 385.37 638.551 385.37Z" fill="#FFDB13"/>
<path d="M638.553 367.174C643.176 367.174 646.925 363.421 646.925 358.791C646.925 354.161 643.176 350.408 638.553 350.408C633.929 350.408 630.181 354.161 630.181 358.791C630.181 363.421 633.929 367.174 638.553 367.174Z" fill="#F5F4F1"/>
<path d="M694.093 385.37C708.754 385.37 720.639 373.469 720.639 358.789C720.639 344.109 708.754 332.209 694.093 332.209C679.433 332.209 667.548 344.109 667.548 358.789C667.548 373.469 679.433 385.37 694.093 385.37Z" fill="#FFDB13"/>
<path d="M694.093 367.174C698.716 367.174 702.465 363.421 702.465 358.791C702.465 354.161 698.716 350.408 694.093 350.408C689.469 350.408 685.721 354.161 685.721 358.791C685.721 363.421 689.469 367.174 694.093 367.174Z" fill="#F5F4F1"/>
<path d="M171.147 385.37C185.808 385.37 197.692 373.469 197.692 358.789C197.692 344.109 185.808 332.209 171.147 332.209C156.486 332.209 144.602 344.109 144.602 358.789C144.602 373.469 156.486 385.37 171.147 385.37Z" fill="#FFDB13"/>
<path d="M171.148 367.174C175.772 367.174 179.52 363.421 179.52 358.791C179.52 354.161 175.772 350.408 171.148 350.408C166.525 350.408 162.776 354.161 162.776 358.791C162.776 363.421 166.525 367.174 171.148 367.174Z" fill="#F5F4F1"/>
<path d="M186.055 46.165C185.646 38.3953 185.85 32.057 186.055 27.7632C186.259 22.6517 186.667 20.8115 185.238 19.5847C181.358 16.1088 171.761 24.9008 165.022 20.8115C162.776 19.3802 161.143 16.5177 161.551 14.2686C162.164 10.9972 167.064 9.36152 171.965 8.13474C183.604 5.06779 192.793 4.4544 200.144 4.04547C206.066 3.63654 218.726 2.61422 230.569 1.79637C237.103 1.18298 241.187 0.978516 247.313 0.978516C254.256 1.18298 254.46 1.79637 260.994 1.59191C263.24 1.59191 266.508 1.79637 273.042 2.00083C276.513 2.2053 278.351 2.2053 279.576 3.63654C281.006 5.27225 281.21 8.3392 279.985 10.1794C277.126 14.2686 269.979 9.97491 264.057 14.6776C261.199 16.9267 260.178 20.1981 259.973 21.0159C258.34 25.9231 260.994 28.7856 260.586 34.5105C260.382 36.9641 259.769 40.44 257.523 44.5293L248.538 48.4141L218.726 49.0275L190.138 48.6185L186.055 46.165Z" fill="#F5F4F1"/>
<path d="M733.911 46.165C734.32 38.3953 734.115 32.057 733.911 27.7632C733.707 22.6517 733.299 20.8115 734.728 19.5847C738.608 16.1088 748.205 24.9008 754.943 20.8115C757.189 19.3802 758.823 16.5177 758.415 14.2686C757.802 10.9972 752.901 9.36152 748.001 8.13474C736.362 5.06779 727.173 4.4544 719.822 4.04547C713.9 3.63654 701.24 2.61422 689.397 1.79637C682.862 1.18298 678.778 0.978516 672.653 0.978516C665.71 1.18298 665.506 1.79637 658.971 1.59191C656.725 1.59191 653.458 1.79637 646.924 2.00083C643.453 2.2053 641.615 2.2053 640.39 3.63654C638.96 5.27225 638.756 8.3392 639.981 10.1794C642.84 14.2686 649.987 9.97491 655.908 14.6776C658.767 16.9267 659.788 20.1981 659.992 21.0159C661.626 25.9231 658.971 28.7856 659.38 34.5105C659.584 36.9641 660.197 40.44 662.443 44.5293L671.427 48.4141L701.24 49.0275L729.827 48.6185L733.911 46.165Z" fill="#F5F4F1"/>
<path d="M5.13684 100.348C4.32005 96.0545 7.38299 91.5563 19.8389 80.7198C30.6613 71.3144 36.1746 66.6118 44.1382 61.9091C55.5732 55.3663 64.9662 52.5038 76.4011 49.0279C80.8934 47.8011 94.5745 43.7119 119.486 40.236C140.519 37.3735 156.65 36.5556 160.53 36.3512C219.134 33.6931 271 33.4887 271 33.4887C341.447 33.2842 334.709 30.6262 411.078 30.4217C459.676 30.2173 450.079 31.2396 505.212 31.0351C546.664 30.8306 579.743 30.2173 632.426 31.444C638.96 31.6485 646.72 31.853 657.542 32.0574C715.942 34.1021 715.738 36.3512 761.069 37.9869C781.489 38.6003 801.5 42.6895 821.919 42.894C825.391 42.894 831.517 42.894 838.663 45.961C841.318 47.1877 844.789 49.0279 859.9 64.3627C869.701 74.3814 871.131 76.426 872.152 78.2662C874.194 81.9465 878.277 89.3072 877.052 98.7126C876.644 101.78 876.031 107.504 871.131 112.207C866.434 116.91 860.512 117.523 858.675 117.728H749.226L517.464 117.932L325.928 116.91L130.513 117.114C70.8878 125.088 26.9858 122.839 20.0431 117.523C15.1424 113.843 10.6501 108.527 10.6501 108.527C7.38299 104.438 5.54523 102.393 5.13684 100.348Z" fill="#2B5ADC"/>
<path d="M7.79144 97.6927C4.32011 97.8971 1.25717 113.641 0.848783 135.927C0.440391 154.125 2.07396 163.939 5.34109 191.337C10.6502 235.91 10.0376 241.022 14.3257 266.784C16.776 281.505 19.4306 293.773 21.2683 301.952L34.1327 310.744L97.0249 311.357L310.409 313.197L481.117 312.175L664.689 311.153L800.683 311.766L846.219 311.357C850.507 310.744 858.266 308.699 862.963 302.361C865.822 298.476 866.434 294.387 867.659 284.163C869.293 269.851 870.11 262.695 870.314 260.65C870.518 254.925 872.968 232.843 877.665 188.679C879.707 168.642 881.545 153.716 881.545 131.634C881.545 127.953 881.341 101.782 876.236 100.964C873.173 100.555 872.356 109.552 863.984 114.254C858.266 117.526 853.366 116.094 842.543 115.685C831.517 115.277 831.313 116.299 815.59 116.708C788.023 117.321 774.138 117.935 700.627 115.685C700.627 115.685 677.145 114.868 676.328 114.868C651.008 114.05 610.373 115.481 598.53 115.481C572.597 115.685 537.475 116.094 486.222 115.89C383.716 115.685 392.904 114.663 288.765 114.459C189.934 114.459 140.314 114.254 124.796 114.459C116.424 114.459 105.601 114.459 84.1606 114.459C70.2753 114.459 56.1858 112.21 42.5047 113.845C32.4991 115.072 25.3523 116.708 18.818 112.414C10.8544 107.098 10.6502 97.4882 7.79144 97.6927Z" fill="#FFDB13"/>
<path d="M155.22 355.518L164.205 345.09L196.264 344.068L227.506 343.659L236.899 346.112L244.454 352.655L248.334 355.109L281.617 354.7H621.603C625.279 351.019 629.158 347.135 632.834 343.454C636.305 343.454 639.981 343.25 643.452 343.25C652.845 342.841 660.605 342.841 666.935 342.636C675.102 342.636 680.82 342.636 682.249 342.636C687.354 342.636 691.642 342.841 695.114 342.841C698.381 345.908 701.648 348.975 704.915 351.837L710.224 354.291L794.353 354.7L838.459 354.291L850.711 351.428L860.716 315.238L863.575 304.811L818.039 308.286L746.775 307.673L617.519 308.286L281.005 310.127L107.847 309.309L38.0121 308.286L24.1268 300.926H19.2261L20.2471 322.599L25.1477 346.317L39.0331 359.198L103.355 357.767L151.953 357.153L155.22 355.518Z" fill="#2B5ADC"/>
<path d="M399.234 43.9174C401.276 44.1219 403.318 44.3263 405.564 44.5308C406.993 44.7352 408.831 44.1219 409.443 42.6906C410.056 41.2594 408.831 40.237 407.606 40.0326C405.564 39.8281 403.522 39.6237 401.276 39.4192C399.846 39.2147 398.008 39.8281 397.396 41.2594C396.783 42.4861 398.008 43.7129 399.234 43.9174Z" fill="#FFDB13"/>
<path d="M457.633 43.0999C459.471 43.3044 461.105 43.5089 462.942 43.7133C464.168 43.9178 466.21 43.3044 466.822 42.0776C467.435 40.8508 466.21 40.033 465.189 40.033C463.351 39.8285 461.717 39.6241 459.88 39.4196C458.654 39.2151 456.612 39.8285 456 41.0553C455.183 42.2821 456.408 43.0999 457.633 43.0999Z" fill="#FFDB13"/>
<path d="M492.754 46.1661C497.655 46.3706 502.352 46.3706 507.252 46.575C508.477 46.575 511.949 46.1661 512.153 44.5304C512.561 41.6679 508.273 42.0768 506.436 42.0768C502.556 42.0768 498.676 42.0768 494.796 42.2813C493.571 42.2813 491.529 42.4858 490.712 43.3036C490.1 43.917 489.691 44.5304 491.121 44.5304C493.775 44.5304 496.43 44.5304 499.084 44.3259C500.514 44.3259 506.64 43.5081 506.231 45.9616C507.865 45.3483 509.498 44.7349 511.132 43.917C506.231 43.7125 501.535 43.7125 496.634 43.5081C495.409 43.5081 493.367 43.7125 492.55 44.5304C491.733 45.5527 491.529 46.1661 492.754 46.1661Z" fill="#FFDB13"/>
<path d="M614.661 46.1668C616.703 46.3712 618.54 46.3712 620.582 46.5757C622.012 46.5757 623.849 46.1668 624.462 44.7355C625.075 43.5088 623.849 42.282 622.624 42.282C620.582 42.0775 618.745 42.0775 616.703 41.873C615.273 41.873 613.435 42.282 612.823 43.7132C612.415 44.94 613.435 46.1668 614.661 46.1668Z" fill="#FFDB13"/>
<path d="M252.417 65.798C255.684 66.2069 259.156 66.4114 262.423 66.8203C263.852 67.0248 265.486 66.6159 266.507 65.798C267.323 65.1846 267.323 64.1623 266.098 64.1623C262.831 63.7534 259.36 63.5489 256.093 63.14C254.663 62.9355 253.03 63.3445 252.009 64.1623C250.988 64.7757 251.192 65.5936 252.417 65.798Z" fill="#FFDB13"/>
<path d="M293.461 65.7943C299.995 66.2032 306.325 66.4077 312.86 66.8166C315.106 67.0211 319.19 63.7496 315.106 63.5452C308.572 63.1363 302.242 62.9318 295.707 62.5229C293.461 62.3184 289.377 65.5898 293.461 65.7943Z" fill="#FFDB13"/>
<path d="M291.827 48.2117C295.911 48.4162 300.199 48.4162 304.283 48.6206C305.712 48.6206 307.55 48.2117 308.162 46.7805C308.775 45.5537 307.754 44.5314 306.325 44.3269C302.241 44.1224 297.953 44.1224 293.869 43.918C292.439 43.918 290.602 44.3269 289.989 45.7581C289.581 46.9849 290.601 48.2117 291.827 48.2117Z" fill="#FFDB13"/>
<path d="M353.086 50.664C350.635 51.2774 348.185 51.6864 345.735 52.2998C344.714 52.5042 343.489 52.9131 342.468 53.1176C341.855 53.3221 336.546 53.9355 340.017 53.5265C344.714 53.1176 349.41 52.5042 354.311 52.0953C356.966 51.8908 359.416 48.8239 355.332 49.2328C350.635 49.6417 345.939 50.2551 341.038 50.664C339.201 50.8685 334.504 51.2774 334.3 53.9355C333.687 59.2515 351.861 53.3221 353.903 52.9131C354.515 52.7087 356.966 51.8908 356.557 50.8685C355.945 50.0507 353.903 50.4596 353.086 50.664Z" fill="#FFDB13"/>
<path d="M345.122 52.0981C343.897 51.8936 342.876 51.8936 341.651 51.6891C340.426 51.4847 338.384 52.0981 337.771 53.3248C336.955 54.5516 338.384 55.165 339.405 55.165C340.63 55.3695 341.651 55.3695 342.876 55.5739C344.101 55.7784 346.143 55.165 346.756 53.9382C347.368 52.7115 346.143 52.0981 345.122 52.0981Z" fill="#FFDB13"/>
<path d="M346.755 79.6986C350.839 79.6986 355.127 79.6986 359.211 79.9031C360.64 79.9031 362.478 79.4942 363.091 78.0629C363.703 76.8362 362.682 75.8138 361.253 75.8138C357.169 75.8138 352.881 75.8138 348.797 75.6094C347.368 75.6094 345.53 76.0183 344.917 77.4495C344.305 78.6763 345.53 79.6986 346.755 79.6986Z" fill="#FFDB13"/>
<path d="M305.304 86.8567C308.367 86.8567 311.43 86.8567 314.289 86.8567C315.514 86.8567 317.556 86.4478 318.168 85.221C318.781 83.9943 317.556 83.3809 316.535 83.3809C313.472 83.3809 310.409 83.3809 307.55 83.3809C306.325 83.3809 304.283 83.7898 303.671 85.0166C303.058 86.2433 304.283 86.8567 305.304 86.8567Z" fill="#FFDB13"/>
<path d="M250.579 83.5845C254.663 83.5845 258.951 83.5845 263.035 83.5845C264.26 83.5845 266.302 83.1756 266.915 81.9488C267.528 80.722 266.507 80.5176 265.281 80.5176C261.197 80.5176 256.909 80.5176 252.825 80.5176C251.6 80.5176 249.558 80.9265 248.946 82.1533C248.537 83.1756 249.558 83.5845 250.579 83.5845Z" fill="#FFDB13"/>
<path d="M171.965 93.8064C175.64 93.193 179.316 92.3751 183.195 91.7617C184.012 91.5573 186.462 91.1484 186.667 90.126C186.871 89.1037 184.829 89.3082 184.216 89.5126C180.541 90.126 176.865 90.9439 172.985 91.5573C172.169 91.7618 169.718 92.1707 169.514 93.193C169.514 94.2153 171.556 94.0109 171.965 93.8064Z" fill="#FFDB13"/>
<path d="M169.513 71.5203C166.042 72.3381 162.571 72.9515 159.099 73.7694C157.874 73.9738 156.445 75.4051 156.649 76.8363C157.057 78.2676 158.895 78.472 160.12 78.2676C163.592 77.4497 167.063 76.8363 170.534 76.0185C171.759 75.814 173.189 74.3828 172.985 72.9515C172.78 71.5203 170.739 71.3158 169.513 71.5203Z" fill="#FFDB13"/>
<path d="M198.713 70.7014C203.206 70.2925 207.698 69.8836 212.19 69.4746C213.415 69.4746 215.457 68.6568 215.457 67.2255C215.661 65.7943 213.824 65.5898 212.803 65.5898C208.31 65.9988 203.818 66.4077 199.326 66.8166C198.101 66.8166 196.059 67.6345 196.059 69.0657C195.854 70.497 197.692 70.9059 198.713 70.7014Z" fill="#FFDB13"/>
<path d="M146.643 57.2078C150.932 57.0033 155.22 57.0033 159.508 56.7989C162.775 56.7989 164.204 52.9141 160.12 52.9141C155.832 53.1185 151.544 53.1185 147.256 53.323C143.989 53.323 142.56 57.2078 146.643 57.2078Z" fill="#FFDB13"/>
<path d="M129.899 69.476C133.575 69.476 137.25 69.476 140.926 69.476C142.151 69.476 143.989 68.4537 144.193 67.2269C144.397 65.7956 142.559 65.3867 141.538 65.3867C137.863 65.3867 134.187 65.3867 130.512 65.3867C129.286 65.3867 127.449 66.409 127.244 67.6358C127.04 69.0671 128.674 69.476 129.899 69.476Z" fill="#FFDB13"/>
<path d="M108.868 56.595C109.276 56.595 109.48 56.595 109.889 56.595C111.318 56.595 112.952 56.1861 113.768 54.9593C114.585 53.7325 113.156 53.1191 112.135 53.1191C111.726 53.1191 111.522 53.1191 111.114 53.1191C109.684 53.1191 108.051 53.5281 107.234 54.7548C106.621 55.9816 107.847 56.595 108.868 56.595Z" fill="#FFDB13"/>
<path d="M89.0609 71.5207C89.8776 69.885 91.307 68.4537 92.9406 67.8403C93.5532 67.6359 95.3909 66.818 94.5741 65.7957C93.7574 64.9779 91.5112 65.5912 90.6944 66.0002C87.4273 67.227 84.5686 69.2716 83.1392 72.543C82.5266 73.5653 85.1811 73.5653 85.5895 73.3609C86.8147 73.1564 88.4483 72.7475 89.0609 71.5207Z" fill="#FFDB13"/>
<path d="M97.4321 90.535C99.8824 89.9216 102.129 89.3082 104.579 88.6948C103.966 88.2858 103.354 87.6725 102.537 87.2635C100.903 88.2859 99.0656 89.1037 97.4321 90.126C96.8195 90.5349 95.5943 91.1483 96.8195 91.7617C97.8405 92.1707 100.087 91.5573 100.903 90.9439C102.537 89.9216 104.375 89.1037 106.008 88.0814C106.417 87.8769 107.642 87.2635 107.029 86.6501C106.417 86.0367 104.579 86.4457 103.966 86.6501C101.516 87.2635 99.2698 87.8769 96.8195 88.4903C96.2069 88.6948 93.9607 89.3082 94.1649 90.3305C94.3691 91.3528 97.0237 90.7394 97.4321 90.535Z" fill="#FFDB13"/>
<path d="M85.9964 54.3454C82.3209 55.9811 78.8496 57.8212 75.1741 59.457C74.3573 59.8659 72.7237 60.8882 73.5405 61.9105C74.3573 62.9328 76.6034 62.5239 77.4202 62.115C81.0957 60.4793 84.567 58.6391 88.2426 57.0034C89.0594 56.5945 90.6929 55.5721 89.8761 54.5498C89.0593 53.5275 86.8132 53.9364 85.9964 54.3454Z" fill="#FFDB13"/>
<path d="M58.2268 69.6818C55.1639 72.1354 52.1009 74.7934 49.038 77.247C48.2212 78.0649 48.2212 78.6782 49.4464 78.8827C50.6716 79.0872 52.7135 78.6782 53.5303 77.8604C56.5932 75.4068 59.6562 72.7488 62.7191 70.2952C63.5359 69.4774 63.5359 68.864 62.3107 68.6595C61.0855 68.4551 59.2478 68.864 58.2268 69.6818Z" fill="#FFDB13"/>
<path d="M23.1052 86.6499C21.2674 88.899 19.6338 91.1481 17.7961 93.1927C16.9793 94.215 17.1835 95.6463 18.6129 96.0552C20.0422 96.4641 21.88 96.0552 22.6968 95.0329C24.5345 92.7838 26.1681 90.5347 28.0059 88.49C28.8227 87.4677 28.6185 86.0365 27.1891 85.6275C25.9639 85.0142 23.922 85.6275 23.1052 86.6499Z" fill="#FFDB13"/>
<path d="M376.772 55.3659C381.264 54.957 385.552 54.548 390.044 54.1391C391.065 54.1391 393.311 53.7302 393.924 52.7079C394.537 51.6855 393.311 51.6855 392.495 51.6855C388.002 52.0945 383.714 52.5034 379.222 52.9123C378.201 52.9123 375.955 53.3213 375.342 54.3436C374.73 55.3659 375.751 55.3659 376.772 55.3659Z" fill="#FFDB13"/>
<path d="M415.977 66.4093C419.857 66.4093 423.532 66.4093 427.412 66.4093C428.841 66.4093 430.475 66.0003 431.496 65.3869C432.313 64.7735 432.517 64.1602 431.088 64.1602C427.208 64.1602 423.532 64.1602 419.653 64.1602C418.223 64.1602 416.59 64.5691 415.569 65.1825C414.956 65.7959 414.752 66.4093 415.977 66.4093Z" fill="#FFDB13"/>
<path d="M400.255 83.1761C404.747 82.9716 409.035 82.7671 413.527 82.5627C416.59 82.3582 418.428 78.8823 414.344 79.0868C409.852 79.2913 405.564 79.4957 401.071 79.7002C398.009 79.9047 396.171 83.3805 400.255 83.1761Z" fill="#FFDB13"/>
<path d="M433.13 52.0954C438.03 52.0954 442.931 52.0954 447.628 52.0954C448.853 52.0954 450.895 51.891 451.712 51.0731C452.528 50.4597 452.733 50.0508 451.507 50.0508C446.607 50.0508 441.706 50.0508 437.009 50.0508C435.784 50.0508 433.742 50.2552 432.926 51.0731C432.109 51.6865 431.7 52.0954 433.13 52.0954Z" fill="#FFDB13"/>
<path d="M462.535 63.9543C467.435 63.7498 472.336 63.5454 477.033 63.3409C480.504 63.1364 481.525 58.6382 477.441 58.8427C472.54 59.0472 467.64 59.2516 462.943 59.4561C459.676 59.6606 458.451 64.1587 462.535 63.9543Z" fill="#FFDB13"/>
<path d="M469.681 83.5839C473.765 83.7884 478.053 83.9929 482.137 84.1973C483.362 84.1973 485.404 83.7884 486.017 82.5616C486.629 81.3348 485.404 80.9259 484.383 80.9259C480.299 80.7214 476.011 80.517 471.927 80.3125C470.702 80.3125 468.66 80.7214 468.048 81.9482C467.435 82.9705 468.66 83.3795 469.681 83.5839Z" fill="#FFDB13"/>
<path d="M496.634 64.9793C497.86 64.7748 499.085 64.7748 500.514 64.5703C501.739 64.3659 503.577 63.7525 503.781 62.1168C503.985 60.6855 502.148 60.0722 501.127 60.2766C499.902 60.4811 498.676 60.4811 497.247 60.6855C496.022 60.89 494.184 61.5034 493.98 63.1391C493.776 64.5703 495.409 64.9793 496.634 64.9793Z" fill="#FFDB13"/>
<path d="M521.138 72.3385C523.588 72.3385 526.243 72.3385 528.693 72.3385C530.123 72.3385 531.96 71.9296 532.573 70.7028C533.185 69.4761 531.96 68.6582 530.939 68.6582C528.489 68.6582 525.834 68.6582 523.384 68.6582C521.955 68.6582 520.117 69.0671 519.504 70.2939C518.892 71.5207 519.913 72.3385 521.138 72.3385Z" fill="#FFDB13"/>
<path d="M538.904 54.1421C541.763 54.5511 544.621 54.96 547.684 55.5734C549.114 55.7778 550.543 55.3689 551.768 54.7555C552.177 54.5511 553.81 53.5287 552.585 53.3243C549.726 52.9153 546.867 52.5064 543.805 51.893C542.375 51.6886 540.946 52.0975 539.721 52.7109C539.312 52.9153 537.679 53.9377 538.904 54.1421Z" fill="#FFDB13"/>
<path d="M572.8 79.0862C576.68 77.6549 580.56 77.6549 584.644 79.0862C585.256 77.8594 586.073 76.6326 586.686 75.4058C582.806 75.6103 578.722 76.0192 574.842 76.2237C571.779 76.4281 570.146 80.3129 574.23 80.1085C578.109 79.904 582.193 79.4951 586.073 79.2906C587.707 79.0862 591.178 76.6326 588.115 75.6103C582.806 73.7701 577.089 73.9746 571.984 75.8147C570.963 76.2237 569.125 77.0415 569.533 78.4728C569.738 79.2906 571.779 79.2906 572.8 79.0862Z" fill="#FFDB13"/>
<path d="M575.863 54.7537C579.743 54.5493 583.826 54.5493 587.706 54.3448C591.177 54.1403 592.198 49.6421 588.114 49.8466C584.235 50.0511 580.151 50.0511 576.271 50.2555C573.004 50.2555 571.779 54.7537 575.863 54.7537Z" fill="#FFDB13"/>
<path d="M608.126 65.1828C610.372 65.5917 612.618 66.2051 614.66 66.614C616.089 67.0229 617.723 66.614 618.744 65.5917C619.561 64.5694 619.356 63.3426 618.131 62.9337C615.885 62.5247 613.639 61.9113 611.597 61.5024C610.168 61.0935 608.534 61.5024 607.513 62.5247C606.492 63.547 606.696 64.9783 608.126 65.1828Z" fill="#FFDB13"/>
<path d="M642.43 51.2792C646.106 51.2792 649.781 51.0748 653.457 51.0748C654.682 51.0748 656.724 50.6658 657.336 49.4391C657.949 48.2123 656.928 48.0078 655.907 48.0078C652.231 48.0078 648.556 48.2123 644.88 48.2123C643.655 48.2123 641.613 48.6212 641.001 49.848C640.184 51.0748 641.409 51.2792 642.43 51.2792Z" fill="#FFDB13"/>
<path d="M648.965 72.3382C651.824 72.5427 654.479 72.7472 657.337 72.9516C658.562 73.1561 660.604 72.5427 661.217 71.3159C661.83 70.0891 660.604 69.2713 659.583 69.2713C656.725 69.0668 654.07 68.8624 651.211 68.6579C649.986 68.4534 647.944 69.0668 647.332 70.2936C646.719 71.5204 647.944 72.3382 648.965 72.3382Z" fill="#FFDB13"/>
<path d="M676.327 92.9908C680.411 93.1952 684.699 93.1952 688.783 93.3997C689.804 93.3997 692.05 92.9908 692.663 91.764C693.275 90.5372 692.05 90.3328 691.233 90.3328C687.15 90.1283 682.861 90.1283 678.778 89.9238C677.757 89.9238 675.51 90.3328 674.898 91.5595C674.285 92.7863 675.306 92.9908 676.327 92.9908Z" fill="#FFDB13"/>
<path d="M686.537 66.4074C689.804 66.4074 693.071 66.4074 696.338 66.4074C697.564 66.4074 699.606 65.9985 700.218 64.9762C701.035 63.9539 699.605 63.5449 698.789 63.5449C695.522 63.5449 692.254 63.5449 688.987 63.5449C687.762 63.5449 685.72 63.9539 685.108 64.9762C684.291 66.203 685.516 66.4074 686.537 66.4074Z" fill="#FFDB13"/>
<path d="M714.104 85.0164C716.963 84.6075 719.821 84.1986 722.884 83.7897C724.109 83.5852 725.947 82.9718 726.151 81.5405C726.356 80.1093 724.518 79.7004 723.497 79.9048C720.638 80.3138 717.779 80.7227 714.716 81.1316C713.491 81.3361 711.653 81.9495 711.449 83.3807C711.245 84.812 713.083 85.2209 714.104 85.0164Z" fill="#FFDB13"/>
<path d="M745.754 68.046C748.817 68.6594 751.676 69.4773 754.739 70.0907C756.168 70.4996 758.006 70.0907 758.823 69.0684C759.639 68.046 759.435 66.8193 758.21 66.4103C755.147 65.7969 752.288 64.9791 749.225 64.3657C747.796 63.9568 745.958 64.3657 745.142 65.388C744.121 66.4103 744.325 67.8416 745.754 68.046Z" fill="#FFDB13"/>
<path d="M776.588 58.641C780.263 57.8231 783.734 58.4365 787.002 60.0722C788.635 60.8901 794.148 58.4365 791.698 57.2097C786.593 54.5517 781.08 54.3472 775.771 55.574C774.954 55.7785 772.912 56.5963 773.116 57.8231C773.729 59.2544 775.771 58.8454 776.588 58.641Z" fill="#FFDB13"/>
<path d="M780.672 82.5604C784.552 82.3559 788.636 82.3559 792.515 82.1515C793.945 82.1515 795.578 81.947 796.599 81.1291C797.416 80.5157 797.62 79.9023 796.191 79.9023C792.311 80.1068 788.227 80.1068 784.348 80.3113C782.918 80.3113 781.285 80.5157 780.264 81.3336C779.447 81.947 779.447 82.5604 780.672 82.5604Z" fill="#FFDB13"/>
<path d="M807.013 66.8204C809.259 67.0248 811.709 67.2293 813.955 67.4338C815.385 67.6382 817.223 67.0248 817.835 65.5936C818.448 64.3668 817.223 63.14 815.997 63.14C813.751 62.9355 811.301 62.7311 809.055 62.5266C807.625 62.3222 805.788 62.9355 805.175 64.3668C804.562 65.5936 805.583 66.6159 807.013 66.8204Z" fill="#FFDB13"/>
<path d="M831.312 63.7521C833.354 63.5476 835.396 65.1833 836.212 67.0235C836.825 68.4547 838.458 68.4547 839.684 68.2503C840.705 68.0458 842.747 66.819 842.134 65.5922C840.5 61.503 836.212 59.2539 831.924 59.6628C830.699 59.8673 828.861 60.4807 828.657 61.9119C828.453 63.5476 830.086 63.9565 831.312 63.7521Z" fill="#FFDB13"/>
<path d="M820.897 82.5629C823.552 83.7897 826.206 85.0165 829.065 86.2433C830.29 86.8567 831.72 86.4477 832.945 85.8343C833.149 85.8343 835.599 84.6076 834.783 84.1986C832.128 82.9718 829.473 81.7451 826.615 80.5183C825.389 79.9049 823.96 80.3138 822.735 80.9272C822.327 80.9272 819.876 82.154 820.897 82.5629Z" fill="#FFDB13"/>
<path d="M187.688 50.8678C189.525 51.0723 191.567 51.0723 193.405 51.2768C194.63 51.2768 196.672 50.8678 197.285 49.6411C198.102 48.4143 196.672 47.8009 195.651 47.5964C193.813 47.392 191.771 47.392 189.934 47.1875C188.709 47.1875 186.667 47.5964 186.054 48.8232C185.237 50.2545 186.462 50.8678 187.688 50.8678Z" fill="#FFDB13"/>
<path d="M233.223 48.2073C235.674 48.0028 238.124 47.7984 240.574 47.5939C241.799 47.5939 243.637 46.5716 243.841 45.1403C244.046 43.7091 242.208 43.0957 241.187 43.0957C238.737 43.3002 236.286 43.5046 233.836 43.7091C232.611 43.7091 230.773 44.7314 230.569 46.1627C230.364 47.7984 231.998 48.4118 233.223 48.2073Z" fill="#FFDB13"/>
<path d="M216.275 97.6901C220.155 97.6901 223.83 97.6901 227.71 97.6901C228.935 97.6901 230.977 97.2812 231.59 96.0544C232.202 94.8276 230.977 94.0098 229.956 94.0098C226.077 94.0098 222.401 94.0098 218.521 94.0098C217.296 94.0098 215.254 94.4187 214.642 95.6455C214.029 96.8723 215.05 97.6901 216.275 97.6901Z" fill="#FFDB13"/>
<path d="M123.978 93.1927C129.9 93.1927 135.821 93.1927 141.743 93.1927C142.764 93.1927 145.214 92.7838 145.623 91.557C146.031 90.3302 145.214 89.7168 143.989 89.7168C138.068 89.7168 132.146 89.7168 126.224 89.7168C125.203 89.7168 122.753 90.1257 122.345 91.3525C121.936 92.5793 122.753 93.1927 123.978 93.1927Z" fill="#FFDB13"/>
<path d="M42.0965 95.6451C44.3427 95.0317 46.5888 94.2138 48.835 93.6004C49.6517 93.396 51.6937 92.5781 51.2853 91.3513C51.0811 90.1245 48.6308 90.329 47.814 90.5335C45.5678 91.1469 43.3217 91.9647 41.0755 92.5781C40.2587 92.7826 38.2168 93.6004 38.6252 94.8272C39.0336 96.054 41.2797 95.8495 42.0965 95.6451Z" fill="#FFDB13"/>
<path d="M67.4168 86.2374C69.2546 86.2374 71.2966 86.2374 73.1343 86.2374C74.5637 86.2374 76.1973 85.8285 77.2182 85.2151C78.035 84.6017 78.035 83.9883 77.014 83.9883C75.1763 83.9883 73.1343 83.9883 71.2966 83.9883C69.8672 83.9883 68.2336 84.3972 67.2127 85.0106C66.1917 85.624 66.1917 86.2374 67.4168 86.2374Z" fill="#FFDB13"/>
<path d="M60.6778 101.78C63.5366 101.576 66.5995 101.371 69.4582 101.371C70.6834 101.371 72.5212 100.349 72.7254 98.9177C72.9296 97.4864 71.0918 96.873 70.0708 96.873C67.2121 97.0775 64.1492 97.282 61.2904 97.282C60.0652 97.282 58.2275 98.3043 58.0233 99.7355C57.8191 101.371 59.4527 101.985 60.6778 101.78Z" fill="#FFDB13"/>
<path d="M109.686 103.824C112.544 104.028 115.199 104.233 118.058 104.437C119.487 104.437 121.121 104.233 122.142 103.415C122.958 102.802 122.958 101.984 121.733 101.779C118.874 101.575 116.22 101.37 113.361 101.166C111.932 101.166 110.298 101.37 109.277 102.188C108.46 102.802 108.46 103.62 109.686 103.824Z" fill="#FFDB13"/>
<path d="M106.01 79.9038C110.298 80.5172 114.79 80.9262 119.078 81.5396C120.508 81.744 121.937 81.3351 123.162 80.7217C123.571 80.5172 125.204 79.4949 123.979 79.2905C119.691 78.6771 115.199 78.2681 110.911 77.6547C109.481 77.4503 108.052 77.8592 106.827 78.4726C106.418 78.6771 104.58 79.6994 106.01 79.9038Z" fill="#FFDB13"/>
<path d="M206.27 82.3553C209.741 82.3553 213.213 82.3553 216.684 82.3553C217.705 82.3553 219.951 81.9464 220.564 80.924C221.38 79.9017 219.951 79.6973 219.134 79.6973C215.663 79.6973 212.192 79.6973 208.72 79.6973C207.699 79.6973 205.453 80.1062 204.841 81.1285C204.024 82.1508 205.453 82.3553 206.27 82.3553Z" fill="#FFDB13"/>
<path d="M172.578 105.87C173.803 105.87 175.028 105.87 176.253 105.87C177.683 105.87 179.316 105.461 180.133 104.234C180.746 103.007 179.52 102.189 178.499 102.189C177.274 102.189 176.049 102.189 174.824 102.189C173.394 102.189 171.761 102.598 170.944 103.825C170.127 105.052 171.353 105.87 172.578 105.87Z" fill="#FFDB13"/>
<path d="M262.629 96.2579C269.163 96.8713 275.901 97.6891 282.436 98.3025C284.682 98.507 288.766 95.44 284.682 95.0311C278.147 94.4177 271.409 93.5999 264.875 92.9865C262.629 92.5775 258.749 95.849 262.629 96.2579Z" fill="#FFDB13"/>
<path d="M332.871 95.6437C338.793 96.0527 344.714 96.666 350.636 97.075C351.861 97.2794 353.903 96.8705 354.72 96.0527C355.333 95.2348 355.741 94.4169 354.312 94.4169C348.39 94.008 342.468 93.3946 336.547 92.9857C335.321 92.7812 333.279 93.1902 332.463 94.008C331.646 94.6214 331.442 95.6437 332.871 95.6437Z" fill="#FFDB13"/>
<path d="M382.49 94.8285C386.574 95.4419 390.862 96.0553 394.946 96.6687C397.601 97.0777 401.072 93.3973 397.192 92.7839C393.108 92.1705 388.82 91.5571 384.736 90.9437C382.082 90.5348 378.611 94.2152 382.49 94.8285Z" fill="#FFDB13"/>
<path d="M238.736 109.139C239.145 108.73 239.349 108.525 239.757 108.116C240.778 107.094 240.166 105.663 238.941 105.049C237.511 104.436 235.878 105.049 234.857 106.072C234.448 106.481 234.244 106.685 233.836 107.094C232.815 108.116 233.427 109.548 234.653 110.161C235.878 110.774 237.511 110.161 238.736 109.139Z" fill="#FFDB13"/>
<path d="M313.268 107.301C314.085 107.096 315.106 106.892 315.922 106.687C316.943 106.483 318.781 105.46 318.373 104.234C317.964 102.802 315.922 103.211 314.901 103.416C314.085 103.62 313.064 103.825 312.247 104.029C311.226 104.234 309.388 105.256 309.797 106.483C310.205 107.71 312.247 107.505 313.268 107.301Z" fill="#FFDB13"/>
<path d="M365.95 107.913C366.154 107.913 366.359 107.913 366.563 107.913C367.992 107.913 369.626 107.504 370.443 106.277C371.055 105.05 369.83 104.232 368.809 104.232C368.605 104.232 368.401 104.232 368.196 104.232C366.767 104.232 365.133 104.641 364.317 105.868C363.5 107.095 364.725 107.913 365.95 107.913Z" fill="#FFDB13"/>
<path d="M429.66 97.2817C435.99 97.2817 442.116 97.2817 448.446 97.2817C449.671 97.2817 451.917 97.0772 452.53 96.2594C453.142 95.646 453.55 94.8281 452.121 94.8281C445.791 94.8281 439.665 94.8281 433.335 94.8281C432.11 94.8281 429.864 95.0326 429.251 95.8504C428.843 96.6683 428.23 97.2817 429.66 97.2817Z" fill="#FFDB13"/>
<path d="M476.42 100.555C478.054 99.9414 479.483 99.5324 481.117 98.919C482.138 98.5101 483.975 97.6923 483.567 96.4655C483.159 95.2387 481.117 95.2387 480.096 95.4432C478.462 96.0566 477.033 96.4655 475.399 97.0789C474.378 97.4878 472.54 98.3057 472.949 99.5324C473.357 100.759 475.399 100.759 476.42 100.555Z" fill="#FFDB13"/>
<path d="M432.109 108.324C432.518 108.324 432.722 108.324 433.13 108.324C434.356 108.324 436.193 107.915 437.01 106.688C437.827 105.461 436.398 104.848 435.377 104.848C434.968 104.848 434.764 104.848 434.356 104.848C433.13 104.848 431.293 105.257 430.476 106.483C429.659 107.71 431.089 108.324 432.109 108.324Z" fill="#FFDB13"/>
<path d="M483.159 109.14C485.201 109.14 487.243 109.14 489.489 109.14C490.714 109.14 492.552 108.731 493.369 107.709C494.186 106.686 492.756 106.277 491.94 106.277C489.898 106.277 487.856 106.277 485.61 106.277C484.384 106.277 482.547 106.686 481.73 107.709C480.709 108.731 482.342 109.14 483.159 109.14Z" fill="#FFDB13"/>
<path d="M516.852 86.0363C522.161 85.8319 527.266 85.6274 532.575 85.4229C535.638 85.2185 537.271 81.5381 533.187 81.7426C527.878 81.947 522.773 82.1515 517.464 82.356C514.401 82.356 512.768 86.0363 516.852 86.0363Z" fill="#FFDB13"/>
<path d="M521.343 97.0756C521.956 97.0756 522.364 97.0756 522.977 97.0756C524.406 97.0756 526.244 96.6667 526.857 95.2354C527.469 94.0086 526.244 92.9863 525.019 92.9863C524.406 92.9863 523.998 92.9863 523.385 92.9863C521.956 92.9863 520.118 93.3953 519.506 94.8265C518.893 96.0533 520.118 97.0756 521.343 97.0756Z" fill="#FFDB13"/>
<path d="M551.973 92.9873C557.282 92.1695 562.387 91.1472 567.696 90.3293C568.308 90.3293 571.167 89.7159 571.167 88.8981C571.167 87.8757 569.329 88.4891 568.921 88.4891C563.612 89.307 558.507 90.3293 553.198 91.1472C552.585 91.1472 549.727 91.7606 549.727 92.5784C549.727 93.3963 551.564 92.9873 551.973 92.9873Z" fill="#FFDB13"/>
<path d="M526.857 105.665C530.736 106.688 534.412 107.71 538.292 108.732C539.517 109.141 541.559 108.528 542.375 107.71C543.192 106.688 542.988 105.87 541.763 105.461C537.883 104.438 534.208 103.416 530.328 102.394C529.103 101.985 527.061 102.598 526.244 103.416C525.427 104.234 525.631 105.256 526.857 105.665Z" fill="#FFDB13"/>
<path d="M560.345 107.505C564.225 107.71 567.9 107.71 571.78 107.914C573.005 107.914 575.047 107.505 575.66 106.278C576.272 105.052 575.047 104.438 574.026 104.438C570.146 104.234 566.471 104.234 562.591 104.029C561.366 104.029 559.324 104.438 558.712 105.665C558.099 106.892 559.324 107.505 560.345 107.505Z" fill="#FFDB13"/>
<path d="M592.404 91.9662C598.734 91.9662 605.268 91.9662 611.599 91.9662C614.866 91.9662 616.295 87.877 612.211 87.877C605.881 87.877 599.347 87.877 593.017 87.877C589.75 87.877 588.524 91.9662 592.404 91.9662Z" fill="#FFDB13"/>
<path d="M596.487 102.595C600.571 102.595 604.451 102.595 608.535 102.595C609.964 102.595 611.598 102.39 612.619 101.572C613.436 100.959 613.64 100.346 612.21 100.346C608.126 100.346 604.247 100.346 600.163 100.346C598.733 100.346 597.1 100.55 596.079 101.368C595.466 101.777 595.262 102.595 596.487 102.595Z" fill="#FFDB13"/>
<path d="M610.577 79.4937C614.252 80.1071 617.928 80.516 621.603 81.1294C623.033 81.3339 624.462 80.9249 625.687 80.3116C626.096 80.1071 627.729 79.0848 626.504 78.8803C622.828 78.2669 619.153 77.858 615.477 77.2446C614.048 77.0401 612.619 77.4491 611.393 78.0625C610.985 78.2669 609.351 79.2892 610.577 79.4937Z" fill="#FFDB13"/>
<path d="M539.313 45.5509C543.397 45.3465 547.685 45.142 551.769 44.9375C555.036 44.7331 556.262 40.4393 552.382 40.6438C548.298 40.8483 544.01 41.0527 539.926 41.2572C536.455 41.4616 535.229 45.7554 539.313 45.5509Z" fill="#FFDB13"/>
<path d="M541.763 72.7437C542.988 72.9481 544.213 73.1526 545.439 73.3571C546.868 73.5615 548.501 72.9481 549.522 72.3347C550.543 71.7214 550.339 71.108 549.114 70.9035C547.889 70.699 546.664 70.4946 545.439 70.2901C544.009 70.0856 542.376 70.699 541.355 71.3124C540.538 71.9258 540.742 72.5392 541.763 72.7437Z" fill="#FFDB13"/>
<path d="M559.732 65.9987C562.795 65.5898 566.062 65.3853 569.125 64.9764C570.35 64.7719 572.392 64.5675 573.005 63.5451C573.617 62.5228 572.392 62.3184 571.575 62.3184C568.512 62.7273 565.245 62.9318 562.182 63.3407C560.957 63.5451 558.915 63.7496 558.302 64.7719C557.486 65.9987 558.915 66.2032 559.732 65.9987Z" fill="#FFDB13"/>
<path d="M676.736 52.7077C681.228 52.7077 685.72 52.7077 690.213 52.7077C691.438 52.7077 693.48 52.2988 694.093 51.072C694.705 49.8452 693.684 49.0273 692.459 49.0273C687.967 49.0273 683.474 49.0273 678.982 49.0273C677.757 49.0273 675.715 49.4363 675.102 50.6631C674.49 51.6854 675.306 52.7077 676.736 52.7077Z" fill="#FFDB13"/>
<path d="M715.738 51.8906C716.555 51.8906 717.576 51.8906 718.392 51.8906C719.618 51.8906 721.455 51.4816 722.272 50.2548C723.089 49.0281 721.66 48.6191 720.639 48.6191C719.822 48.6191 718.801 48.6191 717.984 48.6191C716.759 48.6191 714.921 49.0281 714.104 50.2548C713.288 51.2772 714.717 51.8906 715.738 51.8906Z" fill="#FFDB13"/>
<path d="M739.22 53.9349C740.65 53.9349 742.079 53.9349 743.304 53.9349C744.529 53.9349 746.367 53.5259 747.184 52.2992C748.001 51.0724 746.571 50.459 745.55 50.459C744.121 50.459 742.692 50.459 741.467 50.459C740.241 50.459 738.404 50.8679 737.587 52.0947C736.77 53.3215 738.199 53.9349 739.22 53.9349Z" fill="#FFDB13"/>
<path d="M714.104 65.1805C718.801 65.5895 723.497 66.2029 728.194 66.6118C730.848 66.8163 734.319 63.1359 730.44 62.727C725.743 62.318 721.047 61.7047 716.35 61.2957C713.696 60.8868 710.224 64.7716 714.104 65.1805Z" fill="#FFDB13"/>
<path d="M745.142 81.3312C749.226 81.7402 753.105 81.9446 757.189 82.3535C758.619 82.558 760.252 82.1491 761.273 81.3312C762.09 80.7178 762.09 79.6955 760.865 79.6955C756.781 79.2866 752.901 79.0821 748.817 78.6732C747.388 78.4687 745.754 78.8777 744.733 79.6955C743.917 80.3089 743.917 81.1268 745.142 81.3312Z" fill="#FFDB13"/>
<path d="M640.185 91.554C644.473 91.9629 648.966 92.1674 653.254 92.5763C654.479 92.5763 656.521 92.1674 657.134 90.9406C657.746 89.7138 656.725 89.1004 655.5 89.1004C651.212 88.6915 646.72 88.4871 642.432 88.0781C641.206 88.0781 639.164 88.4871 638.552 89.7138C637.939 90.9406 638.96 91.554 640.185 91.554Z" fill="#FFDB13"/>
<path d="M637.939 107.504C642.023 107.299 646.311 107.095 650.395 106.89C651.416 106.89 653.662 106.482 654.275 105.459C654.887 104.437 653.662 104.232 652.845 104.232C648.761 104.437 644.473 104.641 640.389 104.846C639.368 104.846 637.122 105.255 636.51 106.277C635.897 107.299 636.918 107.504 637.939 107.504Z" fill="#FFDB13"/>
<path d="M680.207 103.62C683.066 103.006 685.72 102.188 688.579 101.575C689.396 101.371 691.438 100.553 691.234 99.5304C690.825 98.3036 688.579 98.917 687.967 98.917C685.108 99.5304 682.453 100.348 679.595 100.962C678.778 101.166 676.736 101.984 676.94 103.006C677.144 104.233 679.39 103.824 680.207 103.62Z" fill="#FFDB13"/>
<path d="M711.45 102.393C713.288 102.393 714.921 102.393 716.759 102.393C717.984 102.393 719.822 101.984 720.639 100.757C721.455 99.53 720.026 99.1211 719.005 99.1211C717.167 99.1211 715.534 99.1211 713.696 99.1211C712.471 99.1211 710.633 99.53 709.816 100.757C709.204 101.984 710.633 102.393 711.45 102.393Z" fill="#FFDB13"/>
<path d="M676.533 78.061C681.229 79.4923 685.926 81.128 690.622 82.5592C692.052 82.9682 693.889 82.5592 694.706 81.5369C695.523 80.5146 695.319 79.0834 693.889 78.6744C689.193 77.2432 684.496 75.6075 679.8 74.1762C678.371 73.7673 676.533 74.1762 675.716 75.1986C674.899 76.2209 675.103 77.6521 676.533 78.061Z" fill="#FFDB13"/>
<path d="M737.791 100.556C742.283 99.7378 746.775 98.9199 751.268 98.1021C752.493 97.8976 754.126 96.6708 753.718 95.2396C753.309 93.8083 751.472 93.8083 750.247 94.0128C745.754 94.8307 741.262 95.6485 736.77 96.4664C735.544 96.6708 733.911 97.8976 734.319 99.3289C734.728 100.76 736.565 100.76 737.791 100.556Z" fill="#FFDB13"/>
<path d="M713.493 93.3957C715.739 93.3957 717.985 93.3957 720.231 93.3957C721.456 93.3957 723.498 92.9868 724.111 91.9645C724.928 90.9421 723.498 90.5332 722.681 90.5332C720.435 90.5332 718.189 90.5332 715.943 90.5332C714.718 90.5332 712.676 90.9421 712.063 91.9645C711.246 93.1912 712.676 93.3957 713.493 93.3957Z" fill="#FFDB13"/>
<path d="M770.87 94.6225C773.525 95.2359 776.179 96.0537 778.63 96.6671C780.059 97.076 781.897 96.8716 782.713 95.6448C783.53 94.6225 783.326 92.9868 781.897 92.5778C779.242 91.9644 776.588 91.1466 774.137 90.5332C772.708 90.1243 770.87 90.3287 770.053 91.5555C769.237 92.5778 769.441 94.2135 770.87 94.6225Z" fill="#FFDB13"/>
<path d="M761.886 106.891C770.87 110.571 780.059 112.207 789.656 111.798C791.698 111.798 795.986 108.527 791.902 108.527C783.122 108.936 774.75 107.504 766.582 104.029C764.948 103.415 759.639 106.073 761.886 106.891Z" fill="#FFDB13"/>
<path d="M797.825 96.0547C799.867 96.6681 801.909 97.486 804.155 98.0994C805.38 98.5083 807.218 97.8949 808.239 97.2815C808.852 96.8726 810.281 96.0547 808.852 95.6458C806.81 95.0324 804.768 94.2145 802.522 93.6012C801.296 93.1922 799.459 93.8056 798.438 94.419C797.825 94.6235 796.396 95.6458 797.825 96.0547Z" fill="#FFDB13"/>
<path d="M817.019 106.278C821.103 105.664 825.391 105.051 829.475 104.233C830.496 104.029 832.742 103.415 832.742 102.188C832.947 100.962 831.109 100.757 830.088 100.962C826.004 101.575 821.716 102.188 817.632 103.006C816.611 103.211 814.365 103.824 814.365 105.051C814.365 106.278 816.203 106.278 817.019 106.278Z" fill="#FFDB13"/>
<path d="M842.135 94.6231C844.585 95.4409 847.036 96.4633 849.486 97.2811C850.711 97.69 852.549 97.0767 853.57 96.4633C854.183 96.2588 855.408 95.2365 854.387 94.8275C851.936 94.0097 849.486 92.9874 847.036 92.1695C845.811 91.7606 843.973 92.374 842.952 92.9874C842.135 93.3963 840.91 94.2142 842.135 94.6231Z" fill="#FFDB13"/>
<path d="M848.466 79.4938C850.916 81.334 853.366 82.9697 855.817 84.8099C857.654 86.0366 862.964 83.5831 860.513 81.7429C858.063 79.9027 855.612 78.267 853.162 76.4268C851.324 74.9956 846.015 77.6536 848.466 79.4938Z" fill="#FFDB13"/>
<path d="M850.711 110.366C855.816 110.366 860.512 108.321 863.984 104.436C865.005 103.414 863.167 102.801 862.35 102.801C860.921 102.801 859.287 103.414 858.47 104.436C857.041 106.072 855.203 107.095 852.957 107.095C851.732 107.095 849.69 107.503 849.077 108.73C848.465 109.957 849.69 110.366 850.711 110.366Z" fill="#FFDB13"/>
<path d="M434.968 78.0597C436.602 78.0597 438.031 78.0597 439.665 78.0597C441.094 78.0597 442.728 77.6507 443.749 77.0373C444.566 76.4239 444.566 75.8105 443.34 75.8105C441.707 75.8105 440.277 75.8105 438.644 75.8105C437.215 75.8105 435.581 76.2195 434.56 76.8329C433.743 77.2418 433.743 78.0597 434.968 78.0597Z" fill="#FFDB13"/>
<path d="M359.212 68.2484C363.092 68.6573 366.767 68.8618 370.647 69.2707C371.872 69.4752 373.914 68.8618 374.527 67.635C375.139 66.4082 373.914 65.5904 372.893 65.5904C369.013 65.1814 365.338 64.977 361.458 64.568C360.233 64.3636 358.191 64.977 357.578 66.2037C356.762 67.4305 357.987 68.2484 359.212 68.2484Z" fill="#FFDB13"/>
<path d="M296.524 77.4466C298.566 77.2421 300.608 77.2421 302.854 77.0377C304.08 77.0377 305.917 76.6287 306.734 75.4019C307.551 74.3796 306.122 73.9707 305.305 73.9707C303.263 74.1752 301.221 74.1752 298.975 74.3796C297.75 74.3796 295.912 74.7886 295.095 76.0153C294.278 77.0377 295.503 77.4466 296.524 77.4466Z" fill="#FFDB13"/>
<path d="M250.988 58.8428C254.459 59.0473 257.931 59.2518 261.402 59.2518C262.831 59.2518 264.465 58.8428 265.486 58.2295C266.303 57.6161 266.303 57.0027 265.077 57.0027C261.606 56.7982 258.135 56.5938 254.663 56.5938C253.234 56.5938 251.6 57.0027 250.58 57.6161C249.763 58.2295 249.763 58.8428 250.988 58.8428Z" fill="#FFDB13"/>
<path d="M260.382 48.8238C266.304 49.0282 272.225 49.2327 278.147 49.4371C281.618 49.4371 282.639 44.939 278.555 44.7345C272.634 44.53 266.712 44.3256 260.79 44.1211C257.319 44.1211 256.502 48.8238 260.382 48.8238Z" fill="#FFDB13"/>
<path d="M195.855 61.9083C198.101 61.2949 200.348 60.477 202.594 59.8636C203.615 59.6592 205.452 58.8413 205.044 57.4101C204.636 56.1833 202.594 56.1833 201.573 56.5922C199.327 57.2056 197.08 58.0235 194.834 58.6369C193.813 58.8413 191.976 59.6592 192.384 61.0904C192.792 62.3172 195.038 62.1127 195.855 61.9083Z" fill="#FFDB13"/>
<path d="M134.597 48.414C137.864 46.9827 141.131 45.5515 144.602 44.3247C145.215 44.1203 147.053 43.3024 146.236 42.2801C145.623 41.4622 143.173 42.0756 142.356 42.4845C139.089 43.9158 135.822 45.347 132.351 46.5738C131.738 46.7783 129.9 47.5961 130.717 48.6185C131.33 49.4363 133.78 48.8229 134.597 48.414Z" fill="#FFDB13"/>
<path d="M223.83 74.7906C226.076 74.3816 228.322 74.1772 230.568 73.7682C231.794 73.5638 233.631 72.9504 233.835 71.5191C234.04 70.0879 232.202 69.4745 231.181 69.679C228.935 70.0879 226.689 70.2924 224.442 70.7013C223.217 70.9057 221.38 71.5191 221.175 72.9504C220.971 74.1772 222.809 74.7906 223.83 74.7906Z" fill="#FFDB13"/>
<path d="M229.14 61.2952C229.752 61.0907 230.569 60.8863 231.182 60.6818C231.999 60.4773 234.04 59.8639 233.836 58.6372C233.632 57.6148 231.182 58.0238 230.569 58.2282C229.957 58.4327 229.14 58.6372 228.527 58.8416C227.71 59.0461 225.668 59.6595 225.873 60.8863C226.077 61.9086 228.527 61.4996 229.14 61.2952Z" fill="#FFDB13"/>
<path d="M157.058 68.2463C160.326 68.0418 163.593 67.8373 167.064 67.6329C168.289 67.6329 170.127 66.815 170.331 65.5882C170.535 64.157 168.698 63.9525 167.677 64.157C164.409 64.3615 161.142 64.5659 157.671 64.7704C156.446 64.7704 154.608 65.5882 154.404 66.815C154.2 68.2463 156.037 68.2463 157.058 68.2463Z" fill="#FFDB13"/>
<path d="M173.395 87.6717C175.437 86.6494 177.479 85.8316 179.521 84.8093C180.542 84.4003 181.767 82.9691 180.95 81.9468C180.133 80.72 178.091 81.1289 176.866 81.5378C174.824 82.5601 172.782 83.378 170.74 84.4003C169.719 84.8092 168.494 86.2405 169.311 87.2628C170.332 88.4896 172.374 88.0807 173.395 87.6717Z" fill="#FFDB13"/>
<path d="M329.195 41.6678C336.75 41.6678 344.509 41.6678 352.065 41.6678C353.902 41.6678 358.395 39.0098 354.515 39.0098C346.96 39.0098 339.2 39.0098 331.645 39.0098C330.011 39.0098 325.315 41.6678 329.195 41.6678Z" fill="#FFDB13"/>
<path d="M210.352 46.1661C211.578 45.9617 212.803 45.7572 214.028 45.5527C215.457 45.3483 217.091 44.7349 217.295 43.0992C217.499 41.6679 215.866 40.8501 214.436 41.0545C213.211 41.259 211.986 41.4635 210.761 41.6679C209.331 41.8724 207.698 42.4858 207.494 44.1215C207.494 45.5527 209.127 46.3706 210.352 46.1661Z" fill="#FFDB13"/>
<path d="M159.916 44.3287C162.775 44.3287 165.838 44.3287 168.697 44.3287C169.922 44.3287 171.964 43.9197 172.577 42.693C173.393 41.4662 171.964 41.2617 170.943 41.2617C168.084 41.2617 165.021 41.2617 162.163 41.2617C160.937 41.2617 158.895 41.6706 158.283 42.8974C157.67 44.1242 158.895 44.3287 159.916 44.3287Z" fill="#FFDB13"/>
<path d="M143.786 104.439C146.032 104.439 148.278 104.439 150.525 104.439C151.75 104.439 153.792 104.03 154.404 103.007C155.221 101.985 153.792 101.576 152.975 101.576C150.729 101.576 148.483 101.576 146.236 101.576C145.011 101.576 142.969 101.985 142.357 103.007C141.54 104.03 142.765 104.439 143.786 104.439Z" fill="#FFDB13"/>
<path d="M111.931 68.4486C112.952 68.0397 113.973 67.8352 114.994 67.4263C115.402 67.2218 117.444 66.6084 116.832 65.7906C116.219 65.1772 113.565 65.995 112.952 66.1995C111.931 66.6084 110.91 66.8129 109.889 67.2218C109.481 67.4263 107.439 68.0397 108.051 68.8575C108.868 69.6754 111.318 68.8575 111.931 68.4486Z" fill="#FFDB13"/>
<path d="M389.434 71.3151C390.455 71.3151 391.476 71.3151 392.497 71.3151C393.926 71.3151 395.56 70.9062 396.377 69.6794C396.989 68.4526 395.764 67.6348 394.743 67.6348C393.722 67.6348 392.701 67.6348 391.68 67.6348C390.251 67.6348 388.617 68.0437 387.801 69.2705C386.984 70.4972 388.209 71.3151 389.434 71.3151Z" fill="#FFDB13"/>
<path d="M331.85 67.8382C333.892 67.6337 335.934 67.4292 338.18 67.2248C339.405 67.0203 341.243 66.8158 342.06 65.7935C342.877 64.7712 341.447 64.3623 340.63 64.5667C338.588 64.7712 336.547 64.9757 334.3 65.1801C333.075 65.3846 331.237 65.5891 330.421 66.6114C329.604 67.6337 331.033 68.0426 331.85 67.8382Z" fill="#FFDB13"/>
<path d="M278.147 77.4465C279.372 76.8331 280.597 76.0152 281.822 75.4018C282.843 74.7884 283.456 73.3572 282.23 72.7438C281.005 71.9259 279.168 72.5393 277.942 73.1527C276.717 73.7661 275.492 74.584 274.267 75.1974C273.246 75.8108 272.633 77.242 273.858 77.8554C275.288 78.6732 276.921 78.0599 278.147 77.4465Z" fill="#FFDB13"/>
<path d="M192.793 102.597C192.997 102.597 193.201 102.597 193.405 102.597C194.63 102.597 196.468 102.188 197.285 100.961C198.102 99.7345 196.672 99.1211 195.651 99.1211C195.447 99.1211 195.243 99.1211 195.039 99.1211C193.814 99.1211 191.976 99.53 191.159 100.757C190.342 101.984 191.772 102.597 192.793 102.597Z" fill="#FFDB13"/>
<path d="M181.153 71.1115C182.174 70.907 183.195 70.7026 184.216 70.4981C185.442 70.2936 187.279 69.6802 187.483 68.0445C187.688 66.6133 185.85 65.9999 184.829 66.2044C183.808 66.4088 182.787 66.6133 181.766 66.8177C180.541 67.0222 178.703 67.6356 178.499 69.2713C178.295 70.7026 179.928 71.3159 181.153 71.1115Z" fill="#FFDB13"/>
<path d="M188.709 80.7208C189.526 80.3119 190.547 80.1074 191.364 79.6985C191.772 79.494 193.814 78.6762 193.202 77.8583C192.589 77.0404 190.139 77.8583 189.322 78.0628C188.505 78.4717 187.484 78.6762 186.667 79.0851C186.259 79.2896 184.217 80.1074 184.83 80.9253C185.646 81.7431 188.097 80.9253 188.709 80.7208Z" fill="#FFDB13"/>
<path d="M173.803 58.231C175.436 58.0266 176.866 57.8221 178.499 57.6176C179.725 57.4132 181.562 57.2087 182.379 56.1864C183.196 55.1641 181.562 55.1641 180.95 55.1641C179.316 55.3685 177.887 55.573 176.253 55.7775C175.028 55.9819 173.19 56.1864 172.373 57.2087C171.557 58.231 173.19 58.231 173.803 58.231Z" fill="#FFDB13"/>
<path d="M107.03 49.2319C110.91 48.6185 114.585 48.2095 118.465 47.5961C119.486 47.3917 121.732 47.1872 122.345 46.1649C122.957 45.1426 121.936 45.1426 120.915 45.1426C117.036 45.756 113.36 46.1649 109.481 46.7783C108.46 46.9828 106.213 47.1872 105.601 48.2095C105.192 49.2319 106.213 49.4363 107.03 49.2319Z" fill="#FFDB13"/>
<path d="M86.8148 103.417C88.6526 103.212 90.6945 103.008 92.5323 103.008C93.7574 102.803 95.5952 101.986 95.7994 100.554C96.0036 99.1232 94.1658 98.5098 92.9407 98.5098C91.1029 98.7142 89.0609 98.9187 87.2232 98.9187C85.998 99.1232 84.1603 99.941 83.9561 101.372C83.9561 103.008 85.5896 103.621 86.8148 103.417Z" fill="#FFDB13"/>
<path d="M431.089 192.358C438.44 190.722 445.791 190.517 453.346 191.335C454.98 191.54 460.289 188.677 457.022 188.268C448.037 187.246 439.257 187.655 430.477 189.495C426.801 190.517 427.618 193.176 431.089 192.358Z" fill="#2B5ADC"/>
<path d="M433.539 207.079C439.869 206.875 445.995 206.875 452.325 206.671C455.592 206.671 457.021 202.377 452.937 202.581C446.607 202.786 440.482 202.786 434.151 202.99C430.68 202.786 429.455 207.079 433.539 207.079Z" fill="#2B5ADC"/>
<path d="M434.56 231.205C438.848 231.205 443.136 231.205 447.424 231.205C448.649 231.205 450.691 230.796 451.304 229.569C451.917 228.343 450.896 227.934 449.67 227.934C445.382 227.934 441.094 227.934 436.806 227.934C435.581 227.934 433.539 228.343 432.926 229.569C432.314 230.796 433.539 231.205 434.56 231.205Z" fill="#2B5ADC"/>
<path d="M434.152 219.549C439.053 219.549 444.158 219.549 449.058 219.549C450.284 219.549 452.326 219.141 452.938 217.914C453.551 216.687 452.53 215.869 451.305 215.869C446.404 215.869 441.299 215.869 436.398 215.869C435.173 215.869 433.131 216.278 432.519 217.505C431.906 218.732 432.927 219.549 434.152 219.549Z" fill="#2B5ADC"/>
<path d="M528.694 269.031H481.117C476.42 269.031 472.336 265.146 472.336 260.239V167.208C472.336 162.505 476.216 158.416 481.117 158.416H528.694C533.391 158.416 537.475 162.301 537.475 167.208V260.239C537.271 265.146 533.391 269.031 528.694 269.031Z" fill="#2B5ADC"/>
<path d="M402.705 269.031H355.128C350.431 269.031 346.347 265.146 346.347 260.239V167.208C346.347 162.505 350.227 158.416 355.128 158.416H402.705C407.402 158.416 411.486 162.301 411.486 167.208V260.239C411.486 265.146 407.606 269.031 402.705 269.031Z" fill="#2B5ADC"/>
<path d="M287.744 269.031H240.166C235.47 269.031 231.386 265.146 231.386 260.239V167.208C231.386 162.505 235.265 158.416 240.166 158.416H287.744C292.44 158.416 296.524 162.301 296.524 167.208V260.239C296.524 265.146 292.644 269.031 287.744 269.031Z" fill="#2B5ADC"/>
<path d="M173.802 269.031H126.225C121.528 269.031 117.444 265.146 117.444 260.239V167.208C117.444 162.505 121.324 158.416 126.225 158.416H173.802C178.499 158.416 182.583 162.301 182.583 167.208V260.239C182.583 265.146 178.703 269.031 173.802 269.031Z" fill="#2B5ADC"/>
<path d="M182.787 172.728H117.24V161.483C117.24 159.643 118.67 158.416 120.303 158.416H179.52C181.358 158.416 182.583 159.847 182.583 161.483V172.728H182.787Z" fill="#F5F4F1"/>
<path d="M296.728 172.728H231.182V161.483C231.182 159.643 232.611 158.416 234.245 158.416H293.461C295.299 158.416 296.524 159.847 296.524 161.483V172.728H296.728Z" fill="#F5F4F1"/>
<path d="M411.894 172.728H346.347V161.483C346.347 159.643 347.777 158.416 349.41 158.416H408.627C410.465 158.416 411.69 159.847 411.69 161.483V172.728H411.894Z" fill="#F5F4F1"/>
<path d="M537.271 172.728H471.724V161.483C471.724 159.643 473.153 158.416 474.787 158.416H534.004C535.842 158.416 537.067 159.847 537.067 161.483V172.728H537.271Z" fill="#F5F4F1"/>
<path d="M642.023 269.031H594.446C589.749 269.031 585.665 265.146 585.665 260.239V167.208C585.665 162.505 589.545 158.416 594.446 158.416H642.023C646.72 158.416 650.804 162.301 650.804 167.208V260.239C650.599 265.146 646.72 269.031 642.023 269.031Z" fill="#2B5ADC"/>
<path d="M755.965 269.031H708.387C703.691 269.031 699.607 265.146 699.607 260.239V167.208C699.607 162.505 703.487 158.416 708.387 158.416H755.965C760.661 158.416 764.745 162.301 764.745 167.208V260.239C764.541 265.146 760.661 269.031 755.965 269.031Z" fill="#2B5ADC"/>
<path d="M650.6 172.728H585.053V161.483C585.053 159.643 586.482 158.416 588.116 158.416H647.332C649.17 158.416 650.395 159.847 650.395 161.483V172.728H650.6Z" fill="#F5F4F1"/>
<path d="M764.949 172.728H699.402V161.483C699.402 159.643 700.831 158.416 702.465 158.416H761.681C763.519 158.416 764.744 159.847 764.744 161.483V172.728H764.949Z" fill="#F5F4F1"/>
</svg>
