<svg width="95" height="133" viewBox="0 0 95 133" fill="none" xmlns="http://www.w3.org/2000/svg">
<path d="M12.9949 132.004L82.0306 131.939C89.0771 131.939 94.7922 126.289 94.7922 119.307L94.6947 12.6346C94.6947 5.65295 88.9797 0.0351562 81.9008 0.0351562L12.865 0.100125C5.81858 0.100125 0.103516 5.75034 0.103516 12.732L0.200908 119.405C0.23338 126.354 5.94848 132.004 12.9949 132.004Z" fill="#F3F3F3"/>
<path d="M14.8461 120.605L11.5015 129.081H18.2232L14.8461 120.605Z" fill="#FC3824"/>
<path d="M10.9181 125.574C12.7832 125.574 14.2952 123.902 14.2952 121.84C14.2952 119.777 12.7832 118.105 10.9181 118.105C9.05296 118.105 7.54102 119.777 7.54102 121.84C7.54102 123.902 9.05296 125.574 10.9181 125.574Z" fill="#FC3824"/>
<path d="M14.8463 122.166C16.7115 122.166 18.2234 120.276 18.2234 117.944C18.2234 115.613 16.7115 113.723 14.8463 113.723C12.9812 113.723 11.4692 115.613 11.4692 117.944C11.4692 120.276 12.9812 122.166 14.8463 122.166Z" fill="#FC3824"/>
<path d="M18.7111 125.574C20.5762 125.574 22.0882 123.902 22.0882 121.84C22.0882 119.777 20.5762 118.105 18.7111 118.105C16.8459 118.105 15.334 119.777 15.334 121.84C15.334 123.902 16.8459 125.574 18.7111 125.574Z" fill="#FC3824"/>
<path d="M82.7445 12.5047L86.0891 4.0293H79.3999L82.7445 12.5047Z" fill="#FC3824"/>
<path d="M86.6681 15.0058C88.5332 15.0058 90.0452 13.3339 90.0452 11.2715C90.0452 9.20904 88.5332 7.53711 86.6681 7.53711C84.803 7.53711 83.291 9.20904 83.291 11.2715C83.291 13.3339 84.803 15.0058 86.6681 15.0058Z" fill="#FC3824"/>
<path d="M82.7389 19.357C84.604 19.357 86.116 17.467 86.116 15.1355C86.116 12.8041 84.604 10.9141 82.7389 10.9141C80.8738 10.9141 79.3618 12.8041 79.3618 15.1355C79.3618 17.467 80.8738 19.357 82.7389 19.357Z" fill="#FC3824"/>
<path d="M78.8786 15.0058C80.7437 15.0058 82.2557 13.3339 82.2557 11.2715C82.2557 9.20904 80.7437 7.53711 78.8786 7.53711C77.0135 7.53711 75.5015 9.20904 75.5015 11.2715C75.5015 13.3339 77.0135 15.0058 78.8786 15.0058Z" fill="#FC3824"/>
<path d="M53.2018 100.801L53.9268 101.051L53.9268 106.601L53.1518 106.851L53.0268 106.376C52.8768 105.776 52.6684 105.385 52.4018 105.201C52.1184 105.001 51.6268 104.901 50.9268 104.901L42.3018 104.901L50.6268 112.551L51.0768 112.551C51.7268 112.551 52.1851 112.46 52.4518 112.276C52.7018 112.093 52.9101 111.726 53.0768 111.176L53.2018 110.726L53.9268 110.926L53.9268 116.501L53.1518 116.776L53.0268 116.226C52.8434 115.643 52.6268 115.26 52.3768 115.076C52.1101 114.893 51.6268 114.801 50.9268 114.801L40.6768 114.801C39.9768 114.801 39.4934 114.901 39.2268 115.101C38.9434 115.285 38.7268 115.66 38.5768 116.226L38.4518 116.776L37.6768 116.501L37.6768 111.526L38.0268 111.226L38.4518 111.526C38.9351 111.91 39.4601 112.176 40.0268 112.326C40.5768 112.476 41.3018 112.551 42.2018 112.551L48.7768 112.551L40.4518 104.901C39.8518 104.918 39.4268 105.035 39.1768 105.251C38.9101 105.451 38.7101 105.826 38.5768 106.376L38.4518 106.851L37.6768 106.601L37.6768 101.651L38.0268 101.326L38.4518 101.651C38.9184 102.035 39.4351 102.301 40.0018 102.451C40.5518 102.601 41.2851 102.676 42.2018 102.676L51.0768 102.676C51.7268 102.676 52.1851 102.585 52.4518 102.401C52.7184 102.201 52.9268 101.826 53.0768 101.276L53.2018 100.801ZM53.2268 99.8796L53.0768 99.3546C52.9268 98.8379 52.7184 98.4963 52.4518 98.3296C52.1851 98.1463 51.7601 98.0046 51.1768 97.9046L45.0268 97.0046C44.9601 96.9879 44.8601 96.9796 44.7268 96.9796C44.3934 96.9796 44.1351 97.0879 43.9518 97.3046C43.7684 97.5046 43.6184 97.8213 43.5018 98.2546L43.3518 98.6796L42.6768 98.4796L42.6768 94.6796L49.5768 91.4296L42.6768 88.1296L42.6768 85.1796L42.9768 84.8296L43.3518 85.1296C44.0684 85.6629 44.7601 85.9296 45.4268 85.9296C45.6268 85.9296 45.8268 85.9046 46.0268 85.8546L49.8768 85.0796C50.0101 85.0463 50.1934 85.0129 50.4268 84.9796C51.3101 84.7796 51.9684 84.6046 52.4018 84.4546C52.8184 84.3046 53.2184 84.0379 53.6018 83.6546L53.9268 83.9046L53.9268 88.4796L53.2268 88.7296L53.0768 88.2796C52.9601 87.8463 52.7768 87.5296 52.5268 87.3296C52.2768 87.1296 51.9434 87.0296 51.5268 87.0296C51.3101 87.0296 51.0684 87.0546 50.8018 87.1046L45.1518 88.0046L52.4268 91.4046L52.4268 92.1046L45.1518 95.5296L50.6018 96.3796C50.8351 96.4129 51.0018 96.4296 51.1018 96.4296C51.7851 96.4296 52.4934 96.1796 53.2268 95.6796L53.6018 95.4046L53.9268 95.7046L53.9268 99.6046L53.2268 99.8796ZM53.5518 81.9083L53.1518 81.6083C52.6684 81.225 52.1518 80.9666 51.6018 80.8333C51.0518 80.6833 50.3101 80.6083 49.3768 80.6083L47.2268 80.6083C46.2934 80.6083 45.5518 80.6833 45.0018 80.8333C44.4351 80.9833 43.9184 81.2416 43.4518 81.6083L43.0018 81.9083L42.6768 81.6083L42.6768 70.4333L43.0018 70.1333L43.4518 70.4333C43.9184 70.8 44.4351 71.0583 45.0018 71.2083C45.5518 71.3583 46.2934 71.4333 47.2268 71.4333L51.0768 71.4333C51.7434 71.4333 52.2101 71.3416 52.4768 71.1583C52.7434 70.975 52.9434 70.6083 53.0768 70.0583L53.2018 69.5833L53.9268 69.8583L53.9268 75.1833L53.1518 75.4583L53.0268 74.9333C52.8434 74.35 52.6268 73.9666 52.3768 73.7833C52.1101 73.5833 51.6268 73.4833 50.9268 73.4833L45.6518 73.4833C44.9518 73.4833 44.4934 73.5833 44.2768 73.7833C44.0434 73.9666 43.9268 74.35 43.9268 74.9333L43.9268 77.1333C43.9268 77.7166 44.0434 78.1 44.2768 78.2833C44.4934 78.4666 44.9518 78.5583 45.6518 78.5583L50.9268 78.5583C51.6268 78.5583 52.1101 78.4666 52.3768 78.2833C52.6268 78.1 52.8434 77.7166 53.0268 77.1333L53.1518 76.5833L53.9268 76.8833L53.9268 81.6083L53.5518 81.9083ZM54.2518 62.2569C54.2518 63.3069 54.0101 64.2236 53.5268 65.0069C53.0434 65.7903 52.3684 66.3986 51.5018 66.8319C50.6184 67.2653 49.6018 67.4819 48.4518 67.4819C47.2518 67.4819 46.1934 67.2403 45.2768 66.7569C44.3601 66.2736 43.6518 65.5903 43.1518 64.7069C42.6518 63.8069 42.4018 62.7736 42.4018 61.6069C42.4018 60.3736 42.7268 59.4236 43.3768 58.7569C44.0268 58.0736 44.8101 57.7319 45.7268 57.7319C46.3601 57.7319 46.9684 57.9069 47.5518 58.2569C48.1351 58.5903 48.6101 59.0903 48.9768 59.7569C49.3434 60.4069 49.5268 61.1736 49.5268 62.0569C49.5268 62.5569 49.4434 63.0986 49.2768 63.6819C49.0934 64.2653 48.8268 64.5569 48.4768 64.5569C48.3434 64.5569 48.2268 64.5236 48.1268 64.4569C48.0268 64.3903 47.9768 64.3153 47.9768 64.2319C47.9768 64.1819 48.0268 64.0319 48.1268 63.7819C48.2101 63.5153 48.2518 63.1736 48.2518 62.7569C48.2518 61.8403 48.0018 61.1319 47.5018 60.6319C47.0018 60.1319 46.4018 59.8819 45.7018 59.8819C45.1018 59.8819 44.5851 60.0819 44.1518 60.4819C43.7184 60.8653 43.5018 61.3819 43.5018 62.0319C43.5018 63.0153 43.9351 63.7819 44.8018 64.3319C45.6518 64.8653 46.8684 65.1319 48.4518 65.1319C49.8018 65.1319 50.8601 64.8486 51.6268 64.2819C52.3768 63.6986 52.7518 62.8653 52.7518 61.7819C52.7518 60.4486 52.3184 59.3486 51.4518 58.4819C51.4018 58.4319 51.3768 58.3653 51.3768 58.2819C51.3768 58.1486 51.4434 58.0153 51.5768 57.8819C51.7101 57.7319 51.8518 57.6569 52.0018 57.6569C52.0518 57.6569 52.1018 57.6736 52.1518 57.7069C52.1851 57.7403 52.2101 57.7569 52.2268 57.7569C52.8934 58.3236 53.4018 58.9986 53.7518 59.7819C54.0851 60.5486 54.2518 61.3736 54.2518 62.2569ZM59.6268 55.194L59.2518 54.944C58.8684 54.6607 58.4601 54.4607 58.0268 54.344C57.6101 54.2274 57.0434 54.169 56.3268 54.169L45.3018 54.169C45.0851 54.169 44.9184 54.2024 44.8018 54.269C44.6851 54.3357 44.6018 54.4607 44.5518 54.644L44.2768 55.819L43.5768 55.819C43.3601 55.5857 43.1518 55.1357 42.9518 54.469C42.7518 53.8024 42.6518 53.219 42.6518 52.719C42.6518 52.3357 43.0018 52.144 43.7018 52.144L43.8018 52.144C42.8684 51.1774 42.4018 50.0857 42.4018 48.869C42.4018 47.9524 42.6351 47.1274 43.1018 46.394C43.5684 45.6607 44.2184 45.094 45.0518 44.694C45.8684 44.2774 46.8101 44.069 47.8768 44.069C49.0768 44.069 50.1684 44.2857 51.1518 44.719C52.1184 45.1524 52.8768 45.7524 53.4268 46.519C53.9768 47.269 54.2518 48.1107 54.2518 49.044C54.2518 49.944 54.0434 50.694 53.6268 51.294C53.5434 51.444 53.4101 51.519 53.2268 51.519C53.0601 51.519 52.9268 51.494 52.8268 51.444C52.7101 51.3774 52.6518 51.2857 52.6518 51.169C52.6518 51.119 52.7184 50.9607 52.8518 50.694C52.9684 50.4107 53.0268 50.044 53.0268 49.594C53.0268 48.6607 52.5851 47.9107 51.7018 47.344C50.8184 46.7607 49.6851 46.469 48.3018 46.469C47.0018 46.469 45.9434 46.7607 45.1268 47.344C44.2934 47.9107 43.8768 48.669 43.8768 49.619C43.8768 50.119 43.9434 50.569 44.0768 50.969C44.2101 51.369 44.4351 51.7607 44.7518 52.144L57.4518 52.144C58.0351 52.144 58.4434 52.0857 58.6768 51.969C58.9101 51.8357 59.0684 51.5774 59.1518 51.194L59.2518 50.744L59.9268 50.944L59.9268 54.944L59.6268 55.194ZM59.6268 41.7175L59.2518 41.4675C58.8684 41.1841 58.4601 40.9841 58.0268 40.8675C57.6101 40.7508 57.0434 40.6925 56.3268 40.6925L45.3018 40.6925C45.0851 40.6925 44.9184 40.7258 44.8018 40.7925C44.6851 40.8591 44.6018 40.9841 44.5518 41.1675L44.2768 42.3425L43.5768 42.3425C43.3601 42.1091 43.1518 41.6591 42.9518 40.9925C42.7518 40.3258 42.6518 39.7425 42.6518 39.2425C42.6518 38.8591 43.0018 38.6675 43.7018 38.6675L43.8018 38.6675C42.8684 37.7008 42.4018 36.6091 42.4018 35.3925C42.4018 34.4758 42.6351 33.6508 43.1018 32.9175C43.5684 32.1841 44.2184 31.6175 45.0518 31.2175C45.8684 30.8008 46.8101 30.5925 47.8768 30.5925C49.0768 30.5925 50.1684 30.8091 51.1518 31.2425C52.1184 31.6758 52.8768 32.2758 53.4268 33.0425C53.9768 33.7925 54.2518 34.6341 54.2518 35.5675C54.2518 36.4675 54.0434 37.2175 53.6268 37.8175C53.5434 37.9675 53.4101 38.0425 53.2268 38.0425C53.0601 38.0425 52.9268 38.0175 52.8268 37.9675C52.7101 37.9008 52.6518 37.8091 52.6518 37.6925C52.6518 37.6425 52.7184 37.4841 52.8518 37.2175C52.9684 36.9341 53.0268 36.5675 53.0268 36.1175C53.0268 35.1841 52.5851 34.4341 51.7018 33.8675C50.8184 33.2841 49.6851 32.9925 48.3018 32.9925C47.0018 32.9925 45.9434 33.2841 45.1268 33.8675C44.2934 34.4341 43.8768 35.1925 43.8768 36.1425C43.8768 36.6425 43.9434 37.0925 44.0768 37.4925C44.2101 37.8925 44.4351 38.2841 44.7518 38.6675L57.4518 38.6675C58.0351 38.6675 58.4434 38.6091 58.6768 38.4925C58.9101 38.3591 59.0684 38.1008 59.1518 37.7175L59.2518 37.2675L59.9268 37.4675L59.9268 41.4675L59.6268 41.7175ZM54.2518 23.0159C54.2518 24.7159 53.7184 26.0659 52.6518 27.0659C51.5684 28.0659 50.1184 28.5659 48.3018 28.5659C46.4851 28.5659 45.0518 28.0659 44.0018 27.0659C42.9351 26.0659 42.4018 24.7159 42.4018 23.0159C42.4018 21.8992 42.6434 20.9243 43.1268 20.0909C43.6101 19.2576 44.2934 18.6159 45.1768 18.1659C46.0601 17.7159 47.1018 17.4909 48.3018 17.4909C49.5018 17.4909 50.5518 17.7242 51.4518 18.1909C52.3518 18.6409 53.0434 19.2826 53.5268 20.1159C54.0101 20.9492 54.2518 21.9159 54.2518 23.0159ZM53.0268 23.0659C53.0268 22.1159 52.6018 21.3492 51.7518 20.7659C50.8851 20.1659 49.7518 19.8659 48.3518 19.8659C47.6351 19.8659 46.9184 19.9659 46.2018 20.1659C45.4684 20.3659 44.8518 20.6992 44.3518 21.1659C43.8351 21.6159 43.5768 22.2076 43.5768 22.9409C43.5768 23.9243 44.0101 24.7159 44.8768 25.3159C45.7434 25.8993 46.8934 26.1909 48.3268 26.1909C49.7601 26.1909 50.9018 25.9159 51.7518 25.3659C52.6018 24.7992 53.0268 24.0326 53.0268 23.0659Z" fill="#FC3824"/>
</svg>
