<svg width="96" height="133" viewBox="0 0 96 133" fill="none" xmlns="http://www.w3.org/2000/svg">
<path d="M13.8845 132.329L82.9198 132.264C89.9662 132.264 95.6812 126.614 95.6812 119.633L95.5838 12.9624C95.5838 5.98094 89.8688 0.363281 82.7899 0.363281L13.7546 0.428229C6.7082 0.428229 0.993164 6.07835 0.993164 13.0598L1.09056 119.73C1.12303 126.679 6.83809 132.329 13.8845 132.329Z" fill="#F3F3F3"/>
<path d="M14.4671 129.439C16.2855 125.608 19.1431 122.783 23.0397 120.964C19.1431 119.178 16.2855 116.353 14.4671 112.521C12.6487 116.353 9.79116 119.178 5.89453 120.997C9.79116 122.783 12.6487 125.608 14.4671 129.439Z" fill="#2B5ADC"/>
<path d="M83.6659 21.246C85.4843 17.4143 88.3418 14.5892 92.2384 12.7708C88.3418 10.9849 85.4843 8.15981 83.6659 4.32812C81.8474 8.15981 78.9899 10.9849 75.0933 12.8033C78.9899 14.5893 81.8474 17.4143 83.6659 21.246Z" fill="#2B5ADC"/>
<path d="M47.5 96C53.7576 83.0902 63.5909 73.572 77 67.4453C63.5909 61.428 53.7576 51.9098 47.5 39C41.2424 51.9098 31.4091 61.428 18 67.5547C31.4091 73.572 41.2424 83.0902 47.5 96Z" fill="#2B5ADC"/>
</svg>
