<svg width="96" height="133" viewBox="0 0 96 133" fill="none" xmlns="http://www.w3.org/2000/svg">
<path d="M13.8845 132.329L82.9198 132.264C89.9662 132.264 95.6812 126.614 95.6812 119.633L95.5838 12.9624C95.5838 5.98094 89.8688 0.363281 82.7899 0.363281L13.7546 0.428229C6.7082 0.428229 0.993164 6.07835 0.993164 13.0598L1.09056 119.73C1.12303 126.679 6.83809 132.329 13.8845 132.329Z" fill="#FFDB13"/>
<path d="M14.4671 129.439C16.2855 125.608 19.1431 122.783 23.0397 120.964C19.1431 119.178 16.2855 116.353 14.4671 112.521C12.6487 116.353 9.79116 119.178 5.89453 120.997C9.79116 122.783 12.6487 125.608 14.4671 129.439Z" fill="#2B5ADC"/>
<path d="M83.6659 21.246C85.4843 17.4143 88.3418 14.5892 92.2384 12.7708C88.3418 10.9849 85.4843 8.15981 83.6659 4.32812C81.8474 8.15981 78.9899 10.9849 75.0933 12.8033C78.9899 14.5893 81.8474 17.4143 83.6659 21.246Z" fill="#2B5ADC"/>
<path d="M52.7096 102.534L53.4339 102.786L53.4186 108.336L52.6429 108.584L52.5193 108.109C52.3709 107.508 52.1637 107.116 51.8975 106.932C51.6147 106.731 51.1233 106.63 50.4233 106.628L41.7984 106.604L50.1022 114.277L50.5522 114.278C51.2022 114.28 51.6608 114.19 51.928 114.007C52.1785 113.824 52.3878 113.458 52.556 112.909L52.6822 112.459L53.4067 112.661L53.3913 118.236L52.6155 118.509L52.4921 117.958C52.3103 117.375 52.0947 116.991 51.8452 116.807C51.5791 116.623 51.096 116.53 50.396 116.528L40.146 116.499C39.446 116.497 38.9624 116.596 38.6952 116.795C38.4114 116.978 38.1937 117.352 38.0421 117.919L37.9156 118.468L37.1414 118.191L37.1551 113.216L37.5059 112.917L37.9301 113.218C38.4124 113.603 38.9366 113.871 39.5029 114.023C40.0525 114.174 40.7773 114.251 41.6772 114.254L48.2522 114.272L39.9484 106.599C39.3483 106.614 38.923 106.729 38.6724 106.945C38.4052 107.145 38.2042 107.519 38.0693 108.069L37.943 108.543L37.1687 108.291L37.1824 103.341L37.5332 103.017L37.9573 103.343C38.423 103.728 38.9389 103.996 39.5051 104.148C40.0547 104.299 40.7878 104.376 41.7045 104.379L50.5795 104.403C51.2295 104.405 51.6881 104.315 51.9552 104.132C52.2224 103.933 52.4318 103.558 52.5833 103.009L52.7096 102.534ZM53.7672 99.8152C53.7655 100.415 53.5808 100.898 53.2131 101.264C52.8288 101.629 52.3283 101.811 51.7116 101.81C51.2783 101.808 50.9369 101.707 50.6875 101.507C50.438 101.306 50.3138 101.039 50.3147 100.706C50.3155 100.406 50.5493 100.231 51.0161 100.183C51.2495 100.15 51.4581 100.076 51.6417 99.9594C51.8088 99.8265 51.8926 99.6351 51.8933 99.3851C51.8968 98.1351 49.5157 97.3202 44.7501 96.9403L44.3251 96.9142C43.8751 96.9129 43.5665 97.0121 43.3993 97.2116C43.2321 97.4112 43.106 97.8108 43.021 98.4106L42.8697 98.8852L42.1954 98.6333L42.2203 89.6083L42.5461 89.3092L42.9203 89.6103C43.386 89.9616 43.877 90.2129 44.3932 90.3643C44.9095 90.4991 45.5843 90.5676 46.4176 90.5699L50.8676 90.5822C51.451 90.5838 51.8595 90.4933 52.0934 90.3106C52.3272 90.1279 52.5198 89.7868 52.6712 89.2872L52.7724 88.8625L53.4718 89.0894L53.4577 94.1894L52.757 94.4374L52.6083 93.962C52.4598 93.4283 52.2608 93.0694 52.0113 92.8854C51.7618 92.7014 51.312 92.6084 50.662 92.6066L44.9871 92.591C44.3371 92.5892 43.9118 92.6797 43.7113 92.8625C43.5108 93.0286 43.4099 93.3866 43.4083 93.9366L43.4072 94.3366C43.406 94.77 43.4635 95.0951 43.5795 95.3121C43.679 95.5124 43.8954 95.6213 44.2286 95.6389C46.828 95.8627 48.8271 96.1933 50.2259 96.6305C51.6248 97.051 52.5651 97.5286 53.047 98.0633C53.5289 98.5813 53.7689 99.1653 53.7672 99.8152ZM53.1284 86.6695L52.7791 86.4185C52.3134 86.0672 51.8558 85.8243 51.4061 85.6897C50.9565 85.5385 50.3234 85.4617 49.5068 85.4595L46.5568 85.4513C45.7234 85.449 45.0482 85.5222 44.5312 85.6708C43.9975 85.8026 43.5051 86.0429 43.0542 86.3917L42.6535 86.6406L42.3542 86.3897L42.3695 80.8398C42.3712 80.2064 42.3393 79.7063 42.2736 79.3395C42.208 78.956 42.1005 78.6557 41.9511 78.4386L41.6521 78.0878L41.953 77.7636L45.678 77.7739L45.8761 78.4494L45.4256 78.6232C44.892 78.7384 44.4999 78.879 44.2494 79.0449C43.999 79.1943 43.8234 79.4104 43.7227 79.6935C43.6219 79.9599 43.5708 80.3514 43.5694 80.8681L43.5661 82.0681C43.5646 82.6181 43.6636 82.985 43.8631 83.1689C44.0459 83.3361 44.4624 83.4206 45.1124 83.4223L50.7373 83.4379C51.3707 83.4396 51.8126 83.3575 52.063 83.1915C52.2969 83.0088 52.4895 82.6427 52.6411 82.0931L52.7923 81.6435L53.4916 81.8955L53.4791 86.4205L53.1284 86.6695ZM52.8073 76.1949L52.6587 75.7195C52.5101 75.2024 52.3194 74.8602 52.0865 74.6929C51.837 74.5089 51.3956 74.416 50.7623 74.4143L45.0123 74.3984C44.3789 74.3967 43.937 74.4871 43.6865 74.6697C43.4361 74.8357 43.2351 75.1768 43.0837 75.6931L42.9324 76.1677L42.2581 75.9158L42.2706 71.3908L42.5713 71.1167L42.9456 71.3927C43.4279 71.744 43.9272 71.9954 44.4435 72.1468C44.9431 72.2815 45.6179 72.3501 46.4679 72.3524L49.6429 72.3612L44.5081 66.872C44.0578 66.9541 43.7408 67.0865 43.557 67.2694C43.3732 67.4355 43.2224 67.7018 43.1047 68.0681L42.9535 68.5177L42.2791 68.3158L42.2917 63.7409L42.5924 63.4917L42.9667 63.7427C43.449 64.094 43.9484 64.3454 44.4646 64.4969C44.9642 64.6316 45.6391 64.7001 46.489 64.7024L50.939 64.7147C51.539 64.7164 51.9476 64.6342 52.1647 64.4681C52.3818 64.302 52.5745 63.9609 52.7425 63.4447L52.8687 63.02L53.5432 63.2219L53.529 68.3469L52.8285 68.545L52.6797 68.0945C52.5312 67.5608 52.3405 67.2103 52.1076 67.043C51.8581 66.8589 51.4167 66.7661 50.7834 66.7643L46.2084 66.7517L51.3433 72.2409C51.8101 72.1755 52.1354 72.0597 52.3192 71.8936C52.4864 71.7107 52.6205 71.4361 52.7215 71.0697L52.8477 70.62L53.5221 70.8469L53.508 75.9469L52.8073 76.1949ZM53.8898 55.367C53.8852 57.067 53.3481 58.4155 52.2787 59.4125C51.1926 60.4096 49.7412 60.9055 47.9245 60.9005C46.1079 60.8955 44.6759 60.3916 43.6287 59.3887C42.5648 58.3857 42.0352 57.0343 42.0399 55.3343C42.043 54.2176 42.2873 53.2433 42.773 52.4113C43.2586 51.5793 43.9437 50.9395 44.8283 50.4919C45.7128 50.0444 46.7551 49.8223 47.9551 49.8256C49.1551 49.8289 50.2045 50.0651 51.1032 50.5343C52.0019 50.9867 52.6918 51.6303 53.1729 52.465C53.6539 53.2997 53.8929 54.267 53.8898 55.367ZM52.6647 55.4136C52.6673 54.4636 52.2445 53.6958 51.3961 53.1101C50.5311 52.5077 49.3986 52.2046 47.9986 52.2007C47.2819 52.1987 46.565 52.2967 45.8477 52.4948C45.1139 52.6927 44.4963 53.0244 43.995 53.4897C43.4771 53.9382 43.2171 54.5292 43.2151 55.2625C43.2124 56.2458 43.6435 57.0387 44.5085 57.6411C45.3736 58.2268 46.5228 58.5217 47.9561 58.5256C49.3894 58.5296 50.5319 58.2577 51.3834 57.7101C52.2349 57.1457 52.662 56.3803 52.6647 55.4136ZM53.9258 42.3311C53.9229 43.3811 53.662 44.322 53.143 45.1539C52.6241 45.9858 51.9139 46.6422 51.0126 47.1231C50.1113 47.5872 49.1023 47.8178 47.9857 47.8147C46.7857 47.8114 45.7446 47.5835 44.8625 47.1311C43.9638 46.6786 43.2739 46.035 42.7929 45.2004C42.3118 44.3657 42.0728 43.3984 42.0759 42.2984C42.0791 41.1317 42.3651 40.1825 42.9337 39.4507C43.4858 38.7023 44.2035 38.3292 45.0868 38.3317C45.7368 38.3335 46.2696 38.5433 46.6851 38.9611C47.084 39.3789 47.2825 39.9127 47.2807 40.5627C47.2803 40.7127 47.2633 40.821 47.2298 40.8876C47.1963 40.9542 47.1378 40.9873 47.0545 40.9871C47.0045 40.987 46.8963 40.9367 46.7299 40.8362C46.5636 40.7191 46.3639 40.6185 46.1308 40.5346C45.881 40.4505 45.5644 40.408 45.1811 40.4069C44.5811 40.4053 44.1139 40.604 43.7795 41.0031C43.4284 41.3854 43.252 41.9016 43.2502 42.5516C43.2478 43.4183 43.6709 44.1195 44.5194 44.6551C45.3513 45.1741 46.4589 45.4355 47.8422 45.4393C49.2422 45.4432 50.3514 45.1379 51.1698 44.5235C51.9882 43.8924 52.3989 43.0435 52.4018 41.9769C52.4033 41.4269 52.3131 40.91 52.1311 40.4261C51.9491 39.9423 51.6588 39.4582 51.2601 38.9737C51.2268 38.9403 51.2104 38.8736 51.2106 38.7736C51.211 38.6402 51.2864 38.5155 51.4367 38.3992C51.5704 38.2662 51.7122 38.2 51.8622 38.2004C51.9789 38.2007 52.0372 38.2175 52.0371 38.2509C52.6523 38.7859 53.1256 39.4122 53.4569 40.1298C53.7716 40.8307 53.9279 41.5644 53.9258 42.3311ZM53.9576 30.8321C53.9547 31.8821 53.6937 32.8231 53.1748 33.655C52.6558 34.4869 51.9457 35.1432 51.0443 35.6241C50.143 36.0883 49.1341 36.3188 48.0174 36.3157C46.8174 36.3124 45.7764 36.0845 44.8943 35.6321C43.9955 35.1796 43.3056 34.5361 42.8246 33.7014C42.3436 32.8667 42.1046 31.8994 42.1076 30.7994C42.1108 29.6327 42.3968 28.6835 42.9655 27.9518C43.5175 27.2033 44.2352 26.8303 45.1186 26.8327C45.7686 26.8345 46.3013 27.0443 46.7168 27.4621C47.1157 27.8799 47.3142 28.4138 47.3124 29.0638C47.312 29.2138 47.295 29.322 47.2615 29.3886C47.228 29.4552 47.1696 29.4884 47.0863 29.4881C47.0363 29.488 46.9281 29.4377 46.7617 29.3372C46.5953 29.2201 46.3956 29.1196 46.1625 29.0356C45.9127 28.9516 45.5962 28.909 45.2129 28.908C44.6129 28.9063 44.1456 29.105 43.8112 29.5041C43.4601 29.8865 43.2837 30.4026 43.2819 31.0526C43.2795 31.9193 43.7026 32.6205 44.5511 33.1562C45.383 33.6751 46.4906 33.9365 47.874 33.9403C49.274 33.9442 50.3831 33.6389 51.2015 33.0245C52.0199 32.3934 52.4306 31.5446 52.4335 30.4779C52.4351 29.9279 52.3448 29.411 52.1628 28.9271C51.9808 28.4433 51.6905 27.9592 51.2918 27.4747C51.2586 27.4413 51.2421 27.3746 51.2424 27.2746C51.2428 27.1413 51.3181 27.0165 51.4684 26.9002C51.6021 26.7673 51.744 26.701 51.894 26.7014C52.0106 26.7017 52.0689 26.7185 52.0688 26.7519C52.684 27.2869 53.1573 27.9132 53.4886 28.6308C53.8034 29.3317 53.9597 30.0654 53.9576 30.8321ZM53.9895 19.2831C53.9848 20.9831 53.4477 22.3316 52.3783 23.3287C51.2922 24.3257 49.8408 24.8217 48.0242 24.8167C46.2075 24.8117 44.7755 24.3077 43.7283 23.3048C42.6644 22.3019 42.1348 20.9504 42.1395 19.2504C42.1426 18.1338 42.3869 17.1594 42.8726 16.3274C43.3582 15.4954 44.0433 14.8557 44.9279 14.4081C45.8124 13.9605 46.8547 13.7384 48.0547 13.7417C49.2547 13.745 50.3041 13.9813 51.2028 14.4504C52.1015 14.9029 52.7914 15.5465 53.2725 16.3811C53.7535 17.2158 53.9925 18.1831 53.9895 19.2831ZM52.7643 19.3297C52.7669 18.3798 52.3441 17.6119 51.4957 17.0262C50.6307 16.4238 49.4982 16.1207 48.0982 16.1169C47.3815 16.1149 46.6646 16.2129 45.9474 16.4109C45.2135 16.6089 44.5959 16.9405 44.0946 17.4058C43.5767 17.8544 43.3167 18.4453 43.3147 19.1787C43.312 20.162 43.7431 20.9549 44.6081 21.5572C45.4732 22.143 46.6224 22.4378 48.0557 22.4418C49.489 22.4457 50.6315 22.1739 51.483 21.6262C52.3345 21.0619 52.7617 20.2964 52.7643 19.3297Z" fill="#2B5ADC"/>
</svg>
