<svg width="96" height="133" viewBox="0 0 96 133" fill="none" xmlns="http://www.w3.org/2000/svg">
<path d="M13.7131 132.153L82.7484 132.088C89.7948 132.088 95.5098 126.438 95.5098 119.457L95.4124 12.7866C95.4124 5.80514 89.6974 0.1875 82.6185 0.1875L13.5832 0.252443C6.53681 0.252443 0.821777 5.90256 0.821777 12.884L0.919169 119.554C0.951641 126.503 6.6667 132.153 13.7131 132.153Z" fill="#FFDB13"/>
<path d="M79.24 3.66048C80.2141 2.78374 81.3506 2.00442 82.6495 1.41992C90.3453 4.99183 92.456 15.3504 88.2996 16.4544C87.7801 16.5843 87.293 16.6168 86.8384 16.5518C83.786 16.1297 82.5845 11.6486 82.5845 11.6486C82.5845 11.6486 80.9285 17.5585 76.8046 16.3895C73.3625 15.4153 74.3367 8.07666 79.24 3.66048Z" fill="#2B5ADC"/>
<path d="M16.2137 126.404C15.2395 127.281 14.103 128.06 12.8042 128.645C5.10831 125.073 2.99763 114.714 7.15403 113.61C7.67358 113.48 8.16066 113.448 8.61527 113.513C11.6676 113.935 12.8691 118.416 12.8691 118.416C12.8691 118.416 14.5252 112.506 18.6491 113.675C22.0911 114.649 21.0845 121.988 16.2137 126.404Z" fill="#2B5ADC"/>
<path d="M58.595 84.9079C55.4768 87.6831 51.8389 90.1499 47.6814 92C23.0478 80.6938 16.2917 47.9058 29.5959 44.4111C31.259 44 32.8181 43.8972 34.2732 44.1028C44.0435 45.439 47.8892 59.6231 47.8892 59.6231C47.8892 59.6231 53.1901 40.9165 66.3904 44.6167C77.408 47.7002 74.1858 70.9293 58.595 84.9079Z" fill="#2B5ADC"/>
</svg>
